<svg xmlns="http://www.w3.org/2000/svg" viewBox="0 0 703.59 716.72"><defs><style>.cls-1{fill:none;}.cls-2{opacity:0.85;}.cls-3{fill:#f1eae9;}.cls-4{fill:#f9f7f6;}.cls-5{fill:#e9dfdd;}.cls-6{fill:#d5c1bd;}.cls-7{fill:#ceb7b2;}.cls-8{fill:#e1d3d1;}.cls-9{fill:#dbcbc7;}.cls-10{fill:#c6aba6;}</style></defs><g id="Layer_2" data-name="Layer 2"><g id="Layer_1-2" data-name="Layer 1"><path class="cls-1" d="M690.09,341.32c13.57,176.28-153,388-338.69,353.11-192.3-36.18-361-203-333-371C47,152,167.06,39.13,354.39,14.46,544.4-10.57,676.4,163.43,690.09,341.32Z"/><g class="cls-2"><g class="cls-2"><path class="cls-3" d="M121,595.76c3.31,3.13,6.87,6.25,10.47,9.47s7.38,6.37,11.19,9.49l-1.48.6a34.72,34.72,0,0,0,3.53,3.1l4.75,3.59c5.87,4,3.58,1.3,4.72,1.52l6.47,4,6.53,3.88a497.89,497.89,0,0,0,52.75,31.86,485.37,485.37,0,0,0,51,23.05A470.51,470.51,0,0,0,331.36,705l7.87,1.8,7.9,1.63c1.3.29,2.66.52,4,.76l4.08.71c2.7.52,5.44.83,8.15,1.21a239.09,239.09,0,0,0,32.22,2,233.45,233.45,0,0,0,30.33-2.21c4.83-.6,9.49-1.49,14-2.31l6.65-1.41c2.19-.44,4.3-1,6.4-1.54,4.2-1,8.15-2.23,12-3.31,1.9-.58,3.74-1.2,5.55-1.78s3.57-1.15,5.25-1.78c3.39-1.24,6.61-2.35,9.56-3.58s5.74-2.28,8.24-3.42c10.09-4.35,16.5-7.81,18.59-8.9a325.36,325.36,0,0,0,32.08-19c1.32-.67,2.62-1.37,3.26-1.63.05.52.11,1,.17,1.58-12.25,8.07-19.75,12.74-26,16.88l-4.54,3c-1.48,1-3,1.86-4.54,2.8s-3.13,1.91-4.88,2.84-3.63,1.91-5.69,2.94-5.28,2.21-9.34,4-9.15,3.66-15.11,5.72c-2.94,1.1-6.18,2.05-9.56,3.16-1.68.57-3.46,1-5.26,1.57s-3.66,1.06-5.56,1.57c-7.64,2-16.05,3.89-25.15,5.36A261.53,261.53,0,0,1,403,716.52a238.42,238.42,0,0,1-31.86-.84L367,715.3l-4.11-.53c-2.75-.37-5.53-.68-8.28-1.19l-4.16-.71c-1.39-.24-2.78-.48-4.1-.76l-8-1.63c-10.72-2.31-21.49-5-32.15-8.12s-21.2-6.55-31.49-10.31-20.31-7.88-29.95-12.15-18.89-8.75-27.63-13.33-17-9.17-24.64-13.77a435.53,435.53,0,0,1-58.77-41.69c-6.33-5.44-12.5-11.12-18.57-16.86-1.53-2-2.91-3.84-4.21-5.63s-2.47-3.55-3.68-5.28c2.25,2.11,4.35,4.1,6.58,6.09S118.34,593.51,121,595.76Z"/><path class="cls-4" d="M154.15,623.53c-1.14-.22,1.15,2.48-4.72-1.52l-4.75-3.59a34.72,34.72,0,0,1-3.53-3.1l1.48-.6,2.79,2.21,2.94,2.24C150.34,620.66,152.29,622.2,154.15,623.53Z"/><path class="cls-3" d="M682,370.71c0-5-.06-8.59.07-11s.26-3.6.56-3.64c.57-.08,1.55,4.46,1.91,13.12-.08.69-.24,2.07-.33,2.76Z"/><path class="cls-4" d="M684.16,371.94c-.41-3.17-1-2.76-1.39-3.16s-.52-1.6-.35-8c.32.16.65,0,1,1.22S684.1,366,684.16,371.94Z"/><path class="cls-5" d="M643.46,218.81q-6.84-15.8-15.06-30.88a362.87,362.87,0,0,0-21.59-32c-1.09-2.39-2.49-5.42-4.06-8.35,2.44,2.18,1.58.25,0-2.71s-4-6.84-4.54-8.7q-8.69-11-18.29-21.13l1.25-.35c2.76,2.84,5,5.51,7.17,7.86s3.9,4.62,5.57,6.7,3.16,4.06,4.6,6,2.77,3.91,4.17,5.92c7.23,9.11,13.36,18.15,15.47,23.09a380.16,380.16,0,0,1,19.09,33.19c.93,1.95,1.88,3.87,2.78,5.85.76,3.23,1.57,6.43,2.17,9.67C642.62,215,643.1,216.88,643.46,218.81Z"/><path class="cls-3" d="M606.81,156c-1.22-1.74-2.56-3.63-3.89-5.51l-4-5.39c-4.24-6-8.93-12.25-13.35-17.71-2.2-2.75-4.33-5.28-6.2-7.56s-3.56-4.22-4.87-5.8a308.1,308.1,0,0,0-38.25-35.21A260.15,260.15,0,0,0,491.49,51a227.43,227.43,0,0,0-105.1-22.86c-4.5-.05-9,.14-13.56.31l-6.84.45c-2.29.15-4.58.43-6.89.63s-4.67.51-7.06.82l-7.2.92c-4.85.55-9.71,1.38-14.66,2.16A497.43,497.43,0,0,0,266.7,47.86l7.21-2.5c1.2-.43,2.42-.81,3.65-1.17l3.7-1.13,7.5-2.3,1.91-.58,1.94-.52,3.93-1c13.91-3.54,30.54-6.62,47.77-9.31,4.31-.61,8.7-1.32,13-1.9l6.41-.78c2.13-.25,4.27-.41,6.4-.63,8.52-.76,17-1.28,25.07-1.37a218.85,218.85,0,0,1,31.39,3,251.79,251.79,0,0,1,26,5.9c8.26,2.31,16.3,5,24.84,8.26S495,48.84,505,53.7c1.88,1,3.87,2.09,5.86,3.23l3,1.68,2.81,1.71c3.37,2.32,6.3,4.6,9.07,6.67l4,3.1c1.29,1,2.55,2,3.77,3,2.45,2,4.87,3.81,7.33,5.75l3.8,2.88c1.29,1,2.62,2,4,3l1.13-.5c5.43,4.56,10.24,8.75,15.33,13.67a1.51,1.51,0,0,0-.22.11c4.63,4.36,9.57,9.44,14.39,14.66.47.53,1.43,1.58,1.9,2.1l-1.25.35q9.63,10.13,18.29,21.13c.5,1.86,3,5.72,4.54,8.7s2.46,4.89,0,2.71C604.32,150.54,605.72,153.57,606.81,156Z"/><path class="cls-5" d="M548.62,84.68c-1.39-1-2.72-2-4-3l-3.8-2.88c-2.46-1.94-4.88-3.78-7.33-5.75-1.22-1-2.48-2-3.77-3l-4-3.1c-2.77-2.07-5.7-4.35-9.07-6.67a264.11,264.11,0,0,1,33.07,23.86Z"/><path class="cls-5" d="M505,53.7c-10-4.86-19-8.64-27.57-11.88s-16.58-6-24.84-8.26a251.79,251.79,0,0,0-26-5.9,218.85,218.85,0,0,0-31.39-3c-8.11.09-16.55.61-25.07,1.37-2.13.22-4.27.38-6.4.63l-6.41.78c-4.31.58-8.7,1.29-13,1.9-17.23,2.69-33.86,5.77-47.77,9.31l-3.93,1-1.94.52-1.91.58-7.5,2.3-3.7,1.13c-1.23.36-2.45.74-3.65,1.17l-7.21,2.5c-2.73.91-4.79,1.54-6.81,2.26-2,.24-3.92.46-6.57,1-1.62.74-3.31,1.48-5,2.2l-2.59,1.07-2.6,1.15c-3.48,1.52-7,3-10.41,4.39s-6.58,3-9.5,4.33c-1.46.69-2.85,1.35-4.13,2s-2.43,1.33-3.47,1.94l-9.22,4.49c-1.56.73-3.06,1.61-4.59,2.42l-4.57,2.48L192.63,80c-1.51.85-3,1.77-4.47,2.65l-8.8,5.28c-6,4.06-11.82,7.74-17.08,11.7l-3.95,2.85c-.66.47-1.31.93-2,1.4s-1.25,1-1.88,1.46l-7.29,5.71c-2.43,1.81-4.63,3.81-6.87,5.69s-4.46,3.73-6.59,5.62l-6.19,5.72-3,2.82c-1,.92-2,1.93-2.92,2.89-3.83,3.9-7.72,7.66-11.25,11.74l-5.43,6c-1.74,2.07-3.44,4.19-5.17,6.31A279,279,0,0,0,79.8,185.79c-3.6,5.44-7.9,11.87-11.9,19.28l-3.14,5.62-3,5.94c-1,2-2,4.05-3.05,6.1s-1.9,4.2-2.86,6.31c-7.7,17-14.11,35.25-19,50.56l-3.09,11.57-.77,2.9L32.31,297,31,302.84l-1,5.49c-.33,1.83-.54,3.69-.82,5.53q-.67,3.61-1.37,7.23l-.69,3.63-.56,3.57L26,331.87c-.18,1.19-.29,2.4-.44,3.59-.28,2.4-.6,4.8-.76,7.22a220.2,220.2,0,0,0-.6,29.07,235.38,235.38,0,0,0,9.92,57.3,11.52,11.52,0,0,0-.21,3.21c-.83-1.75-1.58-3.54-2.33-5.33s-1.55-3.58-2.23-5.39c-.73-3.14-1.53-6-2.17-8.71l-1-4.11c-.34-1.37-.61-2.76-.92-4.18-.8-3.92-1.37-7.87-2-11.8l-.74-5.93c-.27-2-.39-4-.59-5.94a218.26,218.26,0,0,1-.08-38.26c.09-1,.19-2.06.28-3.08l.39-3c.27-2,.46-4.05.82-6s.65-4,1-6l1.2-6c.39-2,.79-4,1.18-5.93s.76-3.95,1.26-5.89q1.39-5.85,2.78-11.67c.82-5.3,1.65-9.86,2.56-15.18.36-1.42.79-2.78,1.2-4.12s.83-2.68,1.25-4c.85-2.71,1.68-5.52,2.69-8.65,1.51-2.68,3.48-8.14,5.71-14.21l3.7-9.22c.63-1.53,1.22-3.05,1.88-4.48s1.33-2.78,2-4.06c1.3-3,2.64-6.27,4.06-9.45l4.46-9.26c1.77-3.55,4-7.08,6-10.69l3.11-5.35,3.24-5.09c2.68-4,4.78-7.08,6.78-9.54s3.56-4.52,5.1-6.48,3.07-3.8,4.76-6,3.52-4.79,5.88-8.07c3-3.51,5-6.16,6.83-8.73.47-.64.91-1.29,1.38-1.91l1.5-1.89c1-1.29,2.14-2.64,3.44-4.16l2.76-3c.84-.93,1.61-1.77,2.37-2.51,1.47-1.5,2.67-2.73,3.65-3.76,2-2.07,3.06-3.32,3.78-4.21a33.75,33.75,0,0,1,3.65-4.46q10.11-9.92,21-18.89l8.51-6.44L161.28,96c4.4-3.27,8.37-5.81,12.26-8.46,1.66-1.1,3.28-2.26,5-3.31l5.09-3.13C187,79,190.36,76.87,193.88,75c1.27-.45,1.93-.49,3.19-.86l6-3.52,6.12-3.29C216.55,63.48,224,60.23,231.35,57l11.12-4.51c1.84-.78,3.71-1.45,5.58-2.12l5.61-2c2.67-.48,4.62-.74,6.59-.93,8.92-2.73,12.56-4.15,14.68-5.13a55.46,55.46,0,0,1,5.57-2.41c4.2-1.18,9-2.7,13.29-3.68l3.52-.87L303.09,34l2.89-.65,2.92-.56,11.65-2.21c4.27-.87,8.57-1.56,12.86-2.35,2.15-.37,4.28-.8,6.44-1.11l6.48-.94c8.69-1.32,17.15-2.37,25.7-2.95,2.78,0,5.56,0,8.34,0s5.55.18,8.32.26c7.11,0,14.2.22,20.55.77a245.7,245.7,0,0,1,33.22,5.4A237.15,237.15,0,0,1,475,39.17a250.75,250.75,0,0,1,24.71,11.41C501.52,51.53,503.25,52.65,505,53.7Z"/><path class="cls-5" d="M461.81,12.79c-1.52-.36-2.37-.48-3.88-.84-20.53-4.69-36.35-6.89-51.16-7.4l-7-.76c-2.4-.29-4.8-.39-7-.59a166.16,166.16,0,0,0-18.5.7l-2.9.23-2.89.3-5.78.62c-3.37.29-6.95.57-10.48.94L341.87,7.17l7.69-3.63a313.17,313.17,0,0,1,33.12-3A287.88,287.88,0,0,1,416.53,2c3.07.34,5.46.47,7.79.57s4.58.28,7.37.54c3.51.46,6.53,1,9.26,1.55s5.15,1.24,7.49,1.9a138.41,138.41,0,0,1,14.29,5.31c-.08.09-.19.18-.24.23C462.27,12.32,462.05,12.56,461.81,12.79Z"/><path class="cls-6" d="M601.32,116.53c-2.71-2.82-5.56-5.49-7.92-7.63-7.39-7.62-13-12.73-18.2-17.48-2.66-2.32-5.15-4.63-7.89-6.93-1.36-1.16-2.73-2.39-4.2-3.61L558.47,77c-1.61-1.46-3.16-2.76-4.59-4l-2.09-1.8-2-1.64-3.69-3c-1.18-.92-2.32-1.74-3.41-2.55l-3.14-2.31c-1-.71-2-1.38-3-2-2-1.33-4-2.61-6.06-3.84l-.51.29c-1.7-1.08-3.37-2.22-5.1-3.25l-5.18-3.14c-3.51-2-7-4-10.58-5.88a32.31,32.31,0,0,1-2.78-2.05,254.79,254.79,0,0,0-35.44-15.55c-2.77-1-5.57-1.83-8.34-2.77l-8.4-2.5c-2.25-.43-4.48-.86-7.37-1.5l-6.52-1.37a256.46,256.46,0,0,0-28.64-3.74,48,48,0,0,0-14.87-1.75c-2.24.08-4.39.23-6.53.34s-4.27.31-6.46.29c-10.07.46-20,1.23-29,2.24l-12.8,1.64c-2,.27-3.92.47-5.75.77l-5.19.86c-4,.71-8.18,1.34-12.34,2.14l-12.3,2.51-3,.64-3,.74-5.93,1.48-5.92,1.48c-2,.49-3.92,1.1-5.89,1.65.92-1.17-4.56.21-11.33,2.07L261,34.73c-1.68.51-3.27,1-4.7,1.39s-2.69.82-3.72,1.07c-3.46,1-6.91,2.12-10.39,3.22-1.58.55-3.16,1.24-4.79,1.91l-5,2c-3.36,1.39-6.83,2.78-10.2,4.39-2.72,1.41-4.6,2.59-6.89,3.88-1.14.66-2.41,1.29-3.89,2.1s-3.23,1.69-5.38,2.7c-2.63.78-6,2-9.28,3.22-6.5,3.67-12.41,6.82-18.75,10.53l-5.73,3.52c-3.1,2.36-6.16,4.76-9.22,7.16-1.39.85-2.87,1.68-4.3,2.62l-4.38,2.88-4.5,3c-1.51,1-3.05,2-4.51,3.09-1.74,1.48-3.46,3-5.17,4.55l-4.6,3.65-4.44,3.85-4.44,3.85-2.22,1.93-2.14,2-8.54,8.1-8.17,8.48c-2.13,2.12-4.53,5-7,7.81l-.56-1.46c-1.43,1.37-3,2.91-4.62,4.61s-3.26,3.67-5,5.72-3.56,4.27-5.44,6.59-3.61,4.94-5.48,7.57c-.2-.42-.38-.76-.57-1.19l4.19-5.91c.7-1,1.46-2,2.21-3l2.18-2.81c6.1-7.68,10-12.19,12.92-15.9.72-.92,1.4-1.77,2-2.6l2-2.32c1.31-1.51,2.62-3,4.19-4.66l2.62-2.74c1.59-1.52,3.47-3,5.28-4.58l5.32-4.51,2.21-2,2.13-1.85c1.37-1.19,2.65-2.34,3.86-3.44s2.35-2.17,3.44-3.2c.54-.52,1.08-1,1.61-1.52l1.6-1.43,6.16-5.57L144,88.65c1.11-.92,2.27-1.84,3.48-2.8l6.12-4.51c1.08-.74,2.13-1.53,3.26-2.23L160.27,77l6.83-4.34c2.26-1.5,4.65-2.78,7-4.15l6.88-4c1-.6,2-1.19,3-1.77l3.19-1.8,6.28-3.51,2.12-1.11c.7-.35,1.4-.66,2.07-1l3.89-1.87,6.81-3.32c1-.53,2-1,3-1.42L214,47.43l4.67-2.21c5.55-2.76,8.75-4.28,10.86-5.38,3.49-1.37,6.94-2.7,9.75-3.69l13.94-4A135.3,135.3,0,0,0,268,27c1.9-.83,3.77-1.5,5.81-2.26s4.28-1.5,7-2.29c1.81-.47,3.56-1,5.29-1.37l5.19-1.16,10.5-2.35,10.19-1.6c3.52-.54,7.11-1.18,10.74-1.57,3.31-.56,5.6-1.2,8.15-1.86a57.51,57.51,0,0,1,9.77-1.77l13.66-.86c8.16-.75,9.22-1.15,10-1.56s1.38-1,8.61-1.57l7.18-.36,7.2-.14c0-.06.09-.17.14-.29,2.28-.08,4.74,0,7.21,0l3.67.06,3.53.17c1.89-.55,3-1.14,4.94-1.68,14.81.51,30.63,2.71,51.16,7.4l-1.75,1.86c1.34.54,1.92.89,3.25,1.44L464.57,17l4.57,1.7A22.12,22.12,0,0,1,464.3,18c-2-.43-4.22-1-6.57-1.56s-4.85-1.13-7.23-1.64a50.82,50.82,0,0,0-6.7-1,28.39,28.39,0,0,0-4.67.45c1.94.74,3.83,1.56,6.5,2.48,1.64.33,3.29.79,5,1.21s3.38.85,5.07,1.33c3.36,1,6.74,1.92,9.87,3,2,.66,4.09,1.23,6.09,1.94l6,2.08c3.93,1.49,7.86,2.94,11.7,4.6,7.71,3.24,15.29,6.79,22.81,10.87L516,43.88c1.14.62,2.18,1.15,3.17,1.63,2,1,3.76,1.85,5.82,2.92-.11-.51-1.54-1.72-3.55-3.2s-4.61-3.15-7-4.7-4.59-2.9-5.74-3.82-1.28-1.32.47-.92a312,312,0,0,1,29,18c7.88,5.49,14.6,10.58,21.6,16.28,1.36,1.12,2.68,2.29,4,3.47l3.93,3.52,3.85,3.62q1.93,1.8,3.8,3.67L579,88.08l3.66,3.8c2.48,2.51,4.81,5.15,7.21,7.73l3.77,4.15c1.26,1.38,2.51,2.77,3.71,4.19,1.48,2.35,3.33,5.32,5.2,8.3Z"/><path class="cls-7" d="M245.43,40.67c-3.85,1.41-7.78,3.14-11.74,4.81L227.78,48c-2,.82-3.83,1.78-5.7,2.65l-6.41,2.94-3.26,1.51-3.08,1.56-5.94,2.7c-2,1-4,1.86-5.83,2.88l-5.55,3-5.43,2.89c-1.82.93-3.52,2-5.28,3-3.16,1.91-6.68,4-9.88,6.13s-6.11,4.07-8.3,5.27l-3,1.92c-1,.65-1.92,1.34-2.87,2l-5.67,4c-3.82,2.6-7.41,5.51-11.22,8.45l-3.47,2.9c-1.17,1-2.25,2-3.38,3l-6.7,6.09,5.5-2.6a4.76,4.76,0,0,1,.13.57c2.35-1.45,4.14-2.4,5.92-3.36-1.61,1.72-3.22,3.37-5.39,5.51-1.65,1.48-3.48,3-5.25,4.65l-5.06,4.86-3.18,3.06-1.6,1.53c-.52.51-1,1.06-1.53,1.59l-6.12,6.4L107.79,135c-.82.65-1.57,1.37-2.35,2.07l-5.39,6.24c-.88,1-1.78,2-2.63,3.08l-2.5,3.18c-1.67,2.11-3.33,4.22-5,6.36l-1.27,1.6c-.39.56-.79,1.11-1.2,1.67L85,162.58c-.46.52-1.4,1.6-1.86,2.14-1.78,2.28-3.21,3.89-4.45,5.73l-7,11.46c-1.94,3.41-3.65,6.36-5.2,9-.76,1.33-1.54,2.55-2.19,3.79l-1.9,3.52-3.54,6.46c-1.71,1.65-3.56,4.9-5.41,8.38a85,85,0,0,0-4.62,10.11l-4.14,9.59c-1.33,3.29-2.54,6.62-3.75,9.77.54-.41,1.34-1.48,1.9-1.81,0,1-.26,2.7-.27,3.67-1.69,4.1-3,8.16-4.32,12.1q-1,3-2,5.87c-.62,2-1.16,3.93-1.75,5.88-2.45,9.61-4.64,17.17-6.13,24.67-1.12,4.2-2.43,9.08-3.54,13.24-.46,2.22-.76,4.65-1.14,7.05s-.73,4.82-1.07,7c-.28,1-.56,2.06-.86,3.18s-.54,2.31-.84,3.69c-1.1,6.49-1.75,13.79-2.23,20.36,0,2.6-.05,5-.08,7.45s.12,4.84.19,7.45c0,4.33,0,8.15.21,11.49.09,1.68.14,3.24.25,4.69s.22,2.79.32,4,.18,2.4.26,3.45.19,2,.27,2.91a42.92,42.92,0,0,1,.15,4.42c.47,2.9.89,5.8,1.4,8.69l.83,4.33c.26,1.45.55,2.89.88,4.31,1.07,2.3,2.11,4.64,3.31,6.88L28,422.91c.47,1.76,1,3.51,1.51,5.27l-2.18-.45c1,3.55,1.92,6.35,3,9.86.66,1.28,1.47,2.94,2.29,4.91s1.69,4.21,2.66,6.61,1.94,5,3,7.54c.53,1.29,1.08,2.59,1.62,3.89s1.15,2.55,1.72,3.81c.76.71,1.75,2.06,2.51,2.75,3.2,6.62,6.6,13.19,9.9,18.92,1.69,3.22,3.45,6.19,5.14,9.21s3.52,5.95,5.47,9c.86,1.22,1.38,1.81,2.26,3,2,3.09,4.13,6.1,6.23,9.2q1.63,2.28,3.3,4.58l1.66,2.3,1.72,2.27c4.53,6.11,9.42,12.08,14.39,18,2.72,2.68,5.42,5.41,8.22,8,.86,1.12,1.86,2.37,2.93,3.69l3.43,4c2,2.15,4.07,4.22,6.13,6.31s4.17,4.13,6.27,6.18C125.47,576,129.67,580,134,584c7.1,6.35,13.74,12.09,21.22,18l-1.19.53a132.13,132.13,0,0,1-21.49-18c-6.46-5.24-13.3-11.21-19.4-16.86,1.65,1.91,3.24,3.63,4.82,5.34s3.15,3.45,4.91,5.25c13.46,12,21.48,19,29.7,26.25,4.12,3.58,8.32,7.18,13.44,11.21,2.54,2,5.38,4.1,8.49,6.42,1.57,1.14,3.24,2.29,5,3.51s3.6,2.5,5.58,3.78a95.77,95.77,0,0,1-11-6.75c-4-2.76-7.93-5.55-10.6-7.18-3.64-2.62-7.18-5.37-10.74-8.07s-7-5.53-10.47-8.41-6.83-5.76-10.23-8.67-6.68-5.94-9.93-9c-2.33-2-5.12-4.53-7.86-7.12l-2.69.86c2.65,2.62,5.1,5.17,7.68,7.6l3.85,3.69c1.31,1.23,2.67,2.44,4,3.7,7,5.88,11.81,9.62,15.09,12.38a54.8,54.8,0,0,1,6.45,6.05c6.87,4.94,14.48,10.14,21.62,14.66,3.13,2.49,3.65,3.14,4,3.71s.52,1,3.07,3.06c1.86,1.27,3.75,2.51,6.27,4.12.4.3,1.79,1.25,4.05,2.75s5.42,3.51,9.37,5.92c7.88,4.88,18.95,11.34,32.48,18.23l5.18,2.61c1.76.89,3.58,1.73,5.41,2.62,3.66,1.8,7.5,3.51,11.42,5.31,7.89,3.49,16.25,7,25,10.35s17.9,6.53,27.29,9.45,19,5.58,28.73,7.94l7.3,1.7c2.44.55,4.88,1,7.32,1.56s4.93,1,7.41,1.41l3.73.67c1.24.21,2.49.36,3.73.54l3.73.51c1.23.18,2.47.35,3.71.45l7.41.73,7.34.44c2.43.16,4.86.13,7.26.2a234.63,234.63,0,0,0,52.44-5.2,257.23,257.23,0,0,0,36.65-10.69c8.88-3.37,14.22-5.8,15.2-6.14,1.76-.7,3.47-1.52,5.21-2.27s3.45-1.51,5.11-2.34c3.32-1.63,6.61-3.16,9.62-4.79l4.94-2.6,4.74-2.66c3.17-1.73,6.23-3.62,9.5-5.55A249.42,249.42,0,0,0,561.75,645c7.81-6.53,14.39-12.3,19.76-15.75-1.89,2.07-3.71,3.93-5.47,5.73s-3.43,3.55-5.18,5.23c-2.24,1.76-4.05,3.33-5.64,4.65s-2.85,2.46-3.92,3.46c-2.12,2-3.48,3.39-4.68,4.49-2,1.65-3.31,2.85-4.3,3.79s-1.65,1.61-2.26,2.25a32.17,32.17,0,0,1-5.79,5,325.36,325.36,0,0,1-32.08,19c-2.09.86-4.31,1.86-6.59,2.75l-6.66,2.58a17.33,17.33,0,0,0-3.3,1.18c-2.21.87-5.44,2.26-9.68,3.83a278.62,278.62,0,0,1-36.07,11.12,238.81,238.81,0,0,1-25.06,4.5,230.14,230.14,0,0,1-28.48,1.92,240.47,240.47,0,0,1-30.58-1.8L358,707.89l-7.8-1.4c-5.11-1-10.16-2.06-15.22-3.27a466.59,466.59,0,0,1-58.6-17.78c-9.21-3.47-18-7.14-26.36-10.82s-16.12-7.48-23.3-11.14a451.13,451.13,0,0,1-49.95-29.55c-7.55-5.42-9.64-6.64-11.29-7.3s-2.79-.83-8.15-4.58c-5.71-3.94-11.88-8.53-18-13.22-2.35-2-5.33-4.33-8.19-6.81-6.36-5.43-13-11.63-19-17.41a56.71,56.71,0,0,0-5-6.92c-1-1.22-2.16-2.52-3.51-3.94s-2.9-3-4.66-4.76l-3.76-4.16-3.62-4.19c-2.41-2.74-4.62-5.53-6.73-8.13,3,2.75,5.47,5,8.54,7.6,1.27,1.39,2.53,2.81,3.82,4.18l3.9,4.12c8.62,7.22,5.63,3.2,4.79,1.39-2.44-2.37-4.89-5-7.4-7.55s-4.92-5.24-7.21-7.78A389.24,389.24,0,0,1,66.5,523.25c-1.64-2.47-2.39-3.75-4-6.23-1.13-1.86-2.29-3.93-3.47-6s-2.37-4.11-3.4-6c-5.38-8.27-8.74-13.56-10.69-15.53-3.72-7.28-7.28-14.67-10.74-22.93-1.45-2.42-2.89-5.42-4.44-8.74-.78-1.66-1.48-3.44-2.23-5.27s-1.49-3.73-2.15-5.71c-1.55-4.94-2.6-9.18-3.85-14.18a245.53,245.53,0,0,1-6.91-24.44c-.47-2.94-1-5.88-1.32-8.85l-.57-4.44-.44-4.45c-.46-3.91-.69-6.57-1-8.53s-.6-3.21-.83-4.34-.5-2.12-.74-3.55a41.06,41.06,0,0,1-.57-6.16,222.46,222.46,0,0,1,1-25.7c.8,4.54,1.85,9,2.85,13.44A132.14,132.14,0,0,1,14.1,335c.22-1.57.41-3.12.69-4.64l.9-4.57c.57-3,1.44-6,2.27-9.14.85-4.39,1.72-9.54,2.78-13.87.4-2.26.84-4.49,1.4-7.47.77-3.22,1.78-6.57,2.8-10l1.54-5.2c.53-1.75,1-3.51,1.63-5.24-.32-.32-.6-.58-.88-.85.79-2.95,1.54-5.7,2.31-8.54l1.2-4.36c.48-1.48,1-3,1.49-4.63-.2-.21.7-2.89,2-6.67l1.08-3c.39-1.06.85-2.14,1.3-3.27.9-2.24,1.83-4.58,2.71-6.87-.26-.28-.56-.63-.81-.94l1.63-4.24L42,227.29l3.57-8.35c1.21-2.77,2.58-5.47,3.86-8.22l2-4.11c.64-1.38,1.29-2.75,2-4.09L59,193.14c.9-1.54,1.89-3,2.85-4.45l2.81-4.22,2.74-4.92c.88-1.62,1.89-3.14,2.82-4.7,1.91-3.1,3.78-6.24,5.83-9.46,7.16-9.51,14.48-18.94,22.55-27.72,2.48-2.8,4.88-5.69,7-7.81l8.17-8.48,8.54-8.1,2.14-2,2.22-1.93,4.44-3.85,4.44-3.85,4.6-3.65c1.71-1.53,3.43-3.07,5.17-4.55,1.46-1.1,3-2.09,4.51-3.09l4.5-3,4.38-2.88c1.43-.94,2.91-1.77,4.3-2.62,3.06-2.4,6.12-4.8,9.22-7.16L178,71.18c6.34-3.71,12.25-6.86,18.75-10.53,3.29-1.27,6.65-2.44,9.28-3.22,2.33-1.3,4.48-2.52,6.51-3.61l5.75-2.88,5-2.47c1.56-.76,3-1.48,4.43-2.06l7.62-3.25,3.42-1.43c1.12-.47,2.23-.92,3.37-1.32,3.48-1.1,6.93-2.19,10.39-3.22C249.69,38.54,247.57,39.57,245.43,40.67Z"/><path class="cls-5" d="M213.11,45.29c-4.19,2.37-7.05,4.44-9.93,6.31-1.44.93-2.88,1.84-4.46,2.77l-5.27,3-6.28,3.51L184,62.71c-1.06.58-2.08,1.17-3,1.77,0-.66-.06-1.25-.09-1.91,4.27-2.56,8.44-5,12.58-7.39,1-.62,2.08-1.19,3.14-1.75l3.2-1.71,6.5-3.49C209,47,211.05,46.19,213.11,45.29Z"/><path class="cls-8" d="M99.16,129.52l-6,6.88-3,3.43-2.85,3.56-5.65,7.27c-1.86,2.44-3.58,5-5.37,7.47l-2.66,3.75-1.33,1.88L71,165.69l-5,7.71L64.28,176c-.57.9-1.11,1.82-1.68,2.74l-3.38,5.58c-1.12,1.88-2.3,3.72-3.35,5.6l-3.07,5.59-3,5.49c-.52.91-1,1.84-1.45,2.78l-1.39,2.8-2.79,5.62c-.92,1.87-1.89,3.72-2.71,5.64l-6.37,8.18c-1.34,3.27-2.45,6.84-3.71,10.45s-2.58,7.3-3.64,11.06c-.66,3.26-1.57,7.22-2.48,11.2-1.12,3.62-2.19,7.05-3.25,10.48l-1.6,5.17c-.47,1.76-.94,3.54-1.43,5.37l-1.22,3.43q-.66,2.82-1.35,5.65c-.45,1.89-.79,3.81-1.19,5.73q-1.15,5.77-2.33,11.62c-1.26,7.86-2.71,15.68-3.62,23.88-.4,1.37-.64,2-1,3.42a221,221,0,0,0-2.47,28.77c.13,2,.31,3.93.46,5.84L6.49,371l.33,2.82c.23,1.88.43,3.76.69,5.66s.59,3.81.9,5.78a240.69,240.69,0,0,0,1.82,25.1C8.05,402.58,6.39,394.7,5,387.49a242.8,242.8,0,0,1-.83-26.12,232.51,232.51,0,0,1,2.39-37.63l.36-2.3.42-2.24.84-4.48c.56-3,1.13-6,1.69-9,.51-4,.86-7.26,1.4-11.24.43-1.86.84-3.68,1.25-5.47s1-3.51,1.43-5.26c1-3.47,2-6.92,3.07-10.5s2.27-7.06,3.37-10.49c.56-1.7,1.09-3.42,1.69-5.14s1.28-3.45,1.93-5.23c1.7-4.66,3.22-9.16,5.1-13.54.9-2.2,1.79-4.4,2.7-6.62.45-1.12.91-2.23,1.37-3.36l1.52-3.36c2.54-5.52,5-11.1,7.83-16.5l4.14-8.16,4.46-8a348.83,348.83,0,0,1,44.57-63.22c.56-.46,1.6-1.49,2.64-2.58Z"/><path class="cls-5" d="M85.52,147.82l-2.18,2.81c-.75,1-1.51,1.94-2.21,3l-4.19,5.91C73.11,164,69.61,168.7,66,173.4l5-7.71,1.25-1.93,1.33-1.88,2.66-3.75c1.79-2.49,3.51-5,5.37-7.47l5.65-7.27C88.06,143.54,83.87,149.06,85.52,147.82Z"/><path class="cls-5" d="M76.08,165.39c-2,3.22-3.92,6.36-5.83,9.46-.93,1.56-1.94,3.08-2.82,4.7l-2.74,4.92-2.81,4.22c-1,1.44-2,2.91-2.85,4.45l-5.65,9.38c-.73,1.34-1.38,2.71-2,4.09l-2,4.11c-1.28,2.75-2.65,5.45-3.86,8.22L42,227.29l-1.79,4.16-1.63,4.24-2.62,6.12c-.86,2-1.79,4.07-2.54,6.15l-4.75,12.46-4.27,12.63c-.74,2.1-1.34,4.24-2,6.37l-1.89,6.4a35,35,0,0,0,.49-4.08l1.59-6.15c.57-2.07,1.22-4.15,1.84-6.24l1.85-6.23c.31-1,.62-2.06.92-3.08s.69-2,1-3c3.24-10.18,7.12-20.92,11.28-30.75,2.3-4.67,4.55-9.54,7.2-14.23,1.28-2.36,2.55-4.73,3.82-7.07.61-1.18,1.29-2.32,2-3.45s1.35-2.25,2-3.37l4.41-7.83,4.73-7.66c3.05-5.17,6.56-10.05,9.9-15C75.88,165,76,165.22,76.08,165.39Z"/><path class="cls-5" d="M39.1,225.8c-2.3,4.72-4.27,9.79-6.39,14.8-.52,1.25-1,2.51-1.57,3.76s-.94,2.54-1.42,3.8c-.94,2.53-1.86,5-2.78,7.5-.68,1.24-1.32,2.53-1.71,3.11.91-4,1.82-7.94,2.48-11.2,1.06-3.76,2.42-7.43,3.64-11.06s2.37-7.18,3.71-10.45l6.37-8.18C40.43,221,39.79,223.41,39.1,225.8Z"/><path class="cls-5" d="M14.65,408.18a245.53,245.53,0,0,0,6.91,24.44c1.25,5,2.3,9.24,3.85,14.18.66,2,1.41,3.87,2.15,5.71s1.45,3.61,2.23,5.27c1.55,3.32,3,6.32,4.44,8.74,3.46,8.26,7,15.65,10.74,22.93,2,2,5.31,7.26,10.69,15.53,1,1.94,2.22,4,3.4,6s2.34,4.13,3.47,6c1.58,2.48,2.33,3.76,4,6.23l-.92.11a194.85,194.85,0,0,1-22.29-32.82,265.79,265.79,0,0,1-18.16-41.07Q20,437.59,16,425.22c-.86-3.33-1.74-6.61-2.43-9.91-.36-1.65-.75-3.29-1.08-4.93s-.63-3.29-1-4.94L11.06,403l-.39-2.48c-.26-1.66-.52-3.32-.79-5s-.43-3.35-.64-5-.45-3.39-.59-5.11l.3.12c.34,2,.84,3.92,1.25,5.82s.83,3.78,1.34,5.64,1,3.71,1.46,5.59Z"/><path class="cls-5" d="M51.79,473.77h.58c3,5.14,6,10.22,9.22,15.18,2.15,3.76,4.81,8.05,7.1,11.72a36.9,36.9,0,0,0,3.52,4.64c.64.82,1.51,2,2.89,3.91l6,8.66c1.24,1.77,2.56,3.5,4.31,5.8,2.33,3.2,4.81,6.29,7.22,9.42s5,6.17,7.56,9.16l3.09,4.21,3.18,4.15c2.17,2.45,4.59,4.92,7,7.43s4.84,4.93,7.15,7.26a420.14,420.14,0,0,0,32,27.86c8.8,7.42,18,14.47,27.39,21.18A498.28,498.28,0,0,0,225,641.88c6.58,3.49,13.71,7.19,21.36,10.77,3.8,1.85,7.78,3.58,11.8,5.42s8.2,3.55,12.46,5.24c8.5,3.46,17.36,6.78,26.47,9.81s18.42,5.9,27.85,8.37,18.93,4.66,28.33,6.5a217.2,217.2,0,0,0,27.58,3.46c2.26.1,4.5.31,6.72.31l6.61.11c4.36-.09,8.64-.12,12.8-.44s8.22-.69,12.15-1.06c3.91-.56,7.71-1,11.34-1.67a228.93,228.93,0,0,0,35.23-9c2.17-.7,4.1-1.47,5.83-2.08s3.25-1.17,4.5-1.7l4.68-1.91c1.69-.69,3.33-1.51,5-2.28s3.33-1.56,5-2.41a288.36,288.36,0,0,0,50.48-29.55c.1.64.2,1.23.31,1.86a314.51,314.51,0,0,1-32,20.93c-8.34,4.48-16.85,8.62-25.59,12.25-.46.24-2,.87-4.46,1.87l-4.38,1.76-5.75,2.1a230.28,230.28,0,0,1-58.39,12.61,232.58,232.58,0,0,1-26.18.48,211.92,211.92,0,0,1-27.7-3c-9.34-1.61-18.91-3.75-28.31-6.14s-18.77-5.07-27.87-8-18-6.15-26.5-9.48-16.65-6.85-24.3-10.36-14.83-7-21.38-10.51c-13.15-6.86-23.92-13.27-31.61-18.07s-12.36-7.94-13.22-8.49l-4.17-3.3L175.59,613c-8.06-5.68-16-11.59-23.64-17.78s-15.13-12.65-22.37-19.34c-1.76-1.78-3.43-3.4-5-5.09l-4.89-5.18c-1.78-1.48-3.5-3-5.21-4.46-1.82-1.81-3.41-3.57-5-5.22s-3.06-3.25-4.52-4.88c-7.86-8.62-15.75-18.15-22.3-26.86-5.06-6.68-9.84-13.36-14.31-20.23s-8.79-13.85-12.81-21.2c-1.07-1.89-2.05-3.82-3.05-5.75C51.13,473.75,51.46,473.76,51.79,473.77Z"/><path class="cls-7" d="M558.5,630c-.12-.5-.23-1-.35-1.52l3.33-3,3.26-3.07,3.24-3.08,3.16-3.18q12.84-12,24.46-25.29c2.75-2.85,5.49-6,8.27-9,1.38-1.55,2.71-3.14,4.06-4.7s2.66-3.11,3.91-4.66a34.53,34.53,0,0,0,4.07-6.76,27,27,0,0,1,1.71-2.94c.86-1.3,2.13-3,4-5.68,3.2-4.38,3.63-4.29,4.1-4.43s1-.48,4.44-5.79c1.36-1.93,2.43-3.69,3.45-5.35s1.94-3.24,2.82-4.9c1.79-3.31,3.67-6.81,6.31-11.69-.23-.31-.47-.69-.69-1,3.76-7.28,7.4-14.6,10.7-22,1.62-3.31,3.08-6.66,4.59-10,3.4-8.2,6.82-17.17,9.82-26.32l-.18-.19,1.9-6.92c.64-2.36,1.19-4.75,1.74-6.94A248.65,248.65,0,0,0,678.23,421c.82-2.64,1.57-4.57,2.18-6.54.16,5.07.08,10.87,0,16a43.63,43.63,0,0,0,.12,4.46c-.23,1.55-.27,2.41-.49,4-.8,3.68-1.58,6.6-2.54,10.22s-2.26,6.76-3.38,10-2.36,6.51-3.74,9.88c-1,1.79-2,3.58-3.37,6-2.76,7.75-5.71,15.41-9,22.94q-6.32,12.71-13.46,24.9c-.59,3.87-.24,4.42.11,5-1.35,2.76-2.34,4.87-3.39,6.93q-1.74,2.81-3.21,5.2l-2.79,4.34c-1.65,2.66-3,4.79-4.09,6.53-2.1,3.49-2.95,5.38-2.82,6.34-7.23,11.73-10.67,17-16.24,24a166,166,0,0,1-16.58,18.23l-5,4.62c-1.59,1.46-3.22,3-5.16,4.95q-6.4,5.91-13.05,11.48a276.44,276.44,0,0,1-24.39,20.25c1.74-1.64,3.55-3.47,5.36-5.28l2.69-2.7C556.84,631.78,557.68,630.88,558.5,630Z"/><path class="cls-5" d="M570.8,615c1.1-1.48,2.54-3.13,4.13-5s3.49-3.7,5.39-5.76c3.87-4,8.15-8.43,12.09-12.64,2.48-4.4,9.69-12.35,13.35-16.8,5.38-7.76,11.6-16.64,16.72-24.29,2.51-3.85,4.87-7.31,6.69-10.18l4.06-6.21c-.68,2.55-1.51,5-2.3,7.48-1.54,2.5-3.15,5-4.77,7.39s-3.25,4.87-4.93,7.28c-2.25,3.33-4.78,6.7-7.24,10.11s-5,6.73-7.6,9.85c-2.65,3.58-5.93,7.54-8.71,11l-2.08,3.59Q584,604.14,571.14,616.18C571,615.62,570.9,615.3,570.8,615Z"/><path class="cls-5" d="M642.76,563.12c-2.07,3.34-1.94,3.63-2.9,5.3a48.28,48.28,0,0,1-2.73,4.07c-1.54,2-3.71,5-7.22,9.18,2.36-3.09,4.42-6.16,6.58-9.16S640.64,566.38,642.76,563.12Z"/><path class="cls-5" d="M645.18,512.31c7-14.66,11.15-25.84,11.58-30.3.84-2,1.62-4.27,2.46-6.49.4-1.11.81-2.23,1.21-3.32s.74-2.19,1.1-3.23c2.55-6.78,4.75-13.65,6.67-19.84-.14-.14-.28-.26-.42-.41.86-2.74,1.64-5.56,2.41-8.31s1.35-5.45,1.93-7.94A86.72,86.72,0,0,0,674,420.89c2.15-12.19,3.81-17.23,5.25-26.33a37.53,37.53,0,0,0,3.13-5.62C681.44,399.87,680,410,678,420.85l.2.16a248.65,248.65,0,0,1-7.57,30.51c-.55,2.19-1.1,4.58-1.74,6.94l-1.9,6.92c-3.08,7.19-6.53,15-10,21.91-2.63,6-2.65,6.52-2.51,7.08a2.5,2.5,0,0,1-.1,1.45,36,36,0,0,1-2.12,5.32c-1.12,1.77-2.26,3.72-3.49,5.62Z"/><path class="cls-3" d="M629.88,156.93c-3.59-5.69-7.82-11.83-12.1-17.92-.33.05-.65.1-1,.13-2-2-.8-.23.79,2.37s3.55,6,3.3,7l-4.95-7.29c-1.71-2.38-3.39-4.8-5.14-7.17-1.88-3-3.78-6-5.45-9-3.65-5.31-8-11-12-16.15,2.36,2.14,5.21,4.81,7.92,7.63,6.12,7.44,11.53,14.51,17,22.41l1.88-.23c4.2,6.14,8.33,12.34,11.79,18.08,1.09,1.56,2.42,3.64,3.83,5.94l2.18,3.56,2.12,3.73c.69,1.24,1.37,2.46,2,3.64s1.18,2.33,1.68,3.38a35.24,35.24,0,0,1,2.1,5c1.56,5.25-6.05-9.89-7.08-9.81-1.45-2.58-2.88-5.17-4.4-7.71l-2.25-3.83Z"/><path class="cls-3" d="M597.39,108c-1.2-1.42-2.45-2.81-3.71-4.19l-3.77-4.15c-2.4-2.58-4.73-5.22-7.21-7.73L579,88.08l-3.76-3.71q-1.86-1.87-3.8-3.67l-3.85-3.62-3.93-3.52c-1.31-1.18-2.63-2.35-4-3.47-1.21-.92-2.51-1.82-3.21-2.24a275.26,275.26,0,0,0-32.07-23c-6.6-3.73-6.92-5.14-15.31-9.09-1.64-1.28-3.38-2.5-5.71-4.11a174.65,174.65,0,0,1,25.77,12.91A278.09,278.09,0,0,1,557.07,64l6.58,5.91c2.13,2,4.3,4,6.4,6.1,4.14,3.45,10.66,9,13.21,12.44-3.72-2.71-1.42-.28,2.1,3.24s8.09,8.35,9.16,10.15c2,2.9,3.77,5.91,5.09,8.32Z"/><path class="cls-3" d="M462.73,11.85a138.41,138.41,0,0,0-14.29-5.31c-2.34-.66-4.77-1.3-7.49-1.9s-5.75-1.09-9.26-1.55c-2.79-.26-5.05-.38-7.37-.54s-4.72-.23-7.79-.57c3.07.34,5.46.47,7.79.57s4.58.28,7.37.54c3.51.46,6.53,1,9.26,1.55s5.15,1.24,7.49,1.9A138.41,138.41,0,0,1,462.73,11.85Z"/><path class="cls-3" d="M462.49,12.08c.05-.05.16-.14.24-.23C462.65,11.94,462.54,12,462.49,12.08Z"/><path class="cls-3" d="M349.56,3.54l-7.69,3.63L336.31,8c-1.84.27-3.65.62-5.47.92l-10.78,1.86c-3.57.61-7.08,1.43-10.6,2.13L304.2,14l-2.64.55-2.61.64a169.27,169.27,0,0,0-22.71,5.05l-6.42,1.87c-2.11.61-4.12,1.38-6,2-3.84,1.37-7.25,2.66-9.81,3.73-7.53,2.85-12.17,4.83-15.67,6.29s-5.74,2.68-8.54,3.83l-4.21,1.73c-1.4.57-2.8,1.16-4.17,1.81l-8.27,3.8c-2.06.9-4.15,1.66-6.84,2.94a373.48,373.48,0,0,0-53.06,30l-7.4,5.39-3.69,2.7-3.58,2.84-7.16,5.7c-2.38,1.92-4.64,4-7,6A361.66,361.66,0,0,0,98.3,127.08c-1,1.09-2.08,2.12-2.64,2.58a348.83,348.83,0,0,0-44.57,63.22l-4.46,8-4.14,8.16c-2.86,5.4-5.29,11-7.83,16.5l-1.52,3.36c-.46,1.13-.92,2.24-1.37,3.36-.91,2.22-1.8,4.42-2.7,6.62-1.88,4.38-3.4,8.88-5.1,13.54-.65,1.78-1.29,3.51-1.93,5.23s-1.13,3.44-1.69,5.14c-1.1,3.43-2.2,6.87-3.37,10.49s-2.1,7-3.07,10.5c-.47,1.75-.95,3.49-1.43,5.26s-.82,3.61-1.25,5.47c-.54,4-.89,7.25-1.4,11.24-.56,3-1.13,6-1.69,9L7.3,319.2l-.42,2.24-.36,2.3a232.51,232.51,0,0,0-2.39,37.63A242.8,242.8,0,0,0,5,387.49c1.43,7.21,3.09,15.09,5.27,22.85.64,3,1.41,6.05,2.13,9.08s1.61,6,2.51,9a275,275,0,0,0,9.29,27.68c.89,2.6,1.85,4.94,2.7,7.13l1.24,3.15c.42,1,.83,1.95,1.21,2.86.79,1.83,1.5,3.51,2.18,5s1.37,2.9,2,4.17c1.19,2.56,2.27,4.62,3.23,6.39s1.79,3.28,2.62,4.63a359.44,359.44,0,0,0,32.11,49.25c4.52,6.69,9.23,13.35,14.18,19.8A217.21,217.21,0,0,1,61.74,529.9c-1-1.23-2-2.42-3-3.6l-2.9-3.62c-2-2.42-3.91-5-6.08-7.89-6-9.1-12.17-20.49-17.63-28.84a14,14,0,0,1-1.52-4.24c-.05-.66.2-.8.3-1.18s0-1-.6-2.61c-.31-.81-.79-1.86-1.44-3.26s-1.45-3.18-2.52-5.39c-2.61-6.38-1.16-1.48-3.41-6.48a282.94,282.94,0,0,1-12.35-35.4c-.84-3.41-1.42-6-1.78-8.34s-.64-4.36-1-6.59c-.61-3.07-1.16-5.95-1.71-8.93s-1-6.06-1.45-9.54l-1.78-.71.31,2.9c.12,1,.25,1.92.38,2.88.27,1.91.5,3.81.79,5.68.64,3.73,1.17,7.39,1.89,10.79a24.12,24.12,0,0,1-2.34-4.33c-.44-2.33-.85-4.46-1.23-6.46s-.62-3.86-.9-5.62c-.6-3.51-.9-6.67-1.32-9.81-.14-3.05-.14-6.11-.21-9.15s.08-6.09.18-9.12a200.77,200.77,0,0,1,1.39-39.53c.09-.78.18-1.55.28-2.32s.22-1.52.34-2.27c.22-1.5.43-3,.64-4.39s.44-2.79.66-4.1.42-2.57.62-3.8c.39-2.45.7-4.73.93-6.8s.37-3.93.49-5.52c1.25-4.53,2.35-9,3.35-13.44s2.17-8.76,3.1-13.06c.23-1.08.47-2.15.69-3.22s.52-2.12.77-3.17c.49-2.11,1-4.21,1.47-6.28s.91-4.16,1.36-6.2L18,250.88l2.23-6.31,1.11-3.16,1.23-3.12c1.66-4.15,3.28-8.31,5-12.44L33,213.59l.69-1.53.74-1.51,1.49-3,3-6a368.54,368.54,0,0,1,27.86-46l4-5.43,2-2.72,1-1.36,1-1.31,8.42-10.52,8.86-10.14c1.45-1.72,3.06-3.29,4.59-4.93l4.65-4.87A362.65,362.65,0,0,1,141.7,78.79l5.4-4c1.81-1.31,3.57-2.7,5.45-3.91l11.12-7.51,11.41-7c1.89-1.21,3.84-2.27,5.79-3.37l5.84-3.27A426.83,426.83,0,0,1,235,27.08a488.29,488.29,0,0,1,50.53-16.34l12.85-3.21c4.29-1,8.62-1.87,12.92-2.81,2.16-.44,4.31-.95,6.47-1.34l6.5-1.16,6.5-1.16,3.25-.58L337.31,0a10.38,10.38,0,0,0,3.14,1.24l-5.73,1.09c-1.71.39-3.24.76-4.6,1.1-2.71.69-4.73,1.27-6.17,1.77-2.88,1-3.44,1.63-2.52,2.05C328.12,6.13,335.55,4.82,343,4c1.61-.52,3.41-1.08,5.3-1.64s3.85-1.16,5.92-1.62l7.19-.34c2.36-.06,4.71-.07,7.05-.11s4.67,0,7,0,4.73.06,7.16.2A313.17,313.17,0,0,0,349.56,3.54Z"/><path class="cls-3" d="M215.59,68.14c1-.61,2.18-1.32,3.47-1.94s2.67-1.3,4.13-2c2.92-1.35,6.12-2.86,9.5-4.33s6.93-2.87,10.41-4.39l2.6-1.15,2.59-1.07c1.72-.72,3.41-1.46,5-2.2,2.65-.49,4.6-.71,6.57-1-4.2,1.46-7.79,2.86-11.15,4.23l-2.47,1-2.39,1.1-4.74,2.17c-3.19,1.45-6.56,2.78-10.32,4.43-1.89.8-3.91,1.61-6.11,2.43S218.12,67.13,215.59,68.14Z"/><path class="cls-3" d="M29.88,317.68c-.26,1.54-.53,3.16-.82,4.87-.14.85-.29,1.71-.45,2.6s-.24,1.76-.36,2.67c-.24,1.81-.55,3.67-.78,5.61s-.43,3.93-.65,6a231.32,231.32,0,0,0-1,26.26,218.82,218.82,0,0,0,2.21,27A207.51,207.51,0,0,0,33,416.44,57.26,57.26,0,0,1,34.69,422c.46,1.59.77,3,1.06,4.38a60.93,60.93,0,0,0,2.44,9.21c.93,3,1.82,5.69,2.64,8.3s1.76,5.08,2.72,7.73l1.39,3.31c.88,1.83,1.78,3.74,2.82,5.84s2.08,4.45,3.38,7.1l2,4.28L55.55,477c.82,1.75,1.76,3.6,2.77,5.58s2,4.13,3.27,6.38c-3.23-5-6.27-10-9.22-15.18h-.58a272.82,272.82,0,0,1-12.13-28.38c-1-2.69-1.93-5.42-2.91-8.12s-1.78-5.47-2.62-8.22a235.38,235.38,0,0,1-9.92-57.3,220.2,220.2,0,0,1,.6-29.07c.16-2.42.48-4.82.76-7.22.15-1.19.26-2.4.44-3.59l.55-3.58.56-3.57.69-3.63q.69-3.61,1.37-7.23c.28-1.84.49-3.7.82-5.53l1-5.49L32.31,297l.66-2.92.77-2.9,3.09-11.57c4.93-15.31,11.34-33.61,19-50.56,1-2.11,1.86-4.25,2.86-6.31s2-4.09,3.05-6.1l3-5.94,3.14-5.62c4-7.41,8.3-13.84,11.9-19.28a279,279,0,0,1,19.94-27.92c1.73-2.12,3.43-4.24,5.17-6.31l5.43-6c3.53-4.08,7.42-7.84,11.25-11.74,1-1,1.9-2,2.92-2.89l3-2.82,6.19-5.72c2.13-1.89,4.36-3.72,6.59-5.62s4.44-3.88,6.87-5.69l7.29-5.71c.63-.49,1.24-1,1.88-1.46s1.29-.93,2-1.4l3.95-2.85c5.26-4,11.08-7.64,17.08-11.7A369.94,369.94,0,0,0,132.2,125.3a335.81,335.81,0,0,0-36.7,40.37A316.17,316.17,0,0,0,66,211.74a324.09,324.09,0,0,0-22.92,56c-1.13,3.37-2.46,8.36-3.61,12.48s-1.92,7.46-2.5,7.37c-.69,2.61-1.44,5.16-2.08,7.7s-1.19,5.07-1.78,7.56-1.21,5-1.75,7.43S30.37,315.21,29.88,317.68Z"/><path class="cls-3" d="M68.69,500.66a36.9,36.9,0,0,0,3.52,4.64c.64.82,1.51,2,2.89,3.91l6,8.66-6-8.66c-1.38-1.94-2.25-3.09-2.89-3.91A36.9,36.9,0,0,1,68.69,500.66Z"/><path class="cls-3" d="M100.17,542.25c-2.61-3-5-6.1-7.56-9.16s-4.89-6.22-7.22-9.42c2.33,3.2,4.81,6.29,7.22,9.42S97.56,539.26,100.17,542.25Z"/><path class="cls-3" d="M490.69,669.37a228.67,228.67,0,0,0,25.08-14c3.57-2.21,6.78-4.53,9.9-6.64l4.45-3.27c1.46-1.06,2.88-2.11,4.23-3.2a383.77,383.77,0,0,0,30.59-26.7c9.24-8.89,18.67-18.77,27.51-29.17a319.46,319.46,0,0,0,24.09-32.06c7.74-11.45,13.27-19.69,18.87-28.82,4-6.9,7.75-14.13,11.39-21.41s6.93-14.74,10-22.1c-.43,4.46-4.56,15.64-11.58,30.3-3.68,7.15-7.81,15-11.95,21.84l-4.06,6.21c-1.82,2.87-4.18,6.33-6.69,10.18-5.12,7.65-11.34,16.53-16.72,24.29-3.66,4.45-10.87,12.4-13.35,16.8-3.94,4.21-8.22,8.59-12.09,12.64-1.9,2.06-3.79,3.93-5.39,5.76s-3,3.48-4.13,5l-2.65,2.49c-7,6.35-13.74,11.89-21.23,17.61-1.71,1.45-3.43,2.9-5.75,4.73A288.36,288.36,0,0,1,490.69,669.37Z"/><path class="cls-3" d="M582.81,634.55l2.85-2.67c.17.71.35,1.41.52,2.12-6.88,6.39-10.48,9.42-14.07,12.44-2.69,2.17-5.2,3.95-7.59,5.7s-4.77,3.36-7.28,5.09C566,650.24,574.29,642.82,582.81,634.55Z"/><path class="cls-3" d="M661.53,469a29.77,29.77,0,0,0,1.6-5.57c.45-2.06,1.61-5.56,4.65-14.68.14.15.28.27.42.41C666.28,455.32,664.08,462.19,661.53,469Z"/><path class="cls-8" d="M661.55,258.45c-.71-.45-1.43-.77-3.1-4.21s-4.21-10.06-9.37-22.78c-.87-2-1.8-4.18-2.73-6.36s-2-4.29-2.89-6.29c-.36-1.93-.84-3.86-1.29-5.8-.6-3.24-1.41-6.44-2.17-9.67,2.52,5.2,4.9,10.45,7.19,15.76A298.29,298.29,0,0,1,661.55,258.45Z"/><path class="cls-8" d="M637.22,197.49a380.16,380.16,0,0,0-19.09-33.19c-2.11-4.94-8.24-14-15.47-23.09-.55-.54-1.53-1.66-2-2.23-1-1.11-1.89-2.25-2.44-2.78q-8.12-11.08-17-21.48c-.47-.52-1.43-1.57-1.9-2.1-2.6-3.39-4.62-5.74-6.15-7.5a50.78,50.78,0,0,0-3.58-3.61c-1.75-1.6-2.61-2-4.44-3.66-5.09-4.92-9.9-9.11-15.33-13.67a264.11,264.11,0,0,0-33.07-23.86l-2.81-1.71-3-1.68c-2-1.14-4-2.27-5.86-3.23s-3.51-2.17-5.37-3.12a28.11,28.11,0,0,0-4.27-2.82c-1.92-1.09-4.28-2.17-6.72-3.31s-5-2.11-7.41-3.06-4.61-1.63-6.31-2.22a237.15,237.15,0,0,0-32.49-9.55L437,28.17l-4.63-1c-2.81-.64-5.12-1-7.08-1.3-3.92-.65-6.46-.78-9-1-2.79-.34-4.93-.47-7-.64-6.35-.55-13.44-.74-20.55-.77-2.77-.08-5.55-.21-8.32-.26s-5.56,0-8.34,0c1.83-.25,3.67-.44,5.52-.68s3.7-.48,5.55-.64c3.4-.06,6.79-.14,10.19-.05,1.69,0,3.39,0,5.08.1l5.08.24c1.7.05,3.39.18,5.08.32l5.06.4,5.05.56c1.69.18,3.37.37,5,.63l5.28.76c1.75.28,3.48.61,5.19.9,3.43.55,6.72,1.34,9.85,2,6.83,1.78,12.91,3.5,19.5,5.85,7.66,2.59,11.88,4.13,15,5.18a76.23,76.23,0,0,1,7.93,3c2.09.72,4.11,1.57,6.22,2.42,1.06.43,2.14.85,3.23,1.33L499.23,47c2.45,1.32,4.83,2.75,7.22,4.19s4.73,2.94,7.09,4.42c6.34,3.83,12.45,7.64,18.22,11.66,2.94,1.94,5.71,4,8.52,6l4.09,3.11,2,1.54,2,1.59,3.93,3.17,3.8,3.25c2.56,2.13,5,4.42,7.38,6.63,4.75,4.55,9.32,9.18,13.55,14.09,5,5.16,9.2,10,13.83,15.48q11.11,13.17,21,27.43c1,1.81,2.1,3.77,3.14,5.76s2.14,3.94,3,5.79c3.53,5.77,7.65,12.57,11.22,19.09S635.82,193,637.22,197.49Z"/><path class="cls-8" d="M497.43,28.67c-1.49-.34-3.4-1-5.59-1.74s-4.6-1.79-7.19-2.73-5.23-2.05-7.89-2.95-5.23-1.86-7.62-2.53L464.57,17l-5.14-1.77c-1.33-.55-1.91-.9-3.25-1.44L457.93,12c1.51.36,2.36.48,3.88.84A247.43,247.43,0,0,1,497.43,28.67Z"/><path class="cls-8" d="M387.28,6.25l-7.2.14-7.18.36c-1.89,0-3.75.21-5.61.29s-3.72.17-5.58.32c.32-.79.61-1.53,1-2.31l5.78-.62,2.89-.3,2.9-.23c2.08.34,4.35.63,6.61.95s4.52.74,6.57,1.11C387.37,6.08,387.31,6.19,387.28,6.25Z"/><path class="cls-6" d="M681,341.29c-.36-2.24-.72-4.49-1.14-7.43-.6-6.46-1.28-13.62-2.14-20-.69.45-1.28,1.61-2,2-1.77-12.16-5.18-25.18-7.26-36.92-2-7.06-4.07-14.09-6.25-20.37-1-4.75-1.9-8.79-2.83-12.87-4.06-12.3-8.72-24.46-13.63-35.69a427.38,427.38,0,0,0-33.84-60.46q-9.87-14.25-21-27.43c-4.63-5.47-8.87-10.32-13.83-15.48-4.23-4.91-8.8-9.54-13.55-14.09-2.43-2.21-4.82-4.5-7.38-6.63l-3.8-3.25-3.93-3.17-2-1.59-2-1.54-4.09-3.11c-2.81-2-5.58-4.09-8.52-6-5.77-4-11.88-7.83-18.22-11.66-2.36-1.48-4.68-3-7.09-4.42s-4.77-2.87-7.22-4.19c-9.91-6.94-19.47-9.74-27.63-12.49-2.31-.86-4.46-1.69-6.65-2.39s-4.36-1.52-6.76-2.18c-2-.73-3.93-1.41-5.72-2s-3.47-1.05-5-1.49l-2.24-.63-2.07-.48c-1.32-.3-2.53-.55-3.62-.76a37.81,37.81,0,0,0-5.2-.71,9.63,9.63,0,0,0-2.65.07c-2.13-.42-4.25-.67-7.1-1.09a243.35,243.35,0,0,0-40.94-2c-2.76-.22-4.82-.24-6.9-.32,4.83-1.34,2.74-1.35.63-1.42s-4.18.12-6.06.34-3.62.45-5.16.7l-2.15.38-1.83.41c-1.1.27-2,.51-2.55.69l-3.61.53c-1.22.18-2.48.43-3.74.63L344.49,24l-4,.63c-1.33.2-2.68.43-4,.69l-8.08,1.5c-2.7.51-5.41.93-8.06,1.48l-7.85,1.63-7.57,1.53-7.1,1.64c-3.89,1-8,1.82-12,3L274,39.34a132.52,132.52,0,0,0-20.16,7.72l-8.16,2.83c-2.73,1-5.39,2.09-8.09,3.15-3,1.26-5.41,2.18-7.52,2.94s-3.89,1.5-5.78,2.21a115.67,115.67,0,0,0-15.08,6.64c-9.77,4.47-7.73,5-12.2,7.41l-6.17,3.39c-2.06,1.12-4,2.38-6,3.55-3.94,2.38-7.86,4.62-11.43,7.06-3,2-6.08,3.86-9,5.78s-5.66,4-8.31,5.81A26,26,0,0,0,151,102.6a33.38,33.38,0,0,1-5.48,5q-10.91,9-21,18.89c-2.93,2.69-5.61,5.65-8.38,8.52l-4.13,4.32-3.94,4.5L103.1,149c-1.59,1.67-3,3.46-4.71,5.31l-.37-.84c-1.5,1.78-2.84,3.35-4,4.77l-1.67,2-1.38,1.87c-1.72,2.35-3,4.18-4,5.73l-2.67,4.07c-.78,1.28-1.55,2.54-2.57,4.05-.82,1.21-1.22,1.82-2,3-1.55,2-3.08,3.9-4.35,5.79s-2.46,3.67-3.56,5.37-2.11,3.31-3.05,4.83-1.69,3-2.43,4.4a118,118,0,0,0-6.06,12.94l-4.46,9.26c-1.42,3.18-2.76,6.41-4.06,9.45-.64,1.28-1.3,2.64-2,4.06s-1.25,2.95-1.88,4.48l-3.7,9.22c-2.23,6.07-4.2,11.53-5.71,14.21-1,3.13-1.84,5.94-2.69,8.65-.42,1.35-.83,2.69-1.25,4s-.84,2.7-1.2,4.12c-1.45,4.81-2.76,8.92-4.19,13.76-1.06,4.66-2.07,9.13-3.09,13.6s-1.72,9-2.63,13.7c-.67,3.67-1,7.13-1.47,10.59-.19,1.74-.32,3.48-.49,5.24-.08.87-.16,1.76-.24,2.65s-.11,1.8-.16,2.72c-.17,1.6-.35,3.25-.53,4.93s-.24,3.41-.37,5.16c-.06.87-.12,1.75-.19,2.63l-.09,2.66c-.06,1.79-.13,3.58-.19,5.37.18,3,.27,5.91.52,8.85s.45,5.88.85,8.81a226,226,0,0,0,3.28,23.75c.19,1.24.37,2.43.55,3.59s.41,2.28.61,3.38c.42,2.19.74,4.31,1.21,6.39-1.2-2.24-2.24-4.58-3.31-6.88-.33-1.42-.62-2.86-.88-4.31l-.83-4.33c-.51-2.89-.93-5.79-1.4-8.69a42.92,42.92,0,0,0-.15-4.42c-.08-.89-.17-1.85-.27-2.91s-.16-2.2-.26-3.45-.21-2.58-.32-4-.16-3-.25-4.69c-.21-3.34-.2-7.16-.21-11.49-.07-2.61-.13-5-.19-7.45s.05-4.85.08-7.45c.48-6.57,1.13-13.87,2.23-20.36.3-1.38.54-2.58.84-3.69s.58-2.15.86-3.18c.34-2.23.7-4.64,1.07-7s.68-4.83,1.14-7.05c1.11-4.16,2.42-9,3.54-13.24,1.49-7.5,3.68-15.06,6.13-24.67.59-1.95,1.13-3.92,1.75-5.88s1.31-3.9,2-5.87c1.36-3.94,2.63-8,4.32-12.1,0-1,.26-2.7.27-3.67-.56.33-1.36,1.4-1.9,1.81,1.21-3.15,2.42-6.48,3.75-9.77l4.14-9.59a85,85,0,0,1,4.62-10.11c1.85-3.48,3.7-6.73,5.41-8.38l3.54-6.46,1.9-3.52c.65-1.24,1.43-2.46,2.19-3.79,1.55-2.66,3.26-5.61,5.2-9l7-11.46c1.24-1.84,2.67-3.45,4.45-5.73.46-.54,1.4-1.62,1.86-2.14l2.42-3.36c.41-.56.81-1.11,1.2-1.67l1.27-1.6c1.68-2.14,3.34-4.25,5-6.36l2.5-3.18c.85-1,1.75-2,2.63-3.08l5.39-6.24c.78-.7,1.53-1.42,2.35-2.07l2.44-1.94,6.12-6.4c.51-.53,1-1.08,1.53-1.59l1.6-1.53,3.18-3.06,5.06-4.86c1.77-1.62,3.6-3.17,5.25-4.65,2.17-2.14,3.78-3.79,5.39-5.51,1.74-1.29,3.49-2.53,5.81-4.33l5.39-2.93,1.29-1.2,1.37-1.19L155,93.4l5.54-4.77,1.56-1,1.55-.88,3-1.71,6.16-3.5c.73-.48,1.45-1,2.18-1.45l2.24-1.38L181.77,76c3-1.82,5.92-3.7,9-5.36l9.15-5.12c3.08-1.64,6.22-3.18,9.33-4.78l3.06-1.7c1-.59,2.11-1.17,3.21-1.7l6.37-3.21c2.34-1,4.5-2,6.69-2.91l6.79-2.62c0,.06,0,.18,0,.25L240,47l2.4-1,2.45-.86,9.64-3.43,2.61-1.1,2.64-1,5.3-2L271.61,36c2.24-.53,4.51-.93,6.59-1.33a462.18,462.18,0,0,1,47.89-11.38c3.69-.89,7.75-1.82,11.47-2.53a58.71,58.71,0,0,1,9.57-.91,267.62,267.62,0,0,1,27.48-2.64,183.1,183.1,0,0,1,24.7-.15l5.7.37c1.91.12,3.85.34,5.86.5l3.06.26,3.17.35c2.15.25,4.41.4,6.77.73,3.2.52,6.58,1,9.93,1.72,1.68.33,3.37.61,5,1l4.86,1.08c2,.54,3.82,1.21,6.27,1.94l4.28,1.21c1.65.49,3.57,1,5.87,1.61,1.82.42,3.61.91,5.41,1.36l2.68.69,2.63.76L476,32.17l4.91,1.6c1.91.89,3.93,1.94,5.95,3l3,1.55c1,.53,1.91,1.07,2.81,1.59a262.94,262.94,0,0,1,25.08,13c5.26,2.81,10.45,5.7,15.53,8.84L537,64.79,540.72,68c4.62,3.43,9.07,7.09,13.42,10.82-.6-.1,1,1.33,3.42,3.54s5.89,5.21,9.1,8.13c6.13,5.32,12.5,11.44,18.22,17.25,5.37,5.87,10.37,12.05,15.24,18.33,1.53,1.84,2.82,3.44,3.91,4.91s2,2.83,2.83,4.12c1.72,2.56,3,5,4.94,8,5,6.48,10.16,13.76,14.71,20.6,1,1.89,2,3.77,3,5.64,4.41,8.55,6.85,13.24,8.73,16.54s3.09,5.25,4.57,8.54l1.58,3.29c-.08.65.17,1.95,0,2.58,2.82,6.6,5.58,13.22,7.78,19.26,1.77,1.45,3.6,5.72,5.47,10.82l2.73,8.07c.87,2.75,1.8,5.44,2.71,7.88,1.08,7.39,3.83,16.57,6.86,27.39a311.1,311.1,0,0,1,8.39,36.95l.85.29c1.49,10.06,2.6,20.86,3.23,31Z"/><path class="cls-9" d="M486.4,41.69a76.23,76.23,0,0,0-7.93-3c-3.09-1-7.31-2.59-15-5.18-6.59-2.35-12.67-4.07-19.5-5.85-3.13-.63-6.42-1.42-9.85-2-1.71-.29-3.44-.62-5.19-.9l-5.28-.76c-1.67-.26-3.35-.45-5-.63l-5.05-.56-5.06-.4c-1.69-.14-3.38-.27-5.08-.32l-5.08-.24c-1.69-.08-3.39-.06-5.08-.1-3.4-.09-6.79,0-10.19.05-1.85.16-3.7.42-5.55.64s-3.69.43-5.52.68c-8.55.58-17,1.63-25.7,2.95l-6.48.94c-2.16.31-4.29.74-6.44,1.11-4.29.79-8.59,1.48-12.86,2.35L308.9,32.75l-2.92.56-2.89.65-5.78,1.31-3.52.87c-4.26,1-9.09,2.5-13.29,3.68-6.26,1.47-10.85,2.91-14.54,4s-6.46,1.8-8.82,2.6a31.26,31.26,0,0,1-3.48,1.9l-5.61,2c-1.87.67-3.74,1.34-5.58,2.12L231.35,57c-7.33,3.28-14.8,6.53-22.17,10.36L203,69.65l-6,2.59c4.47-2.45,2.43-2.94,12.2-7.41a115.67,115.67,0,0,1,15.08-6.64c1.89-.71,3.7-1.38,5.78-2.21s4.5-1.68,7.52-2.94c2.7-1.06,5.36-2.2,8.09-3.15l8.16-2.83A132.52,132.52,0,0,1,274,39.34l11.86-3.24c4-1.17,8.09-2,12-3l7.1-1.64,7.57-1.53,7.85-1.63c2.65-.55,5.36-1,8.06-1.48l8.08-1.5c1.33-.26,2.68-.49,4-.69l4-.63,7.77-1.3c1.26-.2,2.52-.45,3.74-.63l3.61-.53c.58-.18,1.45-.42,2.55-.69l1.83-.41,2.15-.38c1.54-.25,3.28-.49,5.16-.7s3.92-.28,6.06-.34,4.2.08-.63,1.42c2.08.08,4.14.1,6.9.32a243.35,243.35,0,0,1,40.94,2c2.85.42,5,.67,7.1,1.09a9.63,9.63,0,0,1,2.65-.07,37.81,37.81,0,0,1,5.2.71c1.09.21,2.3.46,3.62.76l2.07.48,2.24.63c1.55.44,3.23.94,5,1.49s3.69,1.28,5.72,2c2.4.66,4.57,1.46,6.76,2.18s4.34,1.53,6.65,2.39C479.76,37.22,489.32,40,499.23,47l-3.38-1.52c-1.09-.48-2.17-.9-3.23-1.33C490.51,43.26,488.49,42.41,486.4,41.69Z"/><polygon class="cls-8" points="320.55 30.54 308.9 32.75 305.98 33.31 303.09 33.96 297.31 35.27 303.09 33.96 305.98 33.31 308.9 32.75 320.55 30.54"/><path class="cls-8" d="M280.5,39.82a55.46,55.46,0,0,0-5.57,2.41c-2.12,1-5.76,2.4-14.68,5.13-2,.19-3.92.45-6.59.93a31.26,31.26,0,0,0,3.48-1.9c2.36-.8,5.14-1.51,8.82-2.6S274.24,41.29,280.5,39.82Z"/><path class="cls-8" d="M280.76,22.42c-2.71.79-4.95,1.55-7,2.29S269.86,26.14,268,27a135.3,135.3,0,0,1-14.7,5.21l-13.94,4c-2.81,1-6.26,2.32-9.75,3.69-2.11,1.1-5.31,2.62-10.86,5.38L214,47.43l-2.72,1.26c-1,.42-1.95.89-3,1.42l-6.81,3.32-3.89,1.87c-.67.33-1.37.64-2.07,1l-2.12,1.11,5.27-3c1.58-.93,3-1.84,4.46-2.77,2.88-1.87,5.74-3.94,9.93-6.31l8.27-3.8c1.37-.65,2.77-1.24,4.17-1.81L229.76,38c2.8-1.15,5.09-2.26,8.54-3.83s8.14-3.44,15.67-6.29c2.73-.11,6.2-.52,9.63-.85C269.26,25.21,275.05,23.84,280.76,22.42Z"/><path class="cls-8" d="M209.18,67.31l-6.12,3.29-6,3.52c-1.26.37-1.92.41-3.19.86,1.26-1,1.87-1.71,3.12-2.74l6-2.59Z"/><path class="cls-9" d="M180.85,62.57c-2.58,1.81-5,3.46-7.41,5s-4.7,3-6.88,4.52L160,76.53c-2.17,1.46-4.34,2.9-6.45,4.55a2.34,2.34,0,0,0,0,.26l-6.12,4.51-2.78,2.49c-.95.85-1.87,1.78-2.81,2.67l-5.45,5.28c-1.18.9-2.48,1.85-3.77,2.92l-4,3.42-4.15,3.62c-1.4,1.22-2.83,2.43-4.14,3.72-2.67,2.52-5.29,5-7.67,7.06L111,118.55,109.45,120c-1,.91-2,1.7-2.79,2.35-1.57,1.66-2.88,3.15-4.19,4.66l-2,2.32c-.64.83-1.32,1.68-2,2.6-2.89,3.71-6.82,8.22-12.92,15.9-1.65,1.24,2.54-4.28,1.77-4.43l2.85-3.56,3-3.43,6-6.88-.86-2.44a361.66,361.66,0,0,1,26.12-26.27c2.32-2,4.58-4.06,7-6l7.16-5.7,3.58-2.84,3.69-2.7,7.4-5.39a373.48,373.48,0,0,1,53.06-30l-6.5,3.49-3.2,1.71c-1.06.56-2.12,1.13-3.14,1.75C189.29,57.62,185.12,60,180.85,62.57Z"/><path class="cls-8" d="M180.94,64.48l-6.88,4c-2.31,1.37-4.7,2.65-7,4.15L160.27,77l-3.38,2.16c-1.13.7-2.18,1.49-3.26,2.23a2.34,2.34,0,0,1,0-.26c2.11-1.65,4.28-3.09,6.45-4.55l6.52-4.42c2.18-1.55,4.51-3,6.88-4.52s4.83-3.21,7.41-5C180.88,63.23,180.91,63.82,180.94,64.48Z"/><path class="cls-8" d="M124.45,126.48a33.75,33.75,0,0,0-3.65,4.46c-.72.89-1.81,2.14-3.78,4.21-1,1-2.18,2.26-3.65,3.76-.76.74-1.53,1.58-2.37,2.51l-2.76,3c-1.3,1.52-2.41,2.87-3.44,4.16l-1.5,1.89c-.47.62-.91,1.27-1.38,1.91-1.85,2.57-3.83,5.22-6.83,8.73-2.36,3.28-4.17,5.88-5.88,8.07s-3.27,4-4.76,6-3.14,4-5.1,6.48-4.1,5.55-6.78,9.54c1.09-2,2.27-4.06,3.44-6.17s2.51-4.12,3.66-6c.8-1.2,1.2-1.81,2-3l3.2-4.18c1-1.23,1.9-2.35,2.71-3.38,1.61-2.06,2.87-3.77,4-5.33.55-.78,1.07-1.52,1.59-2.24l1.6-2.08c1.09-1.4,2.22-2.82,3.61-4.46,1.66-1.85,3.12-3.64,4.71-5.31l4.9-5.19,3.94-4.5,4.13-4.32C118.84,132.13,121.52,129.17,124.45,126.48Z"/><path class="cls-8" d="M32.57,287.93c-.54,2.14-1.19,4.24-1.83,7.07q-1.38,5.82-2.78,11.67c-.5,1.94-.86,3.92-1.26,5.89s-.79,3.95-1.18,5.93l-1.2,6q-.48,3-1,6c-.36,2-.55,4-.82,6l-.39,3c-.09,1-.19,2.05-.28,3.08a218.26,218.26,0,0,0,.08,38.26c.2,2,.32,4,.59,5.94l.74,5.93c.61,3.93,1.18,7.88,2,11.8.31,1.42.58,2.81.92,4.18l1,4.11c.64,2.76,1.44,5.57,2.17,8.71.68,1.81,1.49,3.59,2.23,5.39s1.5,3.58,2.33,5.33a11.52,11.52,0,0,1,.21-3.21c.84,2.75,1.74,5.48,2.62,8.22s1.89,5.43,2.91,8.12a272.82,272.82,0,0,0,12.13,28.38c.33,1.27.33,1.91.68,3.21,1,1.93,2,3.86,3.05,5.75,4,7.35,8.33,14.34,12.81,21.2s9.25,13.55,14.31,20.23a55,55,0,0,1-6-6.35c-1.08-1.27-2.25-2.72-3.59-4.46s-2.95-3.72-4.74-6.16l-2.79-4.51c-.9-1.49-1.74-3-2.61-4.45-1.75-2.94-3.36-6-5.11-9.1A30.52,30.52,0,0,1,54.16,486c-3.3-5.73-6.7-12.3-9.9-18.92a276.46,276.46,0,0,1-14.71-38.92c-.5-1.76-1-3.51-1.51-5.27l-1.36-5.31c-.47-2.08-.79-4.2-1.21-6.39-.2-1.1-.43-2.22-.61-3.38s-.36-2.35-.55-3.59A226,226,0,0,1,21,380.49c-.4-2.93-.57-5.87-.85-8.81s-.34-5.89-.52-8.85c.06-1.79.13-3.58.19-5.37l.09-2.66c.07-.88.13-1.76.19-2.63.13-1.75.25-3.47.37-5.16s.36-3.33.53-4.93c0-.92.11-1.82.16-2.72s.16-1.78.24-2.65c.17-1.76.3-3.5.49-5.24.47-3.46.8-6.92,1.47-10.59.91-4.7,1.69-9.22,2.63-13.7s2-8.94,3.09-13.6c1.43-4.84,2.74-8.95,4.19-13.76C32.93,283,32.75,285.48,32.57,287.93Z"/><path class="cls-8" d="M9.2,367.86A41.06,41.06,0,0,0,9.77,374c.24,1.43.49,2.43.74,3.55s.54,2.39.83,4.34.52,4.62,1,8.53l.44,4.45.57,4.44c.34,3,.85,5.91,1.32,8.85L13,402.52q-.73-2.82-1.46-5.59c-.51-1.86-.91-3.73-1.34-5.64s-.91-3.82-1.25-5.82C8.84,379.6,8.88,373.71,9.2,367.86Z"/><path class="cls-9" d="M57.82,489.13c1.75,3.15,3.36,6.16,5.11,9.1.87,1.47,1.71,3,2.61,4.45l2.79,4.51c1.06,1.21,2.69,3.29,4.46,5.64s3.72,5,5.44,7.2a57.25,57.25,0,0,0,4.13,5c.88.88,1.1.8.28-.85,6.55,8.71,14.44,18.24,22.3,26.86,1.46,1.63,2.94,3.24,4.52,4.88s3.17,3.41,5,5.22c1.29,1.62,2.7,3.38,4.1,5.15s2.91,3.48,4.24,5.09c2.06,1.39,4.18,2.67,6.79,4.49q10.86,10,22.37,19.34c7.67,6.19,15.58,12.1,23.64,17.78l4.09,3.35,4.17,3.3c.86.55,5.53,3.69,13.22,8.49s18.46,11.21,31.61,18.07c6.55,3.47,13.74,7,21.38,10.51s15.8,7,24.3,10.36,17.39,6.51,26.5,9.48,18.46,5.63,27.87,8,19,4.53,28.31,6.14a211.92,211.92,0,0,0,27.7,3,232.58,232.58,0,0,0,26.18-.48,230.28,230.28,0,0,0,58.39-12.61l5.75-2.1,4.38-1.76c2.47-1,4-1.63,4.46-1.87,8.74-3.63,17.25-7.77,25.59-12.25l-3.25,2.5-3.19,2.35c-2.12,1.57-4.25,3.15-6.62,4.73l-4.63,2.2-4.48,2c-1.72.76-3.65,1.6-5.81,2.43a246.81,246.81,0,0,1-35.28,11.31,220.58,220.58,0,0,1-78.65,4.6l-7.2-1-7.19-1.27c-2.4-.41-4.8-1-7.2-1.45s-4.81-1-7.21-1.59a450.15,450.15,0,0,1-55.38-16.52,467.24,467.24,0,0,1-46.66-20.17c-13.46-6.7-24.51-13-32.45-17.78S191.5,627,190.5,626.32c-2.81-2.15-5.62-4.3-7.75-6.12-7.67-4.71-12.84-8.15-17-10.91-2.09-1.37-3.88-2.63-5.59-3.82s-3.34-2.3-5-3.53c-7.48-5.9-14.12-11.64-21.22-18-4.28-4-8.48-8-12.64-12.1-2.1-2.05-4.23-4.07-6.27-6.18s-4.13-4.16-6.13-6.31l-3.43-4c-1.07-1.32-2.07-2.57-2.93-3.69-2.8-2.61-5.5-5.34-8.22-8-5-5.9-9.86-11.87-14.39-18l-1.72-2.27-1.66-2.3q-1.66-2.3-3.3-4.58c-2.1-3.1-4.27-6.11-6.23-9.2-.88-1.23-1.4-1.82-2.26-3-1.95-3.09-3.71-6.07-5.47-9s-3.45-6-5.14-9.21A30.52,30.52,0,0,0,57.82,489.13Z"/><path class="cls-8" d="M119.66,565.58l4.89,5.18c1.6,1.69,3.27,3.31,5,5.09-2.61-1.82-4.73-3.1-6.79-4.49-1.33-1.61-2.79-3.35-4.24-5.09s-2.81-3.53-4.1-5.15C116.16,562.6,117.88,564.1,119.66,565.58Z"/><path class="cls-8" d="M541.17,639.82c2.32-1.83,4-3.28,5.75-4.73,7.49-5.72,14.19-11.26,21.23-17.61L570.8,615c.1.31.18.63.34,1.19L568,619.36l-3.24,3.08-3.26,3.07-3.33,3c-5,4.3-10.8,8.78-16.67,13.18C541.37,641.05,541.27,640.46,541.17,639.82Z"/><path class="cls-8" d="M547.53,662.24a334.28,334.28,0,0,0,26.15-21.81c3-2.44,5.86-4.93,8.75-7.43.13.52.27,1,.38,1.55-8.52,8.27-16.86,15.69-25.57,22.68-3.09,2.33-6.36,4.43-9.54,6.59C547.64,663.29,547.58,662.76,547.53,662.24Z"/><path class="cls-8" d="M633.23,534.15c4.14-6.89,8.27-14.69,11.95-21.84l3.58-5.55c1.23-1.9,2.37-3.85,3.49-5.62,2.34-8.69,6.84-18.44,8.86-23.95.49-.91,1.07-2.1,1.67-3.35l1.75-3.86c1.13-2.48,2.14-4.51,2.49-4.6l.18.19c-3,9.15-6.42,18.12-9.82,26.32-1.51,3.34-3,6.69-4.59,10-3.3,7.43-6.94,14.75-10.7,22-1.87,3.08-3.71,6.19-5.62,9.15l-2.78,4.4-2.76,4.16C631.72,539.15,632.55,536.7,633.23,534.15Z"/><path class="cls-8" d="M693.67,393.32c-1.22,2.41-1.38-.78-1.68-4.21s-.46-7.1-1.31-5.69c-.11-.83-.19-2.44-.26-4,.05-.74.14-2.22.24-3.7.22-2.17.34-4.35.51-6.63s.29-4.63.38-7.18c.08-4.08,0-7.39,0-10.07s0-4.72,0-6.27c.06-3.09.31-4.21.67-4.41.73-.41,1.87,2.84,2.66,1,.91,7,1.57,12.53,2,18.84l-.71,5.3-.88,5.26c-.06,3-.28,6-.48,9s-.48,6-.75,9C694,390.33,693.87,391.84,693.67,393.32Z"/><path class="cls-8" d="M700.71,367c.18-3,.31-6,.45-9s.11-6,.17-9c.35.93.71.35,1.1,1.79a27.57,27.57,0,0,1,.62,4.13c.25,2.18.37,5.31.45,9.83C702,373.22,700.37,380.84,700.71,367Z"/><path class="cls-6" d="M39.51,226.3c-4.16,9.83-8,20.57-11.28,30.75-.34,1-.68,2-1,3s-.61,2-.92,3.08l-1.85,6.23c-.62,2.09-1.27,4.17-1.84,6.24L21,281.74c-.67-.63-1.34-1.24-2.05-1.95.49-1.83,1-3.61,1.43-5.37l1.6-5.17c1.06-3.43,2.13-6.86,3.25-10.48.39-.58,1-1.87,1.71-3.11.92-2.47,1.84-5,2.78-7.5.48-1.26.92-2.54,1.42-3.8s1-2.51,1.57-3.76c2.12-5,4.09-10.08,6.39-14.8Z"/><path class="cls-6" d="M39.36,236.63c-.88,2.29-1.81,4.63-2.71,6.87-.45,1.13-.91,2.21-1.3,3.27l-1.08,3c-1.34,3.78-2.24,6.46-2,6.67-.52,1.62-1,3.15-1.49,4.63l-1.2,4.36c-.77,2.84-1.52,5.59-2.31,8.54-.75,2.07-1.28,4-1.8,5.84L24,284.77c-.8,3-1.43,5.35-1.79,7.12-.68,3.56-.66,4.66-.11,3.4-.56,3-1,5.21-1.4,7.47-1.06,4.33-1.93,9.48-2.78,13.87-.83,3.11-1.7,6.09-2.27,9.14l-.9,4.57c-.28,1.52-.47,3.07-.69,4.64A132.14,132.14,0,0,0,13,355.6c-1-4.41-2-8.9-2.85-13.44.19-3,.66-6.82,1.1-10.59.23-2,.58-3.95.86-5.93l.45-3,.54-2.9c.73-3.86,1.45-7.72,2.17-11.55.33-1.92.81-3.8,1.23-5.69s.85-3.77,1.28-5.65.85-3.73,1.27-5.59,1-3.67,1.43-5.48l1.89-6.4c.63-2.13,1.23-4.27,2-6.37l4.27-12.63L33.39,248c.75-2.08,1.68-4.11,2.54-6.15l2.62-6.12C38.8,236,39.1,236.35,39.36,236.63Z"/><path class="cls-6" d="M8.65,385.35c.14,1.72.38,3.41.59,5.11s.4,3.37.64,5,.53,3.33.79,5l.39,2.48.47,2.47c.32,1.65.63,3.29,1,4.94s.72,3.28,1.08,4.93c.69,3.3,1.57,6.58,2.43,9.91a8.13,8.13,0,0,0-1.12,3.2c-.9-3-1.68-6-2.51-9s-1.49-6.05-2.13-9.08a240.69,240.69,0,0,1-1.82-25.1A2.56,2.56,0,0,0,8.65,385.35Z"/><path class="cls-6" d="M29.55,428.18A276.46,276.46,0,0,0,44.26,467.1c-.76-.69-1.75-2-2.51-2.75-.57-1.26-1.16-2.52-1.72-3.81s-1.09-2.6-1.62-3.89c-1.11-2.57-2.09-5.14-3-7.54s-1.87-4.64-2.66-6.61-1.63-3.63-2.29-4.91c-1.12-3.51-2.05-6.31-3-9.86Z"/><path class="cls-9" d="M16,425.22q4,12.36,9.14,24.25a265.79,265.79,0,0,0,18.16,41.07,194.85,194.85,0,0,0,22.29,32.82l.92-.11a389.24,389.24,0,0,0,24.76,31.22l-1.21.28c1.08,1.81,2.17,3.58,3.31,5.36-3.07-2.65-5.54-4.85-8.54-7.6,2.11,2.6,4.32,5.39,6.73,8.13l3.62,4.19L98.93,569l-2.73.74c5,4.94,10.75,10.2,15.93,14.88,6,5.78,12.64,12,19,17.41l-5.34-3.26-4.82-3c-2.63-2.25-4.92-4.32-7.13-6.33s-4.33-4-6.58-6.09c-2.25-2.47-4.14-4.73-6-6.92s-3.57-4.31-5.42-6.61L93.2,567l-2.52-2.78c-1.66-1.84-3.36-3.65-5.09-5.69-5-6.45-9.66-13.11-14.18-19.8.32-.05.64-.11.91-.14-6.86-9.05-12.62-17.5-17.81-25.58s-9.84-15.78-14.28-23.53H39.3c-.83-1.35-1.65-2.85-2.62-4.63s-2-3.83-3.23-6.39c-.59-1.27-1.25-2.66-2-4.17s-1.39-3.21-2.18-5c-.38-.91-.79-1.87-1.21-2.86l-1.24-3.15c-.85-2.19-1.81-4.53-2.7-7.13a275,275,0,0,1-9.29-27.68A8.13,8.13,0,0,1,16,425.22Z"/><path class="cls-6" d="M40.23,489.47c4.44,7.75,9.11,15.44,14.28,23.53s10.95,16.53,17.81,25.58c-.27,0-.59.09-.91.14A359.44,359.44,0,0,1,39.3,489.47Z"/><path class="cls-6" d="M45,489.45c2,2,5.31,7.26,10.69,15.53,1,1.94,2.22,4,3.4,6s2.34,4.13,3.47,6c-1.13-1.86-2.29-3.93-3.47-6s-2.37-4.11-3.4-6C50.28,496.71,46.92,491.42,45,489.45Z"/><path class="cls-6" d="M91.26,554.47c2.29,2.54,4.77,5.14,7.21,7.78s5,5.18,7.4,7.55c.84,1.81,3.83,5.83-4.79-1.39l-3.9-4.12c-1.29-1.37-2.55-2.79-3.82-4.18-1.14-1.78-2.23-3.55-3.31-5.36Z"/><path class="cls-10" d="M132.49,584.5a132.13,132.13,0,0,0,21.49,18c8.71,6.82,17.09,12.9,26.25,19.1l3.78,2.58c2.16,1.43,5.17,3.42,8.94,5.84,7.55,4.82,18.18,11.3,31.22,18.25a475,475,0,0,0,45.42,21.25,460.55,460.55,0,0,0,54.21,18.13c9.41,2.48,18.9,4.68,28.31,6.53a225.18,225.18,0,0,0,27.94,3.59,210.78,210.78,0,0,0,26.45.11c2.1-.14,4.19-.19,6.23-.41l6-.59c2-.18,3.92-.5,5.83-.74s3.79-.49,5.62-.83a240.53,240.53,0,0,0,35.32-8.6c8.58-2.78,13.69-4.86,14.47-5.17l4.19-2.2c1.39-.75,2.75-1.55,4.12-2.32l4.09-2.34,4-2.46,3.38-1.49,3.22-1.52c2.14-1,4.29-2,6.54-3.18l4.88-2.74,4.85-2.91c3.28-1.91,6.45-4.07,9.7-6.13,6.38-4.31,12.79-8.76,18.91-13.57A276.44,276.44,0,0,0,572.3,620.4q6.66-5.56,13.05-11.48c1.94-2,3.57-3.49,5.16-4.95l5-4.62a166,166,0,0,0,16.58-18.23c5.57-7,9-12.22,16.24-24-.13-1,.72-2.85,2.82-6.34,1.06-1.74,2.44-3.87,4.09-6.53l2.79-4.34q1.47-2.4,3.21-5.2c1.05-2.06,2-4.17,3.39-6.93-.35-.55-.7-1.1-.11-5Q651.71,510.65,658,498c3.28-7.53,6.23-15.19,9-22.94,1.32-2.43,2.35-4.22,3.37-6,1.38-3.37,2.52-6.64,3.74-9.88s2.29-6.56,3.38-10c-.25,2-.62,4-1,6s-.64,4-1,6c-2.19,8.16-4.74,16.2-7.47,24.24-1.06,5.84-7.76,23.25-1.91,13.49-.48,2.64-.93,5.33-1.5,8,2-2.93,3.61-5.18,5.74-7.94,1-2.06,1.83-4.14,3-7,1-1.42,2-2.66,2.87-3.92s1.8-2.53,2.78-4c-.5,1.5-1,3-1.49,4.51L676,492.91l-1.59,4.49-1.7,4.44c-.7,2.41-1.37,4.89-2.14,7.28-2,5.24-3.89,9.7-6.12,14.81-4.58,9-9.11,17.14-14.32,25.74-1.1,2.18-2.21,4.34-3.8,7.12l-3.54,6.33c-3.72,4.59-7.54,9-11.45,13.49-1,1.13-1.92,2.24-2.43,2.79-4.92,7.08-10.65,14.51-16,21.29A377.29,377.29,0,0,1,582.43,633c-2.89,2.5-5.79,5-8.75,7.43-5.39,4.14-11.45,8.62-17.06,12.41,1.2-1.1,2.56-2.47,4.68-4.49,1.07-1,2.35-2.14,3.92-3.46s3.4-2.89,5.64-4.65c1.75-1.68,3.43-3.42,5.18-5.23s3.58-3.66,5.47-5.73c-5.37,3.45-12,9.22-19.76,15.75a249.42,249.42,0,0,1-26.9,20.13c-3.27,1.93-6.33,3.82-9.5,5.55l-4.74,2.66-4.94,2.6c-3,1.63-6.3,3.16-9.62,4.79-1.66.83-3.4,1.55-5.11,2.34s-3.45,1.57-5.21,2.27c-1,.34-6.32,2.77-15.2,6.14a257.23,257.23,0,0,1-36.65,10.69,234.63,234.63,0,0,1-52.44,5.2c-2.4-.07-4.83,0-7.26-.2l-7.34-.44-7.41-.73c-1.24-.1-2.48-.27-3.71-.45l-3.73-.51c-1.24-.18-2.49-.33-3.73-.54l-3.73-.67c-2.48-.44-5-.87-7.41-1.41s-4.88-1-7.32-1.56l-7.3-1.7c-9.71-2.36-19.34-5-28.73-7.94s-18.52-6.13-27.29-9.45-17.14-6.86-25-10.35c-3.92-1.8-7.76-3.51-11.42-5.31-1.83-.89-3.65-1.73-5.41-2.62l-5.18-2.61c-13.53-6.89-24.6-13.35-32.48-18.23-4-2.41-7.08-4.47-9.37-5.92s-3.65-2.45-4.05-2.75c-2.52-1.61-4.41-2.85-6.27-4.12-2.55-2-2.73-2.5-3.07-3.06s-.85-1.22-4-3.71c-7.14-4.52-14.75-9.72-21.62-14.66a54.8,54.8,0,0,0-6.45-6.05c-3.28-2.76-8.05-6.5-15.09-12.38-1.38-1.26-2.74-2.47-4-3.7l-3.85-3.69c-2.58-2.43-5-5-7.68-7.6l2.69-.86c2.74,2.59,5.53,5.14,7.86,7.12,3.25,3.08,6.61,6,9.93,9s6.76,5.86,10.23,8.67,7,5.62,10.47,8.41,7.1,5.45,10.74,8.07c2.67,1.63,6.61,4.42,10.6,7.18a95.77,95.77,0,0,0,11,6.75c-2-1.28-3.83-2.55-5.58-3.78s-3.42-2.37-5-3.51c-3.11-2.32-5.95-4.37-8.49-6.42-5.12-4-9.32-7.63-13.44-11.21-8.22-7.22-16.24-14.28-29.7-26.25-1.76-1.8-3.32-3.53-4.91-5.25s-3.17-3.43-4.82-5.34C119.19,573.29,126,579.26,132.49,584.5Z"/><path class="cls-6" d="M98.93,569c1.76,1.79,3.3,3.34,4.66,4.76s2.49,2.72,3.51,3.94a56.71,56.71,0,0,1,5,6.92c-5.18-4.68-10.93-9.94-15.93-14.88Z"/><path class="cls-6" d="M131.13,602c2.86,2.48,5.84,4.85,8.19,6.81,6.11,4.69,12.28,9.28,18,13.22,5.36,3.75,6.52,3.9,8.15,4.58s3.74,1.88,11.29,7.3a451.13,451.13,0,0,0,49.95,29.55c7.18,3.66,15,7.42,23.3,11.14s17.15,7.35,26.36,10.82A466.59,466.59,0,0,0,335,703.22c5.06,1.21,10.11,2.25,15.22,3.27l7.8,1.4,7.79,1.09a240.47,240.47,0,0,0,30.58,1.8,230.14,230.14,0,0,0,28.48-1.92,238.81,238.81,0,0,0,25.06-4.5A278.62,278.62,0,0,0,486,693.24c4.24-1.57,7.47-3,9.68-3.83a17.33,17.33,0,0,1,3.3-1.18l6.66-2.58c2.28-.89,4.5-1.89,6.59-2.75-2.09,1.09-8.5,4.55-18.59,8.9-2.5,1.14-5.28,2.23-8.24,3.42s-6.17,2.34-9.56,3.58c-1.68.63-3.45,1.19-5.25,1.78s-3.65,1.2-5.55,1.78c-3.83,1.08-7.78,2.32-12,3.31-2.1.5-4.21,1.1-6.4,1.54L440,708.62c-4.54.82-9.2,1.71-14,2.31a233.45,233.45,0,0,1-30.33,2.21,239.09,239.09,0,0,1-32.22-2c-2.71-.38-5.45-.69-8.15-1.21l-4.08-.71c-1.37-.24-2.73-.47-4-.76l-7.9-1.63-7.87-1.8a470.51,470.51,0,0,1-60.44-18.72,485.37,485.37,0,0,1-51-23.05,497.89,497.89,0,0,1-52.75-31.86l-6.53-3.88-6.47-4c-1.86-1.33-3.81-2.87-5.79-4.36l-2.94-2.24-2.79-2.21c-3.81-3.12-7.53-6.34-11.19-9.49s-7.16-6.34-10.47-9.47l4.82,3Z"/><path class="cls-6" d="M155.17,601.94c1.65,1.23,3.29,2.33,5,3.53s3.5,2.45,5.59,3.82c4.16,2.76,9.33,6.2,17,10.91,2.13,1.82,4.94,4,7.75,6.12l-5.37-2.49c-1.74-.82-3.4-1.6-4.9-2.26-9.16-6.2-17.54-12.28-26.25-19.1Z"/><path class="cls-6" d="M496.43,672.19c2.37-1.58,4.5-3.16,6.62-4.73l3.19-2.35,3.25-2.5a314.51,314.51,0,0,0,32-20.93c5.87-4.4,11.65-8.88,16.67-13.18.12.5.23,1,.35,1.52-.82.86-1.66,1.76-2.54,2.65l-2.69,2.7c-1.81,1.81-3.62,3.64-5.36,5.28-6.12,4.81-12.53,9.26-18.91,13.57-3.25,2.06-6.42,4.22-9.7,6.13l-4.85,2.91L509.57,666c-2.25,1.19-4.4,2.17-6.54,3.18l-3.22,1.52Z"/><path class="cls-6" d="M628.88,579.4c.51-.55,1.47-1.66,2.43-2.79,1.29-1.63,2.58-3.25,3.86-4.88s2.52-3.29,3.78-4.93c2.54-3.27,4.92-6.65,7.35-10l-3.54,6.33c-2.12,3.26-4.19,6.33-6.27,9.39s-4.22,6.07-6.58,9.16c-1.44,1.79-2.88,3.53-4.84,5.84C626.7,584.4,627.77,581.89,628.88,579.4Z"/><path class="cls-6" d="M621.23,556.3c1.68-2.41,3.34-4.82,4.93-7.28s3.23-4.89,4.77-7.39l2.76-4.16,2.78-4.4c1.91-3,3.75-6.07,5.62-9.15.22.33.46.71.69,1-2.64,4.88-4.52,8.38-6.31,11.69-.88,1.66-1.81,3.24-2.82,4.9s-2.09,3.42-3.45,5.35c-3.4,5.31-4,5.66-4.44,5.79s-.9.05-4.1,4.43C621.55,556.85,621.39,556.58,621.23,556.3Z"/><path class="cls-7" d="M670.54,509.12c.77-2.39,1.44-4.87,2.14-7.28l1.7-4.44,1.59-4.49,1.57-4.49c.5-1.5,1-3,1.49-4.51-1,1.46-1.88,2.73-2.78,4s-1.87,2.5-2.87,3.92c-1.18,2.83-2.06,4.91-3,7-2.13,2.76-3.73,5-5.74,7.94.57-2.62,1-5.31,1.5-8-5.85,9.76.85-7.65,1.91-13.49,2.73-8,5.28-16.08,7.47-24.24,2.33-2.34,4.25-7.9,4-5.32-.59,2.24-1.13,4.48-2.08,7.37-4,12.64-5.36,16.77-5.89,19.31-.29,1.27-.4,2.12-.7,3.39a59.94,59.94,0,0,1-1.91,5.84c3.5-7.36,6.65-14.89,9.91-23.16,1.17-2.63,2.64-6,4-9.38l.69.71c-2.65,9.77-5.72,19.44-8.82,28.3,3.44-8.46,6.87-17.74,9.92-27.16a8.43,8.43,0,0,0,2.64-2.07c.57-1.59,1.16-3.22,1.75-4.89s1.13-3.41,1.7-5.15c1.19-3.47,2.21-7.09,3.31-10.69a335.25,335.25,0,0,0,7.38-39.36c.57-2.92,1.17-5,1.64-7.15a72.13,72.13,0,0,1-.13,9.83c-.15,2-.4,4.06-.66,6.32-.14,1.13-.27,2.3-.44,3.49s-.39,2.43-.6,3.7a307.57,307.57,0,0,1-8.39,36.07c-.41,1.5-.8,3-1.23,4.51L690.25,460c-.86,3-1.82,5.95-2.77,8.92-2.49,6.31-5.53,13.14-8.64,20L677,496.31a23.38,23.38,0,0,0,2.07-2.83c-4.53,10.63-9.2,20.32-14.6,30.45C666.65,518.82,668.53,514.36,670.54,509.12Z"/><path class="cls-6" d="M677.44,463.1c.95-2.89,1.49-5.13,2.08-7.37l1.33-4.3,1.24-4.32c.4-1.44.83-2.87,1.22-4.32l1.13-4.36c.34,2.13.83,3.48,1.12,5.58a26.46,26.46,0,0,0-.77,6.3,18.17,18.17,0,0,1-.37,2.89c-.29,1.33-.77,3.16-1.6,5.9-1.33,3.39-2.8,6.75-4,9.38-3.26,8.27-6.41,15.8-9.91,23.16a59.94,59.94,0,0,0,1.91-5.84c.3-1.27.41-2.12.7-3.39C672.08,479.87,673.46,475.74,677.44,463.1Z"/><path class="cls-6" d="M678.84,489c3.11-6.86,6.15-13.69,8.64-20-1.22,4.16-2.66,8.23-4,12.34s-2.87,8.15-4.46,12.18a23.38,23.38,0,0,1-2.07,2.83Z"/><path class="cls-6" d="M674.69,488.11c3.1-8.86,6.17-18.53,8.82-28.3.86-2,1.78-3.92,2.91-6.6,1.76-5.07,3.06-9.26,4-13s1.54-6.88,2.08-9.92c1.06-6.1,1.72-11.63,3.27-19.79,0-2.58-.09-5.13-.12-8.47a297,297,0,0,0,2.64-36.5,36.85,36.85,0,0,0,1.77,4.89c-.06,10.13-.6,20.24-1.56,29.53.95-.14,2-1,2.94-1.19A335.25,335.25,0,0,1,694,438.15c-1.1,3.6-2.12,7.22-3.31,10.69q-.86,2.61-1.7,5.15c-.59,1.67-1.18,3.3-1.75,4.89a8.43,8.43,0,0,1-2.64,2.07C681.56,470.37,678.13,479.65,674.69,488.11Z"/><path class="cls-6" d="M680.41,414.47c-.61,2-1.36,3.9-2.18,6.54l-.2-.16c2-10.84,3.41-21,4.35-31.91.73-5.64,1.29-10.6,1.78-17,.09-.69.25-2.07.33-2.76.94,2.75,1.92,5.51,2.69,8.28-.33,5.09-.89,9.39-1.41,13.71a317.54,317.54,0,0,1-5.37,39.27C680.49,425.34,680.57,419.54,680.41,414.47Z"/><path class="cls-9" d="M675.51,461.05c.39-2,.69-4,1-6s.7-4,1-6c1-3.62,1.74-6.54,2.54-10.22.22-1.56.26-2.42.49-4a43.63,43.63,0,0,1-.12-4.46,317.54,317.54,0,0,0,5.37-39.27c.52-4.32,1.08-8.62,1.41-13.71a8,8,0,0,0,3.48-1.74c-.1,1.48-.19,3-.24,3.7.07,1.56.15,3.17.26,4,.85-1.41,1.05,2.25,1.31,5.69s.46,6.62,1.68,4.21c.2-1.48.3-3,.38-3.73.27-3,.6-6,.75-9s.42-6,.48-9l.88-5.26.71-5.3a35.09,35.09,0,0,0,1.37,4.56,297,297,0,0,1-2.64,36.5c0,3.34.08,5.89.12,8.47-1.55,8.16-2.21,13.69-3.27,19.79-.54,3-1.11,6.24-2.08,9.92s-2.19,7.9-4,13c-1.13,2.68-2,4.62-2.91,6.6l-.69-.71c.83-2.74,1.31-4.57,1.6-5.9a18.17,18.17,0,0,0,.37-2.89,26.46,26.46,0,0,1,.77-6.3c-.29-2.1-.78-3.45-1.12-5.58l-1.13,4.36c-.39,1.45-.82,2.88-1.22,4.32l-1.24,4.32-1.33,4.3C679.76,453.15,677.84,458.71,675.51,461.05Z"/><path class="cls-6" d="M694.57,405.44c-1.05,2.14-1.63,2.52-1.75.67a35.28,35.28,0,0,1,.17-4.51c.17-2.11.35-4.85.68-8.28.2-1.48.3-3,.38-3.73l1.53,1c-.05,2.35-.16,4.55-.25,6.92-.05,1.19-.11,2.42-.23,3.72S694.8,403.94,694.57,405.44Z"/><path class="cls-9" d="M661.55,258.45a397.82,397.82,0,0,0-14.36-39.35c-2.29-5.31-4.67-10.56-7.19-15.76-.9-2-1.85-3.9-2.78-5.85-1.4-4.51-4.42-10.75-7.94-17.3s-7.69-13.32-11.22-19.09c-.89-1.85-2-3.8-3-5.79s-2.14-3.95-3.14-5.76A427.38,427.38,0,0,1,645.73,210c4.91,11.23,9.57,23.39,13.63,35.69.93,4.08,1.83,8.12,2.83,12.87A5.31,5.31,0,0,1,661.55,258.45Z"/><path class="cls-9" d="M618.37,138.94c-5.52-7.9-10.93-15-17-22.41l1.27-.28c-1.87-3-3.72-6-5.2-8.3l2.22,2.21a7.62,7.62,0,0,0,1.34,1.91c.86,1.1,2.1,2.66,3.66,4.62,3.12,3.91,7.4,9.52,12.08,16.51,1.22,1.83,2.38,3.65,3.56,5.51Z"/><path class="cls-9" d="M590.88,122.12c-4.63-5.47-8.87-10.32-13.83-15.48C582,111.8,586.25,116.65,590.88,122.12Z"/><path class="cls-9" d="M465.54,22.26c-3.13-1.09-6.51-2-9.87-3-1.69-.48-3.4-.89-5.07-1.33s-3.33-.88-5-1.21c-2.67-.92-4.56-1.74-6.5-2.48a28.39,28.39,0,0,1,4.67-.45,50.82,50.82,0,0,1,6.7,1c2.38.51,4.88,1,7.23,1.64s4.61,1.13,6.57,1.56a22.12,22.12,0,0,0,4.84.71c2.39.67,5,1.6,7.62,2.53s5.32,2,7.89,2.95,5,2,7.19,2.73,4.1,1.4,5.59,1.74c2,1,4,1.95,6,3,2.33,1.61,4.07,2.83,5.71,4.11-1.75-.4-1.63,0-.47.92S512,39,514.39,40.53s5,3.28,7,4.7,3.44,2.69,3.55,3.2c-2.06-1.07-3.82-2-5.82-2.92-1-.48-2-1-3.17-1.63l-3.83-2.13c-7.52-4.08-15.1-7.63-22.81-10.87-3.84-1.66-7.77-3.11-11.7-4.6l-6-2.08C469.63,23.49,467.58,22.92,465.54,22.26Z"/><path class="cls-9" d="M401.83,6.23l-3.53-.17L394.63,6c-2.47,0-4.93-.12-7.21,0-2.05-.37-4.3-.73-6.57-1.11s-4.53-.61-6.61-.95a166.16,166.16,0,0,1,18.5-.7c2.22.2,4.62.3,7,.59l7,.76C404.86,5.09,403.72,5.68,401.83,6.23Z"/><path class="cls-9" d="M340.59,10.74a57.51,57.51,0,0,0-9.77,1.77c-2.55.66-4.84,1.3-8.15,1.86-3.63.39-7.22,1-10.74,1.57l-10.19,1.6-10.5,2.35-5.19,1.16c-1.73.42-3.48.9-5.29,1.37-5.71,1.42-11.5,2.79-17.16,4.56-3.43.33-6.9.74-9.63.85,2.56-1.07,6-2.36,9.81-3.73,1.92-.66,3.93-1.43,6-2l6.42-1.87A169.27,169.27,0,0,1,299,15.14l2.61-.64L304.2,14l5.26-1.09c3.52-.7,7-1.52,10.6-2.13l10.78-1.86c1.82-.3,3.63-.65,5.47-.92l5.56-.78L352.19,6c3.53-.37,7.11-.65,10.48-.94-.35.78-.64,1.52-1,2.31,1.86-.15,3.72-.21,5.58-.32s3.72-.25,5.61-.29c-7.23.62-7.79,1.16-8.61,1.57s-1.88.81-10,1.56Z"/><path class="cls-9" d="M76.08,165.39c-1,1-1.53,1.33-2.53,2.28-3.34,5-6.85,9.85-9.9,15l-4.73,7.66-4.41,7.83c-.3.79-1,2.18-1.64,3.58C48.05,210,43.73,217.7,39.51,226.3l-.41-.5c.69-2.39,1.33-4.82,2.33-7.92.82-1.92,1.79-3.77,2.71-5.64l2.79-5.62,1.39-2.8c.46-.94.93-1.87,1.45-2.78l3-5.49L55.87,190c1.05-1.88,2.23-3.72,3.35-5.6l3.38-5.58c.57-.92,1.11-1.84,1.68-2.74L66,173.4c3.57-4.7,7.07-9.41,10.9-13.89.19.43.37.77.57,1.19q2.8-3.94,5.48-7.57c1.88-2.32,3.7-4.53,5.44-6.59s3.36-4,5-5.72,3.19-3.24,4.62-4.61l.56,1.46C90.56,146.45,83.24,155.88,76.08,165.39Z"/><path class="cls-9" d="M98.39,154.32l-4.84,5.83c-1.59,2-3.08,4-4.65,6.07l-4.69,6.22L79.67,179c.8-1.2,1.2-1.81,2-3,1-1.51,1.79-2.77,2.57-4.05l2.67-4.07c1-1.55,2.29-3.38,4-5.73l1.38-1.87,1.67-2c1.19-1.42,2.53-3,4-4.77Z"/><path class="cls-9" d="M21,281.74a35,35,0,0,1-.49,4.08c-.47,1.81-1,3.63-1.43,5.48s-.85,3.72-1.27,5.59-.86,3.76-1.28,5.65-.9,3.77-1.23,5.69c-.72,3.83-1.44,7.69-2.17,11.55l-.54,2.9-.45,3c-.28,2-.63,3.94-.86,5.93-.44,3.77-.91,7.55-1.1,10.59a222.46,222.46,0,0,0-1,25.7c-.32,5.85-.36,11.74-.25,17.61l-.3-.12a2.56,2.56,0,0,1-.24-.11c-.31-2-.61-3.88-.9-5.78s-.46-3.78-.69-5.66L6.49,371l-.24-2.85c-.15-1.91-.33-3.85-.46-5.84a221,221,0,0,1,2.47-28.77c.34-1.43.58-2,1-3.42.91-8.2,2.36-16,3.62-23.88q1.17-5.85,2.33-11.62c.4-1.92.74-3.84,1.19-5.73s.91-3.77,1.35-5.65L19,279.79C19.66,280.5,20.33,281.11,21,281.74Z"/><path class="cls-9" d="M556.62,652.84c5.61-3.79,11.67-8.27,17.06-12.41a334.28,334.28,0,0,1-26.15,21.81c-.64.26-1.94,1-3.26,1.63a32.17,32.17,0,0,0,5.79-5c.61-.64,1.26-1.33,2.26-2.25S554.63,654.49,556.62,652.84Z"/><path class="cls-9" d="M582.43,633a377.29,377.29,0,0,0,30.41-32.31c3.64-3.7,6.8-6.86,10.3-10.77-2.83,3.74-5.8,7.35-8.76,11s-6,7.18-9.19,10.65-6.34,6.93-9.55,10.36-6.56,6.73-10,10l-2.85,2.67C582.7,634,582.56,633.52,582.43,633Z"/><path class="cls-9" d="M597.68,587.3c2.78-3.5,6.06-7.46,8.71-11,2.55-3.12,5-6.51,7.6-9.85s5-6.78,7.24-10.11c.16.28.32.55.43.8-1.91,2.64-3.18,4.38-4,5.68a27,27,0,0,0-1.71,2.94,34.53,34.53,0,0,1-4.07,6.76c-1.25,1.55-2.57,3.11-3.91,4.66s-2.68,3.15-4.06,4.7c-2.78,3.09-5.52,6.2-8.27,9Z"/><path class="cls-9" d="M698.45,400c1-9.29,1.5-19.4,1.56-29.53a23.17,23.17,0,0,0,.7-3.5c-.34,13.89,1.28,6.27,2.79-2.28.18,9.49.09,18.27-.47,27-.47,2.12-1.07,4.23-1.64,7.15C700.44,398.94,699.4,399.84,698.45,400Z"/><path class="cls-7" d="M678.33,310.64a311.1,311.1,0,0,0-8.39-36.95c-3-10.82-5.78-20-6.86-27.39-.91-2.44-1.84-5.13-2.71-7.88l-2.73-8.07c-1.87-5.1-3.7-9.37-5.47-10.82-.39-.66-1.07-2-1.68-3.37-1-2.68-2-5.32-3-8l-3.13-7.91c.15-.63-.1-1.93,0-2.58l-1.58-3.29c-1.48-3.29-2.77-5.2-4.57-8.54s-4.32-8-8.73-16.54c-1-1.87-1.94-3.75-3-5.64-4.55-6.84-9.75-14.12-14.71-20.6-1.89-3-3.22-5.42-4.94-8-.85-1.29-1.76-2.63-2.83-4.12s-2.38-3.07-3.91-4.91c-4.87-6.28-9.87-12.46-15.24-18.33-5.72-5.81-12.09-11.93-18.22-17.25-3.21-2.92-6.59-6-9.1-8.13s-4-3.64-3.42-3.54c-4.35-3.73-8.8-7.39-13.42-10.82L537,64.79l-3.77-3.11c-5.08-3.14-10.27-6-15.53-8.84a262.94,262.94,0,0,0-25.08-13c-.9-.52-1.84-1.06-2.81-1.59l-3-1.55c-2-1-4-2.09-5.95-3L476,32.17l-5.16-1.51-2.63-.76-2.68-.69c-1.8-.45-3.59-.94-5.41-1.36-2.3-.59-4.22-1.12-5.87-1.61L450,25c-2.45-.73-4.24-1.4-6.27-1.94L438.82,22c-1.65-.37-3.34-.65-5-1-3.35-.69-6.73-1.2-9.93-1.72-2.36-.33-4.62-.48-6.77-.73l-3.17-.35L410.87,18c-2-.16-3.95-.38-5.86-.5l-5.7-.37a183.1,183.1,0,0,0-24.7.15,267.62,267.62,0,0,0-27.48,2.64,58.71,58.71,0,0,0-9.57.91c-3.72.71-7.78,1.64-11.47,2.53A462.18,462.18,0,0,0,278.2,34.71c-2.08.4-4.35.8-6.59,1.33l-6.53,1.59c1.26-.63,2.66-1.26,4.17-1.9s3.13-1.3,4.87-1.86c3.46-1.17,7.27-2.34,11.22-3.51,2-.61,4-1.12,6.05-1.62l6.15-1.52,6.06-1.52,5.87-1.31L320,22c3.46-.69,6.93-1.33,10.57-2l6-1c2-.33,4-.56,6.09-.85l12.66-1.69c2.7-.19,4.88-.43,6.88-.7L367.9,15c1.93-.26,4-.59,6.46-.76,1.24-.09,2.59-.18,4.09-.26l2.36-.12h2.6l.29-.58c2.19,0,4.32-.16,6.46-.29s4.29-.26,6.53-.34a48,48,0,0,1,14.87,1.75c-3-.15-6-.31-9-.32L398.09,14l-4.5.09a251,251,0,0,1,27.55,3.47,244.75,244.75,0,0,1,34.78,6.26c-1.52-.77-3.05-1.48-4.58-2.19l-4.62-2.14c2.89.64,5.12,1.07,7.37,1.5l8.4,2.5c2.77.94,5.57,1.8,8.34,2.77A254.79,254.79,0,0,1,506.27,41.8a32.31,32.31,0,0,0,2.78,2.05c3.58,1.85,7.07,3.89,10.58,5.88l5.18,3.14c1.73,1,3.4,2.17,5.1,3.25l.51-.29c2.11,1.23,4.07,2.51,6.06,3.84,1,.67,2,1.34,3,2L542.67,64c1.09.81,2.23,1.63,3.41,2.55l3.69,3,2,1.64,2.09,1.8c1.43,1.25,3,2.55,4.59,4l4.64,3.88c1.47,1.22,2.84,2.45,4.2,3.61,2.74,2.3,5.23,4.61,7.89,6.93,5.2,4.75,10.81,9.86,18.2,17.48,4,5.11,8.3,10.84,12,16.15,1.67,3,3.57,6,5.45,9,1.75,2.37,3.43,4.79,5.14,7.17l4.95,7.29c1,1.88,2,3.75,3,5.62,4.31,6.8,8.82,14.37,12.7,21.44q7.59,15.47,13.64,31.49c3.76,8.36,7.36,17.53,10.62,26.65S667,251.89,669.55,260c.41,2.41,1.15,5.63,2.05,9.4s1.92,8.11,2.9,12.73a247.32,247.32,0,0,1,4.68,28.78Z"/><path class="cls-10" d="M383.41,13.83h-2.6l-2.36.12c-1.5.08-2.85.17-4.09.26-2.48.17-4.53.5-6.46.76l-5.73.78c-2,.27-4.18.51-6.88.7l-12.66,1.69c-2.05.29-4.08.52-6.09.85l-6,1c-3.64.69-7.11,1.33-10.57,2l-10.5,2.36L303.6,25.7l-6.06,1.52-6.15,1.52c-2,.5-4.08,1-6.05,1.62-3.95,1.17-7.76,2.34-11.22,3.51-1.74.56-3.36,1.22-4.87,1.86s-2.91,1.27-4.17,1.9l-5.3,2-2.64,1-2.61,1.1-9.64,3.43-2.45.86L240,47l-4.69,1.84c0-.07,0-.19,0-.25l-6.79,2.62c-2.19.89-4.35,1.88-6.69,2.91-4,1.21-8.68,2.69-12.6,4.13-1.81,1.08-3.74,2.19-5.73,3.31s-4,2.24-6,3.47c-4,2.42-8,4.7-11.63,6.8-7,4.37-12.63,7.4-13.27,7.26l-6.07,4.62-3,2.25c-1,.75-2,1.51-3.07,2.36l-8.27,6.32-2.11,1.6-2,1.67-4,3.25c-2.32,1.8-4.07,3-5.81,4.33-1.78,1-3.57,1.91-5.92,3.36a4.76,4.76,0,0,0-.13-.57l-5.5,2.6,6.7-6.09c1.13-1,2.21-2,3.38-3l3.47-2.9c3.81-2.94,7.4-5.85,11.22-8.45l5.67-4c.95-.66,1.9-1.35,2.87-2l3-1.92c2.19-1.2,5.13-3.13,8.3-5.27s6.72-4.22,9.88-6.13c1.76-1,3.46-2.09,5.28-3L192,65.2l5.55-3c1.87-1,3.85-1.9,5.83-2.88l5.94-2.7,3.08-1.56,3.26-1.51,6.41-2.94c1.87-.87,3.74-1.83,5.7-2.65l5.91-2.52c4-1.67,7.89-3.4,11.74-4.81,2.14-1.1,4.26-2.13,7.1-3.48,1-.25,2.29-.65,3.72-1.07s3-.88,4.7-1.39l10.34-3.26c6.77-1.86,12.25-3.24,11.33-2.07,2-.55,3.91-1.16,5.89-1.65l5.92-1.48,5.93-1.48,3-.74,3-.64,12.3-2.51c4.16-.8,8.35-1.43,12.34-2.14l5.19-.86c1.83-.3,3.75-.5,5.75-.77l12.8-1.64c9-1,18.94-1.78,29-2.24Z"/><path class="cls-7" d="M209.25,60.72c-3.11,1.6-6.25,3.14-9.33,4.78l-9.15,5.12c-3.08,1.66-6,3.54-9,5.36l-4.46,2.75-2.24,1.38c-.73.47-1.45,1-2.18,1.45l-6.16,3.5-3,1.71-1.55.88-1.56,1-5.15,5.17-3.18,2.34-1.4,1-1.29,1-5.39,2.93,4-3.25,2-1.67,2.11-1.6,8.27-6.32c1-.85,2.06-1.61,3.07-2.36l3-2.25,6.07-4.62c.64.14,6.22-2.89,13.27-7.26,3.59-2.1,7.64-4.38,11.63-6.8,2-1.23,4-2.34,6-3.47s3.92-2.23,5.73-3.31c3.92-1.44,8.62-2.92,12.6-4.13l-6.37,3.21c-1.1.53-2.17,1.11-3.21,1.7Z"/><path class="cls-7" d="M190.5,626.32c1,.65,5.85,3.83,13.79,8.59s19,11.08,32.45,17.78a467.24,467.24,0,0,0,46.66,20.17,450.15,450.15,0,0,0,55.38,16.52c2.4.56,4.8,1.11,7.21,1.59s4.8,1,7.2,1.45l7.19,1.27,7.2,1a220.58,220.58,0,0,0,78.65-4.6,246.81,246.81,0,0,0,35.28-11.31c2.16-.83,4.09-1.67,5.81-2.43l4.48-2,4.63-2.2,3.38-1.49,3.22-1.52c2.14-1,4.29-2,6.54-3.18a52.8,52.8,0,0,1-6.34,4.22c-1.2.7-2.44,1.44-3.74,2.12l-4,2c-2.66,1.37-5.44,2.59-8.08,3.8s-5.18,2.29-7.43,3.35c-.78.31-5.89,2.39-14.47,5.17a240.53,240.53,0,0,1-35.32,8.6c-1.83.34-3.71.57-5.62.83s-3.84.56-5.83.74l-6,.59c-2,.22-4.13.27-6.23.41a210.78,210.78,0,0,1-26.45-.11,225.18,225.18,0,0,1-27.94-3.59c-9.41-1.85-18.9-4-28.31-6.53a460.55,460.55,0,0,1-54.21-18.13,475,475,0,0,1-45.42-21.25c-13-7-23.67-13.43-31.22-18.25-3.77-2.42-6.78-4.41-8.94-5.84l-3.78-2.58c1.5.66,3.16,1.44,4.9,2.26Z"/><path class="cls-7" d="M628.88,579.4c.51-.55,1.47-1.66,2.43-2.79-1,1.83-2,3.63-3.08,5.45s-2.07,3.66-3.16,5.45c-.48.6-1.44,1.81-1.93,2.41-3.5,3.91-6.66,7.07-10.3,10.77C618.23,593.91,624,586.48,628.88,579.4Z"/><path class="cls-10" d="M585.2,107.66c-3.73-4.36-7.61-8.58-11.51-12.77l-13.9-13c-1.68-1.58-3-2.94-4-4a10.1,10.1,0,0,1-1.87-2.5c1.3.84,2.64,1.69,3.37,2.08a319.64,319.64,0,0,1,40.85,43.06L595,117.21,591.76,114C589.62,111.82,587.4,109.74,585.2,107.66Z"/><path class="cls-10" d="M421.14,17.55a251,251,0,0,0-27.55-3.47l4.5-.09,4.49.06c3,0,6,.17,9,.32a256.46,256.46,0,0,1,28.64,3.74l6.52,1.37,4.62,2.14c1.53.71,3.06,1.42,4.58,2.19A244.75,244.75,0,0,0,421.14,17.55Z"/><path class="cls-10" d="M28.11,274.85a28.37,28.37,0,0,0-.78,3.82c-.89,2.75-1.77,5.51-2.66,8.27l-1.33,4.16c-.43,1.38-.8,2.79-1.2,4.19-.55,1.26-.57.16.11-3.4.36-1.77,1-4.13,1.79-7.12l1.39-4.93c.52-1.8,1.05-3.77,1.8-5.84C27.51,274.27,27.79,274.53,28.11,274.85Z"/><path class="cls-10" d="M92.54,544.05c2.17,2.82,4.35,5.69,6.66,8.48a30.74,30.74,0,0,1-4.46-4.06c-1.68-1.76-3.52-3.82-5.31-6s-3.66-4.38-5.31-6.46-3.27-3.92-4.55-5.37c-.94-1.85-1.87-3.68-2.79-5.51C81.82,531.61,87.07,537.9,92.54,544.05Z"/><path class="cls-5" d="M579.25,112.62c-4.82-5.22-9.76-10.3-14.39-14.66a1.51,1.51,0,0,1,.22-.11c1.83,1.7,2.69,2.06,4.44,3.66a50.78,50.78,0,0,1,3.58,3.61C574.63,106.88,576.65,109.23,579.25,112.62Z"/><path class="cls-5" d="M581.15,114.72c-.47-.52-1.43-1.57-1.9-2.1C579.72,113.15,580.68,114.2,581.15,114.72Z"/><path class="cls-3" d="M100.17,542.25c4.58,4.54,11,11.46,17.42,18,3.2,3.32,6.48,6.49,9.44,9.34s5.72,5.26,7.94,7c2.73,1.69,7.08,6.33,18.12,16.28,3.22,2.43,6.28,4.8,9.43,7l4.7,3.34,4.79,3.28c6.47,4.4,13.31,9,21.4,14.37.55.43,4.8,3.27,12,7.71s17.31,10.39,29.74,16.82c6.24,3.17,13,6.56,20.27,9.84,3.61,1.7,7.39,3.27,11.23,5s7.79,3.28,11.85,4.82c8.08,3.21,16.55,6.21,25.22,9s17.59,5.42,26.58,7.74c4.49,1.19,9,2.21,13.54,3.27s9.07,2,13.49,2.73a205.55,205.55,0,0,0,26.39,3.06,215.51,215.51,0,0,0,47.65-2.81,229.39,229.39,0,0,0,34.24-8.52c2.13-.66,4-1.4,5.75-2s3.24-1.12,4.5-1.63l4.89-1.89L476,676c-1.25.53-2.77,1.07-4.5,1.7s-3.66,1.38-5.83,2.08a228.93,228.93,0,0,1-35.23,9c-3.63.7-7.43,1.11-11.34,1.67-3.93.37-8,.88-12.15,1.06s-8.44.35-12.8.44l-6.61-.11c-2.22,0-4.46-.21-6.72-.31A217.2,217.2,0,0,1,353.28,688c-9.4-1.84-18.92-4-28.33-6.5s-18.75-5.33-27.85-8.37-18-6.35-26.47-9.81c-4.26-1.69-8.39-3.51-12.46-5.24s-8-3.57-11.8-5.42c-7.65-3.58-14.78-7.28-21.36-10.77A498.28,498.28,0,0,1,180,614.34c-9.42-6.71-18.59-13.76-27.39-21.18a420.14,420.14,0,0,1-32-27.86c-2.31-2.33-4.75-4.77-7.15-7.26s-4.78-5-7-7.43l-3.18-4.15Z"/><path class="cls-9" d="M197,72.24c-1.25,1-1.86,1.7-3.12,2.74-3.52,1.89-6.87,4-10.27,6.12l-5.09,3.13c-1.7,1-3.32,2.21-5,3.31-3.89,2.65-7.86,5.19-12.26,8.46L154,101.15l-8.51,6.44a33.38,33.38,0,0,0,5.48-5,26,26,0,0,1,5.12-4.77C158.74,96,161.53,94,164.4,92s6-3.83,9-5.78c3.57-2.44,7.49-4.68,11.43-7.06,2-1.17,3.93-2.43,6-3.55Z"/><path class="cls-9" d="M98.3,127.08c-1,1.09-2.08,2.12-2.64,2.58C96.22,129.2,97.26,128.17,98.3,127.08Z"/><path class="cls-9" d="M79.67,179c-1.15,1.91-2.47,3.93-3.66,6s-2.35,4.22-3.44,6.17l-3.24,5.09-3.11,5.35c-2,3.61-4.23,7.14-6,10.69a118,118,0,0,1,6.06-12.94c.74-1.38,1.48-2.88,2.43-4.4s2-3.13,3.05-4.83,2.28-3.49,3.56-5.37S78.12,181,79.67,179Z"/></g></g></g></g></svg>