<svg xmlns="http://www.w3.org/2000/svg" viewBox="0 0 812.08 449.28"><defs><style>.cls-1{fill:#BF9F46;}</style></defs><g id="Layer_2" data-name="Layer 2"><g id="Layer_1-2" data-name="Layer 1"><path class="cls-1" d="M808.13,449.19c.94.34,2.8-.36,2.1-1.67l-3.46-.29Z"/><path class="cls-1" d="M812,438.47c-1.94-1.29-5.1-2.5-7.82-.73,3.46.87,2.26,1.56,6.34,2.45a1.91,1.91,0,0,1-1.72,2.71c.94.31-.22,2.32,2,2.63,2.09-2.36,1.65-4.73-1-6.65C810.4,438.19,811.35,438.49,812,438.47Z"/><path class="cls-1" d="M759.85,307.17l.18,1A1.79,1.79,0,0,0,759.85,307.17Z"/><path class="cls-1" d="M705.12,237.69c.53.43,1,.4,1.2.22C705.73,237.61,705.22,237.38,705.12,237.69Z"/><path class="cls-1" d="M696.84,224.47c.16.3.33.53.49.78C697.3,224.8,697.17,224.43,696.84,224.47Z"/><path class="cls-1" d="M759.85,307.17l-.46-2.55C758.4,305.09,759.4,306.08,759.85,307.17Z"/><path class="cls-1" d="M799.38,421.88a3,3,0,0,0,1.2.95,10.63,10.63,0,0,1-.68-1A4.08,4.08,0,0,1,799.38,421.88Z"/><path class="cls-1" d="M782.42,339.24l.34.64a8.75,8.75,0,0,0,1.46-.11Z"/><path class="cls-1" d="M796.24,366.06c-.16-.68-2.81.25-4,.52a2.66,2.66,0,0,1,2.34.57A7,7,0,0,0,796.24,366.06Z"/><path class="cls-1" d="M808.38,412.31l.61.69C808.81,412.83,808.6,412.51,808.38,412.31Z"/><path class="cls-1" d="M772.14,320.25a3.18,3.18,0,0,0,.71-.75A2.13,2.13,0,0,0,772.14,320.25Z"/><path class="cls-1" d="M35.47,22.93c0-.2,0-.32,0-.5C35.28,22.72,35.24,22.93,35.47,22.93Z"/><path class="cls-1" d="M.45,11.65l.46-.19c0-.53,0-1.06-.06-1.57Z"/><path class="cls-1" d="M678.6,203a1.34,1.34,0,0,0,.06.12C679.43,203.35,679.08,203.12,678.6,203Z"/><path class="cls-1" d="M458.61,75.92c1.7,3.41-5.54,1.21-2.6,5.43C456.05,80.18,461.3,78.79,458.61,75.92Z"/><path class="cls-1" d="M799.52,421.06a6.23,6.23,0,0,1-.37-1.13A2.13,2.13,0,0,0,799.52,421.06Z"/><path class="cls-1" d="M456,81.35v0l.31.42Z"/><path class="cls-1" d="M626.71,165a3.54,3.54,0,0,0-.17,1.38A2.28,2.28,0,0,0,626.71,165Z"/><path class="cls-1" d="M662.4,196.83l-.66-1.05A3.11,3.11,0,0,0,662.4,196.83Z"/><path class="cls-1" d="M604,154.51c-.42-.52-.4-1-1.33-1.12a1.51,1.51,0,0,0,0,.43C603.15,153.67,603.6,153.74,604,154.51Z"/><path class="cls-1" d="M582.19,141c0,.25.08.48.11.73l.78.29Z"/><path class="cls-1" d="M111.28,21.2a9.32,9.32,0,0,1-1-2.58C110.54,20.63,106.84,21.15,111.28,21.2Z"/><path class="cls-1" d="M800.9,421.43c-.73.06-1.13-.05-1.38-.37a7.51,7.51,0,0,0,.38.75A1.48,1.48,0,0,0,800.9,421.43Z"/><path class="cls-1" d="M591.08,172.59l-3.1-2.5A17.39,17.39,0,0,0,591.08,172.59Z"/><path class="cls-1" d="M289.14,45.75l-1,.12A.87.87,0,0,0,289.14,45.75Z"/><path class="cls-1" d="M577.81,164.23a5.83,5.83,0,0,0-.89-2.81,2.51,2.51,0,0,0-.77.38Z"/><path class="cls-1" d="M110.23,18.59a0,0,0,0,1,0,0A0,0,0,0,0,110.23,18.59Z"/><path class="cls-1" d="M83.93,24.59c3.76.16,1.81-3.58,2.64-5.68,4.54-1,2.05,2.76,3.55,4.68,2.83-.92,5.07-4.27,7.17-4.08.14.61.55.84,0,1.59,3.06-2.87,8.85,0,12.47-3.46a2.41,2.41,0,0,1,.42.95,14,14,0,0,1-.33-5.1c1.71,0,3.28-2.17,3.81.28-1-.13-1.17.84-1.69,1.57l1.83-.95c1.46,3.54-2.49,1.07-2.6,3.63,3.52-.94,7.73-3.61,10.36-2.49.37,3.42-6.3.82-2.9,4L114.65,18c2.89,5.52-2.48-.5.14,5.38,5.34,1.26,6.13-1.42,11.46-.16,1.33-1.82-.24-2.8,1.1-4.63,2-.75,3.31-.57,4.29.06a7.19,7.19,0,0,1,2.16,2.78c1.12,2.09,2,4,4.95,2,1.62-2.14,2.53-6.38,6.37-3.79l-1.67,3.72c5.19.8,3.44-5.26,8.71-2.24-1.11,1.42-4.22.93-3.47,1.45,3.28,3.31,2.7-2,5.44-1.74l.25,3.43a79.84,79.84,0,0,0,8.87-.9,65.1,65.1,0,0,1,9.36-.82c-.46,1-1.63,1.91-.3,3.1a33.63,33.63,0,0,1,12.14,1.19A99.12,99.12,0,0,1,196,31.07l3.25-2.52a1.15,1.15,0,0,1,.25,1.95c2.74,1.5.41-1.83,2-2.78a1.44,1.44,0,0,1,.77,2.7c5.48-1.86,15.42-3,20.32.91l-1.19.69c4,1.86,5.74-5.16,9.19-1.83l-.84.39c1.12.35,2.26.63,3.41.87s2.31.51,3.48.73c2.33.43,4.67.79,6.93,1.24,4.5.89,8.68,2.11,11.71,4.94,2.16-4,8.56,3.72,10.34-2,4.58,4,2.88,4.68,9.72,8.14,1.87.67,3.68-3,6.22-3.07l-.62,3,4-2.38.9,4,2.41-.24a2.49,2.49,0,0,1-1.25-2.63c3.83-.53,8.05,4.11,7.76,5.67l8.88-.58c-.48,1.16-2,1.25-3.25,1.76,5.16-2,0,3.31,4.74,1.52-.36-.82.74-1.7,1-2.28,1.56,2.33,6.1,3.53,9.68,3.65l-1.19,1.89a57.47,57.47,0,0,0,9.63,2.2,87.27,87.27,0,0,1,10.24,2.16c-2.17-1.65-.62-5,1.48-4.81l-.09,3.37c1.84-1.57-1.75-1.78,1.57-3.4,2.45,1.09.7,4-1.05,4.66l3.4-.21c-.09,1-.95,1.27-1.48,2.41,1.83-1.58,4.4,4.65,7.21,1.8l-.1,1c6.75,2,10.11,1.94,15.66,3.46.94-2.65,2.9-1.39,5.23-3,3.8,2.06,7.56,5.69,12.46,7.07,3.84-.2,1.74-1.93,3.8-3-.56,2.52,4.35,3.9,1.25,4.81,3,.77,4.87,1.25,7,1.64a80.05,80.05,0,0,0,8.55,1c-.45-1.27-1.19-2-.44-2.68,1.47.08,2.67,2.1,2.07,3.19l-.44.12c4.75-.34,8.86,3.12,12.8,6.31s7.64,6.3,11.83,5l-.46.11,7.71,0c2.93,1.6-2.55,1.09-.84,3.44a14.54,14.54,0,0,1,9.76,2c2.55,1.41,4.87,2.92,8.36,2.81.86,4.43,4.94,6,9.36,7.27l3.34,1a28.6,28.6,0,0,1,3.15,1.21,10,10,0,0,1,4.73,3.87l.36-1.79c2.27-.91,1.5,1.77,2.49,2.65.39-1.34-1.06-2.21.3-2.67a58.18,58.18,0,0,1,10.34,4,91.33,91.33,0,0,1,9.75,5.8c6.37,4.23,12.59,8.8,18.83,12.91,4.64,2.85,6.88-6.85,11.13,0l-3.24,2.08a30,30,0,0,1,8.2,2.22c2.56,1.11,5,2.47,7.46,3.83s4.86,2.74,7.37,3.9a37.7,37.7,0,0,0,3.84,1.57,33,33,0,0,0,4,1.18c-.93.34-1.43,1.2-2.33.67.8,3.22,7.22,4.25,8.23,2.57,1.35,1-.54,1.73-.13,3.1,1.26,2.35,6.49.17,6.35,2.84,0,.43-.95.36-1.4.31.93-.14,2.4.78,3.64,1.34s2.26.83,2.36-.73c2.77,3.23,7.23,2.95,9.14,6,3.41-1.55,5.12,4.85,8,1.47-2.6,3.64,4,6.9,7.3,6.49-1.46.69,1.09,2.4-.77,3.45,2.46,1.52,5.16,2.26,6,0,.75,3.74,3.64,4.22,6.1,4.86s4.62,1.24,3.9,5c4.22,1.45,8.24,3,12.06,4.59s7.34,3.51,10.79,5.4c-2.91,3.46-7.2-4.74-9.71-.71a89.41,89.41,0,0,0,9.66,2.85,17,17,0,0,1,8.29,4.72c1.11,1.66-2,.89-3,1.11a40.78,40.78,0,0,1,8.89,6,31.34,31.34,0,0,0,8.64,5.35c-.28.31-1.11.21-1.84,0,1.08.71,1.88,2.44,3.07.76l-1.32-.38c.3-3.63,7.91-1.48,9.11-2.52-5.46,3.08,4,5.32-3.43,8.74a2.74,2.74,0,0,0,3.08-1c.71,1.12.5,2-1.5,2.35,4.26,2.13,4.47-.62,7.56,2.22-.66.74-1.54.46-2.63,1.05,2.84,0,5.73-.06,7.81,2.94-.56.31-.77,1.16-1.55.44,2.37,1.92,5.17,2.7,7.85,3.74a12.89,12.89,0,0,1,6.94,5.46c-4.4,1.75.67,2.6-1.67,5.53l3.36,1.68.22-2.29a12.89,12.89,0,0,0,4,2.29,5.2,5.2,0,0,1,3.12,2.76l-2.72-.59,4.62,3.73-1.33-3.39c3.6.94,3.12-3.57,5.33.2-.87-.35,2.2,2.32,1.76,5h0c1.94.31,4,.59,4.94,2.94-.46,1.27-3.34,2.46-3.65,3.3,3.31-1,5.58,4.87,9.36,4.09a4.31,4.31,0,0,0-2.65,1.76l2.76-.74c.38,1.63.23,2.05-1.09,2.91,2.6,3.57,2.59-4.18,4.59,1.05-.43-.17-.59.23-1.45-.15a13.13,13.13,0,0,0,1.13,1.6,17.7,17.7,0,0,0,1.26,1.45c.88.92,1.84,1.75,2.79,2.58a18.12,18.12,0,0,1,4.81,5.53c-2,3.48-3.42-2.63-4.81.65a39.14,39.14,0,0,0,4.15,3.39l4.42,3.29c2.92,2.22,5.7,4.57,7.42,7.48l-.44-1.24c2.38-1.23,2.68.13,2.79,2s.12,4.19,2.13,4.82c-.81-.44-3,.87-2.41.7a17.54,17.54,0,0,0,4.72,5.57c2.12,1.74,4.53,3.64,7.17,6.08l-1.61.05c.5,2.93,3.39,6.3,4.51,9.07,1.62,0,2.3,1.54,3.44-.4-.89,5.94,2.23,9,5.47,11.93s6.33,5.89,5.51,10.93c-.49-.82-2.17-1.39-1.8-.73,1.46,1.78,3,3.5,4.42,5.33,1.77-1.57.84-1.47,1.7-3.58a5.57,5.57,0,0,1,4.26,2.84c-2.79-2-3.26,1.78-3.79,3.55.52-.53,1.42-.49,2-.93-2,5.08,4.4-1.62,4.21,4l-1.2.32c1.38,1.35,3.66,2.11,4.19,4.07-2,1.92-2-1.22-4-.33,1.38,2.38,6.92,2.72,5.61,6.15-1.18-.75-1.92-2.28-3.09-3-1.65,3.84-.8,3.76-.39,5.8l0-.21.71,4.81.27-1.43c3.9.09,5,1.57,5.71,3.34s1.33,3.76,4.36,5c-5.77-2.48-2.59.3-5.52,1.16-.3,1.42-.46,3.44-1.45,3.3,3.1,1.07-.3,4,4.09,5.58-.85.49.76,2.21-1.7,2.65,1.73,2.36,1.34-1.24,2.56-1.47,2.34,1.43,2.34,4.22,2.55,7.14s.51,6,3.72,8.26c3.54,4.54,7.08,4.46,10.1,8.9-1,2.12-3.8-.29-3.8-.29-.56,3.08.29,5,2.13,7.17-1-.27-1.5.46-2.33,1.52.83,1.93,3.88.34,3.19,3.41a14.52,14.52,0,0,1-4.32-.94c1.53,2.1,3.88,4,5.39,6.21-1.47,1.09-2.88-.82-4.18-1.39,1.47,2.55,3.38,6.73,6.22,7l.46-2c.39,1-2.1,1.08-2.78.46-2.67-1.84,0-3.65.91-4l1.07,1.61c2.53-1.63,1.83-3.37.43-5.12s-3.49-3.54-3.89-5.33l4.44.31-4.41-2.65c.8-1.08,2.86-2.28,4-.7,1.2-3.14-2.1-1.82-.57-4.68.26-.35.49-.3.72-.13l-2-2.12c1,.23,2.68-1.3,2.57.42,1-5.27-5.32-6.22-2.88-8.9l.37.29c-3.45-5.7-3.1.38-8-3q3-2.79,6-5.64l-3.09.44c-.13-.66-.4-2,.84-2.17-2.86-1.6-1.1.85-3.47.2,1.44-4-4.4-7.78-.14-10.26-2.57-.21-.55,3.54-3.29.94,4.53-2.91-2.35-3.32-1.29-6.94,2.84-.23,2.64,2.91,3.69-.75-4.91.15-1.36-5.7-3.16-7.67-3.31,1.35-3.66-4.31-6.55-7.57,1.21-.28-1.53-8-2.27-12l.6-.18c-3.62,1-4.86-2.87-6.88-5.11,2-.93,3-.88,4.61.08l-1.3-2.45c-1.35,0-2.26-.51-3.53-1.85l2.75-.72c-2-3.15-6.48-4.86-7.24-9.88-2.33,1.08-4.32,6.82-8.22,3.41,1.1-.86,3.05-2.22,4.18-1.38-.38-.28-1.73-.74-1.66-1.77l3,.53c-.19-2.38-2.21,0-2.92-1.55,1.71-1,.54-1.8,2-2.4.4.27.09,1.69,1.1,1.85-.71-1.83-1-4.42-.08-5.87-.87.73-2.27,1.39-3.24.32-2-3.05,1.36-2.32,1.09-4.69-1.64,0-1.68-2.79-4.2-1.26-.55-.92.5-1.83,1-2.62-2.11-.91-5.26-7.2-6.67-3.68l.1.52c-.1,0-.17-.13-.28-.19h0c-2.95-1.76-4.39-4.65-5.67-7.67s-2.58-6.05-4.9-8.18l.81-.57a40.89,40.89,0,0,1-4.24-4.09,9.59,9.59,0,0,0-4.45-2.89c-.67-.85-.16-3.12,1.06-3.47-2.33-1.77-3.38-1.32-4.62-5.53,3.1,1.15.59-1.72,2.78,1.5-.8-1.71-1-3-1.61-4s-1.53-1.8-3.86-2.43c2.83-.58.67-4.15-1-5l.27,3.12a16.68,16.68,0,0,1-3.44-4.18l3.15-1.43a7.71,7.71,0,0,0-2.93-4.61,21.26,21.26,0,0,0-4.62-2.56c-3.17-1.44-5.9-2.9-5.33-7.31-3,.1,1.54,4.13-1.67,4.64-2-2.84-.9-8.76-1.63-9.58-2-4.73-6.61.15-9.14-4.27a3.7,3.7,0,0,1-5.63,2.06c-2.07-2.75.59-6.53,2.79-5.63.65.52.66,1.07.35,1.33,1.08.5,2.47,1.19,2.44-.69l-1.17.51c-.33-2.08-3.75-5.42-1.6-6-2.64-1.07-2.15.58-1.23,2.4a12.07,12.07,0,0,0-3.5-4.58,18.82,18.82,0,0,1-3.93-4.31c.08,1-.41,2.45-.92,1.94-3.82-5.7-3.68-.41-7.29-3.16a2.68,2.68,0,0,1,1-2.68c.44-.49.43-.88-1.79-1.84-1.25-2.76,1.69-2.72,3.18-2.68-4.66-1.11-4.81-6.33-6.33-8.26l2.29.77a8.12,8.12,0,0,1-3-1.94l-.63,2.61c-.69-1.17-1.5-1.91-.83-2.63-2,.27-1.86,3.63-5.22,3.47-.24-1-1.42-1.66-2.35-2.36s-1.62-1.47-.82-2.85c3.43,4.3,1.63-2.81,5.43-.18a5,5,0,0,1-2.45-2.18c.08-.39.57-.38,1-.28-2.16-5.49-4.15,1.16-8.21-2.34,1.67-.92,1.21-3.38.29-3.66,1.64,1.43-1.11,2.94-3.49,2.71-1.75-3.27-3.52-1.6-4.79-2.88l1.16,1.82c-1.67.94-2.79-.39-5-1.41.71-1.2,2.3.6,2-.4-4,.8-2.68-6.21-6.9-6.86-.61-2,1.93-2.72,1.24-4.3-4.69-.74-2-4.74-6.69-5.9-.43,2.65.09,2.31-3.78,2.35,2.28.94,4.48,2,6.71,3l-5.73-.08c1.67,1.35,4.49,1.62,5.26,2.74-2.91.19-2.36-.14-2.77,2.06-.06-2.32-1.53-2.81-3.12-3.22s-3.37-.65-4-2.63l3.63-4.67c-2.59-5.17-9.17-3-13.67-8.13l1.13,2.1c-1,.69-1.91.14-2.82-.62a7.59,7.59,0,0,0-3-2c1.31-1.5.61-2.86.55-4.39-.74,1.27-3.95-2.89-6.69,0l-1-3.84c-1.92-2-4-1.68-6-1.32s-4.14.84-6.11-.84c2.48-.95,1.28-3.4,5-2.8-1.45-1-2.55-2.1-3.33-1-.17-1.58-5.47-.37-5.78-2.8-1.08.33-2.39,1.94-3.92.76a1.41,1.41,0,0,1,.53-.82c-.53.82-3.25-.52-3,2.24a7.83,7.83,0,0,0-2.47-4.71,21.91,21.91,0,0,0-4.5-2.89c-3.21-1.68-6.38-3.23-7-6.69-1.77-.69-3.71-1.49-5.58-2.32s-3.7-1.6-5.21-2.39c.48-.4.5-.84,1-.35-3.18-3.91-5.34,3.49-9-.92-.8-4.13,3.32-.1,2.43-2,2.56-6-6-2.42-7.33-7.52l1,.1c-1.33-3.32-7.11-1-10.84-3.57a1.55,1.55,0,0,0,.49-.86c-4.29,1.47-9.91-.28-14.14-1.49,2.35-1.63,2.35-.27,2.82-3-1.89-.57-1.4,3.9-5.16,2.82-.49-1.8-2.42-4.13-1.51-6.75l3.34,1.5c-.05-4-4.29-2-5.73-3.42l.92-1.28c-5.24-2.06-7,1.43-12.29-1.51l0,1.34c-4.63,2-1.49-3.22-5.71-2l.82-4c-2.38-.07-8.51.23-12.32-.74,3.22-1.72,8-1.15,11.27-1.52-1.93-.94-6.75-2.84-8.58-1.55.94,0,2.34-.39,2.86.52a12.64,12.64,0,0,1-11.3-.26c1.92-3.3-.38-5-3.27-6.51S485,91,484.74,87.66c-4.05-.23-7.37-2-10.73-4.14a54.11,54.11,0,0,0-11-5.94c.63,6.7-2.45-.82-4.27,5-2.05-.41-2.73-.8-2.75-1.24l-4.39-5.75c-.7-2.21,2.32-.51,2.65-1.85-4-2.15-.78-3.12-2.95-5.77-.24,2.27-2.61,2.3-4.71.62.78,1.32,1.57,2.59,2.34,3.94-7.06.73-3.21-6.74-10.32-6l2.57-1.08c-3.45-.11-11.25-4.36-15.95-.9-.29-.86-.42-2.7,1.08-2.6-3.51-1.77-8.07-1.93-12.28-2.38s-8.13-1.05-10.47-3.49l1.05-1.21c-1.51-.08-3.31,1.8-4.52-.24.29-.55,1-1.21.44-1.52-.89.22-4.49,1.18-6.05-.23l2.11-1.07c-6.6-4.27-12.39.18-18.73-.85.69-2.08-.27-4-1.75-5.47a23.65,23.65,0,0,0-4.79-3.45l.28-.57c-8.34-3.11-15.45-1.05-23.81-1.56-3.58-6-16-6.72-23.26-11.28,1,1.09-1.07,3.27-2.59,3.33-1.63-1.35-5.89,1.62-4.59-2.21L318,30c-.41-4.2-4.5-4.17-7.46-5.06l-1.77,5c-3-4.65-8.31-5.19-13.17-5.51s-9.3-.48-10.7-4.28c-2.19.89-4.55.37-6.71,1.26l.7-2.75a51.19,51.19,0,0,0-14.35-3.46l1.74-1.7c-3.66-1-6.26,7-9.68,6.56l-.21-4.34c-6.44-1.14-12.31-6-19.35-3.44.21-.59.61-1.76,1.68-1.73-3-.69-11.32-4.77-11.16,1.12.54-3.74-6.62-1.45-10.36-.37l1-2.67c-3.5,3-3.74,4-8,4.3-.93-.49-.53-2.32.66-1.43-3-1.9-2.92,2.26-6.64.25L206,10.2c-3.32-.67-3.19.31-5.31,2.12-2.26.82-6.24-1.56-6.41-4.13-.65,1.46-2.75,3.25-4.62,2.26a1.68,1.68,0,0,1,1-1.7c-5.36-2.69-8.72,2.15-12.25-1A2.26,2.26,0,0,0,177.94,6c4.46.56,8,1.09,7.67,1.28.32-2.58-3.25-3.41.07-6.62-3.16,1.6-8.61,5.24-12,3.66a3.18,3.18,0,0,1-.36-.94l.39-.24a2.56,2.56,0,0,0-2.27.17,8.32,8.32,0,0,0-2.84-1.09c-.2-2.16-4-1.59-5.83-1.89-.13,2.81-2.44,2.1-.46,4.65-.27-.23.37-.29,1.58-.28a1.88,1.88,0,0,0,.79-.21c0,.08-.09.16-.14.24,1.19.05,2.73.15,4.49.3-1.57,1.26-3.17,2.3-5,.53-1.11,1.69-2.3,3.43-3,4.24C159,5.62,154.45,3.19,154,.71c-5.66,1.12-13.12,0-16.95,5-1.61.55-1.69-1.66-2.22-2.53.94-.46,2-.29,2.56-1-1.62.57-3.94.46-6,.79s-3.82.95-4.3,2.77c-3.85-1.86,2.42-3.28-3-2.95l.79-1.09c-5.18-3.22-9.68-1.09-14.25.82s-9.23,3.78-15.06-.14c.81.48,1.22.7,1.37,1.32a39.66,39.66,0,0,0-10.23-1.2A100.59,100.59,0,0,0,76.28,3c-6.94.63-13.82,1-20.56-1.55-3.83-1-4.17,1.42-6.42,3.3l-.93-3L44.56,5.45C39.12,8.26,34.48-1.49,27.64,3.67l1.05,2a11.34,11.34,0,0,0-2.33.11c-.86.13-1.77.3-2.58.4-1.64.19-2.92.11-2.8-1.07-.23.39-.67,2.18-1.74,1.2L19,4.72,13,8c-4.93-.72.23-6.31-6.9-6-2.6.83-7,5.21-5.95,6.18a3.09,3.09,0,0,1,3,2.32l-2.3,1C.94,16.13-.34,21,5.74,23.77L9.48,20.6,11,22.73l-3.36.43c2.11,1.95,3.15,0,4.39-1.42a3.87,3.87,0,0,0,1.9,2.34l3.57-4.77c.62,1.78-1.47,3.75,1.24,4.53,1.69-2.22-2.09-3.92.86-5.53C21.67,20.25,21.23,22,23.36,20a2.06,2.06,0,0,1-.87,2.58c1.9-1.59,5.25-1.1,6.13-3.57,2.17,2.51,6.77-1,6.82,3.4.56-1.08,3.35-3.62,5.2-3.89-3.13,5.43,6.94,0,6.27,5.67,1.15-2.43,3.39-3.06,5.87-3.44s5.23-.35,7.42-1.7c-.24.38-.71,1.15-1.11.91,2.5.36,3.25,1.78,4.87,2.66.25-3.93,4.13-4.87,6.21-7.31,3.1,3.73-1.82,4.62-.82,8.24-.19-3.18,5.27-3.24,4.23-5.87,2.35,2.31,2,1.11,3.22,4.34.42-4.88,2.17-.91,4.13-3.85,3.37,2.49.84,4.61,4.56,3.2C87.24,22.92,83.93,24.59,83.93,24.59Zm88.79-2.95v.05l-1.85,0Zm7.44.76a24.68,24.68,0,0,0-3.21-.46c-.15-1,.25-2,1-1.82C177.46,20.72,179.15,21.47,180.16,22.4ZM166.43,1.31c1.24-.27,1.58.33,1.69.92a15.92,15.92,0,0,0-2.14.1c0,.1-.12.22-.17.33A4.45,4.45,0,0,1,166.43,1.31Z"/><path class="cls-1" d="M163.9,4.74c-.18,0-.29.15-.52.15a5.75,5.75,0,0,0,.66.71c.17-.29.35-.58.51-.83Z"/><path class="cls-1" d="M760.07,308.32l0-.17a1.05,1.05,0,0,1-.14.5A1.69,1.69,0,0,1,760.07,308.32Z"/><polygon class="cls-1" points="280.75 45.19 280.9 44.49 280.13 44.97 280.75 45.19"/><path class="cls-1" d="M773,348.83a1.38,1.38,0,0,0-.39.81A1.83,1.83,0,0,0,773,348.83Z"/><path class="cls-1" d="M780.33,364.91l.17,2.68A10.92,10.92,0,0,0,780.33,364.91Z"/><path class="cls-1" d="M784.63,377.84a5.25,5.25,0,0,0,1.21-.24,0,0,0,0,1,0,0Z"/><path class="cls-1" d="M651.23,212a1.54,1.54,0,0,0-.48-.24C649.47,211.41,650.24,211.77,651.23,212Z"/><path class="cls-1" d="M703,250.77a11.18,11.18,0,0,1-2.41-.57C701.19,251.18,701.77,251.85,703,250.77Z"/><path class="cls-1" d="M591.41,172.86l0,0c-.14-.08-.24-.16-.37-.24Z"/><path class="cls-1" d="M698.48,248a3.31,3.31,0,0,0,2.06,2.18A5,5,0,0,0,698.48,248Z"/><path class="cls-1" d="M802.28,433.55l.05.65a1.07,1.07,0,0,1,.46,0Z"/><path class="cls-1" d="M802.79,434.17l.51.61C803.21,434.46,803.12,434.19,802.79,434.17Z"/><path class="cls-1" d="M804.38,436.08l-1.08-1.3C803.43,435.29,803.51,435.94,804.38,436.08Z"/><path class="cls-1" d="M798.68,416l-1,.1A2.59,2.59,0,0,0,798.68,416Z"/><path class="cls-1" d="M796.82,410.89c.15,1.32-1.13,3.77,0,5.3l.82-.08C796,415.75,798.81,411.56,796.82,410.89Z"/><path class="cls-1" d="M800.88,385l.94,4.68c.72-1.15,1.69-2.68,2.71-.77C805.41,382.16,802.7,390.88,800.88,385Z"/><path class="cls-1" d="M796.76,370.85c1.47,2.13,1.44-.65,2-.78C797.27,369,796.89,368.73,796.76,370.85Z"/><path class="cls-1" d="M742.63,280.33,744.8,279C743.3,277.64,744,279.56,742.63,280.33Z"/><polygon class="cls-1" points="719.81 273.26 719.79 275.7 722.15 274.86 719.81 273.26"/><polygon class="cls-1" points="725.76 252.38 726.61 252.77 723.72 250.96 725.76 252.38"/><path class="cls-1" d="M587.38,141.22l-1.13,3C587.66,144.41,589.75,141.54,587.38,141.22Z"/><path class="cls-1" d="M518.85,107.53c-.05-1.78-1.52-3.67-3.39-2.84C516.91,105.62,517.89,107.51,518.85,107.53Z"/><polygon class="cls-1" points="306.01 25.21 307.76 24.54 304.73 24.73 306.01 25.21"/></g></g></svg>
