<svg id="sewing-machine" xmlns="http://www.w3.org/2000/svg" width="183.484" height="190.738" viewBox="0 0 183.484 190.738">
  <path id="Path_18" data-name="Path 18" d="M150.064,375.511a2.794,2.794,0,0,0,2.794-2.794v-2.509a2.794,2.794,0,1,0-5.588,0v2.509A2.794,2.794,0,0,0,150.064,375.511Z" transform="translate(-96.033 -230.536)" fill="#b68981"/>
  <path id="Path_19" data-name="Path 19" d="M150.064,407.594a2.794,2.794,0,0,0,2.794-2.794V402.29a2.794,2.794,0,0,0-5.588,0V404.8A2.794,2.794,0,0,0,150.064,407.594Z" transform="translate(-96.033 -250.667)" fill="#b68981"/>
  <path id="Path_20" data-name="Path 20" d="M150.064,439.677a2.794,2.794,0,0,0,2.794-2.794v-2.509a2.794,2.794,0,1,0-5.588,0v2.509A2.794,2.794,0,0,0,150.064,439.677Z" transform="translate(-96.033 -270.798)" fill="#b68981"/>
  <path id="Path_21" data-name="Path 21" d="M150.064,471.759a2.794,2.794,0,0,0,2.794-2.794v-2.509a2.794,2.794,0,0,0-5.588,0v2.509A2.794,2.794,0,0,0,150.064,471.759Z" transform="translate(-96.033 -290.928)" fill="#b68981"/>
  <path id="Path_22" data-name="Path 22" d="M187.124,131.677a2.794,2.794,0,0,0-2.794,2.794v5.917a2.794,2.794,0,1,0,5.588,0v-5.917A2.794,2.794,0,0,0,187.124,131.677Z" transform="translate(-119.286 -82.622)" fill="#b68981"/>
  <path id="Path_23" data-name="Path 23" d="M212.1,131.677a2.794,2.794,0,0,0-2.794,2.794v5.917a2.794,2.794,0,1,0,5.588,0v-5.917A2.794,2.794,0,0,0,212.1,131.677Z" transform="translate(-134.958 -82.622)" fill="#b68981"/>
  <path id="Path_24" data-name="Path 24" d="M237.077,131.677a2.794,2.794,0,0,0-2.794,2.794v5.917a2.794,2.794,0,0,0,5.588,0v-5.917A2.794,2.794,0,0,0,237.077,131.677Z" transform="translate(-150.63 -82.622)" fill="#b68981"/>
  <path id="Path_25" data-name="Path 25" d="M262.054,131.677a2.794,2.794,0,0,0-2.794,2.794v5.917a2.794,2.794,0,1,0,5.588,0v-5.917A2.794,2.794,0,0,0,262.054,131.677Z" transform="translate(-166.302 -82.622)" fill="#b68981"/>
  <path id="Path_26" data-name="Path 26" d="M417.888,183.66a12.6,12.6,0,1,0,12.6,12.6A12.611,12.611,0,0,0,417.888,183.66Zm0,19.606a7.009,7.009,0,1,1,7.009-7.009A7.016,7.016,0,0,1,417.888,203.266Z" transform="translate(-257.93 -115.239)" fill="#b68981"/>
  <path id="Path_27" data-name="Path 27" d="M184.273,150.407a2.794,2.794,0,0,0,2.794-2.794V96.863a23.48,23.48,0,0,0,0-31.691V60.915A29.278,29.278,0,0,0,165.56,32.729a6.613,6.613,0,0,0,.357-2.133v-18a6.7,6.7,0,0,0-6.705-6.678h-2.494V2.794a2.794,2.794,0,1,0-5.588,0V5.917h-2.494A6.7,6.7,0,0,0,141.93,12.6v8.91H66.561V20.259a2.794,2.794,0,1,0-5.588,0v1.247h-.1a2.794,2.794,0,1,0,0,5.588h.1v5.188A29.284,29.284,0,0,0,37.634,60.916V96.233a10.913,10.913,0,0,0,10.9,10.9h2.258v2.678a7.384,7.384,0,0,0,7.375,7.375h2.8v2.683H59.441a2.794,2.794,0,1,0,0,5.588h1.533v2.683H34.468a6.586,6.586,0,0,0-6.025,3.945H25.115a8.689,8.689,0,0,0-8.679,8.679v28.747a7,7,0,0,0-6.7,6.978v7.253a7,7,0,0,0,6.993,6.993h169.5a7,7,0,0,0,6.993-6.993v-7.253a7,7,0,0,0-6.153-6.937v-8.9a2.794,2.794,0,0,0-5.588,0V169.5H85.14V137.675h96.34v9.939a2.793,2.793,0,0,0,2.794,2.793ZM169.693,98.956a17.938,17.938,0,1,1,17.938-17.938A17.958,17.958,0,0,1,169.693,98.956ZM147.518,12.6a1.119,1.119,0,0,1,1.117-1.09h10.577a1.119,1.119,0,0,1,1.117,1.09v18a1.119,1.119,0,0,1-1.117,1.09H148.636a1.119,1.119,0,0,1-1.117-1.09Zm-80.957,14.5H141.93v3.5a6.652,6.652,0,0,0,.1,1.09H66.864c-.1,0-.2.007-.3.008ZM44.073,54.643H59.218A1.757,1.757,0,0,1,60.973,56.4V85.793a1.757,1.757,0,0,1-1.755,1.755h-16V60.916A23.439,23.439,0,0,1,44.073,54.643Zm12.308,55.169v-2.678H71.152v2.678a1.811,1.811,0,0,1-1.787,1.787h-11.2A1.811,1.811,0,0,1,56.381,109.812ZM22.024,140.766a3.1,3.1,0,0,1,3.091-3.091h2.773V169.5H22.024Zm-5.295,44.384a1.424,1.424,0,0,1-1.4-1.405v-7.253a1.424,1.424,0,0,1,1.4-1.4H27.888v9.072c0,.2.012.4.031.6.005.058.013.116.02.174s.013.143.024.213H16.729Zm16.747-.992V134.721a.993.993,0,0,1,.992-.992H78.56a.992.992,0,0,1,.991.992v49.437a.992.992,0,0,1-.991.992H34.468a.993.993,0,0,1-.992-.992Zm152.751-9.072a1.424,1.424,0,0,1,1.4,1.4v7.253a1.424,1.424,0,0,1-1.4,1.405H85.065c.011-.07.016-.142.024-.213s.015-.116.02-.174c.018-.2.031-.4.031-.6v-9.072H186.227Zm-45.838-43V88.211a9.858,9.858,0,0,0-9.847-9.847H118.869a2.794,2.794,0,0,0,0,5.588h11.672a4.264,4.264,0,0,1,4.259,4.259v43.875H84.585a6.586,6.586,0,0,0-6.025-3.945h-12v-2.683h1.532a2.794,2.794,0,1,0,0-5.588H66.561v-2.683h2.8a7.384,7.384,0,0,0,7.375-7.375v-2.678H79a10.913,10.913,0,0,0,10.9-10.9V88.21a4.264,4.264,0,0,1,4.259-4.259h11.672a2.794,2.794,0,0,0,0-5.588H94.159a9.858,9.858,0,0,0-9.847,9.847v8.022A5.319,5.319,0,0,1,79,101.546H48.535a5.319,5.319,0,0,1-5.313-5.313v-3.1h16a7.352,7.352,0,0,0,7.344-7.343V56.4a7.352,7.352,0,0,0-7.344-7.344H46.425A23.65,23.65,0,0,1,66.864,37.273h90.973a23.67,23.67,0,0,1,23.641,23.373,23.526,23.526,0,1,0,0,40.74v30.7H140.388Z" transform="translate(-9.736 0)" fill="#b68981"/>
</svg>
