<svg xmlns="http://www.w3.org/2000/svg" viewBox="0 0 650.1 415.4"><defs><style>.cls-1{opacity:0.8;}.cls-2{fill:#d7c8a7;}.cls-3{fill:#f6f3ec;}.cls-4{fill:#f1ebdf;}.cls-5{fill:#e5dac5;}.cls-6{fill:#eae2d0;}.cls-7{fill:#ede6d7;}.cls-8{fill:#f2ede2;}.cls-9{fill:#e1d5bc;}.cls-10{fill:#e5dac4;}</style></defs><g id="Layer_2" data-name="Layer 2"><g id="Layer_1-2" data-name="Layer 1"><g class="cls-1"><g class="cls-1"><path class="cls-2" d="M437.54,368.7c3.54,7,6.21,7.52,8.49,5.32a17.6,17.6,0,0,0,3.16-4.87c.95-2.06,1.86-4.33,2.85-6.36-1.19.17-2.4.28-3.63.37-1.71,1.07-3.53,2-5.34,2.87S439.4,367.84,437.54,368.7Z"/><path class="cls-2" d="M448.41,363.16c1.23-.09,2.44-.2,3.63-.37a22.81,22.81,0,0,1,1.57-2.76C451.91,361.08,450.17,362.13,448.41,363.16Z"/><path class="cls-2" d="M434.36,361.39c1.15,3,2.2,5.37,3.18,7.31,1.86-.86,3.71-1.76,5.53-2.67s3.63-1.8,5.34-2.87a33.3,33.3,0,0,1-7-.25A43.3,43.3,0,0,1,434.36,361.39Z"/><path class="cls-2" d="M453.61,360l2.73-1.67a25.29,25.29,0,0,0,2.65-1.75,5.17,5.17,0,0,0-3,.88A9.22,9.22,0,0,0,453.61,360Z"/><path class="cls-3" d="M438.29,200.2c-7,11.44-14.61,19.6-21.26,24.3-.42.29-.83.57-1.23.86l-.6.44-.83.56c-1.12.76-2.2,1.52-3.27,2.29-.53.38-1.05.8-1.58,1.15l-1.59.89c-1,.6-2.05,1.21-3,1.84-4,1.93-7.65,3.68-10.94,4.3.91.67,1.86,1.33,2.83,2l1.48,1,1.5.8c2,1.06,4.1,2.07,6.23,3a22.53,22.53,0,0,0,3.17,1.1c1,.32,2.11.6,3.15.86a28.12,28.12,0,0,0,6.09,1,29.75,29.75,0,0,0,4.32,0c.69,0,1.37-.12,2-.22a9.23,9.23,0,0,0,1.92-.42,24.68,24.68,0,0,0,6.64-3.42,8.91,8.91,0,0,0,1.22-1c.37-.35.72-.71,1.05-1.09a12.12,12.12,0,0,0,1.82-2.48,31.91,31.91,0,0,0,1.4-2.88,12.87,12.87,0,0,0,.54-1.59c.16-.55.31-1.1.45-1.66a36.06,36.06,0,0,0,1-7.18c.09-1.2,0-2.6,0-3.89s-.08-2.58-.2-4c-.27-2.78-.53-5.37-1-8.23l-.62-4.11Z"/><path class="cls-4" d="M376.6,238.5a106.39,106.39,0,0,1-15.07-3.16c.67.59,1.36,1.17,2.06,1.72s1.3.89,2,1.3,1.36.78,2.06,1.11a18.25,18.25,0,0,0,1.94.62,11.45,11.45,0,0,0,2,.34,11,11,0,0,0,1.8-.21,6,6,0,0,0,1.75-.56A11.47,11.47,0,0,0,376.6,238.5Z"/><path class="cls-3" d="M441.71,202.93c.45,2.89.8,5.59,1.2,8.47.22,1.46.32,2.76.48,4.18s.29,2.83.35,4.17a64.57,64.57,0,0,1,0,8c-.1,1.27-.2,2.59-.39,3.82s-.46,2.37-.76,3.54c-.15.58-.29,1.18-.48,1.72s-.4,1.06-.62,1.58a31.11,31.11,0,0,1-1.48,3,26.39,26.39,0,0,1-1.93,2.53c-.36.4-.7.78-1.1,1.16s-1,.79-1.46,1.16a26.08,26.08,0,0,1-3.19,2c-.56.31-1.14.59-1.73.85a9.23,9.23,0,0,1-1.85.65,27.87,27.87,0,0,1-8.41.71,49.77,49.77,0,0,1-6.19-1.05c-1.06-.24-2.13-.51-3.19-.8a11.91,11.91,0,0,1-1.62-.55l-1.62-.64c-2.16-.88-4.28-1.85-6.32-2.87-2.08-1.2-4.07-2.5-5.93-3.78-.35.1-.68.24-1,.32l-1,.15c-.67.1-1.32.23-2,.38l-.47.11-.5,0-1,.07c-.63.05-1.24.14-1.84.23s-1.27,0-1.87,0a9.29,9.29,0,0,1-1.83,0c-1.28-.15-2.39,0-3.73-.24-.64-.07-1.27-.12-1.88-.14s-1.36-.25-2-.33c-1.27-.08-2.79-.49-4.2-.69a20.15,20.15,0,0,1-2.27-.48c-.78-.18-1.55-.34-2.32-.48s-1.68-.47-2.51-.68a25.32,25.32,0,0,1-2.57-.68,13.93,13.93,0,0,1-10.22-.37,31.7,31.7,0,0,1-10-6.81c-8.72-3.68-18.25-8.32-28.36-13.83s-20.84-12-32.24-19l-17.92-11.26-4.78-3-2.44-1.53-1.22-.76c-.27-.17-.24-.17-.28-.21l-.1-.12a9.16,9.16,0,0,0-.86-.8,5.07,5.07,0,0,1-.56-.53c-.2-.2-.41-.39-.61-.57s-.42-.37-.64-.54-.49-.5-.74-.73c-.51-.5-1-1-1.55-1.44s-1.16-1.2-1.75-1.78l-.9-.86-1-1c-.64-.68-1.29-1.36-1.95-2l-2-2.32-1-1.14c-.35-.37-.7-.84-1-1.26l-2.14-2.53a246.8,246.8,0,0,1-17.53-24.59,315.28,315.28,0,0,1-16.39-29.43A332.8,332.8,0,0,1,180.34,45.2a36,36,0,0,0-2.91-6.8c-.73-1.52-1.61-3.18-2.62-4.93s-2-3.5-3.14-5.29-2.29-3.53-3.55-5.22q-.94-1.26-2-2.46c-.64-.78-1.27-1.52-1.94-2.23A28.65,28.65,0,0,0,160,14.5a16,16,0,0,0-4.46-2.33c-1.58-1.3-3.25-2.68-4.8-4s-3.09-2.69-4.65-4.1l-5.62.07c-.06,2-.34,3.89-.47,5.92s-.21,4.1-.2,6.19a40.91,40.91,0,0,0,.8,6.44,28.62,28.62,0,0,0,2.49,6.59,10.15,10.15,0,0,0,1.61,4,40.68,40.68,0,0,0,2.76,3.8c2.05,2.51,4.11,5,4.67,7.74,2.8,12.5,4.92,25.05,9.38,37.47l.84,2.33,1,2.31c.65,1.53,1.33,3.07,2,4.6a95,95,0,0,0,5,9c1,1.48,2,2.94,3.06,4.4.53.73,1.07,1.45,1.64,2.17s1.18,1.42,1.79,2.12c1.22,1.41,2.5,2.81,3.84,4.18s2.84,2.69,4.34,4a5.67,5.67,0,0,1,2.49,2.75,10.69,10.69,0,0,1,.86,4.06,32.66,32.66,0,0,1-.24,5c-.16,1.76-.42,3.61-.67,5.48a46.14,46.14,0,0,0-.57,10.6c.3,3.15,1.46,5.55,3.94,6.62a103.71,103.71,0,0,1,14.55,20.78c3.89,7,7.1,14.14,10.47,20.84l2.55,4.92q1.34,2.3,2.66,4.59a61.79,61.79,0,0,0,5.76,8l.77.9a8.88,8.88,0,0,0,.77.82c.52.5,1,1,1.57,1.49s1.09,1,1.62,1.4,1.07.74,1.61,1.09l.83.52.41.26.58.33c1.14.61,2.28,1.2,3.45,1.76s2.34,1.12,3.53,1.64,2.35,1,3.55,1.45c4,1.42,7.81,2.54,11.55,3.6s7.28,1.92,10.7,2.66l5.12,1.14,4.94,1c3.27.71,6.41,1.32,9.5,2l4.57,1.07c1.5.37,3,.76,4.46,1.19,2.95.82,5.82,1.69,8.68,2.8a79.71,79.71,0,0,1,16.7,8.49c2.72,1.08,6.52.7,10.23.37,1.85-.19,3.62-.49,5.27-.58a18.18,18.18,0,0,1,2.34,0,8.68,8.68,0,0,1,2,.23,183.94,183.94,0,0,0,21.12,8.7,132,132,0,0,0,18.61,4.88,80.13,80.13,0,0,0,18.15,1.37A87.32,87.32,0,0,0,420.71,258a4.54,4.54,0,0,1,2.71-.87,30.82,30.82,0,0,1,3.84.27c2.83.32,6.2,1.08,9.55,1.61.84.13,1.68.26,2.5.34s1.6.08,2.37.08A18.37,18.37,0,0,0,446,259a7.29,7.29,0,0,0,3.2-1.57,3.67,3.67,0,0,0,1-1.31,5.06,5.06,0,0,0,.35-1.68c-.31-2-.56-3.91-.8-5.73s-.51-3.69-.71-5.41l-.57-5c-.18-1.67-.29-3.19-.44-4.79-.32-3.23-.45-6.14-.71-9.22-.13-1.52-.17-2.92-.31-4.46l-.38-4.47c.59-1.1,5.21-.46,10.11-.22a31.65,31.65,0,0,0,7-.26c2-.41,3.54-1.22,4.1-2.63a41,41,0,0,0,5.84-16.57,79.74,79.74,0,0,0,.61-9c0-1.52,0-3-.07-4.57l-.09-2.27-.16-2.3c-.82-12.24-2.89-24.28-1.09-35.81-2,1-3.81,2.1-5.55,3.16-3.6,11.21-7.53,21.85-11.8,31.64A199.11,199.11,0,0,1,441.71,202.93Z"/><path class="cls-3" d="M480.34,70.45a73.7,73.7,0,0,1,6.92,11.85,86.58,86.58,0,0,0,11.48-37.9,93,93,0,0,0-6.63-40.78C488.35,26.65,484.58,49,480.34,70.45Z"/><path class="cls-3" d="M476.33,109.43l1.09-.65c-3.12,12.49-6.5,24.58-10.18,36.06,1.74-1.06,3.57-2.11,5.55-3.16a44.83,44.83,0,0,1,8.32-20.28c1.37-1.77,2.65-3.61,3.89-5.48a62.79,62.79,0,0,0-4.66-8.9c.72-.43,1.37-.86,2.13-1.28,8.84-5.4,9.07-13.82,4.79-23.44-1.14,2-2.36,3.91-3.65,5.79a45,45,0,0,0-3,5.32,43.16,43.16,0,0,0-2.14,5.32A49.34,49.34,0,0,0,476.33,109.43Z"/><path class="cls-5" d="M638.77,135c-10.58,14.31-9.12,26.57-7.31,39.6.93,6.48,1.84,13.19,1.4,20.15a48.92,48.92,0,0,1-2,10.72,48.11,48.11,0,0,1-5.39,11.17,202.42,202.42,0,0,0-16.23,34.6q-1.72,4.5-3.26,9.05c-1.09,3.06-2.19,6.15-3.22,9.25s-2.17,6.28-3.24,9.45l-1.61,4.77-1.76,4.85a350.9,350.9,0,0,0,37.43-77.9,336.08,336.08,0,0,0,10.32-37.49,306.2,306.2,0,0,0,5.46-36.47A18.15,18.15,0,0,1,638.77,135Z"/><path class="cls-6" d="M566.23,16.57c9.13,7.72,13.54,17.69,10,31.44-3.22,11.6-9.6,22.15-15.33,32.06s-10.85,19.25-11.52,28.82c-2.51,13.31-2,27.31-.92,42s2.59,30,2,45.47-3.28,31.17-10.46,45.17a69.66,69.66,0,0,1-14.17,19.05c-1.48,1.4-3.09,2.71-4.71,4a54.09,54.09,0,0,1-5.12,3.56,60.84,60.84,0,0,1-11.65,5.6q-2.81,1.11-5.43,2.26c-1.76.76-3.55,1.47-5.24,2.23s-3.33,1.54-5,2.29-3.28,1.49-4.84,2.26l-2.31,1.17c-.77.39-1.57.74-2.34,1.13q-2.31,1.13-4.52,2.33t-4.3,2.49c-1.41.83-2.89,1.59-4.29,2.43-11.14,6.7-21.32,14-32.3,20.9s-22.8,13.23-35.95,17.48a106.1,106.1,0,0,1-41.52,5.17,34.31,34.31,0,0,0-9.28.89c-3.35.8-6.88,1.63-10.52,2.56-7.22,1.78-14.74,3.13-20.48,1.56a288.1,288.1,0,0,1-27.44-8.93c-4.42-1.59-8.65-3.42-12.92-5.12s-8.38-3.58-12.44-5.49c-16.35-7.47-31.68-15.64-46.74-24a30.41,30.41,0,0,1-12.07-12.15,55.37,55.37,0,0,1-3.32-7.22c-1-2.51-1.76-5.07-2.54-7.54s-1.49-5-2.35-7.35c-.44-1.2-.9-2.36-1.43-3.49s-1.06-2.31-1.7-3.41a31.18,31.18,0,0,0-4.88-6.3,28.59,28.59,0,0,0-3.43-2.9,46.57,46.57,0,0,0-4.24-2.83c-.66-.6-1-1.91-1.08-3.56a44.86,44.86,0,0,1,.15-5.69c.27-4,.61-7.89-.54-9.18a195.1,195.1,0,0,1-20.8-21.81,256,256,0,0,1-18.19-25.08,302.64,302.64,0,0,1-15.35-27.4,309.77,309.77,0,0,1-12.39-29,295.43,295.43,0,0,1-9.27-30,268.4,268.4,0,0,1-5.89-30.45c-.74-5.07-1.17-10.14-1.61-15.17l-.42-7.53c-.14-2.5-.11-5-.16-7.46A195.37,195.37,0,0,1,97,2.86,291.07,291.07,0,0,0,58.71,3c.91,15.19,1.83,30.35,3,45.7S64.35,79.52,66.43,95c4.16,30.88,10.93,61.79,23,89.09a230.86,230.86,0,0,0,29,53.75l2.27,3.15c.77,1,1.57,2.06,2.36,3.09,1.61,2,3.18,4.11,4.83,6.12l5.08,6c1.67,2,3.53,3.91,5.3,5.86a227.9,227.9,0,0,0,23.5,22.07l1.58,1.31,1.65,1.27,3.32,2.52c1.11.83,2.18,1.7,3.34,2.5l3.5,2.41,3.5,2.39c1.19.78,2.45,1.52,3.67,2.28L186,301l.92.57.8.46,1.53.89c8.18,4.74,16.46,9.68,24.86,14.7S231,327.81,239.61,333l26.26,16c16.89,9.87,35.78,19.32,57.11,25.51a169.28,169.28,0,0,0,33.4,6.36l4.33.38c1.45.08,2.93.1,4.39.14,2.93.06,5.85.14,8.79.06s5.9-.33,8.84-.56l2.19-.17c.74-.07,1.48-.19,2.21-.29l4.4-.66a77,77,0,0,1-1.16-7.89,43.12,43.12,0,0,0,6.36,3.42,41.12,41.12,0,0,0,6.59,2q2.94-.73,5.83-1.53c1.9-1.7,3.87-2.74,6.08-2-2,.73-4.05,1.38-6.08,2a20.07,20.07,0,0,0-2.24,2.2c1.19.16,2.39.3,3.58.34s2.38,0,3.57-.08a58.16,58.16,0,0,0,7.09-.87l1.75-.35c.58-.13,1.15-.31,1.72-.48,1.15-.34,2.28-.72,3.41-1.12q3.38-1.22,6.62-2.72a95.07,95.07,0,0,0,12.07-7.52c3.68-2.93,7.11-6,10.34-9,3.1-3.2,6-6.38,8.74-9.31l1-1.09,1-1.13,1.9-2.18c1.25-1.42,2.5-2.76,3.73-4q.93-.93,1.86-1.8l.93-.84.88-.85a34.42,34.42,0,0,1,3.59-3,21.67,21.67,0,0,1,7.81-3.58,95.59,95.59,0,0,0,13.72-4.66,100.94,100.94,0,0,0,12.52-6.95,55.38,55.38,0,0,0,6-4.47c1-.81,2-1.64,2.94-2.48s1.93-1.7,2.81-2.6q2.7-2.67,5.3-5.51c1.74-1.89,3.25-3.87,4.83-5.87a124,124,0,0,0,8.47-12.53c1.22-2.17,2.39-4.36,3.53-6.57.57-1.1,1.15-2.21,1.68-3.32l1.5-3.36a173.29,173.29,0,0,0,9.37-27.21c4.62-18.13,6.83-35.69,9.34-51.66S576,160.66,582.21,148c9.67-26.2,13.78-51,12.26-73.68a115,115,0,0,0-22.22-61.71A58.07,58.07,0,0,1,566.23,16.57Z"/><path class="cls-7" d="M509.49,19.78c-3.73,1.5-6.94,2.86-9.41,4a89.67,89.67,0,0,1,18.48,27.62,107.7,107.7,0,0,1,7.92,31.28,161,161,0,0,1-.09,32.85,253.86,253.86,0,0,1-5.54,32.23c-.27,1.82-3.62,4.16-7.9,6.71s-9.31,5.38-13,8.29a14.4,14.4,0,0,0-1.84,6,17,17,0,0,0,.67,6,58.09,58.09,0,0,0,5.5,11.94c2.14,3.93,4.29,7.87,5.25,11.6a14.09,14.09,0,0,1,.38,5.4,9.86,9.86,0,0,1-.7,2.52,10,10,0,0,1-1.51,2.34l-3.91,5-3.94,4.81L498,220.71,496,223c-1.31,1.54-2.54,3.1-3.85,4.59-5.14,6-10.3,11.61-15.33,16.87s-10.21,9.94-15.24,14.29q-1.95,1.56-3.82,3.13l-.94.79-1.05.79-2.06,1.59q-2.06,1.6-4,3.22c-.34.26-.66.55-1,.8l-1,.72-2,1.46a181.15,181.15,0,0,1-32.3,19.23,141.3,141.3,0,0,1-16.81,6,130.29,130.29,0,0,1-18,3.89c-24.87,3.58-54.27.42-84-8a384.56,384.56,0,0,1-44.78-15.7c-7.46-3.13-14.89-6.41-22.32-9.92-3.72-1.75-7.43-3.54-11.16-5.37l-2.8-1.38-1.39-.69-.7-.35-.6-.31L206,256.17c-2.79-1.81,1.48-8.18,5.86-15.3a96.65,96.65,0,0,0,6-10.78c1.53-3.46,2.39-6.45,1.77-8.9-.79-1.09-1.59-2.11-2.42-3.09s-1.65-2.12-2.5-3.11l-1.28-1.48c-.43-.48-.85-1-1.28-1.54-.86-1-1.72-2-2.59-3s-1.72-2.07-2.58-3.08-1.72-2-2.55-3.06L202,199.61c-.8-1.08-1.6-2.12-2.34-3.29-6-9-10.34-19.59-8.84-33.49.83-1.48.2-2.41-1.39-3a15.73,15.73,0,0,0-3-.77c-1.2-.23-2.56-.43-4-.62-3-.39-6.39-.75-9.71-1.39a36.36,36.36,0,0,1-9.08-2.86,48.17,48.17,0,0,1-5.86-4.4c-.89-.78-1.76-1.59-2.58-2.41s-1.58-1.7-2.32-2.57a55.19,55.19,0,0,1-4-5.45q-1.77-2.87-3.24-5.86c-3.85-8-6-16.74-7.51-25.53-.84-4.36-1.37-8.79-2.14-13.11-.34-2.18-.65-4.35-1.06-6.49-.19-1.07-.41-2.14-.63-3.2s-.41-2.13-.64-3.19c-2-8.44-4.58-16.54-9.67-24.36-6.68-8.19-8.76-17.63-9.9-26.85s-1.32-18.31-4-27.11q-6.53-.45-13-.76a195.37,195.37,0,0,0-1.89,28.86c0,2.47,0,5,.16,7.46l.42,7.53c.44,5,.87,10.1,1.61,15.17a268.4,268.4,0,0,0,5.89,30.45,295.43,295.43,0,0,0,9.27,30,309.77,309.77,0,0,0,12.39,29,302.64,302.64,0,0,0,15.35,27.4,256,256,0,0,0,18.19,25.08,195.1,195.1,0,0,0,20.8,21.81c1.15,1.29.81,5.14.54,9.18a44.86,44.86,0,0,0-.15,5.69c.12,1.65.42,3,1.08,3.56a22.69,22.69,0,0,1,3.23,2.26,21.39,21.39,0,0,1,2.57,2.43,18.71,18.71,0,0,1,2,2.69c.29.48.55,1,.8,1.46s.51,1,.74,1.46a40.84,40.84,0,0,1,2.22,6.49c.65,2.37,1.3,4.72,2,7.16.36,1.25.73,2.54,1.16,3.83s1,2.52,1.51,3.81a47.55,47.55,0,0,0,4.25,7.71,44.58,44.58,0,0,0,15.55,13.89c15.33,8.51,30.55,16.6,46.76,24,4,1.9,8.19,3.62,12.34,5.45l6.37,2.58,3.21,1.29,3.27,1.23q13.08,5,27.59,9c5.74,1.57,13.26.22,20.48-1.56,3.64-.93,7.17-1.76,10.52-2.56a34.31,34.31,0,0,1,9.28-.89,106.1,106.1,0,0,0,41.52-5.17c13.15-4.25,25-10.62,35.95-17.48s21.16-14.2,32.3-20.9c1.4-.84,2.88-1.6,4.29-2.43s2.83-1.69,4.3-2.49,3-1.58,4.52-2.33c.77-.39,1.57-.74,2.34-1.13l2.31-1.17q2.34-1.15,4.84-2.26c1.64-.75,3.25-1.55,5-2.29s3.48-1.47,5.24-2.23,3.56-1.52,5.43-2.26a60.84,60.84,0,0,0,11.65-5.6,54.09,54.09,0,0,0,5.12-3.56c1.62-1.26,3.23-2.57,4.71-4a69.66,69.66,0,0,0,14.17-19.05c7.18-14,10-29.71,10.46-45.17s-1-30.84-2-45.47-1.59-28.65.92-42c.67-9.57,5.8-18.88,11.52-28.82S573,59.61,576.23,48c3.54-13.75-.87-23.72-10-31.44-15,8.45-35.89,11.9-56.76,11.8C509.48,26.26,509.49,22.94,509.49,19.78Z"/><path class="cls-8" d="M555.08,0C526.2,5.39,507,12.11,499.39,15.68s-3.51,4.11,14.2-3v8.62c20.88,0,41.76-3.49,56.71-12A68.6,68.6,0,0,0,555.08,0Z"/><path class="cls-8" d="M494.25,26.46c-.73,4.17-1.46,8.3-2.2,12.46a87.67,87.67,0,0,1,5.75,40.27A81.06,81.06,0,0,1,485,115.92c3.91,9.61,3.19,17.81-5.86,22.57-2.28,1.06-4.34,2.13-6.35,3.19-1.8,11.53.27,23.57,1.09,35.81l.16,2.3.09,2.27c0,1.52.07,3.05.07,4.57a79.74,79.74,0,0,1-.61,9,41,41,0,0,1-5.84,16.57c-.56,1.41-2.09,2.22-4.1,2.63a31.65,31.65,0,0,1-7,.26c-4.9-.24-9.52-.88-10.11.22l.38,4.47c.14,1.54.18,2.94.31,4.46.26,3.08.39,6,.71,9.22.15,1.6.26,3.12.44,4.79l.57,5c.2,1.72.43,3.51.71,5.41s.49,3.71.8,5.73a5.06,5.06,0,0,1-.35,1.68,3.67,3.67,0,0,1-1,1.31A7.29,7.29,0,0,1,446,259a18.37,18.37,0,0,1-4.27.44c-.77,0-1.56,0-2.37-.08s-1.66-.21-2.5-.34c-3.35-.53-6.72-1.29-9.55-1.61a30.82,30.82,0,0,0-3.84-.27,4.54,4.54,0,0,0-2.71.87,87.32,87.32,0,0,1-21.27,3.73,80.13,80.13,0,0,1-18.15-1.37,132,132,0,0,1-18.61-4.88,183.94,183.94,0,0,1-21.12-8.7,8.68,8.68,0,0,0-2-.23,18.18,18.18,0,0,0-2.34,0c-1.65.09-3.42.39-5.27.58-3.71.33-7.51.71-10.23-.37a79.71,79.71,0,0,0-16.7-8.49c-2.86-1.11-5.73-2-8.68-2.8-1.47-.43-3-.82-4.46-1.19l-4.57-1.07c-3.09-.71-6.23-1.32-9.5-2l-4.94-1L267.77,229c-3.42-.74-7-1.69-10.7-2.66s-7.52-2.18-11.55-3.6c-1.2-.46-2.38-.94-3.55-1.45s-2.37-1.07-3.53-1.64-2.31-1.15-3.45-1.76l-.58-.33-.41-.26-.83-.52c-.54-.35-1.08-.72-1.61-1.09s-1.09-.93-1.62-1.4-1.05-1-1.57-1.49a8.88,8.88,0,0,1-.77-.82l-.77-.9a61.79,61.79,0,0,1-5.76-8q-1.32-2.29-2.66-4.59l-2.55-4.92c-3.37-6.7-6.58-13.82-10.47-20.84A103.71,103.71,0,0,0,190.84,152c-2.48-1.07-3.64-3.47-3.94-6.62a46.14,46.14,0,0,1,.57-10.6c.25-1.87.51-3.72.67-5.48a32.66,32.66,0,0,0,.24-5,10.69,10.69,0,0,0-.86-4.06,5.67,5.67,0,0,0-2.49-2.75c-1.5-1.31-3-2.64-4.34-4s-2.62-2.77-3.84-4.18c-.61-.7-1.21-1.41-1.79-2.12s-1.11-1.44-1.64-2.17c-1.07-1.46-2.09-2.92-3.06-4.4a95,95,0,0,1-5-9c-.71-1.53-1.39-3.07-2-4.6l-1-2.31-.84-2.33c-4.46-12.42-6.58-25-9.38-37.47-.56-2.77-2.62-5.23-4.67-7.74a40.68,40.68,0,0,1-2.76-3.8,10.15,10.15,0,0,1-1.61-4,28.62,28.62,0,0,1-2.49-6.59,40.91,40.91,0,0,1-.8-6.44c0-2.09.1-4.15.2-6.19s.41-4,.47-5.92l-20.76.24c-3.26-.27-6.51-.52-9.77-.75,2.69,8.8,2.9,17.83,4,27.11s3.22,18.66,9.9,26.85c5.09,7.82,7.71,15.92,9.67,24.36.23,1.06.44,2.12.64,3.19s.44,2.13.63,3.2c.41,2.14.72,4.31,1.06,6.49.77,4.32,1.3,8.75,2.14,13.11,1.51,8.79,3.66,17.51,7.51,25.53q1.47,3,3.24,5.86a55.19,55.19,0,0,0,4,5.45c.74.87,1.5,1.74,2.32,2.57s1.69,1.63,2.58,2.41a48.17,48.17,0,0,0,5.86,4.4,36.36,36.36,0,0,0,9.08,2.86c3.32.64,6.75,1,9.71,1.39,1.48.19,2.84.39,4,.62a15.73,15.73,0,0,1,3,.77c1.59.63,2.22,1.56,1.39,3-1.5,13.9,2.83,24.5,8.84,33.49.74,1.17,1.54,2.21,2.34,3.29l2.46,3.23c.83,1,1.69,2,2.55,3.06s1.7,2.12,2.58,3.08,1.73,2,2.59,3c.43.51.85,1.06,1.28,1.54l1.28,1.48c.85,1,1.68,2,2.5,3.11s1.63,2,2.42,3.09c.62,2.45-.24,5.44-1.77,8.9a96.65,96.65,0,0,1-6,10.78c-4.38,7.12-8.65,13.49-5.86,15.3l4.72,2.51.6.31.7.35,1.39.69,2.8,1.38c3.73,1.83,7.44,3.62,11.16,5.37,7.43,3.51,14.86,6.79,22.32,9.92a384.56,384.56,0,0,0,44.78,15.7c29.74,8.45,59.14,11.61,84,8a130.29,130.29,0,0,0,18-3.89,141.3,141.3,0,0,0,16.81-6,181.15,181.15,0,0,0,32.3-19.23l2-1.46,1-.72c.34-.25.66-.54,1-.8q2-1.62,4-3.22l2.06-1.59,1.05-.79.94-.79q1.88-1.57,3.82-3.13,7.55-6.52,15.24-14.29c5-5.26,10.19-10.86,15.33-16.87,1.31-1.49,2.54-3.05,3.85-4.59l2-2.31,1.92-2.38,3.94-4.81,3.91-5a10,10,0,0,0,1.51-2.34,9.86,9.86,0,0,0,.7-2.52,14.09,14.09,0,0,0-.38-5.4c-1-3.73-3.11-7.67-5.25-11.6a58.09,58.09,0,0,1-5.5-11.94,17,17,0,0,1-.67-6,14.4,14.4,0,0,1,1.84-6c3.66-2.91,8.69-5.73,13-8.29s7.63-4.89,7.9-6.71a253.86,253.86,0,0,0,5.54-32.23,161,161,0,0,0,.09-32.85,107.7,107.7,0,0,0-7.92-31.28,89.67,89.67,0,0,0-18.48-27.62C496.39,25.39,494.25,26.46,494.25,26.46Z"/><path class="cls-5" d="M274.76,392.25c4.87,1.72,9.67,3.55,14.8,5.18,2.55.83,5.06,1.7,7.67,2.51l7.93,2.37c2.63.83,5.4,1.54,8.16,2.27s5.51,1.51,8.38,2.17c5.77,1.3,11.51,2.71,17.66,3.75.76.1,2.06.3,3.81.6l2.95.5,3.67.48c-3.48-.57-6.79-1.38-10.14-2.15s-6.72-1.54-9.92-2.49l-9.67-2.68q-4.69-1.45-9.39-2.82C298.33,398.15,286.47,394.57,274.76,392.25Z"/><path class="cls-5" d="M392.23,414.48c3.66-.17,7.36-.3,11.13-.61s7.6-.82,11.4-1.29c.95-.13,1.9-.23,2.85-.38l2.84-.5,5.66-1,5.57-1.09c1.84-.39,3.64-.89,5.43-1.34,3.57-.93,7.05-1.87,10.4-2.81s6.46-2.16,9.45-3.21c6.06-2,11.14-4.35,15.4-6.2-5.66,0-11.06.28-16.61.26-2.75,0-5.46.11-8.15.24-1.36,0-2.67.17-4,.18s-2.71.08-4.06.13c-5.39.21-10.67.8-16.05,1.21q-4,.39-8,1c-2.69.38-5.39.7-8.12,1.19a65.13,65.13,0,0,1-5.19,6.87C399.11,410.54,395.18,414,392.23,414.48Z"/><path class="cls-9" d="M650.1,103.52A233.19,233.19,0,0,0,628,12.83C625,42.5,635.77,71.67,650.1,103.52Z"/><path class="cls-10" d="M572.25,12.59A115,115,0,0,1,594.47,74.3c1.52,22.63-2.59,47.48-12.26,73.68-6.19,12.68-9.2,27.19-11.72,43.19s-4.72,33.53-9.34,51.66A173.29,173.29,0,0,1,551.78,270l-1.5,3.36c-.53,1.11-1.11,2.22-1.68,3.32-1.14,2.21-2.31,4.4-3.53,6.57a124,124,0,0,1-8.47,12.53c-1.58,2-3.09,4-4.83,5.87s-3.5,3.73-5.3,5.51c-.88.9-1.83,1.76-2.81,2.6s-1.95,1.67-2.94,2.48a55.38,55.38,0,0,1-6,4.47,100.94,100.94,0,0,1-12.52,6.95,95.59,95.59,0,0,1-13.72,4.66,21.67,21.67,0,0,0-7.81,3.58,34.42,34.42,0,0,0-3.59,3l-.88.85-.93.84q-.93.87-1.86,1.8c-1.23,1.24-2.48,2.58-3.73,4l-1.9,2.18-1,1.13-1,1.09c-2.76,2.93-5.64,6.11-8.74,9.31-3.23,3-6.66,6.11-10.34,9a95.07,95.07,0,0,1-12.07,7.52q-3.24,1.5-6.62,2.72c-1.13.4-2.26.78-3.41,1.12-.57.17-1.14.35-1.72.48l-1.75.35a58.16,58.16,0,0,1-7.09.87c-1.19.07-2.38.1-3.57.08s-2.39-.18-3.58-.34c-3,3.31-5.94,7.7-8.67,9.28s-5.12.24-6.71-7.45l-4.4.66c-.73.1-1.47.22-2.21.29l-2.19.17q-4.41.35-8.84.56c-2.94.08-5.86,0-8.79-.06-1.46,0-2.94-.06-4.39-.14l-4.33-.38a169.28,169.28,0,0,1-33.4-6.36c-21.33-6.19-40.22-15.64-57.11-25.51l-26.26-16q-12.88-7.85-25.46-15.38c-8.4-5-16.68-10-24.86-14.7l-1.53-.89-.8-.46L186,301l-3.7-2.26c-1.22-.76-2.48-1.5-3.67-2.28l-3.5-2.39-3.5-2.41c-1.16-.8-2.23-1.67-3.34-2.5L165,286.68l-1.65-1.27-1.58-1.31A227.9,227.9,0,0,1,138.28,262c-1.77-1.95-3.63-3.85-5.3-5.86l-5.08-6c-1.65-2-3.22-4.08-4.83-6.12-.79-1-1.59-2.05-2.36-3.09l-2.27-3.15a230.86,230.86,0,0,1-29-53.75c-12.12-27.3-18.89-58.21-23-89.09C64.35,79.52,62.89,64,61.71,48.7s-2.09-30.51-3-45.7C41.3,4.31,26.16,7.89,15.5,14.7A34.67,34.67,0,0,0,3.52,27,26.65,26.65,0,0,0,.84,34.7a26.09,26.09,0,0,0-.21,8.57q-.29,4.51-.49,9T0,61.13c0,1.47,0,2.95,0,4.4s.09,2.9.13,4.34c.11,2.89.19,5.79.37,8.64.43,5.65.82,11.35,1.56,16.84.35,2.76.68,5.53,1.09,8.26s.9,5.41,1.35,8.1a311,311,0,0,0,17.35,60.68c1.82,4.79,3.92,9.43,5.95,14.09s4.31,9.17,6.54,13.69c4.61,9,9.46,17.77,14.8,26.3a356.22,356.22,0,0,0,36.39,49l38.55,29.23c13,9.89,26.28,20.12,41.41,30.85-17.25-8.36-32.85-17.06-48.08-25.88l5.89,5c2,1.64,4.14,3.26,6.21,4.88,4.07,3.24,8.67,6.38,13.13,9.5,2.28,1.55,4.75,3.06,7.13,4.57l3.61,2.25c1.24.74,2.56,1.47,3.84,2.2l3.88,2.16,1.94,1.07c.63.35,1.39.77,1.72.92l5.1,2.53,21.46,10.68,11.3,5.55,11.71,5.6c-.8-.69-1.66-1.29-2.45-2l11.36,5.67,5.84,2.85,2.94,1.44,3,1.44c10.74,3.13,21.39,7.69,32.32,12.68L284,396.26c5.78,2.47,11.47,5.07,17.52,7.3a293.57,293.57,0,0,0,37.73,9.93l4,.17c1,0,2,.11,3.3.12l4.09.05c2.95,0,6.25.14,9.88.16s7.6-.06,11.62,0,8.29-.19,12.44-.18h3.11l3.13-.09c2.07-.05,4.12-.07,6.11-.05s4,.09,5.85.14,3.74.07,5.5.18a47.68,47.68,0,0,1,9.43,1.43c6.19-1.12,10.58-2.06,12.33-2.51,3.45-.59,6.83-1.55,10.23-2.38l5.08-1.32c1.69-.44,3.4-.86,5.05-1.42q5-1.57,9.95-3.22c1.64-.57,3.34-1.05,4.93-1.7l4.81-1.89q4.81-1.9,9.6-3.88,4.62-2.15,9.21-4.35c6.25-2.86,11.92-6.15,17.74-9.42,1.43-.83,2.92-1.63,4.3-2.49l4.09-2.6,8.16-5.29,2-1.34c.66-.45,1.28-.92,1.92-1.37l3.81-2.78,7.58-5.62c.62-.47,1.28-.94,1.87-1.42l1.76-1.45,3.52-2.9,7-5.87,1.74-1.48,1.83-1.71,3.64-3.48,3.62-3.51c1.23-1.18,2.3-2.37,3.45-3.57l3-4.86c1-1.62,2-3.24,2.91-4.85l5.56-9.62c1.74-3.18,3.48-6.34,5.28-9.48.92-1.57,1.75-3.12,2.59-4.67l2.6-4.63a327.19,327.19,0,0,1,22.4-35.45c1.5-1.9,3-3.91,4.38-6s2.84-4.3,4.07-6.49a136.92,136.92,0,0,0,6.94-13.8c1-2.34,2-4.72,2.92-7.07s1.71-4.66,2.5-7c1.63-4.65,2.84-9.06,4-13.31,2.25-8.42,3.78-15.79,4.9-21s1.91-8.41,2.69-8.5a252.59,252.59,0,0,0,2.87-34.78c-6.29-17-11.92-33-15.51-48.55s-5.14-30.75-3.37-46q-2.58-5.91-5.51-11.8c-2-3.9-4-7.83-6.25-11.73-8-14.11-21.37-19.94-36.26-21.34A43.41,43.41,0,0,1,572.25,12.59Z"/></g></g></g></g></svg>
