<svg xmlns="http://www.w3.org/2000/svg" viewBox="0 0 376.36 361.34"><defs><style>.cls-1{opacity:0.8;}.cls-2{fill:#f8e7d8;}.cls-3{fill:#fdfaf6;}.cls-4{fill:#fcf6f1;}.cls-5{fill:#faefe5;}.cls-6{fill:#fbf2ea;}.cls-7{fill:#fcf4ed;}.cls-8{fill:#fdf7f2;}.cls-9{fill:#f9ede1;}</style></defs><g id="Layer_2" data-name="Layer 2"><g id="Layer_1-2" data-name="Layer 1"><g class="cls-1"><g class="cls-1"><path class="cls-2" d="M326.36,235.42c7.89.41,9.78-1.45,9.1-4.22a15,15,0,0,0-2.56-4.61c-1.21-1.64-2.65-3.34-3.82-5-.51,1-1.08,2-1.68,3A105.6,105.6,0,0,1,326.36,235.42Z"/><path class="cls-2" d="M327.4,224.61c.6-1,1.17-2,1.68-3a18.84,18.84,0,0,1-1.52-2.39C327.57,221,327.48,222.8,327.4,224.61Z"/><path class="cls-2" d="M318.38,234.59c3.17.45,5.79.71,8,.83a105.6,105.6,0,0,0,1-10.81,37.62,37.62,0,0,1-3.9,5.26A38.72,38.72,0,0,1,318.38,234.59Z"/><path class="cls-2" d="M327.56,219.22c0-1.89.05-3.81-.07-5.67C326.16,215.34,326.5,217.22,327.56,219.22Z"/><path class="cls-3" d="M237.56,168.61l.55-1,.47-.89c.32-.58.64-1.17,1-1.74s.67-1.15,1-1.72.76-1.16,1-1.65c1.18-2,2.75-4.09,3.87-5.7.32-.42.64-.84,1-1.25l.51-.62c.18-.2.28-.37.43-.55.28-.35.57-.71.87-1.05l.45-.52.24-.25.12-.13.06-.06,0,0c-16.58,18.16,37.15-40.7-37.17,40.71l1.07,1,.54.47,0,0h0l0,.12.07.22c0,.15.08.3.11.46a19.62,19.62,0,0,1,.33,3.81,30.65,30.65,0,0,1-.81,7.09A34.06,34.06,0,0,1,209,215.92a45.59,45.59,0,0,0,10.11-4,40.32,40.32,0,0,0,8.24-5.91c3.56-3.23,5.24-6.55,5.52-9.33a6.79,6.79,0,0,0-2.83-6.46,12.3,12.3,0,0,0-7.84-1.84,17.14,17.14,0,0,0-2.31.25c-.41.08-.81.16-1.22.26L218,189l-.3.08-.08,0h0l-.09-.07-.2-.14-.41-.3-.8-.59-.2-.15,33.25-36.39,0,0-.09.09A87.07,87.07,0,0,0,237.56,168.61Z"/><path class="cls-4" d="M203.77,221.79a11.46,11.46,0,0,1-4.51,1.14,6,6,0,0,0,3.79.89C204,223.62,204.43,222.88,203.77,221.79Z"/><path class="cls-3" d="M239.63,164.89c.49-.85,1-1.69,1.56-2.53s.91-1.52,1.41-2.27,1-1.48,1.52-2.2.89-1.3,1.37-1.94,1-1.24,1.47-1.85.83-1.06,1.28-1.58l.69-.76.17-.19.09-.09c6.74-7.4-58.65,64.18-30.92,33.92l.09.07.2.15.77.56c.23.16.64.47.56.38l.64-.14a19.57,19.57,0,0,1,4.89-.46,13,13,0,0,1,8,2.56,8,8,0,0,1,2.89,7.12c-.28,3-2,6.48-5.53,9.86a41.23,41.23,0,0,1-8.27,6.2A46.06,46.06,0,0,1,212.36,216a17.64,17.64,0,0,1-5.23,6,13.93,13.93,0,0,1-6.26,2.25c.17,1.14-.5,1.67-1.42,1.59a5.27,5.27,0,0,1-3.08-1.84,11.57,11.57,0,0,1-4.74-2.2,3.14,3.14,0,0,1-1.42-2.36,2.89,2.89,0,0,1,.83-2,2.83,2.83,0,0,1,.37-.33s.05,0,.08-.07l0-.18,0-.3,0-1.6a99.8,99.8,0,0,1,.44-10.46,102.08,102.08,0,0,1,7.75-31l.5-1.22c.17-.4.38-.79.56-1.19.36-.77.74-1.68,1-2.16l.15-.28.07-.14,0-.06.06-.12h0l-.9-.48-3.9-2.11-1.93-1.07-1-.55-.49-.27c-7.5-4.17,9.94,5.51,8.17,4.53h0l-.05.1-.11.19h0a9,9,0,0,1-1-.77,18.37,18.37,0,0,1-2.6-2.63,37.65,37.65,0,0,1-3.13-4.56c-1.08-1.79-2.15-3.76-3.5-5.93a51.76,51.76,0,0,1-2.33-5.83l-2.5-3.9a10.48,10.48,0,0,0-4.77-1.79c-1.59-.1-3,.54-3.17,2.4-.81.42-.46,2,.08,3.48s1.24,3,.78,3.55-1.05,1.27-1.59,1.9l-.1.11-.06.06-.14.11c-.09.08-.23.27-.36.39l-.48.63c-.19.29-.36.52-.58.86-.41.62-.89,1.49-1.36,2.31s-1,1.64-1.36,2.51l-1.25,2.58c-.38.88-.72,1.78-1.07,2.68a31.5,31.5,0,0,0-2,11.75,30.35,30.35,0,0,0,3.55,13.28c2.71,2.89-2.27,5.49-7,8.76a29.44,29.44,0,0,0-6.12,5c-1.32,1.69-1.72,3.36-.18,4.7a22.73,22.73,0,0,1,.81,3.28,23.83,23.83,0,0,1,.49,3.2c0,.49.07,1,.11,1.46s0,.88,0,1.25,0,.75,0,1.13a4.79,4.79,0,0,1-.12.94c-.45,2.11-1.46,4.44-2.32,7.06a21.38,21.38,0,0,0-1.28,8.08,8.6,8.6,0,0,0,3.31,6.41,11,11,0,0,0,7.62,1.71,42.2,42.2,0,0,0,9.71-2.68c2.87-1.13,5.31-2.35,7.43-3.32a23.76,23.76,0,0,1,5.61-2,10.77,10.77,0,0,1,5.49.55c.91-.06,1.84-1.19,2.57-2.28s1.25-2.21,2-2.39a29.2,29.2,0,0,0,18.71-4.58,33.81,33.81,0,0,0,8.71-8.54,78.37,78.37,0,0,0,7.44-12.92c0-1,1.19-2.39,2.92-4.06s4-3.65,6-5.76a27.48,27.48,0,0,0,4.85-6.23c1-1.92,1-3.55-.44-4.28-5.54-1-10-1.78-13.87-2.33a53.83,53.83,0,0,0-10.84-.67c-.2-.23.39-1.32,1.28-2.83.23-.4.48-.81.72-1.22.14-.22.27-.44.4-.67l.21-.34.1-.18.06-.09s0,0,0-.05l-.06-.12-.49-.94-.24-.48,0-.06,0,0h0c10.17-11.13-22.77,24.88,22.8-24.95l0,0,0,.06-.43.47c-.29.31-.57.64-.85,1l-.85,1.07c-.36.42-.71.85-1.06,1.31s-.7.92-1,1.41l-.51.75-.63.86c-.86,1.2-1.67,2.46-2.52,3.9-1,1.54-2,3.21-2.95,5l-.8,1.43-.4.72c0,.08,0,0,0,0l.06-.17c0-.12-.11-.24-.17-.36s-.28-.23-.42-.33a1.75,1.75,0,0,0-.27-.16l-.37-.13a8.14,8.14,0,0,0-1.74-.4,16.66,16.66,0,0,0-2.29-.09,24.38,24.38,0,0,0-2.6.18c-1,.11-1.85.25-2.86.44-1.95.36-4,.89-6.15,1.46-4.23,1.17-8.65,2.61-13.07,3.69a44.66,44.66,0,0,1-13.37,1.52c.93,1.87,1.85,3.57,2.76,5.2,4.36,1.18,8.55,2.43,12.43,3.75a98.44,98.44,0,0,1,10.44,4.13c.71.36,1.48.7,2.1,1.06l1,.53.85.53c.61.35,1,.7,1.51,1,.21.17.37.33.56.49l.28.24c.08.08.12.16.19.23l.36.44.15.39a.37.37,0,0,1,0,.34v0l.32-.85.7-1.75c.5-1.2.89-2.28,1.32-3.36.85-2.16,1.78-4.32,2.75-6.45.82-2,1.72-3.94,2.68-5.88l.74-1.45.63-1.33q.64-1.34,1.35-2.64l1.43-2.58C238.74,166.45,239.17,165.67,239.63,164.89Z"/><path class="cls-3" d="M137.63,174.28a56.87,56.87,0,0,1,8.66-7.89,57.62,57.62,0,0,0-30.68-8.26A53.11,53.11,0,0,0,100,160.82a50.36,50.36,0,0,0-14.41,7.48c8.42.77,17.33,1.67,26.05,2.67S129.07,173.07,137.63,174.28Z"/><path class="cls-3" d="M168.48,174.85l-.6-1c10,1.94,19.74,4.09,28.7,6.51-.91-1.63-1.83-3.33-2.76-5.2A29.2,29.2,0,0,1,177.47,169c-1.48-1.2-3-2.3-4.59-3.35a52.28,52.28,0,0,0-6.61,5.47c-.39-.67-.78-1.28-1.18-2-5-8.28-11.62-7.78-18.8-2.68,1.64,1,3.28,2,4.86,3.13A30.36,30.36,0,0,0,168.48,174.85Z"/><path class="cls-5" d="M176,10.71c12.59,9.14,22.55,6.4,33.47,3.22,5.47-1.57,11.14-3.23,17.38-3.46a37.77,37.77,0,0,1,20.67,5.34c5.63,2.92,11.49,5.48,17.86,8s13.27,5,21.19,8.17l3,1.19,3.18,1.33L296,35.88l3.42,1.54c2.19,1,4.78,2.27,7.2,3.48,1.17.57,2.57,1.34,3.87,2.05s2.62,1.44,4,2.22,2.85,1.72,4.26,2.61l2.11,1.34,2.28,1.55q2.28,1.57,4.51,3.22c1.59,1.2,3.22,2.51,4.8,3.8l1.19,1,.14.12.08.06,0,0-.06,0-.44-.43-.91-.84c-.12-.11-.05-.06,0,0l.07,0,.13.09.26.2.52.4,2.07,1.58c1.34,1.09,2.71,2.18,4,3.29-1.17-1.59-2.42-3.16-3.69-4.7l-2-2.27-.12-.14,0,0,.14.11.27.23,1.1.92L334,56.12c-.85-.83-1.7-1.65-2.56-2.46a150.46,150.46,0,0,0-18.8-14.89l-2.19-1.46-2-1.3q-2-1.27-4.07-2.5c-1.3-.77-2.53-1.47-3.81-2.2s-2.58-1.44-3.72-2c-2.36-1.25-4.81-2.51-7-3.55l-3.35-1.6-3.15-1.43C275,19,267.57,16.21,260.68,13.9s-13.24-4.13-19.33-5.69a268.47,268.47,0,0,0-33.92-6.46A225.46,225.46,0,0,0,176.62,0,21.61,21.61,0,0,1,176,10.71Z"/><path class="cls-6" d="M86.19,93.52c5.24-9.83,13-15.13,24.57-12.8,9.75,2.2,18.83,7.67,27.31,12.53s16.35,9.11,24.07,8.93c10.86,1.27,22-.64,33.71-3.23s24-5.87,37.2-6.88a79.34,79.34,0,0,1,20.5.91,57.06,57.06,0,0,1,22.08,8.94,52.35,52.35,0,0,1,5.65,4.49c1,.91,1.84,1.76,2.76,2.76.46.51.91,1,1.35,1.54l.33.39.16.19c.05.06,0,0,0,0l-.07,0c-.33-.23-.06.1,0,.27a26.74,26.74,0,0,1,2.49,4.78,37.61,37.61,0,0,1,1.6,5.35,50.91,50.91,0,0,1-.74,24.39c-1.82,7.83-3.61,14.87-5.18,21.3-1.37,6.32-2.35,12-3.13,17.4s-1.28,10.52-1.57,15.58-.44,10-.68,15.11a135.53,135.53,0,0,1-1.43,15.38A66.73,66.73,0,0,1,273,246.14a54.17,54.17,0,0,1-21.22,24.71,14.77,14.77,0,0,0-1.39,1c-.46.34-.92.7-1.37,1.08-.22.2-.45.39-.66.6s-.4.47-.59.71c-.38.49-.78,1-1.16,1.48-.77,1-1.5,2.18-2.29,3.31s-1.56,2.38-2.41,3.54a42.23,42.23,0,0,1-5.69,6.73,18,18,0,0,1-7,4.25c-4.22,1.2-8.45,2.16-12.67,3s-8.44,1.4-12.64,1.85c-8.38.93-16.65,1.26-24.79,1.43s-16.16.07-24-.24a203.51,203.51,0,0,1-22.84-2c-7.1-1.12-10.17-4.7-11.53-8.64a20.77,20.77,0,0,1-.77-3.06c-.09-.52-.17-1-.24-1.54s-.23-.95-.33-1.43c-.22-1-.43-1.83-.62-2.81s-.39-1.9-.64-2.81a18.11,18.11,0,0,0-1.15-3.47,14.8,14.8,0,0,0-2-3.39,21.66,21.66,0,0,0-3.15-3.41,57.15,57.15,0,0,0-4.74-3.62c-.91-1,.49-4,2.16-6.82s3.57-5.6,3-6.64a55.88,55.88,0,0,1-7.63-19.27l-.51-2.63-.44-2.73-.37-2.8-.28-2.93-.27-2.92-.16-2.94-.15-2.95,0-3a142.55,142.55,0,0,1,16.84-68.18c.89-1.73,1.89-3.41,2.87-5.08s2-3.31,3-4.8,2-2.84,3-4.08,2.14-2.61,3.3-3.83a39.85,39.85,0,0,1,7.75-6.44,35,35,0,0,1,4.51-2.33,32.23,32.23,0,0,1,4.9-1.5,31.61,31.61,0,0,1,5.14-.59,29.19,29.19,0,0,1,5.19.38,26,26,0,0,1,5,1.48,23.75,23.75,0,0,1,4.56,2.64c-2.65-4.72-5.37-9.31-8.13-13.71q-2.07-3.28-4.17-6.44l-4.58-6.72c-4.83-2.87-11.18-3.81-17.38-3.15a44.15,44.15,0,0,0-17.94,6.08,69.32,69.32,0,0,0-14.86,12.34c-2.21,2.36-4.33,4.87-6.38,7.45s-4,5.18-5.84,7.8l-2.82,3.93-2.71,4-1.36,2-1.3,2-2.59,4.13c-1.61,2.8-3.34,5.58-4.84,8.46l-2.29,4.31q-1.08,2.19-2.14,4.37c-.73,1.46-1.4,2.94-2,4.43s-1.29,3-1.93,4.46-1.17,3-1.75,4.52l-.85,2.27-.78,2.28c-.5,1.54-1,3.06-1.49,4.59s-.88,3.07-1.3,4.61c-.87,3.08-1.49,6.19-2.14,9.29a136.72,136.72,0,0,0-4.41,28.87,143.54,143.54,0,0,0,.07,14.94c.07,1.28.16,2.58.29,3.9s.26,2.67.44,4q.51,4,1.3,8a87.86,87.86,0,0,0,11.63,30,68.59,68.59,0,0,0,10.12,12.47,78.92,78.92,0,0,0,12.47,9.72c13.85,8.45,29.28,12.93,46.12,16.16,8.42,1.61,17.3,2.87,26.56,3.93s18.8,2,28.68,2.87a190.43,190.43,0,0,0,33.43,0,135,135,0,0,0,34-7.62,112.62,112.62,0,0,0,30.23-16.69,99.35,99.35,0,0,0,12.28-11.49,87.35,87.35,0,0,0,9.74-13.2c-2.07-.8-4.48-1.9-7.36-3.34a34.53,34.53,0,0,0,6.65-2.72,33.8,33.8,0,0,0,2.94-1.72c.92-.62,1.8-1.28,2.65-2,.36-.84.71-1.67,1.07-2.5l.93-2.54c-.32-2.21-.08-4.14,1.76-5.42-.49,1.81-1.12,3.64-1.76,5.42a16.47,16.47,0,0,0,.64,2.76,38.45,38.45,0,0,0,10.73-23.31c1-8.5-.25-17-2.15-24.53s-4.3-14.27-5.65-20.21-1.65-11.2.52-16.46a75.29,75.29,0,0,0,5.53-28.07,77.39,77.39,0,0,0-4.86-27.2,74.51,74.51,0,0,0-13.79-23.11A46.68,46.68,0,0,0,303,95.05L301.67,94l-.62-.5.34.32.16.16.09.08s0,0,0,0l-.63-.52c-.84-.68-1.69-1.36-2.54-2-.44-.34-.85-.64-1.25-.91L296,89.73a80,80,0,0,0-17.93-9.21,116.9,116.9,0,0,0-27.93-6.1c-8.17-.88-15.54-1.2-22.46-1.65-13.81-.85-25.82-2.22-36.64-7.09-22-6.91-42.39-8.8-60.66-5.37S95.9,72.62,82.17,87.94A53.76,53.76,0,0,1,86.19,93.52Z"/><path class="cls-7" d="M95.4,149.56c1.59,3.57,3,6.64,4.13,9,11-17.78,26.68-27.09,43.63-31.26s35.31-3.22,52.15-.58c1.46.06,3.54,3.19,5.83,7.14s4.79,8.7,7.26,11.95c6.5,3.61,12.23-1.8,18.23-7,3-2.6,6-5.12,8.85-6.44s5.63-1.42,7.77.78a58.44,58.44,0,0,1,6.15,6.77,16.56,16.56,0,0,1,3.25,6.11,4.22,4.22,0,0,1,.08,1.2l0,.26v.12s-.05,0,0,.1l.3.32a.94.94,0,0,1,.29.41l.1.25.21.52a26.19,26.19,0,0,1,1.34,4.27c.62,3,1.18,5.87,1.53,8.76a123.73,123.73,0,0,1,1.08,16.5c0,5.26-.23,10.27-.55,15.08s-.75,9.43-1.19,13.94-1,8.94-1.85,13.3a66.91,66.91,0,0,1-3.7,12.72,52,52,0,0,1-2.94,5.94,51,51,0,0,1-3.76,5.47,54.56,54.56,0,0,1-9.53,9.37,67.23,67.23,0,0,1-11.62,7.27,83.11,83.11,0,0,1-13.23,5.21,127,127,0,0,1-14.48,3.45c-10,1.84-20.73,2.87-31.89,3.77a135.05,135.05,0,0,1-17,.33A68.51,68.51,0,0,1,129,271.79c-2.36-1,3-5.3,8.69-10.16,2.87-2.44,5.83-5,8.1-7.36s3.84-4.31,4-5.76c-1.51-2.39-3.07-4.69-4.3-7.14a21,21,0,0,1-2.31-7.67,13.1,13.1,0,0,1,1.93-8.09,15.23,15.23,0,0,1,1.46-2l.89-1.06c.32-.39.66-.78,1-1.17.7-.74,1.52-1.6,2.4-2.4.44-.37.92-.88,1.42-1.34s1-.92,1.56-1.37c1.48-.58,1.43-1.28.41-2.12a30.7,30.7,0,0,0-5.24-3c-4.62-2.34-10.72-5.56-13.63-9a24.51,24.51,0,0,1-4.13-18.76c1.07-6,4.06-11.62,7.49-16.76S146,156.7,149,151.76c.71-1.26,1.45-2.5,2.07-3.79a32.23,32.23,0,0,0,1.52-3.76,12.5,12.5,0,0,0,.63-3.22c0-.25,0-.49,0-.75s0-.58,0-.88c0-.61,0-1.22,0-1.88-1.24-6.29,2.29-10.57,7-12.37a24.17,24.17,0,0,1,13.49-1l-5.2-8.67a23.75,23.75,0,0,0-4.56-2.64,26,26,0,0,0-5-1.48,29.19,29.19,0,0,0-5.19-.38,31.61,31.61,0,0,0-5.14.59,32.23,32.23,0,0,0-4.9,1.5,35,35,0,0,0-4.51,2.33,39.85,39.85,0,0,0-7.75,6.44c-1.16,1.22-2.26,2.51-3.3,3.83s-2,2.61-3,4.08-2,3.1-3,4.8-2,3.35-2.87,5.08a142.55,142.55,0,0,0-16.84,68.18l0,3,.15,2.95.16,2.94.27,2.92.28,2.93.37,2.8.44,2.73.51,2.63a55.88,55.88,0,0,0,7.63,19.27c.55,1-1.37,3.77-3,6.64s-3.07,5.82-2.16,6.82c.88.66,1.73,1.24,2.41,1.87a23.49,23.49,0,0,1,1.79,1.86,13.52,13.52,0,0,1,1.25,1.94,10.23,10.23,0,0,1,.86,2c.2.72.39,1.38.54,2.09s.25,1.43.33,2.19c.21,1.45.34,3,.57,4.57.14.78.29,1.59.49,2.41.12.39.15.88.24,1.32s.18.87.3,1.31a17.42,17.42,0,0,0,.89,2.67,17.91,17.91,0,0,0,1.44,2.56c2.35,3.29,6.59,6.26,14,7.41a207.32,207.32,0,0,0,23,2c7.79.31,15.76.38,23.82.23s16.27-.5,24.63-1.42c4.19-.44,8.4-1.08,12.65-1.84s8.52-1.77,12.8-3a18,18,0,0,0,7-4.25,42.23,42.23,0,0,0,5.69-6.73c.85-1.16,1.63-2.4,2.41-3.54s1.52-2.28,2.29-3.31c.38-.52.78-1,1.16-1.48.19-.24.39-.48.59-.71s.44-.4.66-.6c.45-.38.91-.74,1.37-1.08a14.77,14.77,0,0,1,1.39-1A54.17,54.17,0,0,0,273,246.14a66.73,66.73,0,0,0,4.23-15.33,135.53,135.53,0,0,0,1.43-15.38c.24-5.07.39-10.06.68-15.11s.8-10.17,1.57-15.58,1.76-11.08,3.13-17.4c1.57-6.43,3.36-13.47,5.18-21.3a50.91,50.91,0,0,0,.74-24.39,37.61,37.61,0,0,0-1.6-5.35,26.74,26.74,0,0,0-2.49-4.78c-.1-.17-.37-.5,0-.27l.07,0s.07.06,0,0l-.16-.19-.33-.39c-.44-.52-.89-1-1.35-1.54-.92-1-1.81-1.85-2.76-2.76a52.35,52.35,0,0,0-5.65-4.49A57.06,57.06,0,0,0,253.55,93a79.34,79.34,0,0,0-20.5-.91c-13.18,1-25.48,4.31-37.2,6.88s-22.85,4.5-33.71,3.23c-7.72.18-15.59-4.07-24.07-8.93s-17.56-10.33-27.31-12.53c-11.52-2.33-19.33,3-24.57,12.8,8.71,14.06,13.64,34.55,15.85,55.3Z"/><path class="cls-8" d="M74,106.34c8.56,27.95,15.85,46.42,19.49,53.62,1.8,3.6,2.67,4.39,2.16,2.15s-2.37-7.51-6.2-16l6.63-.8c-2.38-20.73-7.45-41.19-16.41-55.13A66.51,66.51,0,0,0,74,106.34Z"/><path class="cls-8" d="M102.24,164.11l9.8,1.13a54.55,54.55,0,0,1,60.84.36c7.22-4.77,13.76-5,18.05,3.58,1,2.15,1.94,4.07,2.89,5.95a44.66,44.66,0,0,0,13.37-1.52c4.42-1.08,8.84-2.52,13.07-3.69,2.1-.57,4.2-1.1,6.15-1.46,1-.19,1.9-.33,2.86-.44a24.38,24.38,0,0,1,2.6-.18,16.66,16.66,0,0,1,2.29.09,8.14,8.14,0,0,1,1.74.4l.37.13a1.75,1.75,0,0,1,.27.16c.14.1.39.22.42.33s.18.24.17.36l-.06.17s0,.08,0,0l.4-.72.8-1.43c.95-1.82,1.94-3.49,2.95-5,.85-1.44,1.66-2.7,2.52-3.9l.63-.86.51-.75c.34-.49.69-1,1-1.41s.7-.89,1.06-1.31l.85-1.07c.28-.34.56-.67.85-1l.43-.47,0-.06,0,0c-45.57,49.83-12.63,13.82-22.8,24.95h0l0,0,0,.06.24.48.49.94.06.12s0,0,0,.05l-.06.09-.1.18-.21.34c-.13.23-.26.45-.4.67-.24.41-.49.82-.72,1.22-.89,1.51-1.48,2.6-1.28,2.83a53.83,53.83,0,0,1,10.84.67c3.91.55,8.33,1.29,13.87,2.33,1.47.73,1.41,2.36.44,4.28a27.48,27.48,0,0,1-4.85,6.23c-2.05,2.11-4.29,4.09-6,5.76s-2.93,3-2.92,4.06a78.37,78.37,0,0,1-7.44,12.92,33.81,33.81,0,0,1-8.71,8.54A29.2,29.2,0,0,1,201,232.81c-.71.18-1.22,1.29-2,2.39s-1.66,2.22-2.57,2.28a10.77,10.77,0,0,0-5.49-.55,23.76,23.76,0,0,0-5.61,2c-2.12,1-4.56,2.19-7.43,3.32a42.2,42.2,0,0,1-9.71,2.68,11,11,0,0,1-7.62-1.71,8.6,8.6,0,0,1-3.31-6.41,21.38,21.38,0,0,1,1.28-8.08c.86-2.62,1.87-4.95,2.32-7.06a4.79,4.79,0,0,0,.12-.94c0-.38,0-.75,0-1.13s0-.84,0-1.25-.07-1-.11-1.46a23.83,23.83,0,0,0-.49-3.2,22.73,22.73,0,0,0-.81-3.28c-1.54-1.34-1.14-3,.18-4.7a29.44,29.44,0,0,1,6.12-5c4.73-3.27,9.71-5.87,7-8.76a30.35,30.35,0,0,1-3.55-13.28,31.5,31.5,0,0,1,2-11.75c.35-.9.69-1.8,1.07-2.68l1.25-2.58c.4-.87.91-1.68,1.36-2.51s1-1.69,1.36-2.31c.22-.34.39-.57.58-.86l.48-.63c.13-.12.27-.31.36-.39l.14-.11.06-.06.1-.11c.54-.63,1.08-1.25,1.59-1.9s-.25-2-.78-3.55-.89-3.06-.08-3.48c.17-1.86,1.58-2.5,3.17-2.4a10.48,10.48,0,0,1,4.77,1.79l-9.21-14.42c-1.39-2.32-2.67-4.45-3.9-6.52a24.17,24.17,0,0,0-13.49,1c-4.67,1.8-8.2,6.08-7,12.37,0,.66,0,1.27,0,1.88,0,.3,0,.59,0,.88s0,.5,0,.75a12.5,12.5,0,0,1-.63,3.22,32.23,32.23,0,0,1-1.52,3.76c-.62,1.29-1.36,2.53-2.07,3.79-3,4.94-6.88,9.66-10.32,14.83s-6.42,10.72-7.49,16.76a24.51,24.51,0,0,0,4.13,18.76c2.91,3.46,9,6.68,13.63,9a30.7,30.7,0,0,1,5.24,3c1,.84,1.07,1.54-.41,2.12-.55.45-1.07.91-1.56,1.37s-1,1-1.42,1.34c-.88.8-1.7,1.66-2.4,2.4-.35.39-.69.78-1,1.17l-.89,1.06a15.23,15.23,0,0,0-1.46,2,13.1,13.1,0,0,0-1.93,8.09,21,21,0,0,0,2.31,7.67c1.23,2.45,2.79,4.75,4.3,7.14-.16,1.45-1.73,3.42-4,5.76s-5.23,4.92-8.1,7.36c-5.69,4.86-11,9.19-8.69,10.16a68.51,68.51,0,0,0,16.89,2.81,135.05,135.05,0,0,0,17-.33c11.16-.9,21.87-1.93,31.89-3.77a127,127,0,0,0,14.48-3.45,83.11,83.11,0,0,0,13.23-5.21A67.23,67.23,0,0,0,234,254.57a54.56,54.56,0,0,0,9.53-9.37,51,51,0,0,0,3.76-5.47,52,52,0,0,0,2.94-5.94,66.91,66.91,0,0,0,3.7-12.72c.84-4.36,1.39-8.78,1.85-13.3s.87-9.13,1.19-13.94.59-9.82.55-15.08a123.73,123.73,0,0,0-1.08-16.5c-.35-2.89-.91-5.78-1.53-8.76a26.19,26.19,0,0,0-1.34-4.27l-.21-.52-.1-.25A.94.94,0,0,0,253,148l-.3-.32c-.08-.1,0-.06,0-.1v-.12l0-.26a4.22,4.22,0,0,0-.08-1.2,16.56,16.56,0,0,0-3.25-6.11,58.44,58.44,0,0,0-6.15-6.77c-2.14-2.2-4.9-2.12-7.77-.78s-5.87,3.84-8.85,6.44c-6,5.19-11.73,10.6-18.23,7-2.47-3.25-5-8-7.26-11.95s-4.37-7.08-5.83-7.14c-16.84-2.64-35.17-3.6-52.15.58s-32.61,13.48-43.63,31.26C101.2,162.07,102.24,164.11,102.24,164.11Z"/><path class="cls-5" d="M222.41,357.85c26.7-3.92,53.11-12.85,76.43-27.56l3.52-2.42c1.62-1.11,3.67-2.51,5.95-4.25-3.1,2.17-6.41,4.13-9.7,6.09s-6.73,3.74-10.22,5.42-7,3.29-10.57,4.84-7.19,2.95-10.86,4.26C252.37,349.64,237.42,353.68,222.41,357.85Z"/><path class="cls-5" d="M339.5,292.78a140.6,140.6,0,0,0,11.81-18.69,147.87,147.87,0,0,0,8.71-20,176.58,176.58,0,0,0,8.27-34.49c-5.82,9.46-11.45,18.35-16.76,27.16s-10.19,17.57-15,26.89c0,0,.39.84.94,2.2a42.07,42.07,0,0,1,1.77,5.31,33.21,33.21,0,0,1,1.1,6.41A10.38,10.38,0,0,1,339.5,292.78Z"/><path class="cls-9" d="M149.33,2.37A171.85,171.85,0,0,0,112,12.7,186.11,186.11,0,0,0,75.53,32.6a84.82,84.82,0,0,0,19.16-2.38,104.24,104.24,0,0,0,18.24-6.35C125,18.49,136.88,10.93,149.33,2.37Z"/><path class="cls-5" d="M82.17,87.94c13.73-15.32,30-24.16,48.21-27.63S169,58.77,191,65.68c10.82,4.87,22.83,6.24,36.64,7.09,6.92.45,14.29.77,22.46,1.65a116.9,116.9,0,0,1,27.93,6.1A80,80,0,0,1,296,89.73l1.22.86c.4.27.81.57,1.25.91.85.66,1.7,1.34,2.54,2l.63.52s0,0,0,0l-.09-.08-.16-.16-.34-.32.62.5L303,95.05a46.68,46.68,0,0,1,4.76,4.78,74.51,74.51,0,0,1,13.79,23.11,77.39,77.39,0,0,1,4.86,27.2,75.29,75.29,0,0,1-5.53,28.07c-2.17,5.26-1.86,10.51-.52,16.46s3.77,12.62,5.65,20.21,3.13,16,2.15,24.53a38.45,38.45,0,0,1-10.73,23.31c1.11,3.81,3.11,8.24,2.74,11a2.76,2.76,0,0,1-2.44,2.67c-1.61.26-4.1-.21-7.82-1.68a87.35,87.35,0,0,1-9.74,13.2,99.35,99.35,0,0,1-12.28,11.49,112.62,112.62,0,0,1-30.23,16.69,135,135,0,0,1-34,7.62,190.43,190.43,0,0,1-33.43,0c-9.88-.92-19.42-1.81-28.68-2.87s-18.14-2.32-26.56-3.93c-16.84-3.23-32.27-7.71-46.12-16.16a78.92,78.92,0,0,1-12.47-9.72,68.59,68.59,0,0,1-10.12-12.47,87.86,87.86,0,0,1-11.63-30q-.8-4-1.3-8c-.18-1.34-.31-2.68-.44-4s-.22-2.62-.29-3.9a143.54,143.54,0,0,1-.07-14.94,136.72,136.72,0,0,1,4.41-28.87c.65-3.1,1.27-6.21,2.14-9.29.42-1.54.85-3.08,1.3-4.61s1-3,1.49-4.59l.78-2.28.85-2.27c.58-1.5,1.17-3,1.75-4.52s1.29-3,1.93-4.46,1.31-3,2-4.43,1.42-2.91,2.14-4.37l2.29-4.31c1.5-2.88,3.23-5.66,4.84-8.46L81,131.16l1.3-2,1.36-2,2.71-4,2.82-3.93c1.84-2.62,3.81-5.22,5.84-7.8s4.17-5.09,6.38-7.45a69.32,69.32,0,0,1,14.86-12.34,44.15,44.15,0,0,1,17.94-6.08c6.2-.66,12.55.28,17.38,3.15-11.24-17-22.29-32.25-33.69-41.32-5.68-4.54-11.48-7.58-17.21-8.59A22.61,22.61,0,0,0,84.34,41.8a82.9,82.9,0,0,0-16.42,8.72A103.08,103.08,0,0,0,53.61,62.34q-3.28,3.25-6.3,6.73c-1,1.15-2,2.33-3,3.51l-1.42,1.8-.71.9-.72,1c-3.86,5.21-7.08,10.1-9.77,14.4A204.29,204.29,0,0,0,8,144.42a207.88,207.88,0,0,0-5.83,27.93A217.71,217.71,0,0,0,0,200.43,230.54,230.54,0,0,0,1.3,228.38c.12,1.18.22,2.26.38,3.52l.47,3.74.56,3.84c.19,1.27.41,2.59.65,3.93.94,5.52,2.16,11,3.64,16.46A218.21,218.21,0,0,0,29.47,297a189.58,189.58,0,0,0,13.38,15.7c4.69,4.83,9.48,9.3,14.25,13.57,1.58,1.26,3.12,2.55,4.63,3.84s3,2.54,4.5,3.83l-11-6.13a158.57,158.57,0,0,1-29.77-23.1,118.2,118.2,0,0,0,25.49,26.53c2.77,1.93,5.55,3.85,8.34,5.67l2.1,1.38,2.21,1.26c1.48.81,2.91,1.71,4.45,2.46a145.47,145.47,0,0,0,19.1,8.4,163.24,163.24,0,0,0,21.43,6.12l5.73,1.18,5.94,1c2,.36,4,.56,6.07.84l3.07.39c1,.12,2.09.2,3.14.3-1.28-.42-2.65-.7-3.89-1.17a286.83,286.83,0,0,0,35.61,2.3c7.9-.83,15.7-1.35,23.55-1.71s15.77-.67,23.75-1.16c15.93-1,32.24-2.88,47.68-7.06,2.64-.85,5.65-1.79,8.86-3,1.61-.6,3.3-1.22,5-1.9s3.49-1.44,5.31-2.22a171.82,171.82,0,0,0,22.78-12A227,227,0,0,0,326,307.9c5.47-6.23,10.87-13,15.76-19.24,1.23-1.55,2.39-3.1,3.58-4.55l3.46-4.19c1.12-1.33,2.24-2.57,3.36-3.7a36.87,36.87,0,0,1,3.23-3.09,102.68,102.68,0,0,0,4.78-11.1,200.45,200.45,0,0,0,11.2-38.33A296.79,296.79,0,0,0,376,184.37a267.28,267.28,0,0,0-.71-39.06,208.52,208.52,0,0,0-7.07-37.25c-3.41-6.07-6.95-12-10.72-17.72s-7.57-11.46-11.78-16.9l-1.54-2.08c-.52-.69-1.07-1.35-1.6-2l-3.19-4.11L336,61.14c-.56-.69-1.13-1.38-1.73-2l-.88-1-.43-.51-.22-.26-.11-.12.49.4,1,.82.1.09-.07-.07-.14-.14-.28-.29-1.12-1.12-2.28-2.22-1.16-1.09-1.11-1L325.9,50.6l-2.17-1.91-2.15-1.83c-1.34-1.12-2.69-2.23-4.07-3.33l-2-1.6-1.9-1.47-3.83-2.9-3.56-2.62-3.49-2.52A133.29,133.29,0,0,0,284.63,21c-3-1.58-5.73-2.9-8.61-4.18-1.36-.61-2.74-1.19-4.13-1.76s-2.66-1.06-4-1.58l-2-.74L264,12c-1.28-.43-2.59-.87-3.84-1.27-2.45-.76-5-1.5-7.25-2.1-4.73-1.26-9-2.17-13.09-2.93-8-1.48-14.59-2.2-19.27-2.79s-7.43-1-7.54-1.79c-5.12-.27-10.1-.33-15-.2s-9.7.45-14.43.94c-13.5,8-26,15-38.45,20s-24.65,7.78-37.47,7.36A202.63,202.63,0,0,0,89.1,43.07C78,52.41,74.47,66.36,75.27,81.27A37.39,37.39,0,0,1,82.17,87.94Z"/></g></g></g></g></svg>
