<svg xmlns="http://www.w3.org/2000/svg" viewBox="0 0 856.45 506.94"><defs><style>.cls-1,.cls-3{opacity:0.9;}.cls-2{fill:#ebe4d3;}.cls-3{fill:#d1bf99;}.cls-4{fill:#d9caab;}.cls-5{fill:#e2d7c0;}.cls-6{fill:#f3eee4;}.cls-7{fill:none;stroke:#e0d4bb;stroke-width:0;}.cls-8{fill:#faf8f4;}</style></defs><g id="Layer_2" data-name="Layer 2"><g id="Layer_1-2" data-name="Layer 1"><g class="cls-1"><g class="cls-1"><path class="cls-2" d="M790.86,270.93a14,14,0,0,0,2.61-7.58,29.69,29.69,0,0,0-1.21-9.46,70.31,70.31,0,0,0-4-10.66c-.82-1.86-1.77-3.66-2.77-5.46s-2-3.62-3.13-5.41c-2.16-3.58-4.43-7.13-6.68-10.44l-6.49-9.07c-2-2.77-3.72-5.24-5-7.3a19.88,19.88,0,0,1-2.52-4.72c-1.79-4.38-5.32-9-10.09-13.74a131.19,131.19,0,0,0-17.83-13.76c-3.44-2.24-7.13-4.34-10.92-6.46s-7.69-4.23-11.7-6.18-8.11-3.78-12.21-5.59-8.17-3.6-12.26-5.13-8.11-3.1-12-4.55l-5.77-2.13c-1.91-.67-3.79-1.28-5.62-1.9l-19.53-6.58c-11.18-3.63-17.93-6.43-16.79-8.48,1.94-2.67,4-8.89,5.7-16.9a216.2,216.2,0,0,0,3.91-27.36,171.91,171.91,0,0,0,.23-27.21,55.09,55.09,0,0,0-1.65-10c-.76-2.7-1.73-4.69-2.92-5.74a78.67,78.67,0,0,0-9-7.23,64.53,64.53,0,0,0-9.76-5.61,83,83,0,0,0-21.16-6.55,94.06,94.06,0,0,0-22.47-.65,107.27,107.27,0,0,0-11.42,1.58q-5.72,1.19-11.41,3c-14.47,3.52-18.5,8.8-22.5,4.79-1.85-1.06-16.7,18.81-35,24.87-6.15,1.69-12,.74-17.8-.06s-11.55-1.36-17.41,1.4c-5.3,1.61-12.85,2.5-21.45,2.86-4.32.2-8.84.23-13.61.27s-9.69,0-14.58,0l-7.3-.12h-7.2l-13.59,0c-4.27,0-8.28.11-11.85.25s-6.69.35-9.26.61c-9.73.93-18.18,1.85-25.71,2.08-3.77.16-7.31.1-10.71,0s-6.64-.29-9.78-.66a84.83,84.83,0,0,1-9.15-1.61c-1.49-.35-3-.76-4.45-1.18s-3-.85-4.45-1.34a117.6,117.6,0,0,1-18.41-8.16,59.24,59.24,0,0,0-14.37-6.73c-2.39-.76-4.78-1.39-7.18-1.92-1.2-.27-2.4-.51-3.61-.74s-2.42-.39-3.63-.56c-4.85-.69-9.75-1.22-14.74-2-2.49-.39-5-.84-7.57-1.4s-5.17-1.12-7.81-1.9c-5.61-1.3-10.86-2.23-15.93-3-2.53-.4-5-.67-7.51-.9L183,27.76c-4.9-.44-9.8-.87-14.89-1.49S157.7,25.15,152,24.15A178.4,178.4,0,0,0,87,12.92a28,28,0,0,0-4.63,1.47A11.63,11.63,0,0,0,78.41,17c-2.25,2.36-8.3,1.53-11.42,2.45-2.39-.49-4.76-1.12-7.11-1.84l-3.53-1.13c-1.17-.36-2.34-.74-3.51-1.13-4.69-1.56-9.35-3.3-14-4.83-2.34-.76-4.67-1.47-7-2.08-1.17-.31-2.34-.58-3.51-.83S26,7.25,24.79,7.11a41.93,41.93,0,0,0-14.12.55C5.42,8.69-1.77,14.89.4,20.28A172.43,172.43,0,0,0,19.76,55.84C23.42,61.05,27.25,66,31.18,70.62s8,9.37,12.09,13.78c7.75,8.18,16,12,24.9,14.76a128.24,128.24,0,0,0,13.55,3.12c2.3.4,4.62.9,7,1.42s4.69,1.06,7,1.67a39.15,39.15,0,0,1,9.36,3.55,44.31,44.31,0,0,1,4.35,2.65q2.13,1.53,4.15,3.32A78,78,0,0,1,128,132.5,139.94,139.94,0,0,1,139,155.28a247.4,247.4,0,0,1,8.12,25.07c1.52,6.53,2.78,13.91,4.12,21.35s2.76,15,4.56,21.72,4,12.6,6.89,16.83a17.63,17.63,0,0,0,5,5,12.53,12.53,0,0,0,6.38,2.08c5.67-.14,11.37-1.41,17.12-2.79s11.52-2.88,17.28-4a53.91,53.91,0,0,1,8.59-1,44.3,44.3,0,0,1,8.47.41,32.89,32.89,0,0,1,8.25,2.3,34.5,34.5,0,0,1,7.89,5c3.52,3.23,6.81,6.36,10,9.39s6.26,6.09,9.36,8.91c1.56,1.41,3.11,2.77,4.7,4.09s3.18,2.59,4.8,3.88a86.38,86.38,0,0,0,10.32,7,54.8,54.8,0,0,0,5.72,5.48,41.53,41.53,0,0,0,6.47,4.93c9.27.88,18.16,5.39,27.2,7,8.92,1.89,17.86.83,28.29-8.21a56.21,56.21,0,0,1,14.58,1.59c4.19,1,7.75,2.41,11.35,3.42a34.7,34.7,0,0,0,11.18,1.62A37.66,37.66,0,0,0,399.56,293l10.73-4.92,5.44-2.44,5.4-2.3c7.23-3,14.55-5.83,21.86-8.07A113.94,113.94,0,0,1,464.41,271c1.76-.16,3.53-.3,5.25-.32s3.41,0,5.09.13a58.82,58.82,0,0,1,9.94,1.45q2.82.56,5.52,1.25c1.77.5,3.49,1.06,5.18,1.66a76.9,76.9,0,0,1,9.73,4.2c1.55.81,3.09,1.63,4.55,2.57s2.86,1.95,4.25,3a76.68,76.68,0,0,1,8,7c2,1.55,3.65,9.71,4.8,18.41.57,4.36,1,8.86,1.28,12.86s.31,7.52.32,9.8c.07,4.15,1.13,7.23,2.91,9.45a12.62,12.62,0,0,0,3.14,2.74,15,15,0,0,0,3.9,1.72c5.65,1.65,13.22.78,19.8-.6a150.46,150.46,0,0,1,17-4.5,121.89,121.89,0,0,1,16.08-2,98.23,98.23,0,0,1,15.57.31c2.57.24,5.14.57,7.73,1s5.05,1,7.61,1.58c2.92,1.66,4.42,4.7,5.85,7.89s2.55,6.71,5.11,9.18a45.07,45.07,0,0,0,5.7,2.92,48.12,48.12,0,0,0,6,2.15,132.21,132.21,0,0,0,13,2.71c4.4.76,8.91,1.43,13.35,2.31a71.69,71.69,0,0,1,12.59,3.83c3,2.16,5.67,4.31,8.26,6.23s5.06,3.66,7.28,5.32c4.4,3.34,8.37,6,11.75,8.21a90.06,90.06,0,0,0,8.68,5.25c1.24.65,2.39,1.19,3.44,1.64s2,.86,2.8,1.16c6.79,2.47,8.26,0,8.15,1.47a5.09,5.09,0,0,1,.37,4.45,27.45,27.45,0,0,1-2.49,5.47c-2.1,3.88-4.47,8-3.84,11.8a18.91,18.91,0,0,0,1.58,3.3,17.82,17.82,0,0,0,2.12,2.94,25.21,25.21,0,0,0,5.84,4.76,47.63,47.63,0,0,0,7.11,3.55,58.31,58.31,0,0,0,7.67,2.44c3.58,1,7.06,2.24,10.56,3.59s7,2.81,10.42,4.44a101.65,101.65,0,0,1,9.67,5.48q2.32,1.5,4.53,3.12c1.45,1.09,2.79,2.24,4.1,3.42a60.08,60.08,0,0,1,7.12,7.63,45.64,45.64,0,0,1,5,8.74,32.28,32.28,0,0,1,2.48,9.71,32.93,32.93,0,0,1-.5,10.55c2.5-2.27,6.37-3.86,6.18-5.75q.6-3.87,1.35-7.76c.26-1.31.51-2.61.77-3.9s.53-2.6.76-3.89c.94-5.16,2.09-10.4,3.07-15.61s1.92-10.46,2.7-15.73,1.33-10.52,1.75-15.84.38-10.54.19-15.84a121.61,121.61,0,0,0-1.92-15.71,94.44,94.44,0,0,0-4.6-15.36,65.08,65.08,0,0,0-3.49-7.43q-2-3.68-4.31-7.26c-2-1.41-4.42-2.82-6.73-4.44a27.67,27.67,0,0,1-6.16-5.48c-.62-1-1.25-2-1.89-2.92s-1.34-1.83-2-2.72c-1.38-1.77-2.79-3.46-4.22-5.11s-2.88-3.23-4.34-4.79-3-3-4.55-4.49c-2.24-2.84-3.06-7.51-3-13.15a90.87,90.87,0,0,1,2.36-19c.37-1.7.77-3.42,1.21-5.13s.86-3.38,1.34-5.05c.94-3.34,2-6.62,3.13-9.71C785.52,280,788.12,274.6,790.86,270.93Z"/><path class="cls-3" d="M96.24,104.8c-2.35-.61-4.7-1.15-7-1.67s-4.68-1-7-1.44a129,129,0,0,1-13.56-3.12,66,66,0,0,1-6.53-2.33c-1.07-.45-2.14-.94-3.19-1.46s-2.1-1-3.14-1.59a49.33,49.33,0,0,1-12-9.4c-4.1-4.43-8.15-9-12.09-13.8s-7.76-9.57-11.42-14.78A172.39,172.39,0,0,1,.91,19.65C-1.28,14.25,6,8.06,11.2,7a41.94,41.94,0,0,1,14.12-.56,46.45,46.45,0,0,1,7,1.38c2.34.61,4.68,1.32,7,2.08,4.67,1.53,9.33,3.27,14,4.83l3.51,1.14c1.18.4,2.35.79,3.53,1.15,2.36.72,4.73,1.34,7.12,1.83,3.12-.9,9.18-.1,11.42-2.45s5.42-3.34,8.57-4.11c5.91,0,11.62.18,17.18.6q4.16.3,8.24.77T121,15c5.32,1,10.57,2.16,15.82,3.54,1.32.34,2.63.69,3.94,1.07l3.93,1.25q3.93,1.29,7.9,2.73c5.71,1,11,1.6,16.14,2.14s10,1,14.9,1.48l7.39.69,3.73.38,3.78.53c5.06.75,10.32,1.68,15.93,3,2.65.79,5.26,1.36,7.82,1.92s5.08,1,7.57,1.4c5,.78,9.89,1.31,14.75,2,2.43.32,4.84.78,7.24,1.31s4.8,1.16,7.19,1.93a58.79,58.79,0,0,1,14.37,6.75,115.93,115.93,0,0,0,18.43,8.16c1.48.49,3,.94,4.45,1.35s3,.83,4.45,1.18a82.21,82.21,0,0,0,9.16,1.61,97.83,97.83,0,0,0,9.78.66c3.4.09,6.94.13,10.71,0,7.54-.24,16-1.14,25.73-2.07,2.56-.26,5.7-.46,9.26-.6s7.58-.28,11.85-.25l13.59,0,7.21,0,7.3.12c4.9.07,9.81.09,14.6,0s9.28-.06,13.6-.26c8.61-.35,16.17-1.26,21.47-2.84,5.86-2.75,11.61-2.18,17.41-1.39S484,54.63,490.18,53c0,0,.77,3.07,2.58,8.87s4.65,14.29,8.65,25.23c-33.57,4.21-66.19,10-98,16.9a921.25,921.25,0,0,0-92.9,25.39l-6.62-1.54-6.65-1.39-13.29-2.79c-2.21-.49-4.44-.89-6.67-1.3l-6.67-1.24-13.34-2.47-13.39-2.16-6.69-1.08-3.35-.54-3.35-.46-13.42-1.83-6.71-.91c-2.23-.29-4.47-.51-6.71-.76A874.53,874.53,0,0,0,96.24,104.8Z"/><path class="cls-4" d="M482.07,75.52s5.69-1,13.89-1.67a135.13,135.13,0,0,1,28.78.42c9.89,1.21,18.86,4.36,23.47,9.73s4.75,13.19-2.83,24.43c0,0-7.2,5.75-18.35,14.26-5.57,4.26-12.13,9.21-19.25,14.48S492.9,148.23,485,153.85c-4,2.82-8,5.63-12,8.37s-8,5.4-12.05,8c-8,5.23-15.91,10-23.34,13.85s-14.5,7-20.84,8.67-12,2.07-16.7.7c0,0-6.85-1.93-15.55-4.14l-6.78-1.68c-2.33-.57-4.66-1-7-1.47-4.6-.91-9-1.69-12.69-2.15a37.54,37.54,0,0,0-3.36-4.4,64.12,64.12,0,0,0-10-9.34A51.48,51.48,0,0,0,328.45,162,47.1,47.1,0,0,0,318.14,160a49.86,49.86,0,0,0-11.61.67l-5.36.05c-1.7,0-3.76,0-6.14,0l-8,.13c-11.68.06-27.26.31-42.84.31-3.91,0-7.81,0-11.66,0l-5.72-.13c-1.88-.06-3.76,0-5.6-.09-7.37-.12-14.29-.57-20.33-1.24-12.09-1.13-20.66-3.8-22.17-8.69,0,0-2.9-.91-7.43-2.52-2.27-.8-4.95-1.79-7.88-2.92l-4.56-1.8-2.39-1-2.44-1a169.06,169.06,0,0,1-19.57-9.06c-6.06-3.27-11.23-6.71-14.16-10.41,0,0-1.05-2.42-3-6a92.54,92.54,0,0,0-8.46-13,52.39,52.39,0,0,0-13-12A27.77,27.77,0,0,0,88,88.08a18,18,0,0,0-4.13-.59,19.72,19.72,0,0,0-4.23.39s-4.3-2.39-10.33-6.08c-3-1.85-6.46-4-10-6.38s-7.2-4.67-10.61-7.17C35.06,58.31,25.1,47.42,43.61,43.36c0,0,5.28-2.45,12-5.24,3.38-1.41,7.11-2.68,10.71-3.9S73.42,32,76.23,31.4L83.1,32c4.38.43,10.61,1.3,18.11,2.27,3.74.51,7.8,1,12.09,1.67l13.46,2.3c4.67.83,9.5,1.61,14.39,2.61L156,44.06A480.11,480.11,0,0,1,210.87,59.4c1.9.66,3.73,1.32,5.48,2s3.41,1.35,5,2c3.15,1.33,5.94,2.59,8.31,3.78,4.74,2.38,7.79,4.46,8.61,6.11l6.91,3c4.44,1.91,10.86,4.52,18.77,7.34,3.94,1.47,8.25,3.07,12.87,4.62q3.48,1.18,7.17,2.34c2.47.77,5,1.53,7.59,2.37,5.18,1.62,10.63,3.18,16.29,4.62l8.63,2.17c2.91.72,5.88,1.4,8.89,2,24.09,5.13,50.63,8.19,77.48,5.43a158,158,0,0,0,20.09-3.28,165.75,165.75,0,0,0,20-6.13,140.25,140.25,0,0,0,19.78-9.31c3.26-1.85,6.52-3.88,9.74-6S478.9,78,482.07,75.52Z"/><path class="cls-5" d="M490.07,62.88a116.77,116.77,0,0,1,11.23-4.82c3.42-1.28,7.45-2.63,11.84-3.82a100.13,100.13,0,0,1,14-2.56,68.17,68.17,0,0,1,14.56-.09,38.49,38.49,0,0,1,7,1.4,36.73,36.73,0,0,1,6.46,2.58,29.06,29.06,0,0,1,10.54,9.15,30,30,0,0,1,3.58,7,41.8,41.8,0,0,1,2.16,8.75s3.45,5.23,7.89,13.3c2.23,4,4.65,8.9,7,14.13s4.68,10.91,6.63,16.67c3.89,11.64,6.27,23.82,5.33,33.94s-5.2,18.33-14.37,22.45c0,0-2.25,1-6.29,2.74s-9.87,4.17-17,7.06S545,197.19,535.7,200.83s-19.45,7.69-30,11.57c-21.08,7.77-43.87,15.67-65.48,20.47-2.68.57-5.4,1.18-8.09,1.7s-5.35,1-8,1.38c-5.28.81-10.39,1.29-15.46,1.57a105.29,105.29,0,0,1-14.78-.11q-3.57-.3-7-.88c-2.29-.4-4.6-.8-6.82-1.36,0,0-1.86-.68-6.27.41a42.88,42.88,0,0,0-8.6,3.26,76.08,76.08,0,0,0-12.74,7.88,63.22,63.22,0,0,1-6.67.83,77.6,77.6,0,0,1-15.16-.33,45,45,0,0,1-8.57-1.93,37.08,37.08,0,0,1-8.09-3.87,27.51,27.51,0,0,1-11.49-16s-.55-.77-1.59-2-2.55-3.12-4.44-5.32-4.18-4.77-6.75-7.53c-1.29-1.37-2.65-2.8-4.07-4.24s-2.93-2.84-4.47-4.27c-3.09-2.85-6.38-5.69-9.76-8.34-1.69-1.32-3.4-2.6-5.12-3.8s-3.45-2.24-5.18-3.23A53.08,53.08,0,0,0,251,182a20.9,20.9,0,0,0-9.14-1.12,56.11,56.11,0,0,0-8.36-11.35,25.88,25.88,0,0,0-8.78-6.24,11.57,11.57,0,0,0-10.1.74l5.45-1c1.74-.31,3.86-.71,6.31-1.08l8.23-1.13a380.77,380.77,0,0,1,45.4-3.46c8.42,0,17,0,25.06.77,4.05.34,8,.76,11.78,1.27s7.36,1.26,10.73,2c13.49,3.05,23.05,8.19,24.78,15.29a23.92,23.92,0,0,0,2,1.81,60.4,60.4,0,0,0,6,4.19,55.24,55.24,0,0,0,9.89,4.72c2,.72,4.1,1.33,6.42,1.94a64.35,64.35,0,0,0,7.49,1.51,75.51,75.51,0,0,0,18.08.31,103.13,103.13,0,0,0,22.3-4.45q3.07-.94,6.31-2.12c2.15-.77,4.33-1.57,6.57-2.48q6.73-2.72,14.12-6.42c4.92-2.47,10.11-5.36,15.48-8.53s11-6.69,16.87-10.66c0,0,2.84-3.66,6.55-9.67A129.72,129.72,0,0,0,502.16,123c3.38-9.47,5.55-20,4.28-30.54A44.09,44.09,0,0,0,501.67,77,48.6,48.6,0,0,0,490.07,62.88Z"/><path class="cls-6" d="M560.39,13.21C573.19,8.79,587.56,2.32,601.1,0c6.89-.14,14.64,5.05,21.84,6.72,4.58,1.44,8.5,4.67,11.78,8.2a86.11,86.11,0,0,1,8.06,10.6c8.09,17.23,22.37,32,35.39,47.76,3.26,3.84,6.41,7.93,9.37,12a144.31,144.31,0,0,1,8.15,12.45c1.22,2.09,2.34,4.29,3.36,6.51s2,4.45,2.77,6.72a65.71,65.71,0,0,1,3.42,14c1.68,5,3.29,8.5,6.63,11.67,1.72-.19,6.81,1,8.54.85q2.22,1.44,4.35,3c1.43,1,2.83,2,4.21,3.14l8.14,6.53c2.69,2.15,5.39,4.25,8.14,6.21a89.72,89.72,0,0,0,8.44,5.63,45.57,45.57,0,0,1,7,4.37,39.8,39.8,0,0,1,6,5.51,65.37,65.37,0,0,1,9.34,13.78c.64,1.27,1.27,2.54,1.85,3.85s1.12,2.69,1.64,4.06c1,2.74,2,5.54,2.84,8.38a163.33,163.33,0,0,1,4.23,17.39,159.59,159.59,0,0,0,6.18,19.12c2.33,6.49,4.82,13,6.78,19.32a32,32,0,0,1,.17,16.54,96.31,96.31,0,0,1-5.56,15.91c-2.2,5.22-4.35,10.27-5.51,15.15a28.3,28.3,0,0,0-.86,7.16,19.38,19.38,0,0,0,.36,3.48,20.14,20.14,0,0,0,.93,3.48c2.24,7.73,6,13.91,10.26,19.74a107.31,107.31,0,0,0,7,8.26c2.39,2.72,4.89,5.36,7.42,8l3.79,4c1.24,1.36,2.43,2.76,3.63,4.16,2.37,2.81,4.67,5.7,6.8,8.74a64.51,64.51,0,0,1,5.43,9.78,45.44,45.44,0,0,1,3.51,11c.46,4.78,1.06,9.3,1.54,13.75s.78,8.84,1,13.17c.06,1.09.12,2.16.14,3.25s0,2.19,0,3.28c0,2.19-.13,4.37-.28,6.57s-.39,4.41-.71,6.64-.83,4.52-1.4,6.81c-1.33,3.56-2.43,7.08-3.4,10.57s-2,7-2.87,10.49a187.62,187.62,0,0,1-6.25,20.79c-.47,1.57-3.21,4.74-6.16,7.49s-6.09,5.11-7.41,5.3c-4-.37-3-7.15-6.1-10.4-3.77-4.53-2.17-9.05.63-13.62s7.21-9.24,9.18-13.72a20.41,20.41,0,0,0,.8-8.1,31.59,31.59,0,0,0-.65-4.05,29.36,29.36,0,0,0-1.15-4c-.92-2.68-2-5.38-3.06-8.12-.52-1.37-1-2.76-1.47-4.16s-1-2.8-1.33-4.23a30.33,30.33,0,0,1,1.07-7.68c.34-1.31.75-2.64,1.23-4s1-2.84,1.54-4.39c2.09-4.51.87-8.46-1.64-12.13s-6.58-6.94-9.87-10.47a18.55,18.55,0,0,1-5.25-7.13,44.57,44.57,0,0,1-2.47-8.92c-.63-3.13-1.29-6.3-2.17-9.36a25.9,25.9,0,0,0-3.92-8.46c-4.7-6.74-12.28-10.67-19.16-14.38a42,42,0,0,1-9-6.21,15.18,15.18,0,0,1-4.9-8.91c.37,3.33-1.44,2.65-4.17-.09-.68-.69-1.42-1.51-2.21-2.42s-1.67-1.87-2.55-2.93c-1.75-2.11-3.61-4.5-5.39-6.94s-3.53-4.93-5.13-7.15-2.91-4.33-3.85-6c-1.89-3.35-2.17-5.12.53-3.43-1.6,0,.35-6.62,2.84-9.91,2.07-1.61,4.59-4.92,6.23-4.91,6.48.12,12.6-2.57,18.58-6.11s11.79-7.9,17.72-10.94c.11-.43-1.18-2.47-3.22-5.58l-3.53-5.37c-1.35-1.95-2.8-4.1-4.28-6.37s-3-4.67-4.39-7.13c-.72-1.22-1.4-2.48-2.09-3.71s-1.36-2.45-2-3.67c-2.51-4.9-4.41-9.79-5-14.17-.25-3.52-.47-7-.78-10.38a97,97,0,0,0-1.32-10.08,46,46,0,0,0-2.81-9.47,29.94,29.94,0,0,0-5.38-8.26c-3.24-1.61-8.73,2.21-12,.65a25.17,25.17,0,0,0-6.64-2.47c-3.53-1-8.22-2.06-13.65-3.25-2.71-.59-5.6-1.2-8.63-1.82l-9.53-1.67-10-1.69-5.1-.84-5.16-.72L650.57,169c-6.45-.79-12.47-1.59-17.71-2.43-2.63-.41-5-.86-7.25-1.27s-4.19-.79-5.88-1.22c-3.39-.86-5.66-1.82-6.46-2.9a31.31,31.31,0,0,1-3.14-11.77c-.29-4.28.36-8.34,2.69-10.73,10.79-15.08,5.33-27.65,9.23-43,1.39-3.91,6.17-6.92,7.57-10.85a69.76,69.76,0,0,0,1.71-18c-.28-5.84-1.63-10.87-4.48-13.73a59.13,59.13,0,0,0-15.17-15.71,45,45,0,0,0-18.23-7.57c-2.75-1.44-5.49-3-8.24-4.33l-8.27-4.14C571.43,18.7,565.91,15.89,560.39,13.21Z"/><path class="cls-7" d="M191.33,244.16a42.27,42.27,0,0,1,6.29-2.55,56.83,56.83,0,0,1,16.12-2.85,54.3,54.3,0,0,1,10.37.92,50.27,50.27,0,0,1,5.5,1.38,36.85,36.85,0,0,1,5.59,2.18,51.38,51.38,0,0,1,11.09,7.25,57.17,57.17,0,0,1,5.32,5.17,67.9,67.9,0,0,1,5,6.51s1.51,1.34,3.85,3.34,5.54,4.61,8.88,7.28c6.66,5.44,14,10.71,17.23,10.47l7.14,8s2.53,1,6.53,2.13a113.37,113.37,0,0,0,15.2,3.6c1.46.23,2.95.42,4.45.56s3,.3,4.45.37a43.41,43.41,0,0,0,8.79-.44c5.61-1,11.06-3,14.76-7.35,0,0,5.85,0,12,.57,1.53.15,3.08.33,4.55.57a31.55,31.55,0,0,1,4.05.92c2.44.73,4.23,1.68,4.68,2.91,0,0,3.83,2.16,11.63,1.61a51.19,51.19,0,0,0,6.54-.91,60,60,0,0,0,8-2.28,86.49,86.49,0,0,0,9.66-4.16c1.75-.87,3.56-1.83,5.46-2.91s3.8-2.19,5.82-3.45"/><path class="cls-8" d="M776.78,166.35c1.54,2.44,4.3,7.37,7.55,13.64s6.81,14.23,10.2,22.21c3.33,8.14,6.35,16.57,8.61,24,2.15,7.6,3.53,14.19,3.69,18.68.26,3.44.47,6.85.59,10.33s.23,6.85.3,10.24.1,6.74.1,10.08-.13,6.76-.24,10.11-.27,6.71-.45,10.05-.38,6.64-.71,10q-.93,10.14-2.27,20.28c.24,2.38,1.5,5,3.7,5.44a24.59,24.59,0,0,1,9.81,5.46,27.22,27.22,0,0,1,3.6,3.92c1.08,1.4,2.09,2.86,3,4.34,1.92,3,3.74,6,5.67,8.82a29.67,29.67,0,0,0,6.75,7.5c2.16,1.89,4.94,3.32,7.35,5.06s4.54,3.74,5.57,6.59A112.57,112.57,0,0,1,855.33,396c.31,1.92.48,3.89.64,5.85s.28,3.92.35,5.87a104.34,104.34,0,0,1-.07,11.73q-.36,5.89-1.16,11.7l-.42,2.9c-.16,1-.35,1.94-.54,2.91q-.57,2.91-1.24,5.79c-.9,3.84-1.85,7.61-3.06,11.38s-2.57,7.51-4,11.18q-1,2.32-2.13,4.61c-.76,1.52-1.64,3-2.52,4.53-1.79,3-3.72,5.93-5.72,8.83-3.94,5.78-8.46,11.49-12.45,17.25-2.48,2.3-4.9,5.82-8.39,6.25-2.58,1-2-3.55-3.46-5.56,1.1-3,4.48-6.08,5.86-10.19,1.81-3.88,2.27-7.91,2.83-11.91.32-2,.52-4,1-5.95a23.34,23.34,0,0,1,2.16-5.83c.82-2,1.74-4,2.71-6s1.87-4,2.8-6a57.64,57.64,0,0,0,4.42-12.66,49.38,49.38,0,0,0-1-16.3C829.53,406,823.2,386.89,812.6,370a13.21,13.21,0,0,1-7.09-3.48,18.88,18.88,0,0,1-4.22-6.14,75.78,75.78,0,0,1-2.78-7.33,37.85,37.85,0,0,0-3-6.69c-1.22-2.53-.89-5.92-1.67-9.53a26.65,26.65,0,0,0-3.51-5.26c-1.32-1.64-2.68-3.21-3.85-4.82-2.34-3.21-3.85-6.62-2.87-11q2.1-7,3.75-13.93c1.07-4.63,2.06-9.36,2.7-13.94s1.15-9.25,1.4-13.94a116.7,116.7,0,0,0,0-14.12,110.89,110.89,0,0,0-3.27-17.64c-1.93-7.44-4.64-16-7.64-24.61-3.11-8.38-6.49-16.84-9.68-23.8a134.84,134.84,0,0,0-8.18-15.45,47.61,47.61,0,0,0-8.81-10.73,114,114,0,0,0-10.5-8.56c-3.67-2.56-7.37-5-10.9-7.71-1.76-1.33-3.49-2.71-5.14-4.18-.83-.73-1.64-1.49-2.43-2.27s-1.58-1.52-2.34-2.33c-.56-.5,5.62-3.69,15.71-2.12A48.49,48.49,0,0,1,756,147.05a72.88,72.88,0,0,1,10.21,7.75q2.63,2.37,5.3,5.2C773.27,161.89,775,164.07,776.78,166.35Z"/></g></g></g></g></svg>