<svg id="design" xmlns="http://www.w3.org/2000/svg" width="161.109" height="190.738" viewBox="0 0 161.109 190.738">
  <path id="Path_1" data-name="Path 1" d="M109.419,151.958a4.559,4.559,0,0,0-.367.322,2.789,2.789,0,0,0-1.506,2.475,2.759,2.759,0,0,0,.084.671,4.748,4.748,0,0,0,.013.592l3.747,44.065a4.62,4.62,0,0,0,4.632,4.255h72.6a4.655,4.655,0,0,0,4.651-4.649V84.568A4.644,4.644,0,0,0,189.466,80a32.227,32.227,0,0,1-13.036-5.576c-6.006-4.527-9.145-11.048-9.331-19.382a4.588,4.588,0,0,0-1.96-3.677,4.684,4.684,0,0,0-4.153-.62l-27.282,9a2.791,2.791,0,0,0,1.749,5.3l26.118-8.622c.52,9.415,4.479,17.158,11.5,22.453.163.124.329.237.493.357v5.051a2.79,2.79,0,1,0,5.579,0V82.5a39.021,39.021,0,0,0,8.549,2.829v19.838h-6.629a2.779,2.779,0,0,0-1.921.77V96.59a2.79,2.79,0,1,0-5.579,0v12.305a2.788,2.788,0,0,0,5.421.921,2.778,2.778,0,0,0,2.08.936h6.629v41.321a2.787,2.787,0,0,0,0,5.364v41.322h-8.549v-3.721a2.79,2.79,0,0,0-5.579,0v3.721H116.878l-3.506-41.215h9.983a2.79,2.79,0,1,0,0-5.579h-5.911a29.1,29.1,0,0,0,6.825-20.155c-.818-9.791-6.784-16.766-11.978-21.058h3.674a2.79,2.79,0,0,0,0-5.581H104.9L95.18,78.337l23.815-7.86a2.79,2.79,0,0,0-1.749-5.3L92.521,73.34a4.647,4.647,0,0,0-2.913,6l10.46,28.867c.049.137.106.271.167.4a2.784,2.784,0,0,0,1.79,1.983c.1.058.191.116.293.167,2.547,1.305,15.312,8.474,16.394,21.562A23.512,23.512,0,0,1,109.419,151.958Zm0,0" transform="translate(-56.235 -31.691)" fill="#585858"/>
  <path id="Path_2" data-name="Path 2" d="M291.967,307.792H280.818a2.79,2.79,0,1,0,0,5.579h11.148v.576a2.79,2.79,0,0,0,5.581,0V301.641a2.79,2.79,0,0,0-5.581,0Zm0,0" transform="translate(-174.638 -187.519)" fill="#585858"/>
  <path id="Path_3" data-name="Path 3" d="M318.236,364.918a2.789,2.789,0,0,0-2.791,2.79v12.307a2.79,2.79,0,0,0,5.581,0V367.708A2.789,2.789,0,0,0,318.236,364.918Zm0,0" transform="translate(-198.117 -228.973)" fill="#585858"/>
  <path id="Path_4" data-name="Path 4" d="M318.236,250.671a2.789,2.789,0,0,0,2.79-2.79V235.575a2.79,2.79,0,0,0-5.581,0v12.307A2.79,2.79,0,0,0,318.236,250.671Zm0,0" transform="translate(-198.117 -146.064)" fill="#585858"/>
  <path id="Path_5" data-name="Path 5" d="M204.106,197.242h-13.02a2.79,2.79,0,0,0,0,5.581h13.02a2.79,2.79,0,0,0,0-5.581Zm0,0" transform="translate(-118.336 -123.762)" fill="#585858"/>
  <path id="Path_6" data-name="Path 6" d="M274,197.242h-13.02a2.79,2.79,0,0,0,0,5.581H274a2.79,2.79,0,0,0,0-5.581Zm0,0" transform="translate(-162.195 -123.762)" fill="#585858"/>
  <path id="Path_7" data-name="Path 7" d="M208.133,325.641a2.789,2.789,0,0,0,2.79,2.79h13.02a2.79,2.79,0,0,0,0-5.579h-13.02A2.789,2.789,0,0,0,208.133,325.641Zm0,0" transform="translate(-130.782 -202.578)" fill="#585858"/>
  <path id="Path_8" data-name="Path 8" d="M158.819,98.52a2.789,2.789,0,0,0,2.79-2.79V5.766A5.771,5.771,0,0,0,155.843,0H26.615c-.047,0-.095,0-.141.007l-.09,0a2.97,2.97,0,0,0-.359.052L25.968.08a2.612,2.612,0,0,0-.3.09.955.955,0,0,0-.09.033,2.814,2.814,0,0,0-.329.154L25.22.377a2.985,2.985,0,0,0-.278.186l-.08.061a2.836,2.836,0,0,0-.276.253L1.258,25.645a2.872,2.872,0,0,0-.231.285L.977,26a3.213,3.213,0,0,0-.18.3c-.006.015-.012.031-.019.045a2.4,2.4,0,0,0-.119.291c-.01.028-.02.054-.028.08a2.663,2.663,0,0,0-.084.338c0,.02-.006.042-.009.063a2.948,2.948,0,0,0-.032.3c0,.029,0,.057,0,.086s0,.035,0,.051V184.973a5.772,5.772,0,0,0,5.766,5.766H155.843a5.772,5.772,0,0,0,5.766-5.766V112.945a2.79,2.79,0,1,0-5.579,0v72.027a.188.188,0,0,1-.186.186H6.266a.188.188,0,0,1-.186-.186V30.349H24.756A4.655,4.655,0,0,0,29.406,25.7V5.579H155.843a.186.186,0,0,1,.185.186V95.73A2.79,2.79,0,0,0,158.819,98.52ZM23.826,24.768H9.749L23.826,9.821Zm0,0" transform="translate(-0.5 0)" fill="#585858"/>
  <path id="Path_9" data-name="Path 9" d="M384.933,322.852h-5.47a2.79,2.79,0,1,0,0,5.579h5.47a2.79,2.79,0,0,0,0-5.579Zm0,0" transform="translate(-236.534 -202.578)" fill="#585858"/>
  <path id="Path_10" data-name="Path 10" d="M384.933,448.461h-5.47a2.79,2.79,0,1,0,0,5.579h5.47a2.79,2.79,0,0,0,0-5.579Zm0,0" transform="translate(-236.534 -281.393)" fill="#585858"/>
  <path id="Path_11" data-name="Path 11" d="M384.933,130.156h-5.47a2.79,2.79,0,1,0,0,5.581h5.47a2.79,2.79,0,0,0,0-5.581Zm0,0" transform="translate(-236.534 -81.668)" fill="#585858"/>
  <path id="Path_12" data-name="Path 12" d="M384.933,48.563h-5.47a2.79,2.79,0,1,0,0,5.579h5.47a2.79,2.79,0,0,0,0-5.579Zm0,0" transform="translate(-236.534 -30.471)" fill="#585858"/>
  <path id="Path_13" data-name="Path 13" d="M33.58,400.122H57.42a2.79,2.79,0,1,0,0-5.579H33.58a2.79,2.79,0,1,0,0,5.579Zm0,0" transform="translate(-19.505 -247.562)" fill="#585858"/>
  <path id="Path_14" data-name="Path 14" d="M33.58,427.079h17a2.79,2.79,0,1,0,0-5.579h-17a2.79,2.79,0,1,0,0,5.579Zm0,0" transform="translate(-19.505 -264.476)" fill="#585858"/>
  <path id="Path_15" data-name="Path 15" d="M33.58,454.04H64.472a2.79,2.79,0,0,0,0-5.579H33.58a2.79,2.79,0,1,0,0,5.579Zm0,0" transform="translate(-19.505 -281.393)" fill="#585858"/>
</svg>
