<svg id="fabric" xmlns="http://www.w3.org/2000/svg" width="188.651" height="190.738" viewBox="0 0 188.651 190.738">
  <g id="Group_8" data-name="Group 8" transform="translate(0)">
    <g id="Group_7" data-name="Group 7">
      <path id="Path_16" data-name="Path 16" d="M180.294,114.851a.545.545,0,0,1,0-.477l10.555-21.749a5.942,5.942,0,0,0,0-5.217L180.294,65.654a.545.545,0,0,1,0-.477l8.9-18.35a5.975,5.975,0,0,0-5.376-8.584H157.234a2.715,2.715,0,0,0,0,5.429h26.589a.546.546,0,0,1,.491.785l-8.9,18.35a5.941,5.941,0,0,0,0,5.217l10.555,21.753a.544.544,0,0,1,0,.477L175.411,112a5.942,5.942,0,0,0,0,5.218l10.555,21.75a.545.545,0,0,1,0,.477L175.411,161.2a5.941,5.941,0,0,0,0,5.218l8.789,18.11a.546.546,0,0,1-.491.785H90.383l.017-.016q.373-.34.73-.7c.082-.082.159-.168.239-.251.159-.165.318-.329.472-.5.093-.1.181-.209.272-.313.136-.156.272-.311.4-.471.094-.115.183-.233.275-.35.121-.155.243-.31.36-.468.091-.124.179-.25.267-.376.111-.157.221-.314.328-.474.087-.13.17-.263.254-.4.1-.161.2-.321.3-.484.081-.136.159-.275.238-.413.093-.164.184-.329.272-.5.075-.142.148-.284.219-.428q.126-.253.247-.509.1-.218.2-.44c.076-.173.149-.347.221-.523.061-.149.12-.3.178-.45.068-.178.132-.358.195-.539.053-.152.105-.3.155-.457.06-.184.114-.37.169-.557.045-.153.09-.306.131-.461.051-.191.1-.384.142-.577.036-.154.074-.307.107-.462.042-.2.078-.4.115-.6.028-.152.057-.3.082-.456.034-.212.06-.427.087-.642.018-.145.04-.288.055-.433.025-.241.042-.484.059-.726.009-.122.021-.243.028-.365q.029-.55.03-1.107V43.672h43.123a2.715,2.715,0,0,0,0-5.429H97.225V20.867A20.891,20.891,0,0,0,76.358,0H23.67A20.891,20.891,0,0,0,2.8,20.867v95.947a2.715,2.715,0,0,0,5.429,0V20.867A15.455,15.455,0,0,1,23.67,5.429H76.358A15.456,15.456,0,0,1,91.8,20.867V163.544A20,20,0,0,0,73.183,150.8H22.774a19.915,19.915,0,0,0-14.543,6.3V133.917a2.715,2.715,0,0,0-5.429,0v35.955c0,.15.008.3.011.448s-.011.3-.011.447a19.994,19.994,0,0,0,19.972,19.972H183.707a5.976,5.976,0,0,0,5.376-8.585l-8.789-18.11a.545.545,0,0,1,0-.477l10.555-21.749a5.941,5.941,0,0,0,0-5.218ZM73.182,185.309H23.67a15.453,15.453,0,0,1-15.427-14.99,14.557,14.557,0,0,1,14.531-14.095H73.182a14.543,14.543,0,1,1,0,29.085Z" transform="translate(-2.802)" fill="#585858"/>
    </g>
  </g>
  <g id="Group_10" data-name="Group 10" transform="translate(9.682 160.476)">
    <g id="Group_9" data-name="Group 9">
      <path id="Path_17" data-name="Path 17" d="M97.233,434.286a10.294,10.294,0,0,0-7.745-3.519H39.081A10.3,10.3,0,0,0,28.8,441.452a10.353,10.353,0,0,0,10.469,9.9H89.489a2.715,2.715,0,1,0,0-5.429H39.267a5,5,0,0,1-5.044-4.672,4.87,4.87,0,0,1,4.858-5.051H89.489a4.864,4.864,0,0,1,3.659,1.666.224.224,0,0,1,.032.283.3.3,0,0,1-.3.2H69.548a2.715,2.715,0,0,0,0,5.429H92.883a5.7,5.7,0,0,0,5.241-3.384A5.63,5.63,0,0,0,97.233,434.286Z" transform="translate(-28.791 -430.767)" fill="#585858"/>
    </g>
  </g>
</svg>
