<svg xmlns="http://www.w3.org/2000/svg" viewBox="0 0 1115.73 566.59"><defs><style>.cls-1{fill:#e5d0be;}.cls-2{opacity:0.85;}.cls-3{fill:#faf6f3;}.cls-4{fill:#fdfcfa;}.cls-5{fill:#f8f2ed;}.cls-6{fill:#f1e6dc;}.cls-7{fill:#efe2d6;}.cls-8{fill:#f5ede6;}.cls-9{fill:#f3eae2;}.cls-10{fill:#ecddd0;}</style></defs><g id="Layer_2" data-name="Layer 2"><g id="Layer_1-2" data-name="Layer 1"><path class="cls-1" d="M.61,551.6l1101.85,5.16c-40.21-126-81.68-254.52-160.2-360.95S740.12,7.07,608,13c-75.17,3.39-177.48,21-245.57,53-94.57,44.44-158.38,106.7-230,182.77C57.39,328.47,12.66,436,9,545.34"/><g class="cls-2"><g class="cls-2"><path class="cls-3" d="M1052.46,542.78l-36.48-.84,1-1.38c-2.71-.37-8.59-.3-13.44-.33-9,.28-4.63,1.06-5.95,1.58l-19.26,1-459.67-4.44-46.32-.61c-1.82-.19-3.64-.38-4.47-.55l1-1.39c36.28,1.07,43.61-1.07,66.12-1.2,44.67,1.59,444.86,3.35,492.68,4.61l31.57.81c3.12.42,6,.86,8.71,1.3l4,.66,2,.32,1,.16.5.08a1.63,1.63,0,0,1,.36.08Z"/><path class="cls-4" d="M997.6,541.81c1.32-.52-3-1.3,5.95-1.58,4.85,0,10.73,0,13.44.33l-1,1.38Z"/><path class="cls-3" d="M39.42,560.52c-26.75.61-25.27-1.46-2.15-2.5l3.71.25Z"/><path class="cls-4" d="M41,558.27c-8.47,1,2.27,2.33-14.93,1.86C26.49,559.5,25,558.79,41,558.27Z"/><path class="cls-5" d="M32.8,369.85l2.41-5.57,1.21-2.79q.59-1.41,1.26-2.76L43,347.79c3.4-7.36,7.47-14.37,11.29-21.53,2-4.2,4.37-8.16,6.58-12.16l3.35-6,1.67-3c.54-1,1.11-2,1.72-2.94l7.22-11.62c1.22-1.94,2.39-3.93,3.68-5.85s2.62-3.82,3.94-5.75c2.61-2.72,5.8-6.21,9-9.7-1.08,2.05-1.09,2.53-.43,2.07A12.14,12.14,0,0,0,92.42,270l2.22-2.23c3.33-3.4,7.76-8.15,9.88-9.64l3.09-3.84,3.26-3.71,6.51-7.42c4.35-5.06,8.68-9.6,13-14.36l.29,1.37-5.2,5.66c-1.65,1.79-3.2,3.43-4.69,5.14l-8.15,9.12-3.67,4c-1.21,1.28-2.26,2.65-3.37,3.93-2.22,2.58-4.38,5.11-6.61,7.72-1.25,1.61-2.49,3.21-3.72,4.78s-2.31,3.21-3.44,4.76c-2.24,3.12-4.39,6.09-6.4,8.81l-2.91,3.89L80,291.61c-1.59,2.21-3,4.08-4.21,5.51-9.63,14.24-18.49,30.16-26.87,46.26l-4,8.06c-1.31,1.89-2.6,3.78-3.9,5.66s-2.65,3.75-3.84,5.69C35.71,365.16,34.27,367.54,32.8,369.85Z"/><path class="cls-3" d="M82.44,279l5.72-7.85c1-1.33,1.91-2.72,2.94-4s2-2.53,3-3.73c3.41-4,6.89-8.25,10.42-12.36l10.76-11.66c3.46-3.81,6.68-7,9.57-9.92s5.44-5.45,7.48-7.43c16.74-17.32,34-34.58,52-51.44s37-33.3,57.07-48.84a613.45,613.45,0,0,1,63.67-43.4c5.65-3.21,11.26-6.53,17-9.69l8.66-4.61L335,61.78c1.45-.77,2.89-1.55,4.38-2.26l8.85-4.34L352.7,53c1.49-.73,2.94-1.48,4.5-2.14,6.14-2.72,12.27-5.6,18.53-8A538.31,538.31,0,0,1,451.9,20.33,778.4,778.4,0,0,1,540,6L529.63,7.44,519.24,9.13c-7,1.07-14.05,2.47-21.39,3.77-19.3,3.31-41.9,7.85-65,14.09s-46.57,14.23-67.45,24l-5.69,2.49L357,54.72,354.32,56l-10.24,4.91-4.91,2.34-4.71,2.45-9.1,4.7c-3,1.5-5.83,3.12-8.64,4.69l-8.3,4.64c-2.75,1.49-5.37,3.11-8,4.7l-7.81,4.74C282.32,95.6,272.33,102.31,262,110c-1.3,1-2.64,1.88-3.93,2.89l-3.92,3.05L246,122.25c-2.77,2.15-5.46,4.52-8.29,6.88s-5.74,4.81-8.65,7.41c-4.49,3.85-9.8,8.27-14.24,12.19l-12.27,9.84c-3.71,3.09-7.14,6-10.46,8.88s-6.46,5.76-9.61,8.79-6.35,6.16-9.61,9.67c.09.49.16.91.23,1.32l-10.09,10-9.93,10.08s0-.19-.09-.24c-3.09,3.12-6.3,6.44-9.6,9.87s-6.7,6.91-10,10.45c-.67.7-2,2.12-2.68,2.81l-.29-1.37c-4.33,4.76-8.66,9.3-13,14.36l-6.51,7.42-3.26,3.71-3.09,3.84c-2.12,1.49-6.55,6.24-9.88,9.64L92.42,270A12.14,12.14,0,0,1,91,271.37c-.66.46-.65,0,.43-2.07C88.24,272.79,85.05,276.28,82.44,279Z"/><path class="cls-5" d="M172.89,185.91c3.26-3.51,6.48-6.63,9.61-9.67s6.28-5.93,9.61-8.79,6.75-5.79,10.46-8.88l12.27-9.84c-14.84,12.9-28.39,25.64-41.72,38.5C173.05,186.82,173,186.4,172.89,185.91Z"/><path class="cls-5" d="M229.08,136.54c2.91-2.6,5.84-5,8.65-7.41s5.52-4.73,8.29-6.88l8.08-6.35,3.92-3.05c1.29-1,2.63-1.93,3.93-2.89,10.38-7.65,20.37-14.36,30.67-20.79l7.81-4.74c2.62-1.59,5.24-3.21,8-4.7l8.3-4.64c2.81-1.57,5.65-3.19,8.64-4.69l9.1-4.7,4.71-2.45,4.91-2.34L354.32,56,357,54.72l2.78-1.21L365.44,51c20.88-9.8,44.39-17.85,67.45-24s45.66-10.78,65-14.09c7.34-1.3,14.4-2.7,21.39-3.77l10.39-1.69L540,6c3.91-.53,6.82-.9,9.75-1.21,2.69.16,5.34.33,9,.39,9.61-1.57,20.43-2.59,30.5-3.26S608.53.79,615.42.37a320.75,320.75,0,0,1,57.74,4.85A333.53,333.53,0,0,1,726.76,19a380.37,380.37,0,0,1,43.9,18.49,444.24,444.24,0,0,1,39.21,22c12.79,8,25.56,16.78,38.9,26.82,7,5.63,15.05,12.49,23.72,20.07s17.72,16.17,26.65,25.21,17.69,18.56,25.77,28.11c2,2.37,4,4.8,5.91,7.15q1.44,1.78,2.88,3.54l2.75,3.54,5.32,6.95,4.92,6.79,2.44,3.25,2.33,3.32,4.67,6.62,4.66,6.63,2.33,3.32c.78,1.1,1.48,2.25,2.23,3.38q4.3,6.18,8.64,12.37a788.45,788.45,0,0,1,39.06,69.59c11.79,23.9,22.55,48.24,32.48,72.63A22,22,0,0,0,1046,373l-3.53-7-3.67-6.92c-3.29-8-6.11-14.43-9.5-21.51q-3.3-7.35-6.59-14.69c-2.23-4.87-4.61-9.68-6.92-14.53-.94-2-1.89-3.94-2.83-5.9s-1.85-3.91-2.86-5.81q-3-5.73-5.87-11.42l-2.94-5.7-1.47-2.85-1.56-2.82-6.31-11.39-4-7.32L983.75,248l-8.28-14.08-8.67-13.65-4.32-6.78c-1.44-2.26-3-4.42-4.53-6.64l-6.47-8-3.19-3.92c-1.06-1.33-2.15-2.67-3.34-4-2.37-3.11-4.54-6.07-6.87-9.07l-7.53-9.49a155,155,0,0,0-12.78-16.05c-5.7-6.56-12.27-13.54-17.43-19.21L898,134.67l-2.49-2.4c-1.66-1.62-3.35-3.25-5-4.88-3.37-3.27-6.87-6.4-10.1-9.44-7.77-7.32-16.41-15.18-24.65-22-4.87-4.28-8.79-7.48-12-10.28l-2.34-2-2.2-1.8L835,78.58c-1.32-1.06-2.61-2.11-4-3.15s-2.8-2.06-4.35-3.16-3.22-2.25-5.08-3.51-4-2.52-6.32-4a146.84,146.84,0,0,0-13-7.85l-2.82-1.55-2.92-1.51c-2-1-4.11-2.16-6.49-3.49-14-8-19.55-10.27-22.39-11.48s-3.22-.95-7.38-2.7c-5.84-2.7-11.83-5.07-17.78-7.5-6-2.23-12-4.55-18.16-6.49l-3.68-1.33c-1.19-.44-2.37-.85-3.53-1.2l-6.62-2.1c-4.2-1.38-8.12-2.31-11.74-3.31s-7-1.73-10.33-2.45l-4.84-1.06c-1.59-.36-3.19-.59-4.78-.89l-8.07-1.44L662.68,7.3l-4.06-.56c-1.35-.18-2.72-.29-4.08-.43l-8.17-.81c-1.8-.41-2.6-.7-4.34-1.1L632.46,4l-9.58,0c-2.86-.12-5.7,0-8.53,0s-5.68,0-8.43.2l-8.25.4c-2.74.13-5.47.27-8.18.48-10.86.71-21.58,1.61-32.25,2.72-3.64,0-6.28-.22-8.94-.39-25.14,2.82-20.89,3.62-28.8,5-5.84.82-12.58,2-18.39,3-1,.17-2.9.48-4.82.84L480.51,19l-15.74,3.07a619.28,619.28,0,0,0-68.33,19l-11.08,3.47-11,3.87c-1.16.46-2.33.9-3.48,1.38l-3.43,1.51-6.78,3-3.32,1.47-3.18,1.55c-2.09,1-4.15,2-6.15,3C333.77,67,320,74.56,306.3,82.35c-13.5,8.3-26.88,16.84-39.66,26.19-2.61,1.81-5.25,3.59-7.82,5.44l-7.67,5.67c-2.55,1.91-5.15,3.75-7.65,5.72l-7.51,5.9C233.69,133.08,231.35,134.75,229.08,136.54Z"/><path class="cls-5" d="M301,110.48c1.59-1.11,2.44-1.74,4-2.81,10.89-7.31,20.83-13.14,30-18.31l13.34-7.25c4.34-2.22,8.55-4.33,12.65-6.49,5.08-2.29,11.11-4.44,16.22-6.42,2.13-1,4.21-1.7,6.12-2.49l5.42-2.2c3.41-1.46,6.59-2.63,9.76-3.84l6.78-2.55c2.25-.86,4.56-1.57,6.85-2.38l6.23-1.84,3.18-.95,3.24-.86c4.33-1.13,8.64-2.3,12.74-3.31-3.06,1.68-6.12,3.43-9.19,5.21l-5.11,1.49c-1.69.49-3.33,1.06-5,1.59l-9.78,3.18c-3.21,1.1-6.34,2.28-9.49,3.41l-4.7,1.7c-1.56.57-3.07,1.23-4.61,1.83L380,70.92l-9.34,4c-3.11,1.28-6.2,2.82-9.32,4.31l-9.45,4.56c-1.71.81-3.17,1.66-4.53,2.43s-2.59,1.53-3.81,2.27c-2.43,1.49-4.76,3-7.71,4.69-1.91,1-3.61,2.11-5.26,3s-3.19,1.84-4.67,2.67c-3,1.67-5.7,3.07-8.32,4.45-5.2,2.87-10.25,5.27-16.64,8.52a2,2,0,0,1,0-.36C301,111.19,300.94,110.84,301,110.48Z"/><path class="cls-6" d="M127.62,254.16l4.67-5.94c1.54-1.88,3-3.68,4.28-5.33,18.49-20.81,26.48-29.81,42.32-45.74,4.14-4,7.81-7.31,11.06-10.31s6-5.69,8.68-8.1,5-4.63,7.31-6.81,4.5-4.34,6.87-6.53l-.09-.62c4-3.54,8-7.14,12-10.64l12.22-10.4c1.53-1,3.07-2,3.84-2.44l10.11-8c3.38-2.57,6.78-5.06,10.16-7.59l5.08-3.79,5.2-3.65c3.5-2.43,7-4.93,10.57-7.36l9.69-6.35c1.61-1,3.21-2.11,4.84-3.13l4.94-3c2.49-1.69,5-3.37,8.24-5.49l1.87-1.16,1.9-1.1,3.79-2.19c5.48-3.22,10.92-6.51,16.54-9.45s11.13-6.11,16.85-8.86a93.83,93.83,0,0,0,9.79-3.7c1.47-.68,2.92-1.3,4.32-1.92s2.74-1.27,4.06-1.91c2.65-1.27,5.14-2.64,7.7-3.81s5.14-2.29,7.84-3.3C408.85,45.47,434,39.38,450.9,35.3l16-3.63L483,28.4l15.71-3,15.77-2.68c-1.42,1.08,5.91.17,15-1.1S549.33,19,554.84,19c4.69-.3,9.37-.67,14.1-.89,8.65-.86,18.29-1.6,28-2.19,4-.35,6.79-.79,10.18-1.19a124.73,124.73,0,0,1,13.52-.53c3.5.59,8,1,12.51,1.64l7,.42c2.3.15,4.57.25,6.82.53l6.77.76c1.13.14,2.27.25,3.41.43l3.45.58c2.86.4,5.73.77,8.55,1.2l7.43.91,3.72.47c1.24.17,2.47.38,3.71.57,4.08,1.08,8.4,2.12,12.75,3.5l6.63,2c2.22.7,4.43,1.48,6.65,2.21,2.81.78,5.69,1.45,8.5,2.31l7.14,2.41c2.38.79,4.71,1.75,7.07,2.61s4.72,1.73,7,2.7l7,2.89c1.15.49,2.33.94,3.47,1.46l3.44,1.55,6.87,3.11,6.78,3.31c2.25,1.11,4.53,2.18,6.74,3.38l5.64,3,3.1,1.62,3.12,1.76-1.5.75c8.49,5.42,20.48,12.92,34.11,22-.46.18-.84.34-1.31.51-4.73-3.25-10.53-6.72-15.4-9.79a249.48,249.48,0,0,0-22.43-12.58l-14.31-6.72-4.26-2.07-1.84-1-1.94-1-4-2c-2.67-1.36-5.34-2.73-7.85-3.87s-4.6-2-6.71-2.83-4.16-1.56-6.09-2.27l-5.57-1.92c-1.78-.61-3.54-1.07-5.23-1.58-6.79-2-13.07-3.46-20.54-5.32l-9.17-2.35a327.12,327.12,0,0,0-39.31-7.63c-2.83-.27-5.89-.62-9-.87l-9-.53c-8.13-.53-15-.73-20.77-.57s-10.57.39-14.5.64l-5.29.4-4.2.46c-2.47.29-4.34.55-5.83.76-4.76.25-9.46.62-13.24.85-6.49.2-12,.46-18.49.83-4.47.34-8.11.87-11.28,1.34s-5.88,1-8.48,1.5c-5.18,1.12-9.91,2.22-17,3.35l-13.64,2c-4.46.69-8.89,1.5-13.58,2.28-4.16.54-8.53,1.31-13,2.07l-6.83,1.16c-2.3.39-4.59.86-6.89,1.29-4.2,1-7.12,1.87-10.35,2.84s-6.77,2.13-12.28,3.38c-2.74.5-5.43,1.1-8.24,1.72l-8.92,2c-10.05,2.92-11.27,3.68-12.2,4.34s-1.57,1.21-10.16,4.41c-2.71,1-5.65,2-8.56,3l-8.46,3.33c0,.07,0,.2-.06.33l-4.14,1.63L374,67.61l-8.27,3.64c-1.87,1.56-2.84,2.78-4.67,4.37-4.1,2.16-8.31,4.27-12.65,6.49L335,89.36c-9.19,5.17-19.13,11-30,18.31l.09-2.72c-1.62.81-2.4,1.1-4,1.91-4,2.31-8,4.83-11.18,6.74a35.31,35.31,0,0,1,4.68-4c2-1.54,4.44-3.29,7.06-4.94l7.93-5.16c2.59-1.72,5-3.43,7.15-4.89a47.38,47.38,0,0,0,4.3-4.09c-2.46,1-4.92,2-8.26,3.51-7.34,4.56-15.66,9.41-22.8,14.22a622.35,622.35,0,0,0-52.62,39.54c-3.32,2.71-5.71,4.84-7.81,6.8s-3.95,3.75-6.09,5.89c1.16-.11,8-5.44,13.87-9.85,1.47-1.1,2.85-2.17,4.1-3s2.33-1.58,3.14-2.06c1.61-.95,2.11-.93.65.81-3.5,2.65-6.69,5.33-9.76,7.84s-6,4.87-8.72,7.21l-7.82,6.76c-2.5,2.17-4.91,4.24-7.18,6.34-4.55,4.17-8.88,8-13,12s-8.19,7.82-12.32,11.92c-13.16,12.51-26.06,25.34-38.88,38.35q-5,5.26-10,10.53c-1.38,1.13-3,2.41-4.56,3.83s-3.27,2.95-5,4.46Z"/><path class="cls-7" d="M564.94,17c5.32-.53,10.89-1.17,16.47-1.63l8.35-.68,4.13-.34,4.06-.25,9.18-.49c3.14-.13,6.29-.16,9.19-.23l4.26.06,4.22.22c2.87.11,5.68.17,8.44.32l8.15.61c1.34.12,2.67.18,4,.33l4,.46,7.83.92,7.4,1.05,3.79.52c1.26.18,2.5.43,3.72.63a116.94,116.94,0,0,1,12.45,2.64,344.34,344.34,0,0,1,34.8,9.89c7.45,2.27,14.74,4.88,22,7.64-2.09-1.53-4.32-2.86-6.45-4.28a4.43,4.43,0,0,1,.53-.35c-3.18-1.66-5.45-3-7.76-4.32,3,.79,5.87,1.72,9.71,2.94,2.77,1,5.69,2.21,8.62,3.41s5.89,2.36,8.54,3.59l5.33,2.38c1.78.79,3.56,1.58,5.3,2.45,3.5,1.72,7,3.36,10.5,5.15,2.27,1.51,4.53,3,6.85,4.5,12.93,6.88,24.7,13.86,36.91,21.95l2.94,2.28,4.11,3L830,84.09c2.76,1.88,5.36,3.62,7.76,5.31s4.59,3.33,6.67,4.85c1,.76,2,1.49,3,2.21l2.77,2.15,5.06,4c1.6,1.24,3.07,2.46,4.47,3.64l4,3.39c2.6,2.16,5,4.27,7.29,6.38a42.39,42.39,0,0,0,3.76,4.32c1.56,1.61,3.29,3.44,5.15,5.23s3.79,3.58,5.59,5.31,3.52,3.33,5,4.67c6.3,6.15,13.08,13.18,19.09,19.64-.26-.79-1.14-2.27-1.3-3,1.07.65,2.88,2,4,2.69l5.72,6.47,2.8,3.15,2.69,3.17,5.31,6.27,5.12,6.31,3.13,3.64,2.86,3.58c1.84,2.35,3.6,4.6,5.26,6.81,3.22,4.47,6.21,8.65,9.34,12.65l5,7.59,4.71,7.74,5.35,7.78c1.83,2.66,3.68,5.31,5.24,7.84,1.3,2.52,2.6,5,4.38,8.32,2.22,3.77,4.67,7.7,6.94,11.73s4.49,8.09,6.61,11.92l5,8.55,4.77,8.71c2.58,5.17,4.84,9.71,6.84,13.7s3.53,7.52,5,10.52c2.79,6,4.72,10.14,5.64,13.17q4.76,10.63,9.53,21.28c1.75,2.81,3.57,5.66,5.39,8.47q2.83,6.74,5.67,13.47l-2.35-.53c1.84,4.5,3.25,8.13,5,12.64.94,1.65,2,3.84,3.15,6.41s2.4,5.52,3.62,8.71c2.47,6.38,5.17,13.62,7.74,20.45.81,1.05,1.88,3,2.68,4,3.35,9.17,6.85,18.35,9.72,26.64l4.46,13.26c1.43,4.36,2.85,8.71,4.35,13.31.72,1.84,1.09,2.81,1.81,4.68,3.12,9.18,6.13,18.66,9.27,28.22,3.17,9.88,6.37,19.88,9.58,29.89,2.18,5.92,4.39,11.9,6.58,17.86.55,2.11,1.2,4.51,1.91,7a5.19,5.19,0,0,1,.21.92l-1.09,0-2.21-.09-4.45-.16-27.61-.18-23.08-.46-36.68-.49.82-1.15a326.15,326.15,0,0,1,36.83.26l34.35-.85-19.42-1c-47.15.53-56-2.13-105.27-2.72,8.33-.8,25.35,0,33.49-.56l69.81.49,6.55-.12,7-.07a16.77,16.77,0,0,0,1-2.48l-13-.26-14-.22c-23.69.47-31.37.3-36.61-.55l-33.75.86c-10.33-.54-4.07-1.13-12.44-1.71l-9.68-.07c-10.31-.59-410.2-5.53-420.54-6.06l-27.73-.78L483,542c-29.85-.5-58.44,1.38-74.29-1l19.22-1a169.44,169.44,0,0,0,23.84-.69c12.93-.37,9.79-1.44,20.57-1.53l46.32.61,17.66,1.23a23.57,23.57,0,0,0,4.33.3c2.94.11,7.31.24,12.92.36,11.21.26,27.36.55,46.84.87l144.13,2c105.74,1.36,213.74,2.6,221.82,2.89,23.79.81,12.4-1,29.08-1.18l28.47-.31,13.57.09,32.81.47c1.7.34,3.38.64,5.13.9a1.54,1.54,0,0,1,.3,0l.15,0,.31.09.66.16q.68.15,1.44.27a41.43,41.43,0,0,0,7.67.3l1.87.09,1,0a3.36,3.36,0,0,0,.45,0l-.11-.41c-.31-1.12-.61-2.23-.9-3.32-.61-2.29-1.2-4.51-1.75-6.61,1.3,2.61,2.54,5,4,8.26l.66,2.07.33,1,.16.51c0,.17.2.42-.09.34l-4.39,0c-3.78.54-5,1-4.73,1.37s2,.74,3.11,1.09l4.83,0h4.31c.09,0,.24,0,.27,0l-.1-.3-3.13-9.42-6.81-21.37c-2.64-8.17-5.25-16.23-7.79-24.06-1.07-3.66-1.61-5.48-2.67-9.12-1.5-5.4-3.31-11.71-4.89-17.15-2.08-6-3.95-10.86-5.48-14.59a63,63,0,0,0-3.67-7.83c-.81-2.5-1.62-5-2.43-7.5s-1.7-5-2.57-7.55l-5.38-15.72c-3.1-6.5-6.77-15.63-10.56-25.53-2.23-6.22-4-11.49-6.19-17.72-2.12-5-4.43-9.87-6.64-14.81s-4.37-9.87-6.73-14.71q-2.22-5.24-4.43-10.5c-1.5-3.49-2.89-7-4.5-10.47-4.21-9.11-6-12.21-7.63-14.66-.79-1.23-1.52-2.29-2.45-3.87s-2.16-3.6-3.84-6.82c-2.36-4.69-4.73-9.38-7.15-14.2s-5.18-9.57-7.9-14.63c3.78,4.36,7.65,8.69,11.33,13.14-2.5-4.3-4.9-8.25-7.07-12.08s-4.19-7.46-6.14-11c-4.09-7-7.76-13.84-11.61-21.27l-10-15.42c-1.73-2.43-3.32-4.92-5.73-8.05l-7.54-11.17L941.35,197l-4.15-5.81-1.32.07c-1.24-1.53-2.41-3-3.62-4.5l-3.63-4.35-3.73-4.49-4.11-4.75c-.61.07-9.4-11.14-18.13-20.27-.4.08-.88.15-1.3.2q-16-16.87-33.56-32.21c-1.71-1.62-3.4-3.27-5.12-4.86l-5.15-4.67c-3.37-3.12-6.79-6-10-8.76l-2.9-2.21-2.9-2.09L836,94.2c-3.8-2.71-7.71-5.26-11.73-8A418.1,418.1,0,0,0,785.9,61.42l-3.12-1.76L779.68,58l-5.64-3c-2.21-1.2-4.49-2.27-6.74-3.38l-6.78-3.31-6.87-3.11-3.44-1.55c-1.14-.52-2.32-1-3.47-1.46l-7-2.89c-2.31-1-4.69-1.79-7-2.7s-4.69-1.82-7.07-2.61l-7.14-2.41c-2.81-.86-5.69-1.53-8.5-2.31-2.22-.73-4.43-1.51-6.65-2.21l-6.63-2c-4.35-1.38-8.67-2.42-12.75-3.5-1.24-.19-2.47-.4-3.71-.57l-3.72-.47-7.43-.91c-2.82-.43-5.69-.8-8.55-1.2l-3.45-.58c-1.14-.18-2.28-.29-3.41-.43L647,16.74c-2.25-.28-4.52-.38-6.82-.53l-7-.42c-4.48-.59-9-1-12.51-1.64-6.91.36-12.79.58-18,1s-9.59.69-13.54,1.07l-10.71.89-9.46.9c-4.73.22-9.41.59-14.1.89Z"/><path class="cls-5" d="M605.94,22.34c3-.44,5.55-.64,7.92-.94l6.62-.76c2.13-.15,4.25-.26,6.54-.33,1.15,0,2.34-.06,3.6-.07s2.59,0,4,.1l9,.53c3.07.25,6.13.6,9,.87-.47.53-.86,1-1.3,1.55l-4.57-.39-2.26-.19c-.76-.05-1.51-.07-2.26-.11l-8.93-.4c-3-.08-6,0-9-.06-1.5,0-3,0-4.52,0l-4.59.19C611.5,22.33,608.8,22.2,605.94,22.34Z"/><path class="cls-8" d="M776.36,61.91c3.39,1.72,6.69,3.61,10,5.47,1.65.94,3.31,1.85,4.95,2.81l4.87,2.93a442.93,442.93,0,0,1,38.36,25.35l6.36,4.86c2.14,1.67,4.25,3.42,6.38,5.13,4.3,3.38,8.4,7,12.4,10.38,7.88,6.94,15.63,14,23.05,21.41l3.59,5.32,3.46,5.38,4.87,4.69,5,5c3.39,3.35,6.69,7,10,10.5,1.54,1.39,3.18,3,4.9,4.72s3.52,3.53,5.34,5.34c3,3.73,5.77,7.26,8.55,10.83l4.09,5.45c1.38,1.83,2.8,3.66,4.15,5.64l2.4,3.91,8.71,11.87c1.5,2,2.85,4.06,4.25,6.13l4.21,6.23,4.23,6.27,2.13,3.15c.71,1.05,1.35,2.14,2,3.22l8.1,13c.7,1.62,1,2.4,1.75,4,2.93,5.39,5.6,10.65,8.36,15.86,1.36,2.62,2.76,5.21,4.1,7.88l4,8.15,7.17,12.46,6.87,12.67c3.85,9.35,7.68,19.82,11.26,29.28-2.3-4.45-4.6-8.88-6.84-13.2-1.12-2.15-2.2-4.3-3.33-6.37l-3.38-6.05c-2.17-4.74-4.45-9.69-6.72-14.63s-4.77-9.76-7-14.4l-2.73-5.12-1.36-2.56-1.43-2.51-5.73-10c-1.93-3.33-3.77-6.72-5.76-10l-6-9.84-5.87-9.8-6.21-9.58c-3-4-5.53-7.26-8.62-11.18-2.73-3.89-5.31-7.59-7.89-11.26s-5-7.43-7.73-11.18l-4.12-5.56-4.1-5.32c-1.37-1.76-2.71-3.55-4.12-5.32l-4.34-5.36-2.9-3.53L907,171c-1.95-2.25-3.84-4.51-5.8-6.71-3.94-4.37-7.85-8.78-12.13-13.18-10.37-10.93-21.25-21.43-32.67-31.36a435.92,435.92,0,0,0-78.58-54.16c-.72-.51-2.27-1.45-3.88-2.36Z"/><path class="cls-5" d="M801.8,74.89c4.87,3.07,10.67,6.54,15.4,9.79L821.62,88c1.47,1.12,2.89,2.31,4.34,3.45,2.87,2.33,5.78,4.58,8.58,7a442.93,442.93,0,0,0-38.36-25.35C796.13,72.28,803.67,76.61,801.8,74.89Z"/><path class="cls-5" d="M824.31,86.18c4,2.76,7.93,5.31,11.73,8l5.72,4.09,2.9,2.09,2.9,2.21c3.18,2.77,6.6,5.64,10,8.76l5.15,4.67c1.72,1.59,3.41,3.24,5.12,4.86q17.58,15.3,33.56,32.21l5.63,6.42c1.85,2.15,3.66,4.35,5.49,6.53l2.74,3.27,2.66,3.33,5.31,6.67,5.15,6.79,2.57,3.4L933.4,193c1.65,2.31,3.34,4.58,5,6.92l4.77,7.07c-1.31-1.55-2.62-3.12-3.46-3.91l-2.33-3.26-2.47-3.25-5-6.57-5.17-6.45-2.56-3.18-2.57-3.07c-2.23-2.57-4.43-5.23-6.76-7.81l-7-7.8L898.62,154c-2.37-2.54-4.83-4.94-7.19-7.36-8.91-9.68-18.82-19.73-28.5-28.67-11.39-10.12-23.34-19.7-35.66-28.68C823.89,86.3,824.11,86.25,824.31,86.18Z"/><path class="cls-5" d="M890.75,146.79c9.15,9.59,18.47,20.31,26.76,30.64.94,1.51,2,3,2.37,3.76-1.82-1.81-3.62-3.62-5.34-5.34s-3.36-3.33-4.9-4.72c-3.35-3.55-6.65-7.15-10-10.5l-5-5L889.78,151l-3.46-5.38-3.59-5.32C885.85,142.86,888.37,144.76,890.75,146.79Z"/><path class="cls-5" d="M1019.94,343.87c2.36,4.84,4.49,9.8,6.73,14.71s4.52,9.83,6.64,14.81c2.17,6.23,4,11.5,6.19,17.72,3.79,9.9,7.46,19,10.56,25.53l5.38,15.72c.87,2.54,1.72,5.05,2.57,7.55s1.62,5,2.43,7.5a63,63,0,0,1,3.67,7.83c1.53,3.73,3.4,8.58,5.48,14.59,1.58,5.44,3.39,11.75,4.89,17.15,1.06,3.64,1.6,5.46,2.67,9.12l-1-.29c-11.21-27.41-23.48-65.62-36.65-101.43l-6.7-15-3.35-7.47-3.49-7.4c-3.38-8-6.58-15.78-10.1-23.43q-2.58-5.76-5.18-11.54c-.85-1.95-1.76-3.87-2.69-5.79s-1.86-3.86-2.79-5.81l.34,0C1010.75,326.79,1015.06,334.93,1019.94,343.87Z"/><path class="cls-5" d="M1068.35,429.72l.61.15,2.23,5.56,2.17,5.59,4.33,11.17c1.94,5.53,4.09,12,5.94,17.52a64.87,64.87,0,0,0,2.88,7.29c.53,1.3,1.24,3.12,2.28,6.16s2.39,7.3,4.29,13.5l3,9.24c3.58,11.44,7.13,22.79,10.69,34.19,1.69,6.26,3.38,12.55,5.07,18.81l1.43,4.51.37,1.14a2.16,2.16,0,0,1,.14.54h-.61l-2.43,0-9.82-.06-19.34-.12-58.42.16-46.1-.91c-12.72.09-414-4.28-426.77-4.14-4.88,0-9.8.1-14.74.18l-78.12-1.13,1.16-1.67,50.61.07,37.62.56c10.84-.21,411.2,4.09,422.05,3.88l14,.91,78.53.56,9.5.33,4.65.19,6.64.2c4.18-.2,8.24-.35,12.17-.5l13,.09h4.48s.07,0,0,0l-.45-1.43q-.9-2.84-1.79-5.64l-16.46-51.54c-3.51-10.63-6.89-21-10.46-31.42-1.77-5.2-3.55-10.39-5.33-15.61s-3.68-10.45-5.54-15.75c-1-2.75-1.88-5.51-2.89-8.25C1067.67,429.53,1068,429.62,1068.35,429.72Z"/><path class="cls-7" d="M431.45,555.8l-1,1.38-23.66.41-46.55-.33-32.37-1.1c-12.78.2-6.85,1.45-24.05,1-14.34-.39-.85-1.56-17.47-1.51-12.38-.38-18.69.27-33.31.28-.22.35-.5.75-.74,1.1l-32.41.34-14.56-.1-37.23.31c0,.06-.11.17-.16.23l-19,.73c-14.54-.1-30-.27-41.89,0-3.67-.31-6.38-.62-9.1-.93l20.71-3.15a54.25,54.25,0,0,0,5.67-1.11l5.21-.49c4.92-.07,8.88-.16,13.78-.18l27.71.77c2.65.37,5.33.73,8.92,1.16l32.39-.34,37.19,1.13c4.85-1.35,5.25-1.93,5.66-2.5,4-.15,7-.3,10.06-.45,23,.51,31.84.46,33.73-.86,17.93-.57,26.06-1,37.63-.89,32.94.29,35.73,1.88,50.22,2l22.67,1c13.56.09,28.12.2,41.52.52C444.81,554.8,437.64,555.32,431.45,555.8Z"/><path class="cls-5" d="M406.07,558.68c-9.67,1.26-26.95.91-42.27.51-6.57,1-20.88.6-28.52.37-25.08,1-57.79.46-65.34.12,3.39-.67,6.73-1.29,10.08-1.9l23.28.17,33,.23,18.62-.15,5.4-.77,46.55.33C406.47,558.11,406.25,558.39,406.07,558.68Z"/><path class="cls-5" d="M295.12,536.27c9.87-.22.84-1.21,28.29-.09Z"/><path class="cls-5" d="M236.79,559.67c-21.62.31-37.47.66-43.25,2l-18.61.15-28.1-.2a6.15,6.15,0,0,1-.37.52c-15.44-.23-32.11-.06-38.43.59-16.72.23-23.82-.74-36.24-1.12a78.82,78.82,0,0,0-8-2.55l43.07-.27a1.88,1.88,0,0,0,.16-.23c11.86-.26,27.35-.09,41.89,0l19-.73,32,1.62c17.38.24,2.76-1.14,19.39-1.25Z"/><path class="cls-3" d="M87.31,304.83l3.74-5.66c.64-1,1.29-1.93,1.93-2.91s1.39-1.91,2.09-2.87l8.61-11.71c-.11-.33-.23-.66-.32-1,3.75-6.47-7.16,8.89-9.49,9.49,4.7-6.23,9.24-12.59,14.33-18.54l4.79-5.13c.8-.84,1.61-1.68,2.42-2.49s1.61-1.62,2.49-2.35l9.28-9.46c1.58-1.59,3.13-3.21,4.71-4.77l4.68-4.53c-1.28,1.65-2.74,3.45-4.28,5.33l-4.67,5.94c-8.57,9.24-15.94,18.25-23.75,28.14.21.66.44,1.34.63,1.95l-8.6,11.5c-1.45,1.85-2.68,3.84-4,5.7L88.16,307c-1.34,2.08-3.06,4.78-4.94,7.72s-3.75,6.27-5.68,9.4l-5.45,8.71a67.3,67.3,0,0,1-3.85,5.92c-2.16,2.82-.51-.57,1.64-4.79.54-1.05,1.11-2.15,1.65-3.22s1.16-2.06,1.65-3c1-1.8,1.65-3.14,1.55-3.37q3-4.95,6.1-9.91c1-1.67,2.15-3.23,3.22-4.85Z"/><path class="cls-3" d="M137.48,247.22q5-5.26,10-10.53c12.82-13,25.72-25.84,38.88-38.35,1.34-1.43,2.74-2.91,3.41-3.72l9.32-8.75c3.07-2.89,6.22-5.66,9.31-8.49,6.15-5.69,12.54-11.12,19-16.81,3.65-3.22,5.9-4.8,8.3-6.6,1.21-.9,2.45-1.84,3.95-3.06s3.25-2.69,5.49-4.62c2.29-1.33,4.59-2.74,7.6-4.65-4.81,4.35-9.44,8.23-13.84,12.28s-8.91,7.8-13.44,12-9.41,8.39-14.55,13.25l-8.14,7.57-8.89,8.56-4.2,3.74-4.15,3.81-8.31,7.63c-4.73,5-12.09,13.06-16.28,16.57,7.07-9.39-12.19,12.06-16.35,15.42-3.45,2.87-6.94,5.71-9.77,7.83Z"/><path class="cls-3" d="M300.94,111.89c6.39-3.25,11.44-5.65,16.64-8.52,2.62-1.38,5.35-2.78,8.32-4.45,1.48-.83,3-1.71,4.67-2.67s3.35-2,5.26-3c2.95-1.73,5.28-3.2,7.71-4.69,1.22-.74,2.46-1.48,3.81-2.27s2.82-1.62,4.53-2.43c-1.71.81-3.17,1.66-4.53,2.43s-2.59,1.53-3.81,2.27c-2.43,1.49-4.76,3-7.71,4.69-1.91,1-3.61,2.11-5.26,3s-3.19,1.84-4.67,2.67c-3,1.67-5.7,3.07-8.32,4.45C312.38,106.24,307.33,108.64,300.94,111.89Z"/><path class="cls-3" d="M301,111.53a2,2,0,0,0,0,.36A2,2,0,0,1,301,111.53Z"/><path class="cls-3" d="M428.36,54c3.07-1.78,6.13-3.53,9.19-5.21,18.45-5,36.16-8.74,54-12.12,6.76-.75,17.93-2.43,29.14-4.14s22.49-3.37,29.39-4.67l21.15-2.75C576,24.51,579.2,24,583,23.78L594.48,23l11.46-.61c2.86-.14,5.56,0,9.26,0a302.82,302.82,0,0,1,74.26,9.31A339.69,339.69,0,0,1,732.27,45,375.42,375.42,0,0,1,774,63.2c1.61.91,3.16,1.85,3.88,2.36a435.92,435.92,0,0,1,78.58,54.16c11.42,9.93,22.3,20.43,32.67,31.36,4.28,4.4,8.19,8.81,12.13,13.18,2,2.2,3.85,4.46,5.8,6.71l2.93,3.4,2.9,3.53,4.34,5.36c1.41,1.77,2.75,3.56,4.12,5.32l4.1,5.32,4.12,5.56c2.72,3.75,5.17,7.5,7.73,11.18s5.16,7.37,7.89,11.26c3.09,3.92,5.58,7.18,8.62,11.18l6.21,9.58,5.87,9.8,6,9.84c2,3.3,3.83,6.69,5.76,10l5.73,10,1.43,2.51,1.36,2.56,2.73,5.12c2.27,4.64,4.66,9.52,7,14.4s4.55,9.89,6.72,14.63l3.38,6.05c1.13,2.07,2.21,4.22,3.33,6.37,2.24,4.32,4.54,8.75,6.84,13.2,1.65,3.49,3.12,7.07,4.69,10.61l4.68,10.68,1.81,4.28,1.69,4.26c1.13,2.82,2.24,5.61,3.35,8.4,2.22,5.59,4.46,11.16,6.63,17l5.93,16.68c1.64,4.71,3,8.64,4.16,12,2.34,6.67,4,11,5.45,14.69,8.32,23.67,15.84,46.63,23.58,70.55l3.9,14.9.93,3.62.25,1.47c.16,1,.29,1.85.4,2.69-.53-1.16-1-2.27-1.5-3.38l-.18-.43-.39-1.09-.91-2.57-1.84-5.34c-2.49-7.32-5.12-15.39-8-24.54L1062,479.23c-2.21-6.43-4.5-13.51-7-20.33s-4.88-13.52-7.51-19.1c-4.09-12.54,3.25,1.64-5.53-21.11-2.86-8.05-1.23-1.95-3.74-8.26-2.75-7.2-5.48-14.42-8.42-21.54s-5.7-14.31-8.78-21.34c-3.29-7.93-4.56-12.26-6.51-17.45-3.14-7-5.88-13.12-9.4-21l-2-.32c1.9,4.32,3.72,8.68,5.53,12.9s3.59,8.33,5.17,12.26a54.35,54.35,0,0,1-3.58-4.68c-2.34-5.21-4.29-9.57-6.05-13.48-.88-2-1.71-3.81-2.52-5.6l-2.49-5.2L995,314.83c-1.39-3.39-2.72-6.81-4.19-10.15-1.88-3.4-3.77-6.9-5.65-10.45s-3.69-7.18-5.7-10.68L973.66,273l-2.83-5.14-1.39-2.53L968,262.93c-3.85-6.46-7.48-12.49-10.76-17.68A145.31,145.31,0,0,0,948.13,233c-1.48-2.48-3-4.93-4.47-7.33s-3.19-4.67-4.79-7q-4.85-6.82-9.74-13.26l-5.08-6.15c-.84-1-1.69-2-2.53-3l-2.59-2.91-5.17-5.68c-1.73-1.85-3.5-3.63-5.23-5.41a496.8,496.8,0,0,0-44.38-46.79c-7.95-7.23-16-14.35-24.41-21-4.14-3.42-8.46-6.6-12.7-9.88-2.14-1.61-4.33-3.15-6.5-4.73s-4.33-3.16-6.56-4.64l-6.63-4.53c-2.22-1.48-4.5-2.89-6.74-4.35-4.46-3-9.1-5.6-13.66-8.39-2.31-1.34-4.65-2.62-7-3.94l-3.49-2c-1.17-.65-2.36-1.24-3.54-1.87l-7.08-3.71L758.69,63l-3.6-1.74-3.64-1.63-7.28-3.26-7.38-3-3.69-1.5-3.73-1.38c-2.5-.91-5-1.86-7.47-2.74l-7.55-2.51c-2.5-.87-5.05-1.6-7.59-2.34s-5.06-1.54-7.62-2.2C694,39.36,688.91,38,683.73,36.92l-3.87-.84-1.93-.42L676,35.31l-7.79-1.38a290.83,290.83,0,0,0-31.38-3.44c-5.25-.42-10.51-.35-15.76-.5-2.63,0-5.26.1-7.88.15l-3.94.08c-1.33,0-2.71.14-4.06.2-5.43.3-10.85.54-16.29,1l-8.15.6-8.15.74c-21.74,2-43.44,4.92-65,8.63s-42.91,8.25-63.91,13.8a13.49,13.49,0,0,0-3.93-.71c5.11-1.49,9.25-2.75,12.56-3.82s5.82-1.81,7.59-2.49c3.56-1.31,4.26-2,3.12-2.35l-6.39,1.44-3.3.74-3.33.83c-4.47,1.12-9.07,2.21-13.64,3.4-3.87,1.71-8.64,3.69-13.38,5.59L414.53,60c-2.78.74-5.58,1.37-8.3,2.2L398,64.6l-4.16,1.22-4.16,1.37c1.54-.6,3.05-1.26,4.61-1.83l4.7-1.7c3.15-1.13,6.28-2.31,9.49-3.41l9.78-3.18c1.65-.53,3.29-1.1,5-1.59Z"/><path class="cls-3" d="M615.42.37c-6.89.42-16.14.84-26.22,1.51s-20.89,1.69-30.5,3.26c-3.65-.06-6.3-.23-9-.39,12.13-1.24,21-2.52,30.58-3.52C585.1.8,590.06.3,595.73.14,598.57.05,601.57,0,604.8,0h2.47l2.61.09Z"/><path class="cls-3" d="M977.83,229.91c2.34,3.53,4.74,7.59,7.41,11.91l4.09,6.74,2.14,3.53c.71,1.2,1.38,2.45,2.08,3.69,2.77,5,5.67,10.2,8.65,15.55,1.52,2.66,2.92,5.43,4.34,8.2l4.31,8.39,4.34,8.44,4.11,8.54c1.36,2.83,2.71,5.66,4.06,8.45s2.72,5.55,3.93,8.32c5,11,9.82,21.41,13.71,30.51a98.07,98.07,0,0,1,5.59,13c1.23,3.69,2.32,7.24,4.45,12.27l4.15,11.16,3.7,10.53,1.72,4.57c1.09,2.54,2.19,5.2,3.37,8.16s2.36,6.25,3.71,10,2.83,8.05,4.52,13,3.42,10.69,5.48,17.28L1073.36,441l-2.17-5.59-2.23-5.56-.61-.15c-2.29-6.4-4.58-13.05-7-19.65l-7.21-19.57c-2.82-7.25-5.75-14.51-8.62-21.75-9.93-24.39-20.69-48.73-32.48-72.63A788.45,788.45,0,0,0,974,226.53q-4.34-6.19-8.64-12.37c-.75-1.13-1.45-2.28-2.23-3.38l-2.33-3.32-4.66-6.63-4.67-6.62-2.33-3.32-2.44-3.25-4.92-6.79-5.32-6.95-2.75-3.54q-1.44-1.76-2.88-3.54c-2-2.35-3.88-4.78-5.91-7.15-8.08-9.55-16.88-19-25.77-28.11S881.07,114,872.49,106.35s-16.75-14.44-23.72-20.07c-13.34-10-26.11-18.8-38.9-26.82a444.24,444.24,0,0,0-39.21-22A380.37,380.37,0,0,0,726.76,19a333.53,333.53,0,0,0-53.6-13.79,315.74,315.74,0,0,1,42.63,9.59,356.18,356.18,0,0,1,38.26,13.71c12.09,5.19,23.65,10.76,34.74,16.81s21.75,12.5,32.09,19.41a498.53,498.53,0,0,1,59.57,46.69c9.61,8.8,19.21,18.08,28.73,28.12s19,20.76,28.48,32.34c1.48,1.93,3.36,4.26,5.33,6.67l5.75,7.31c.9,1.16,1.75,2.27,2.52,3.28s1.37,2,1.9,2.77c1,1.6,1.61,2.66,1.4,2.87l6.21,8.92,3,4.38,1.5,2.17,1.41,2.21Z"/><path class="cls-3" d="M1083.63,469.71a64.87,64.87,0,0,0,2.88,7.29c.53,1.3,1.24,3.12,2.28,6.16s2.39,7.3,4.29,13.5c-1.9-6.2-3.27-10.46-4.29-13.5s-1.75-4.86-2.28-6.16A64.87,64.87,0,0,1,1083.63,469.71Z"/><path class="cls-3" d="M1106.78,540.09c-3.56-11.4-7.11-22.75-10.69-34.19C1099.67,517.34,1103.22,528.69,1106.78,540.09Z"/><path class="cls-3" d="M535.56,560.18c-58.52.11-84,1.66-123.27,2.13-34.39.39-73.17.11-107.6.62-18.55,0-31.85-.46-46.18-.85l-65-.46c5.78-1.29,21.63-1.64,43.25-2h33.15c7.55.34,40.26.92,65.34-.12,7.64.23,22,.68,28.52-.37,15.32.4,32.6.75,42.27-.51l4.82,0,36.65.55c3-.1,6-.19,9.9-.22Z"/><path class="cls-3" d="M412,536.24l-4.86,0,1.34-1.89,23.27.16c8.56.29,15.16.63,22.71,1Z"/><path class="cls-3" d="M174.93,561.77c-8.62-.17-2.6,1-28.47.32a6.15,6.15,0,0,0,.37-.52Z"/><path class="cls-8" d="M15.3,428.13c-.28-1-.69-1.86.24-7.11.49-2.62,1.51-6.28,3.05-11.62.78-2.67,1.7-5.75,2.81-9.32s2.7-7.5,4.37-12c1.06-2.9,2.15-6.05,3.35-9.15s2.51-6.18,3.68-9c1.47-2.31,2.91-4.69,4.35-7.06,1.19-1.94,2.54-3.8,3.84-5.69s2.59-3.77,3.9-5.66c-1.73,3.63-3.54,7.22-5.22,10.87L34.9,373.38c-1.13,2.69-2.21,5.29-3.27,7.81l-2.79,7.44c-.91,2.41-1.8,4.75-2.67,7s-1.78,4.49-2.48,6.73c-1.51,4.45-3,8.73-4.39,13-.7,2.13-1.49,4.21-2.11,6.34Z"/><path class="cls-8" d="M48.91,343.38c8.38-16.1,17.24-32,26.87-46.26,1.2-1.43,2.62-3.3,4.21-5.51l2.53-3.56,2.91-3.89c2-2.72,4.16-5.69,6.4-8.81,1.13-1.55,2.22-3.18,3.44-4.76s2.47-3.17,3.72-4.78c.59-.9,1.83-2.59,2.45-3.44,1.23-1.67,2.49-3.3,3.08-4.2l3.13-3.69,3.29-3.55,6.58-7.08c4.38-4.82,8.77-9.17,13.16-13.64.67-.69,2-2.11,2.68-2.81,17.26-15.79,14.95-15.12,19.74-20.08L163,197.24l10.09-10c13.33-12.86,26.88-25.6,41.72-38.5,4.44-3.92,9.75-8.34,14.24-12.19,2.27-1.79,4.61-3.46,6.91-5.27a54.4,54.4,0,0,0,5.93-4l8.37-6.27c3-2.27,6.06-4.65,8.87-6.86l7.48-5.64c12.78-9.35,26.16-17.89,39.66-26.19,10.26-5.37,16.82-9.09,21.78-11.57s8-4.33,11.07-6.06c3.51-1.78,6.21-3.06,8.86-4.37,2-1,4.06-2,6.15-3l3.18-1.55,3.32-1.47,6.78-3,3.43-1.51c1.15-.48,2.32-.92,3.48-1.38l11-3.87,11.08-3.47-7.15,2.94-3.56,1.49-3.53,1.62-6.59,2.59-3.29,1.3c-1.1.43-2.17.94-3.26,1.41l-6.51,2.86c-2.16,1-4.36,1.89-6.44,3l-12.63,6.16L340.33,66l-3.1,1.66L331,70.94l-6.52,3.47c-2.16,1.16-4.24,2.43-6.33,3.62-4.16,2.42-8.24,4.71-12,7L294,92.28l-3,1.78-2.94,1.88-6,3.84-6.32,4.14c-1.83,1.28-3.43,2.44-4.86,3.47-2.86,2.07-5,3.69-6.81,5.06-3.63,2.71-5.73,4.6-9.27,7.21l-7.14,5.84c-2.43,2-4.88,4.14-7.57,6.41-3.06,2.31-6.17,4.56-9.19,6.92l-9,7.13c-15.64,13.2-29.63,26.41-42.83,39.38s-25.7,25.66-38.3,38c-3.4,3.5-6.57,6.86-9.76,10.2l-4.8,5.05-2.44,2.58-2.47,2.74-8,8.92c-1.31,1.5-2.69,3-4,4.49L105.53,262,98,271.27c-1.29,1.53-2.44,3.17-3.64,4.77l-3.55,4.83c-1.86,2.17-3.88,4.54-5.89,6.91-.5.6-1,1.18-1.5,1.79L82,291.38l-2.73,3.48c-2.66,3.88-5.58,8.09-8.43,12.47l-8.22,13.42-2,3.26c-.66,1.07-1.24,2.18-1.86,3.24-1.22,2.13-2.41,4.18-3.56,6.12C52.9,337.25,50.71,340.65,48.91,343.38Z"/><path class="cls-8" d="M259.59,136.58a63.55,63.55,0,0,1,5.48-5c2.27-1.87,4.86-4,7.72-6,5.67-4.06,11.85-8.51,17.09-12,3.2-1.91,7.15-4.43,11.18-6.74,1.63-.81,2.41-1.1,4-1.91l-.09,2.72c-1.6,1.07-2.45,1.7-4,2.81l-10.57,6.29c-1.74,1-3.51,2-5.22,3.12l-5.11,3.23c-3.4,2.18-6.85,4.28-10.24,6.53Z"/><path class="cls-8" d="M382.37,63.8l8.46-3.33c2.91-1.08,5.85-2.08,8.56-3,2.25-.76,4.49-1.52,6.73-2.24l6.78-2c-.25.86-.48,1.66-.74,2.54-2.29.81-4.6,1.52-6.85,2.38l-6.78,2.55-4,.73c-1.37.25-2.77.53-4.15.87l-8.08,1.86C382.33,64,382.36,63.87,382.37,63.8Z"/><path class="cls-6" d="M0,544.05c0-3.1,0-6.2.08-10.26q.23-3.33.46-6.8c.09-1.15.13-2.31.26-3.47s.27-2.32.41-3.48c.54-4.64,1.09-9.27,1.61-13.66-.8.38-1.7,1.74-2.49,2.11.23-2.11.38-4.25.66-6.39s.58-4.3.87-6.47c.58-4.34,1.16-8.73,1.74-13.1.75-4.34,1.58-8.65,2.42-12.89s1.69-8.4,2.92-12.33l3.22-14.7c.25-1.21.55-2.4.87-3.58s.62-2.35.92-3.51q.92-3.48,1.79-6.83c1.13-3.15,2.11-6.09,3.23-8.86l3.34-8.05c5.56-17,12.67-33.41,19.62-48.78a438.37,438.37,0,0,1,48.86-82.13L94.34,276c1.2-1.6,2.35-3.24,3.64-4.77l7.55-9.31,3.77-4.65c1.26-1.54,2.64-3,4-4.49l8-8.92,2.47-2.74,2.44-2.58,4.8-5.05c3.19-3.34,6.36-6.7,9.76-10.2,12.6-12.33,25.14-25,38.3-38S206.2,159.16,221.84,146l9-7.13c3-2.36,6.13-4.61,9.19-6.92,13.89-8.91,24.16-17.52,33.81-24.52,2.76-2,5.46-3.62,8.11-5.36l8.17-5.33c20.61-11.7,30.24-17.31,32-19.37l1.94-1.12,2.05-1.1,4.68-2.49L337,69.29c2.07-1.1,4.11-2.25,6.23-3.26q6.31-3.11,12.62-6.24c8.49-4.06,17.23-7.92,26-11.32l4.86-1.57,4.2-1.2c-5.91,3.25-3.16,2.4-.42,1.61s5.37-1.84,7.78-2.75l3.45-1.34L404.88,42c3.95-1.51,6.89-2.8,8.38-3.51,24.64-8.56,57.23-16,82-20,5.29-1,10.83-1.79,16.34-2.69s11-1.57,16.32-2.33c6.69-.79,12.36-1.63,17.1-2.5s8.56-1.51,11.54-2l5.78-.56,5.8-.46C572,7.67,575.91,7.3,579.8,7c8.81-.68,13.75-.79,19.19-.74,2.72,0,5.56,0,9.08-.08s7.78,0,13.24-.1a100.05,100.05,0,0,0,12.57,0A41.75,41.75,0,0,1,640.74,6a294.88,294.88,0,0,1,37.11,4.87c9.63,1.87,19.09,4.34,27.52,6.73a69.58,69.58,0,0,0,9.28,2c1.79.27,3.68.53,9.75,2.62s12.13,4.26,18.16,6.49c6,2.43,11.94,4.8,17.78,7.5,5,2.14,9.83,4.59,14.72,6.94,2.45,1.16,4.82,2.49,7.24,3.73s4.83,2.47,7.19,3.83l8.3,5c2.67,1.65,5.28,3.39,8.11,5.21l-.91.39,20.54,13.35c4.26,2.67,6.89,4.32,10.84,7.22l4,2.87,25.12,21.1,4.56,3.73,3.94,3.27c2.45,2,4.59,3.65,6.37,5.13,3.23,3,6.73,6.17,10.1,9.44,1.69,1.63,3.38,3.26,5,4.88l2.49,2.4,2.37,2.41c5.16,5.67,11.73,12.65,17.43,19.21a155,155,0,0,1,12.78,16.05l7.53,9.49c2.33,3,4.5,6,6.87,9.07l1.43,2,1.33,2,2.6,3.92c1.73,2.59,3.45,5.19,5.31,8,1.81,2.61,3.66,5.12,5.35,7.69l5,7.71,5,7.7,2.53,3.91c.84,1.31,1.62,2.68,2.44,4L983.51,250c1.23,2,2.5,4,3.72,6l3.62,6.27,6.37,12,1.65,3.13,1.58,3.21,3.18,6.46,5.67,10.45c1.88,3.48,3.6,7,5.41,10.55,2.31,4.85,4.67,9.67,6.93,14.52s4.38,9.78,6.58,14.66c1.27,3.1,2.52,5.94,3.58,8.73l3.14,8.11c-1.82-2.81-3.64-5.66-5.39-8.47q-4.75-10.62-9.53-21.28c-.92-3-2.85-7.14-5.64-13.17-1.42-3-3.06-6.48-5-10.52s-4.26-8.53-6.84-13.7l-4.77-8.71-5-8.55c-2.12-3.83-4.36-7.88-6.61-11.92s-4.72-8-6.94-11.73c-1.78-3.3-3.08-5.8-4.38-8.32-1.56-2.53-3.41-5.18-5.24-7.84l-5.35-7.78-4.71-7.74-5-7.59c-3.13-4-6.12-8.18-9.34-12.65-1.66-2.21-3.42-4.46-5.26-6.81l-2.86-3.58L934,180.17l-5.12-6.31-5.31-6.27-2.69-3.17-2.8-3.15-5.72-6.47c-1.08-.66-2.89-2-4-2.69.16.77,1,2.25,1.3,3-6-6.46-12.79-13.49-19.09-19.64-1.48-1.34-3.2-2.95-5-4.67s-3.76-3.51-5.59-5.31-3.59-3.62-5.15-5.23a42.39,42.39,0,0,1-3.76-4.32c-2.34-2.11-4.69-4.22-7.29-6.38l-4-3.39c-1.4-1.18-2.87-2.4-4.47-3.64l-5.06-4-2.77-2.15c-1-.72-2-1.45-3-2.21-2.08-1.52-4.29-3.13-6.67-4.85s-5-3.43-7.76-5.31l-3.52-2.67-4.11-3-2.94-2.28c-12.21-8.09-24-15.07-36.91-21.95-2.32-1.48-4.58-3-6.85-4.5-3.46-1.79-7-3.43-10.5-5.15-1.74-.87-3.52-1.66-5.3-2.45l-5.33-2.38c-2.65-1.23-5.61-2.38-8.54-3.59s-5.85-2.43-8.62-3.41c-3.84-1.22-6.72-2.15-9.71-2.94-2.67-1-5.31-2-9-3.28-2.45-1.2-4.86-2.24-7.35-3.36-3-.7-6.19-1.48-9.45-2.07s-6.48-1.31-9.48-1.82l-9-2.52c-1.46-.43-2.94-.79-4.46-1.14l-4.67-1.11a307.28,307.28,0,0,0-55.51-4.68l-9.47.47c-3.23.17-6.43.49-9.41.72-6.76.24-12.52.63-19.23,1l.14-.24c-8.67.61-18.28,1.37-26.95,2.34l-7.4,1.1-7.39,1.23-8.86.64-8.85.75c-21.19,3.21-43.23,7.38-64.11,12.29l-15,4.19c-4.85,1.31-9.3,2.3-12.41,2.82-6.08,1.75-12,3.28-17.74,5.15l-8.73,2.69c-2.92.94-5.83,2-8.82,3l-4.42,1.61c-1.44.51-2.84,1-4.2,1.59l-7.86,3.08-3.75,1.44c-1.24.48-2.43,1-3.63,1.52l-7.1,3c-1.17.5-2.36,1-3.53,1.51l-3.48,1.64-7.15,3.41c-2.44,1.19-5,2.37-7.56,3.72l-8.07,4.37C326,78.71,317.59,83.6,310,87.91c-2.5,1.34-4.75,2.56-7.76,4.28-1.51.86-3.19,1.85-5.18,3.06l-3.22,2c-1.16.73-2.37,1.59-3.7,2.5L278,108.57l-11.22,8.69c-2.42,1.48-4.94,3.2-7.48,4.91l-7.41,5c-2.56,1.9-5,3.91-7.49,5.91L237,139c-2.5,2-4.87,4.07-7.3,6.12l-7.27,6.18c-3,2.72-5.81,5.54-8.71,8.29s-5.8,5.51-8.61,8.37l-10.18,8.27-8.46,7.94c-2.82,2.65-5.67,5.26-8.43,8,.29-.73-1.81,1.17-5,4.29l-5.48,5.4-6.12,6.22c-7.47,7.94-15.51,16.64-22.84,24.71l-11.07,11.46-11,11.87-3,3.41L111,262.57c-1.6,1.9-3,3.55-4.45,5.1l-4.15,4.53c-1.39,1.52-2.87,3.07-4.35,4.95L88.23,291.2C85,296,82,301,79,305.65l-2.54,3.52c-.84,1.17-1.6,2.37-2.41,3.54-3.59,5.42-6.32,9.67-8.48,13.11l-.78,1.26-.68,1.21c-.43.79-.84,1.53-1.23,2.23l-2,3.79c-2.38,4.55-3.72,7.35-6.09,11.6-.45.89-1.33,2.64-2.21,4.41-.64.51-1.73,1.92-2.4,2.35-1.13,2.16-2.25,4.32-3.38,6.47s-2.28,4.26-3.24,6.43c-2,4.31-4,8.49-5.83,12.46a12.76,12.76,0,0,1-.5,2.7c-.29,1.06-.71,2.26-1.13,3.62-.89,2.7-2.11,5.88-3.48,9.3l-2.14,5.26c-.73,1.79-1.5,3.6-2.12,5.46-1.31,3.68-2.58,7.35-3.61,10.72-1.09,2.26-2.23,4.72-3.26,7.41s-1.94,5.6-2.91,8.67-1.92,6.31-2.9,9.71-1.67,7-2.53,10.76-1.73,7.59-2.51,11.59-1.43,8.17-2.17,12.42q-.55,3.18-1.14,6.45c-.35,2.17-.61,4.4-.93,6.63-.62,4.47-1.27,9-2,13.67l.72.66C4.34,509.9,3.54,517,2.75,524c-.48,7.1-1,14.2-1.42,21.05Z"/><path class="cls-9" d="M254.79,119.66c3.54-2.61,5.64-4.5,9.27-7.21,1.8-1.37,3.95-3,6.81-5.06,1.43-1,3-2.19,4.86-3.47l6.32-4.14,6-3.84L291,94.06l3-1.78L306.13,85c3.8-2.28,7.88-4.57,12-7,2.09-1.19,4.17-2.46,6.33-3.62L331,70.94l6.21-3.3,3.1-1.66,3.15-1.55,12.63-6.16c2.08-1.06,4.28-2,6.44-3l6.51-2.86c1.09-.47,2.16-1,3.26-1.41l3.29-1.3,6.59-2.59,3.53-1.62,3.56-1.49,7.15-2.94a619.28,619.28,0,0,1,68.33-19L480.51,19l15.78-2.73c1.92-.36,3.86-.67,4.82-.84,5.81-1,12.55-2.18,18.39-3l11.39-1.39,8.82-.93,6.84-.71,5.5-.45c1.06-.35,3.12-.76,5.19-1.17,10.67-1.11,21.39-2,32.25-2.72,2.71-.21,5.44-.35,8.18-.48l8.25-.4c2.75-.15,5.61-.13,8.43-.2s5.67-.17,8.53,0l9,.87c3.06.32,6.1.8,8.9,1.18a41.75,41.75,0,0,0-6.86.15,100.05,100.05,0,0,1-12.57,0c-5.46.06-9.69.14-13.24.1s-6.36.08-9.08.08c-5.44,0-10.38.06-19.19.74-3.89.26-7.76.63-11.64.92l-5.8.46L556.58,9c-3,.47-6.8,1.16-11.54,2s-10.41,1.71-17.1,2.5c-5.27.76-10.81,1.46-16.32,2.33s-11.05,1.73-16.34,2.69c-24.79,4.09-57.38,11.49-82,20.05-1.49.71-4.43,2-8.38,3.51l-3.14,1.18-3.45,1.34c-2.41.91-5,1.84-7.78,2.75S385,49,390.93,45.7l-4.2,1.2-4.86,1.57c-8.78,3.4-17.52,7.26-26,11.32q-6.32,3.14-12.62,6.24c-2.12,1-4.16,2.16-6.23,3.26l-6.19,3.33-4.68,2.49-2.05,1.1-1.94,1.12c-1.74,2.06-11.37,7.67-32,19.37L282,102c-2.65,1.74-5.35,3.4-8.11,5.36-9.65,7-19.92,15.61-33.81,24.52,2.69-2.27,5.14-4.43,7.57-6.41Z"/><polygon class="cls-8" points="464.77 22.09 480.51 19.02 496.29 16.29 480.51 19.02 464.77 22.09"/><path class="cls-8" d="M519.5,12.45c7.91-1.42,3.66-2.22,28.8-5,2.66.17,5.3.34,8.94.39-2.07.41-4.13.82-5.19,1.17l-5.5.45-6.84.71-8.82.93Z"/><path class="cls-8" d="M515.51,29.9c7.13-1.13,11.86-2.23,17-3.35,2.6-.5,5.3-1,8.48-1.5s6.81-1,11.28-1.34c6.5-.37,12-.63,18.49-.83,3.78-.23,8.48-.6,13.24-.85,1.49-.21,3.36-.47,5.83-.76l4.2-.46,5.29-.4c3.93-.25,8.74-.63,14.5-.64s12.64,0,20.77.57c-1.42-.09-2.75-.13-4-.1s-2.45,0-3.6.07c-2.29.07-4.41.18-6.54.33l-6.62.76c-2.37.3-4.88.5-7.92.94L594.48,23,583,23.78c-3.82.25-7,.73-11.76,1.32l-21.15,2.75c-3.38-.37-7.76-.45-12.1-.65l-5.65.61-5.62.7Z"/><path class="cls-8" d="M622.88,4l9.58,0L642,4.4c1.74.4,2.54.69,4.34,1.1-2.22.09-3.43.35-5.63.5-2.8-.38-5.84-.86-8.9-1.18Z"/><path class="cls-9" d="M651.28,23.29c2,.12,3.84.17,5.68.36l5.38.6,5.15.62c1.69.25,3.34.55,5,.83,6.55,1,12.73,2.48,19.22,3.86a1.9,1.9,0,0,0,.21-.19l9.17,2.35c1.48.23,3,.57,4.56.91l4.72,1c1.58.35,3.18.67,4.72,1.05l4.52,1.13c1.76.65,3.65,1.32,5.64,2s4,1.53,6.16,2.32,4.31,1.59,6.47,2.45l6.45,2.67c4.29,1.71,8.32,3.69,11.91,5.4a80.76,80.76,0,0,1,8.85,4.9l14.31,6.72A249.48,249.48,0,0,1,801.8,74.89c1.87,1.72-5.67-2.61-5.62-1.77l-4.87-2.93c-1.64-1-3.3-1.87-4.95-2.81-3.31-1.86-6.61-3.75-10-5.47L774,63.2A375.42,375.42,0,0,0,732.27,45a339.69,339.69,0,0,0-42.81-13.32,302.82,302.82,0,0,0-74.26-9.31l4.59-.19c1.52-.05,3,0,4.52,0,3,0,6,0,9,.06l8.93.4c.75,0,1.5.06,2.26.11l2.26.19Z"/><path class="cls-8" d="M652.58,21.74a327.12,327.12,0,0,1,39.31,7.63,1.9,1.9,0,0,1-.21.19c-6.49-1.38-12.67-2.83-19.22-3.86-1.63-.28-3.28-.58-5-.83l-5.15-.62-5.38-.6c-1.84-.19-3.73-.24-5.68-.36C651.72,22.76,652.11,22.27,652.58,21.74Z"/><path class="cls-8" d="M760.34,36.21c4.16,1.75,4.51,1.51,7.38,2.7s8.41,3.53,22.39,11.48c2.38,1.33,4.49,2.45,6.49,3.49l2.92,1.51,2.82,1.55a146.84,146.84,0,0,1,13,7.85c2.35,1.45,4.45,2.73,6.32,4s3.53,2.41,5.08,3.51,3,2.14,4.35,3.16,2.66,2.09,4,3.15l4.08,3.33,2.2,1.8,2.34,2c3.25,2.8,7.17,6,12,10.28-4.75-3.71-10.47-7.76-15.34-11.28l-4-2.87-5.56-4.43c-1.7-1.3-3.28-2.42-4.71-3.45-2.89-2-5.23-3.73-7.44-5.11L812.48,65l-3.11-2-3.47-2.14c-2.83-1.82-5.44-3.56-8.11-5.21l-8.3-5c-2.36-1.36-4.8-2.55-7.19-3.83s-4.79-2.57-7.24-3.73C770.17,40.8,765.32,38.35,760.34,36.21Z"/><path class="cls-8" d="M952.31,198.83l5.64,8c1.51,2.22,3.09,4.38,4.53,6.64l4.32,6.78,8.67,13.65L983.75,248l4.18,7.13,4,7.32,6.31,11.39,1.56,2.82,1.47,2.85,2.94,5.7q2.92,5.7,5.87,11.42c1,1.9,1.93,3.86,2.86,5.81s1.89,3.92,2.83,5.9c2.31,4.85,4.69,9.66,6.92,14.53s4.39,9.79,6.59,14.69c3.39,7.08,6.21,13.5,9.5,21.51l3.67,6.92,3.53,7a22,22,0,0,1-.43-4.22c2.87,7.24,5.8,14.5,8.62,21.75l7.21,19.57c2.41,6.6,4.7,13.25,7,19.65.32,1.73.3,2.54.63,4.3,1,2.74,1.93,5.5,2.89,8.25q2.79,8,5.54,15.75c1.78,5.22,3.56,10.41,5.33,15.61,3.57,10.38,7,20.79,10.46,31.42-3.41-6.85-5.15-12.42-11-27.42-2.89-9.16-5.42-17.4-8.44-26.52a61.89,61.89,0,0,1-3.54-5.13c-2.87-8.29-6.37-17.47-9.72-26.64-1.54-4.35-3.17-8.67-4.81-13l-4.89-13c-3.31-8.62-6.8-17.17-10.19-25.76q-2.85-6.75-5.67-13.47l-3.14-8.11c-1.06-2.79-2.31-5.63-3.58-8.73q-3.3-7.32-6.58-14.66c-2.26-4.85-4.62-9.67-6.93-14.52-1.81-3.51-3.53-7.07-5.41-10.55l-5.67-10.45-3.18-6.46-1.58-3.21-1.65-3.13-6.37-12-3.62-6.27c-1.22-2-2.49-4-3.72-6l-7.58-12.15c-.82-1.36-1.6-2.73-2.44-4L971,229.94l-5-7.7-5-7.71c-1.69-2.57-3.54-5.08-5.35-7.69-1.86-2.8-3.58-5.4-5.31-8l-2.6-3.92-1.33-2-1.43-2Z"/><path class="cls-8" d="M997.09,297.55c1.68,3.22,2.88,5.26,3.84,6.82s1.66,2.64,2.45,3.87c1.58,2.45,3.42,5.55,7.63,14.66,1.61,3.44,3,7,4.5,10.47s3,7,4.43,10.5c-4.88-8.94-9.19-17.08-14.35-25.85C1002.81,311.2,1000.13,304.28,997.09,297.55Z"/><path class="cls-9" d="M1073.76,451.11c3,9.12,5.55,17.36,8.44,26.52,3.72,7.71,12.67,37.08,11,27.42l16.46,51.54q.88,2.8,1.79,5.64l.45,1.43s0,0,0,0h-4.48l-13-.09-11.94-.77-5.87-.38c-1-.07-1.65-.13-2.39-.19l-2.1-.19c-3.25.44-6.47.88-10.66,1.31l-78.53-.56-14-.91c-10.85.21-411.21-4.09-422-3.88l-37.62-.56c7.35-.75,13.72-1.52,21.12-2.33l426.36,4.72c4.65.32,9.31.64,13,1l43.61-1.08,36.68.49,23.08.46,27.61.18,4.45.16,2.21.09,1.09,0a5.19,5.19,0,0,0-.21-.92c-.71-2.51-1.36-4.91-1.91-7-2.19-6-4.4-11.94-6.58-17.86-3.21-10-6.41-20-9.58-29.89-3.14-9.56-6.15-19-9.27-28.22-.72-1.87-1.09-2.84-1.81-4.68-1.5-4.6-2.92-8.95-4.35-13.31L1070.22,446A61.89,61.89,0,0,0,1073.76,451.11Z"/><path class="cls-8" d="M1082.2,564.08l-6.64-.2-4.65-.19-9.5-.33c4.19-.43,7.41-.87,10.66-1.31l2.1.19c.74.06,1.34.12,2.39.19l5.87.38,11.94.77C1090.44,563.73,1086.38,563.88,1082.2,564.08Z"/><path class="cls-8" d="M457.44,559.05c-3.93,0-6.91.12-9.9.22l-36.65-.55-4.82,0c.18-.29.4-.57.76-1.09l23.66-.41,28.11.2Z"/><path class="cls-8" d="M467.88,537.22l-42.45.79-14.36-.39c.33-.46.63-.92,1-1.38l42.46-.8c4.79.1,9.58.24,14.34.39Z"/><path class="cls-8" d="M269.94,559.68H236.79l-17.45-1.51c-11.77,1.53-26.12,1.14-33.91,1.14-5.5-.5-16.92-.87-17.45-1.51.05-.06.12-.17.16-.23l37.23-.31,14.56.1,32.41-.34,27.68.77C276.67,558.39,273.33,559,269.94,559.68Z"/><path class="cls-8" d="M68.11,547.37c6.51,1.84-16.27,2.37-12.45,3.84-1.07.17-3.16.32-5.19.48l-4.84,0L27.57,551c-42.58-.42-20.8-2.29-25.38-4.11,9.05-.4,16.15-.81,24.23-1.22L40,547.17l23.27.16Z"/><path class="cls-8" d="M34,541.86l-22.7-1c2.38-.62-2.83-1.52,19.8-1.82C41.77,540.47,51.54,541.82,34,541.86Z"/><path class="cls-6" d="M891.43,146.66c2.36,2.42,4.82,4.82,7.19,7.36l7.17,7.63,7,7.8c2.33,2.58,4.53,5.24,6.76,7.81l2.57,3.07,2.56,3.18,5.17,6.45,5,6.57,2.47,3.25,2.33,3.26c-1,0-1.93.07-3,.07-1.35-2-2.77-3.81-4.15-5.64L928.43,192c-2.78-3.57-5.59-7.1-8.55-10.83-.41-.76-1.43-2.25-2.37-3.76-8.29-10.33-17.61-21.05-26.76-30.64Z"/><path class="cls-6" d="M902.66,152.89c8.73,9.13,17.52,20.34,18.13,20.27l4.11,4.75,3.73,4.49,3.63,4.35c1.21,1.46,2.38,3,3.62,4.5l4.62,6.42c1.38,2,2.63,3.82,3.77,5.46,2.29,3.29,4.14,5.85,5.53,7.73,2.8,3.75,3.82,4.74,3,3.15,2.41,3.13,4,5.62,5.73,8.05l10,15.42c3.85,7.43,7.52,14.24,11.61,21.27,2,3.57,4,7.23,6.14,11s4.57,7.78,7.07,12.08c-3.68-4.45-7.55-8.78-11.33-13.14-1.88-3.34-4.12-7.62-6.65-11.7-5.21-8.63-10.23-17.41-15.79-25.69l-8.09-12.46q-4.25-6-8.39-11.92l-4.77-7.07c-1.61-2.34-3.3-4.61-5-6.92l-2.49-3.46-2.57-3.4-5.15-6.79-5.31-6.67-2.66-3.33L912.48,166c-1.83-2.18-3.64-4.38-5.49-6.53l-5.63-6.42C901.78,153,902.26,153,902.66,152.89Z"/><path class="cls-6" d="M1005.25,318q1.39,2.92,2.79,5.81c.93,1.92,1.84,3.84,2.69,5.79q2.61,5.79,5.18,11.54c3.52,7.65,6.72,15.44,10.1,23.43a11.5,11.5,0,0,0-.41,3.95l-4.68-10.68c-1.57-3.54-3-7.12-4.69-10.61-3.58-9.46-7.41-19.93-11.26-29.28A1.51,1.51,0,0,0,1005.25,318Z"/><path class="cls-6" d="M1040.61,367.64c3.39,8.59,6.88,17.14,10.19,25.76l4.89,13c1.64,4.32,3.27,8.64,4.81,13-.8-1-1.87-3-2.68-4-2.57-6.83-5.27-14.07-7.74-20.45-1.22-3.19-2.46-6.14-3.62-8.71s-2.21-4.76-3.15-6.41c-1.8-4.51-3.21-8.14-5-12.64Z"/><path class="cls-9" d="M1026,364.54l3.49,7.4,3.35,7.47,6.7,15c13.17,35.81,25.44,74,36.65,101.43l1,.29c2.54,7.83,5.15,15.89,7.79,24.06l6.81,21.37c-.45-.27-1-.58-1.41-.82.13,1.57.14,2.95.18,4.25-1.51-3.25-2.75-5.65-4-8.26.55,2.1,1.14,4.32,1.75,6.61.29,1.09.59,2.2.9,3.32l.11.41a3.36,3.36,0,0,1-.45,0l-1,0-1.87-.09a30.79,30.79,0,0,0-2-2.49c-1.5.13-3.19.25-5,.37l-2.73.17-.34,0-.54,0-1.71,0-3.38.07-32.81-.47c5.32-.65,10.63-1.25,15-1.85l23.31-.13c2.39.5,4.77,1,8,1.48h1.33a1.28,1.28,0,0,0,.21,0l-.07-.21c-.17-.54-.33-1.07-.5-1.6-.33-1.07-.67-2.14-1-3.29-.11-.84-.24-1.73-.4-2.69l-.25-1.47-.93-3.62-3.9-14.9c.34.1.67.2,1,.3-8.65-27.54-15.63-49.48-23.58-70.58a9,9,0,0,1-1-.27c-1.44-3.71-3.11-8-5.45-14.69-1.16-3.34-2.52-7.27-4.16-12l-5.93-16.68c-2.17-5.87-4.41-11.44-6.63-17-1.11-2.79-2.22-5.58-3.35-8.4l-1.69-4.26-1.81-4.28A11.5,11.5,0,0,1,1026,364.54Z"/><path class="cls-6" d="M1055.57,446.08c8,21.1,14.93,43,23.58,70.58-.28-.1-.61-.2-1-.3-7.74-23.92-15.26-46.88-23.58-70.55A9,9,0,0,0,1055.57,446.08Z"/><path class="cls-6" d="M1060.44,447.41a63,63,0,0,1,3.67,7.83c1.53,3.73,3.4,8.58,5.48,14.59,1.58,5.44,3.39,11.75,4.89,17.15-1.5-5.4-3.31-11.71-4.89-17.15-2.08-6-3.95-10.86-5.48-14.59A63,63,0,0,0,1060.44,447.41Z"/><path class="cls-6" d="M1091.75,541.53l3.13,9.42.1.3c0,.06-.18,0-.27,0h-4.31l-4.83,0c-1.14-.35-2.85-.7-3.11-1.09s1-.83,4.73-1.37l4.39,0c.29.08.13-.17.09-.34l-.16-.51-.33-1-.66-2.07c0-1.3,0-2.68-.18-4.25C1090.78,541,1091.3,541.26,1091.75,541.53Z"/><path class="cls-10" d="M1050.92,558.83a326.15,326.15,0,0,0-36.83-.26l-42.65-.3-416.5-4.88-24.61,1.73-19-.66-60.27-.2c-13.4-.32-28-.43-41.52-.52l-22.67-1c-14.49-.15-17.28-1.74-50.22-2-11.57-.14-19.7.32-37.63.89-1.89,1.32-10.7,1.37-33.73.86-3,.15-6,.3-10.06.45-.41.57-.81,1.15-5.66,2.5l-37.19-1.13-32.39.34c-3.59-.43-6.27-.79-8.92-1.16l-27.71-.77,15.7-1.57,33-1.15c7.58-1.1,31.61-2,17-3.46l10.09-1.9c-4.49-.55-7.95-1.15-12.26-2l-9.67-.07c-4.32-.78-7.67-1.56-12-2.34l24-.93,9.48-1,20.15-1,37,0c3.07-.21,6.11-.36,10.12-.5l9.09-.46,22.13,1.78,4.65.32,33.52-.57,55.65-.18,14.36.39,26.35,1.29a169.44,169.44,0,0,1-23.84.69l-19.22,1c15.85,2.43,44.44.55,74.29,1l27.71.78,27.73.78c10.34.53,410.23,5.47,420.54,6.06l9.68.07c8.37.58,2.11,1.17,12.44,1.71l33.75-.86c5.24.85,12.92,1,36.61.55l14,.22,13,.26a16.77,16.77,0,0,1-1,2.48l-7,.07-6.55.12-69.81-.49c-8.14.52-25.16-.24-33.49.56,49.26.59,58.12,3.25,105.27,2.72l19.42,1Z"/><path class="cls-6" d="M1086,546.91a41.43,41.43,0,0,1-7.67-.3q-.76-.12-1.44-.27l-.66-.16-.31-.09-.15,0a1.54,1.54,0,0,0-.3,0c-1.75-.26-3.43-.56-5.13-.9l3.38-.07,1.71,0,.54,0,.34,0,2.73-.17c1.79-.12,3.48-.24,5-.37A30.79,30.79,0,0,1,1086,546.91Z"/><path class="cls-6" d="M1037.49,544.63l-13.57-.09-28.47.31c-16.68.17-5.29,2-29.08,1.18-8.08-.29-116.08-1.53-221.82-2.89l-144.13-2c-19.48-.32-35.63-.61-46.84-.87-5.61-.12-10-.25-12.92-.36a23.57,23.57,0,0,1-4.33-.3l-17.66-1.23,459.67,4.44,19.26-1,18.38.13,36.48.84C1048.12,543.38,1042.81,544,1037.49,544.63Z"/><path class="cls-6" d="M1013.27,559.72l-43.61,1.08c-3.66-.32-8.32-.64-13-1,5.21-.49,10.49-1,14.75-1.57l42.65.3Z"/><path class="cls-6" d="M530.33,555.12c-7.4.81-13.77,1.58-21.12,2.33l-50.61-.07-28.11-.2,1-1.38c6.19-.48,13.36-1,19.59-1.54l60.27.2Z"/><path class="cls-6" d="M321.9,538.37l-4.65-.32L286,536.73l9.09-.46,28.29-.09,9.5.36C328.58,537.15,325.24,537.76,321.9,538.37Z"/><path class="cls-6" d="M303.3,558,280,557.78,252.34,557c.24-.35.52-.75.74-1.1,14.62,0,20.93-.66,33.31-.28,16.62,0,3.13,1.12,17.47,1.51C303.67,557.37,303.5,557.66,303.3,558Z"/><path class="cls-7" d="M218.72,538.21l-9.48,1-24,.93c4.32.78,7.67,1.56,12,2.34l9.67.07c4.31.84,7.77,1.44,12.26,2L209,546.47c14.58,1.43-9.45,2.36-17,3.46l-33,1.15c-3.83-1.47-11.44-1.76-8.16-2.25,3-.1,6-.19,9.91-.22,34.31-.34,22.44-1.46,38.37-1.93l-32.37-1.09c-3.68-.32-8.36-.58-13-.9.21-.29.4-.58.6-.87l37.81-1.11-36.84-.27a11.38,11.38,0,0,0-3.5-1.93l-27.52-1.07-50.41-.35c-3.71-.26-6.43-.57-9.13-.88,12.91-1.76,39.82-1.22,75.62-.85l23.45-.12,27.38,1.29,9.46-1a35.32,35.32,0,0,0-4.28-.85l42.45.6Z"/><path class="cls-6" d="M160.79,548.61c-3.93,0-6.91.12-9.91.22l-23.28-.17c2.56-.85,4.09-1.65,6.6-2.44,10-.45,5-1.52,19.58-1.53,4.65.32,9.33.58,13,.9l32.37,1.09C183.23,547.15,195.1,548.27,160.79,548.61Z"/><path class="cls-6" d="M191.24,538.53l-27.38-1.29,32.56-.58a35.32,35.32,0,0,1,4.28.85Z"/><path class="cls-6" d="M192.19,542.71l-37.81,1.11-9.13-.87c-27.31-1.35-34.52.62-55.65.18-3.23.44-6.43.82-10.66,1.31l-46.7-.1a47.83,47.83,0,0,0,6.18-1.87l37.44-.6c-.33-.92-1.61-1.86-1.94-2.78l50.41.35,27.52,1.07a11.38,11.38,0,0,1,3.5,1.93Z"/><path class="cls-6" d="M98,557.58c2.72.31,5.43.62,9.1.93a1.88,1.88,0,0,1-.16.23L63.84,559,41,558.27,37.27,558c3.65-1,7.26-2,10.87-3,6.73.11,12.46.26,18.21.42l52.33-1Z"/><path class="cls-9" d="M159,551.08l-15.7,1.57c-4.9,0-8.86.11-13.78.18l-5.21.49a54.25,54.25,0,0,1-5.67,1.11l-52.33,1c-5.75-.16-11.48-.31-18.21-.42-.21-1.1-1.36-2.27-2.51-3.37l4.84,0c2-.16,4.12-.31,5.19-.48-3.82-1.47,19-2,12.45-3.84l-4.84,0L40,547.17l-13.58-1.49a51.08,51.08,0,0,0,5.82-1.34l46.7.1c4.23-.49,7.43-.87,10.66-1.31,21.13.44,28.34-1.53,55.65-.18l9.13.87c-.2.29-.39.58-.6.87-14.63,0-9.54,1.08-19.58,1.53-2.51.79-4,1.59-6.6,2.44l23.28.17C147.6,549.32,155.21,549.61,159,551.08Z"/><path class="cls-6" d="M83.39,545c5.81,1.49,2.45,2.1-15.28,2.38l-4.84,0,1.12-1.61C70.4,545.48,75.65,544.94,83.39,545Z"/><path class="cls-9" d="M15.3,428.13l2-6.92c.7-2.3,1.5-4.58,2.26-6.89l4.63-13.89c1.75-4.56,3.5-9.13,5.23-13.67.89-2.26,1.7-4.55,2.64-6.77l2.87-6.61,4.77-11.07c1.68-3.65,3.49-7.24,5.22-10.87l4-8.06c1.8-2.73,4-6.13,6.27-10,1.15-1.94,2.34-4,3.56-6.12.62-1.06,1.2-2.17,1.86-3.24l2-3.26,8.22-13.42c2.85-4.38,5.77-8.59,8.43-12.47L82,291.38l1.4-1.81c.48-.61,1-1.19,1.5-1.79,2-2.37,4-4.74,5.89-6.91A438.37,438.37,0,0,0,41.93,363c-7,15.37-14.06,31.82-19.62,48.78L19,419.83c-1.12,2.77-2.1,5.71-3.23,8.86A4.39,4.39,0,0,1,15.3,428.13Z"/><path class="cls-9" d="M103.87,282.3c7.81-9.89,15.18-18.9,23.75-28.14l.34,1.35c1.69-1.51,3.37-3,5-4.46s3.18-2.7,4.56-3.83l-2.62,3.08c-.4.06-3,2.88-7.36,7.63-2.17,2.39-4.87,5.2-7.82,8.53s-6.12,7.18-9.7,11.29l-2.8,3.2-2.68,3.3C104.31,283.64,104.08,283,103.87,282.3Z"/><path class="cls-9" d="M121.24,243.9l2.47-2.74,2.44-2.58,4.8-5.05c3.19-3.34,6.36-6.7,9.76-10.2-3.4,3.5-6.57,6.86-9.76,10.2l-4.8,5.05-2.44,2.58Z"/><path class="cls-9" d="M289.94,108.2c7.14-4.81,15.46-9.66,22.8-14.22,3.34-1.53,5.8-2.49,8.26-3.51a47.38,47.38,0,0,1-4.3,4.09c-2.12,1.46-4.56,3.17-7.15,4.89l-7.93,5.16c-2.62,1.65-5,3.4-7.06,4.94a35.31,35.31,0,0,0-4.68,4c-5.24,3.49-11.42,7.94-17.09,12-2.86,2-5.45,4.12-7.72,6a63.55,63.55,0,0,0-5.48,5l-3.43,2.47-3.38,2.59c-3,1.91-5.31,3.32-7.6,4.65,1.46-1.74,1-1.76-.65-.81-.81.48-1.89,1.19-3.14,2.06s-2.63,1.94-4.1,3c-5.85,4.41-12.71,9.74-13.87,9.85,2.14-2.14,4-3.93,6.09-5.89s4.49-4.09,7.81-6.8A622.35,622.35,0,0,1,289.94,108.2Z"/><path class="cls-9" d="M365.68,71.25,374,67.61l4.22-1.85,4.14-1.63,8.08-1.86c1.38-.34,2.78-.62,4.15-.87l4-.73c-3.17,1.21-6.35,2.38-9.76,3.84l-5.42,2.2c-1.91.79-4,1.51-6.12,2.49-5.11,2-11.14,4.13-16.22,6.42C362.84,74,363.81,72.81,365.68,71.25Z"/><path class="cls-9" d="M438.91,45c5.51-1.25,9.06-2.34,12.28-3.38s6.15-1.88,10.35-2.84c2.3-.43,4.59-.9,6.89-1.29l6.83-1.16c4.5-.76,8.87-1.53,13-2.07,4.69-.78,9.12-1.59,13.58-2.28l13.64-2,11.23-1.39,5.62-.7L538,27.2c4.34.2,8.72.28,12.1.65-6.9,1.3-18.17,2.95-29.39,4.67s-22.38,3.39-29.14,4.14c-17.87,3.38-35.58,7.17-54,12.12-4.1,1-8.41,2.18-12.74,3.31l-3.24.86-3.18.95-6.23,1.84c.26-.88.49-1.68.74-2.54l-6.78,2c-2.24.72-4.48,1.48-6.73,2.24,8.59-3.2,9.25-3.7,10.16-4.41s2.15-1.42,12.2-4.34l8.92-2C433.48,46.06,436.17,45.46,438.91,45Z"/><path class="cls-9" d="M824.31,86.18c1.28,1.21,1.74,1.9,3,3.13,12.32,9,24.27,18.56,35.66,28.68.87.62,2.37,1.89,3.91,3.12,4.41,4.17,8.46,8.38,12.55,12.55,2,2.08,4,4.25,6,6.39l3,3.25,3,3.36-.68.13c-2.38-2-4.9-3.93-8-6.54-7.42-7.41-15.17-14.47-23.05-21.41-4-3.37-8.1-7-12.4-10.38-2.13-1.71-4.24-3.46-6.38-5.13l-6.36-4.86c-2.8-2.42-5.71-4.67-8.58-7-1.45-1.14-2.87-2.33-4.34-3.45l-4.42-3.34c.47-.17.85-.33,1.31-.51-13.63-9.08-25.62-16.58-34.11-22l1.5-.75A418.1,418.1,0,0,1,824.31,86.18Z"/><path class="cls-9" d="M805.9,60.89c11.56,7.27,22.82,15,34.45,23.83l-4-2.87c-4-2.9-6.58-4.55-10.84-7.22L805,61.28Z"/><path class="cls-9" d="M939.66,203c.84.79,2.15,2.36,3.46,3.91q4.14,5.9,8.39,11.92l8.09,12.46c5.56,8.28,10.58,17.06,15.79,25.69,2.53,4.08,4.77,8.36,6.65,11.7,2.72,5.06,5.4,9.87,7.9,14.63s4.79,9.51,7.15,14.2c3,6.73,5.72,13.65,8.5,20.47l-.34,0a1.51,1.51,0,0,1-.28-.05l-6.87-12.67-7.17-12.46-4-8.15c-1.34-2.67-2.74-5.26-4.1-7.88-2.76-5.21-5.43-10.47-8.36-15.86-.78-1.65-1.05-2.43-1.75-4l-8.1-13c-.68-1.08-1.32-2.17-2-3.22l-2.13-3.15-4.23-6.27L952,225c-1.4-2.07-2.75-4.16-4.25-6.13L939.07,207l-2.4-3.91C937.73,203.11,938.68,203.06,939.66,203Z"/><path class="cls-9" d="M451.78,539.3,425.43,538l42.45-.79c.83.17,2.65.36,4.47.55C461.57,537.86,464.71,538.93,451.78,539.3Z"/><path class="cls-9" d="M411.07,537.62l-55.65.18c-6.5-.45-12.07-.84-18.64-1.23l70.4-.37,4.86,0C411.7,536.7,411.4,537.16,411.07,537.62Z"/><path class="cls-9" d="M354.88,558l-18.62.15-33-.23c.2-.29.37-.58.56-.81,17.2.47,11.27-.78,24.05-1l32.37,1.1Z"/><path class="cls-9" d="M75.86,541.87l-37.44.6a37,37,0,0,0-4.45-.61c17.57,0,7.8-1.39-2.9-2.79l33.72-.86c2.7.31,5.42.62,9.13.88C74.25,540,75.53,541,75.86,541.87Z"/><path class="cls-7" d="M4.39,502.4c.71-4.63,1.36-9.2,2-13.67.32-2.23.58-4.46.93-6.63s.77-4.33,1.14-6.45c.74-4.25,1.47-8.4,2.17-12.42s1.7-7.86,2.51-11.59,1.63-7.34,2.53-10.76,1.94-6.64,2.9-9.71,1.93-6,2.91-8.67,2.17-5.15,3.26-7.41c1-3.37,2.3-7,3.61-10.72.62-1.86,1.39-3.67,2.12-5.46l2.14-5.26c1.37-3.42,2.59-6.6,3.48-9.3.42-1.36.84-2.56,1.13-3.62a12.76,12.76,0,0,0,.5-2.7c.32-1,1-2.94,1.82-4.8,1.71-3.46,3.36-7,5.11-10.4l5.52-10.16c.67-.43,1.76-1.84,2.4-2.35.88-1.77,1.76-3.52,2.21-4.41,2.37-4.25,3.71-7.05,6.09-11.6l2-3.79c.39-.7.8-1.44,1.23-2.23l.68-1.21.78-1.26c2.16-3.44,4.89-7.69,8.48-13.11.81-1.17,1.57-2.37,2.41-3.54L79,305.65c3-4.67,6-9.61,9.23-14.45l9.82-14.05c1.48-1.88,3-3.43,4.35-4.95l4.15-4.53c1.4-1.55,2.85-3.2,4.45-5.1l2.53-3.06,3-3.41,11-11.87,11.07-11.46c7.33-8.07,15.37-16.77,22.84-24.71l6.12-6.22,5.48-5.4c3.22-3.12,5.32-5,5-4.29,2.76-2.69,5.61-5.3,8.43-8l8.46-7.94L205.08,168c2.81-2.86,5.72-5.59,8.61-8.37s5.75-5.57,8.71-8.29l7.27-6.18c2.43-2.05,4.8-4.15,7.3-6.12l7.42-6c2.47-2,4.93-4,7.49-5.91l7.41-5c2.54-1.71,5.06-3.43,7.48-4.91L278,108.57l12.1-8.82c1.33-.91,2.54-1.77,3.7-2.5l3.22-2c2-1.21,3.67-2.2,5.18-3.06,3-1.72,5.26-2.94,7.76-4.28,7.64-4.31,16-9.2,23.84-13.08l8.07-4.37c2.58-1.35,5.12-2.53,7.56-3.72l7.15-3.41,3.48-1.64c1.17-.52,2.36-1,3.53-1.51l7.1-3c1.2-.5,2.39-1,3.63-1.52l3.75-1.44,7.86-3.08c1.36-.56,2.76-1.08,4.2-1.59l4.42-1.61c3-1,5.9-2.06,8.82-3l8.73-2.69c5.78-1.87,11.66-3.4,17.74-5.15,3.11-.52,7.56-1.51,12.41-2.82l15-4.19c20.88-4.91,42.92-9.08,64.11-12.29l8.85-.75,8.86-.64c-3.6.89-7.91,1.67-12.63,2.58-2.37.44-4.85.87-7.4,1.3l-3.89.63-4,.7c-10.7,1.81-22.11,3.81-32.16,6l-13.83,3.06L451.42,34c-5.19,1.24-10.33,2.58-15.61,3.89s-10.61,2.93-16.23,4.49c-6.88,1.87-11.1,3.49-15.94,5.24-2.39,1-4.92,2-8,3.14s-6.72,2.41-11.21,4.16c-.07.28-.12.48-.16.69-2.7,1-5.28,2.14-7.84,3.3s-5.05,2.54-7.7,3.81c-1.32.64-2.67,1.28-4.06,1.91s-2.85,1.24-4.32,1.92a93.83,93.83,0,0,1-9.79,3.7L361.1,64.8l10.74-5.1-8.61,3.35c-1.44.54-2.85,1.15-4.26,1.77l-4.22,1.83c-5.63,2.47-11.33,4.81-16.84,7.56l-10.35,5.66c-3.43,1.94-6.78,4-10.17,6-6.83,3.91-13.38,8.26-20,12.48L309.61,93c-3.28,2.12-5.75,3.8-8.24,5.49l-4.94,3c-1.63,1-3.23,2.08-4.84,3.13L281.9,111c-3.6,2.43-7.07,4.93-10.57,7.36l-5.2,3.65-5.08,3.79c-3.38,2.53-6.78,5-10.16,7.59l-10.11,8c-.77.4-2.31,1.41-3.84,2.44l-12.22,10.4c-4,3.5-8,7.1-12,10.64l.09.62c-2.37,2.19-4.57,4.35-6.87,6.53s-4.68,4.4-7.31,6.81-5.43,5.1-8.68,8.1-6.92,6.35-11.06,10.31c-15.84,15.93-23.83,24.93-42.32,45.74l-4.68,4.53c-1.58,1.56-3.13,3.18-4.71,4.77l-9.28,9.46c-.88.73-1.68,1.53-2.49,2.35s-1.62,1.65-2.42,2.49l-4.79,5.13c-5.09,5.95-9.63,12.31-14.33,18.54-1.84,2.17-3.69,4.29-5.4,6.49l-9.33,13.74c-3,4.73-5.92,9.56-8.76,14.12-1,1.6-2.14,3.18-3.14,4.8l-3,4.91-5.94,9.83-1.48,2.45L55.47,349l-2.75,5-5.51,10.08c-2.5,5.62-5.1,11.45-7.73,17.37l-1,2.22L37.6,386l-1.8,4.54q-1.78,4.56-3.58,9.1c-4.51,12.2-8.58,24.35-11.43,35.44-2.47,6.07-5.19,17-8.18,29.35-1.29,6.23-2.66,12.82-4,19.37-1.11,6.6-2.27,13.16-3.48,19.27Z"/><path class="cls-10" d="M384.43,54.91c4.49-1.75,8.14-3,11.21-4.16s5.61-2.19,8-3.14c4.84-1.75,9.06-3.37,15.94-5.24,5.62-1.56,11-3.12,16.23-4.49s10.42-2.65,15.61-3.89l13.75-3.35L479,27.58c10.05-2.17,21.46-4.17,32.16-6l4-.7,3.89-.63c2.55-.43,5-.86,7.4-1.3,4.72-.91,9-1.69,12.63-2.58l7.39-1.23,7.4-1.1c8.67-1,18.28-1.73,26.95-2.34l-.14.24c6.71-.36,12.47-.75,19.23-1l8.69.39c3,.21,6,.42,8.69.65a216.4,216.4,0,0,1,35.57.85l4,.41c1.26.15,2.48.35,3.63.52,2.31.36,4.37.69,6.1,1,3.48.57,5.63,1.26,5.89,1.56,3.47.49,6.71.86,9.92,1.37l9.87,1.75c4.3.95,8.82,2.1,13.35,3.2,4.47,1.29,9,2.48,13.17,3.8,3.65,1.27,6.29,2.27,9,3.28,2.31,1.28,4.58,2.66,7.76,4.32a4.43,4.43,0,0,0-.53.35c2.13,1.42,4.36,2.75,6.45,4.28-7.3-2.76-14.59-5.37-22-7.64a344.34,344.34,0,0,0-34.8-9.89,116.94,116.94,0,0,0-12.45-2.64c-1.22-.2-2.46-.45-3.72-.63l-3.79-.52-7.4-1.05-7.83-.92-4-.46c-1.32-.15-2.65-.21-4-.33L633.24,14c-2.76-.15-5.57-.21-8.44-.32l-4.22-.22-4.26-.06c-2.9.07-6.05.1-9.19.23l-9.18.49-4.06.25-4.13.34-8.35.68c-5.58.46-11.15,1.1-16.47,1.63L554.84,19c-5.51.09-16.33,1.51-25.39,2.69s-16.38,2.18-15,1.1l-15.77,2.68L483,28.4l-16.1,3.27-16,3.63c-16.86,4.08-42,10.17-66.63,20.3C384.31,55.39,384.36,55.19,384.43,54.91Z"/><path class="cls-7" d="M618.76,9.78a307.28,307.28,0,0,1,55.51,4.68l4.67,1.11c1.52.35,3,.71,4.46,1.14l9,2.52c3.17.38,6.37.84,9.53,1.27,3.78.91,6.6,1.81,9.4,2.62,2.49,1.12,4.9,2.16,7.35,3.36-4.19-1.32-8.7-2.51-13.17-3.8-4.53-1.1-9-2.25-13.35-3.2l-9.87-1.75c-3.21-.51-6.45-.88-9.92-1.37-.26-.3-2.41-1-5.89-1.56-1.73-.32-3.79-.65-6.1-1-1.15-.17-2.37-.37-3.63-.52l-4-.41A216.4,216.4,0,0,0,617.26,12c-2.72-.23-5.7-.44-8.69-.65L599.88,11c3-.23,6.18-.55,9.41-.72Z"/><path class="cls-7" d="M956.69,559.84l-426.36-4.72-19-.66c11.68-1.36,30.67-.65,43.63-1.07l416.5,4.88C967.18,558.81,961.9,559.35,956.69,559.84Z"/><path class="cls-7" d="M321.9,538.37l-4.65-.32,15.66-1.51,3.87,0c6.57.39,12.14.78,18.64,1.23Z"/><path class="cls-10" d="M138.61,233.12c5.4-5.43,10.87-10.8,16.33-16.13C169.82,201.42,179,193.08,182,191.77c-1.33,1.58-2.69,3.17-3.33,4-4.67,4.52-9.39,9-14,13.61s-9.3,9.15-13.89,13.82-9.27,9.32-13.89,14.07l-7,7.14c-2.33,2.39-4.6,4.93-6.92,7.41C128.1,245.39,133.39,239.3,138.61,233.12Z"/><path class="cls-10" d="M337.91,74.21c5.51-2.75,11.21-5.09,16.84-7.56L359,64.82c1.41-.62,2.82-1.23,4.26-1.77l8.61-3.35L361.1,64.8l-10.54,5.44c-5.72,2.75-11.26,5.84-16.85,8.86s-11.06,6.23-16.54,9.45l-3.79,2.19-1.9,1.1L309.61,93l-12.24,5.33c6.64-4.22,13.19-8.57,20-12.48,3.39-2,6.74-4,10.17-6Z"/><path class="cls-10" d="M937.2,191.18c1.23,1.54,2.54,3.1,3.27,3.87,4.18,6.26,8.23,12.65,12.35,19,.8,1.59-.22.6-3-3.15-1.39-1.88-3.24-4.44-5.53-7.73-1.14-1.64-2.39-3.47-3.77-5.46l-4.62-6.42Z"/><path class="cls-10" d="M1097.65,534.27q2,7.31,4.06,14.7c-2.12-4.37-4.44-11.38-6.79-18.7-2.27-7-4.56-14.41-6.43-19.14-.48-2.66-1-5.29-1.42-7.92C1090.59,513.56,1094.11,523.89,1097.65,534.27Z"/><path class="cls-5" d="M133.36,227.4c3.35-3.54,6.76-7,10-10.45s6.51-6.75,9.6-9.87c0,0,.05.2.09.24C148.31,212.28,150.62,211.61,133.36,227.4Z"/><path class="cls-5" d="M130.68,230.21c.67-.69,2-2.11,2.68-2.81C132.69,228.1,131.35,229.52,130.68,230.21Z"/><path class="cls-3" d="M1106.78,540.09c2.22,6.07,4.8,13.7,7.51,22,.33,1,.67,2.08,1,3.13l.25.79.13.4,0,.1h-2l-6.78,0-13.86-.09-23.59-.16c-5.5,0-10.39,0-14.15.16-4.23.49-12.74.08-32.55-.81-21.54.13-39.62.93-65.56.4-1.87-.12-27.29-.52-64.6-1.07l-136-1.94L550.3,560c12.78-.14,414.05,4.23,426.77,4.14l46.1.91,58.42-.16,19.34.12,9.82.06,2.43,0h.61a2.16,2.16,0,0,0-.14-.54l-.37-1.14-1.43-4.51C1110.16,552.64,1108.47,546.35,1106.78,540.09Z"/><path class="cls-9" d="M640.74,6c2.2-.15,3.41-.41,5.63-.5l8.17.81c1.36.14,2.73.25,4.08.43l4.06.56,8.13,1.14,8.07,1.44c1.59.3,3.19.53,4.78.89l4.84,1.06c3.29.72,6.71,1.43,10.33,2.45s7.54,1.93,11.74,3.31l6.62,2.1c1.16.35,2.34.76,3.53,1.2l3.68,1.33c-6.07-2.09-8-2.35-9.75-2.62a69.58,69.58,0,0,1-9.28-2c-8.43-2.39-17.89-4.86-27.52-6.73A294.88,294.88,0,0,0,640.74,6Z"/><path class="cls-9" d="M774,63.2c1.61.91,3.16,1.85,3.88,2.36C777.13,65.05,775.58,64.11,774,63.2Z"/><path class="cls-9" d="M840.35,84.72c4.87,3.52,10.59,7.57,15.34,11.28,8.24,6.77,16.88,14.63,24.65,22-1.78-1.48-3.92-3.12-6.37-5.13L870,109.55l-4.56-3.73Z"/></g></g></g></g></svg>