<svg xmlns="http://www.w3.org/2000/svg" viewBox="0 0 373.05 246.42"><defs><style>.cls-1{fill:#adbfb9;}</style></defs><g id="Layer_2" data-name="Layer 2"><g id="Layer_1-2" data-name="Layer 1"><path class="cls-1" d="M372.29,205.62c1-.56,1.33-2.46-.89-3-.92.81-1.88,1.59-2.88,2.35C369.8,205.2,371.05,205.42,372.29,205.62Z"/><path class="cls-1" d="M362.78,192.83a16.91,16.91,0,0,0-4.66,0,3.87,3.87,0,0,0-3.31,2.73,13.18,13.18,0,0,1,4,.28,9.09,9.09,0,0,0,4.3-.35,3.72,3.72,0,0,1,1.8,2,1.67,1.67,0,0,1-.35,1.88c.57-.13,1.16.54,2,1a2.39,2.39,0,0,0,2.71.22,8.83,8.83,0,0,0-1.23-2.37,8,8,0,0,0-.82-.92,6.47,6.47,0,0,0-.9-.83,7.86,7.86,0,0,0-2.26-1.21,13,13,0,0,0-2.8-.83C361.09,193.33,362.25,193.18,362.78,192.83Z"/><path class="cls-1" d="M267,135.46l1.05-.83A3.05,3.05,0,0,0,267,135.46Z"/><path class="cls-1" d="M227,190.12c.08.35.4-.36.69-1.19C227.5,189.07,227.3,189.21,227,190.12Z"/><path class="cls-1" d="M230.4,172.29c-.1.32-.15.53-.22.8C230.48,172.44,230.64,172,230.4,172.29Z"/><path class="cls-1" d="M267,135.46l-2.74,2.12C265,138.38,265.84,136.64,267,135.46Z"/><path class="cls-1" d="M340.34,173.19a5.17,5.17,0,0,0,1.56,1.47c-.37-.51-.71-1-1-1.55C340.7,173.14,340.54,173.17,340.34,173.19Z"/><path class="cls-1" d="M300.31,92.06l.71-.72a7.43,7.43,0,0,0-.32-1.54C300.56,90.54,300.43,91.29,300.31,92.06Z"/><path class="cls-1" d="M341.51,93.05c-.37-1.39-2.92-.22-4.09.12A2.59,2.59,0,0,1,340,94.6,4.4,4.4,0,0,0,341.51,93.05Z"/><path class="cls-1" d="M348.18,160.57l.66,1C348.64,161.3,348.41,160.86,348.18,160.57Z"/><path class="cls-1" d="M279.35,113.85a2.63,2.63,0,0,0-1-.35A1.72,1.72,0,0,0,279.35,113.85Z"/><path class="cls-1" d="M20.06,71.26h0C20.08,71.5,20.09,71.57,20.06,71.26Z"/><path class="cls-1" d="M7.71,105.66,7.8,105a13.23,13.23,0,0,0-1.4-.72C6.84,104.72,7.28,105.18,7.71,105.66Z"/><path class="cls-1" d="M233.63,148.85a1.09,1.09,0,0,0,0,.17C233.92,150,233.85,149.45,233.63,148.85Z"/><path class="cls-1" d="M110.5,200.2c3.73-2.86.8,7.18,5.48,2.52C114.75,202.87,113.74,196.12,110.5,200.2Z"/><path class="cls-1" d="M340.27,172c-.23-.57-.47-1.14-.65-1.74A5.52,5.52,0,0,0,340.27,172Z"/><path class="cls-1" d="M116,202.72h0l.46-.49Z"/><path class="cls-1" d="M230.57,61.26a3.4,3.4,0,0,0-1.22.91C229.64,62.13,230,61.93,230.57,61.26Z"/><path class="cls-1" d="M227.59,126.59l.35-1.62A5.58,5.58,0,0,0,227.59,126.59Z"/><path class="cls-1" d="M218.86,19.59c-.43-1.13-.43-1.86-1.39-2.71a4.65,4.65,0,0,0,.06.75C218,17.66,218.48,18.08,218.86,19.59Z"/><path class="cls-1" d="M192,15a2.31,2.31,0,0,0,.64,0c.2-.54.43-1.16.64-1.71Z"/><path class="cls-1" d="M5.72,175.22a24.77,24.77,0,0,1,3.51-4.35c-1.25,1.06-1.62-.44-1.91-1S6.78,169.85,5.72,175.22Z"/><path class="cls-1" d="M341.81,172.59a1.51,1.51,0,0,1-1.54-.63,11.38,11.38,0,0,0,.6,1.15C341.31,173.06,341.68,172.94,341.81,172.59Z"/><path class="cls-1" d="M203.57,47.49a7.22,7.22,0,0,0-.09-1.36A4.18,4.18,0,0,0,203.57,47.49Z"/><path class="cls-1" d="M105.22,60.08l-.38.31C104.83,60.65,104.93,60.6,105.22,60.08Z"/><path class="cls-1" d="M201.87,46.17a14.53,14.53,0,0,0-.55-3.42c0,.48,0,.88.08,1.53A10.43,10.43,0,0,1,201.87,46.17Z"/><path class="cls-1" d="M9.27,170.83l0,0Z"/><path class="cls-1" d="M9.54,127.08c-.61,5.09,3.33,2.79,5.33,4.11.33,6.29-3,2.53-5.15,4.38.48,3.91,3.45,7.32,2.86,10.16-.63.12-.93.64-1.59-.12a8,8,0,0,1,.75,3.85c0,.36,0,.72-.05,1.09l0,.55c0,.29-.07.58-.11.87-.17,1.27-.35,2.56-.56,3.87-.38,2.61-.88,5.3-1,7.68a12,12,0,0,0,.6,5.79,7.63,7.63,0,0,1-1.26,1.52,17.12,17.12,0,0,1,6-4,8.94,8.94,0,0,0,.21,3.35c.1.89-.11,1.73-1.7,3.38.46-1.89-.67-1.24-1.37-1.6.17.87.36,1.69.56,2.45-4.9,6.3-.48-3.59-3.49-1.8a40.94,40.94,0,0,0,.11,4.76,3.18,3.18,0,0,0,.2,1l.26.86c.17.57.33,1.13.46,1.68a15.73,15.73,0,0,1,.47,3.28,9,9,0,0,1-.33,3.17c-1.76,2.39-2,.63-2.3-.74-.07-1.77-.21-3.1-2.19,1.91q1-4.57,2.11-8.9c-1.75,2.73-2.54,3.89-2.91,4.11s-.29-.42-.22-1.07.11-1.3-.32-1.11-1.34,1.22-3.12,4.11a42.94,42.94,0,0,0-.36,7c0,.43,0,.84.08,1.23a6.8,6.8,0,0,0,.28.7c.2.43.41.82.61,1.21a11.5,11.5,0,0,1,1.07,2.69c.07.28.13.59.19.91s.15.55.22.87c.15.63.28,1.38.44,2.27a4.51,4.51,0,0,0,2.05-2.19,4.45,4.45,0,0,1,2-2.16A9.7,9.7,0,0,1,10,203.05c.23,1.78.22,3.56.34,5.18a11.81,11.81,0,0,0,.32,2.3,5.79,5.79,0,0,0,.33,1,5.08,5.08,0,0,0,.55.89,3.41,3.41,0,0,0,.81.74,3.39,3.39,0,0,0,1.11.55,8.13,8.13,0,0,0,3.35.22c1.6-.72,3-2.2,4.56-3.28a8,8,0,0,1,5.4-1.75q-1.28,2.61-2.69,4.92a5.56,5.56,0,0,0,3.52-1.77,13.26,13.26,0,0,0,1.88-2.83c.26-.48.53-1,.8-1.39.14-.22.29-.43.44-.64a8.27,8.27,0,0,1,.51-.66,5.43,5.43,0,0,1,3.09-1.84c-1.22,3.06-4.82,5.42-4,5.36,1.78.55,2.68-.67,3.36-2.46s1.29-4.05,2.76-5.32c.16,1.52.33,3.06.53,4.61,1.59-.89,3.5-4.11,5.28-6.74s3.56-5.54,5.25-8.37q2.35-4.74,4.75-9.56l2.3-4.51c.75-1.49,1.44-3.05,2.18-4.52.21.67.22,1.72.46,2.37s.71.88,1.94-.25c.5-1.06,1-2.22,1.45-3.33s1-2.23,1.49-3.33c.35-.77.7-1.55,1.06-2.33s.63-1.36.94-2.05c1.24-2.73,2.66-5.43,4.19-8.08s2.94-5.31,4.49-7.87c.79-1.28,1.53-2.55,2.26-3.8l2.18-3.68-1.28-4.94c.34-.9,1.83-1.25,2-.07,2.43-3.65-1.69-.83-2.11-3.14.59-2.34,2.63-2.46,3-.72.22-7.93,1.43-21.77,6.63-28.34l.41,1.7c2.82-5.48-3.87-8.21.27-12.82l.21,1.17c2.38-6.11,3.88-12.79,5.64-19,.45-1.54.91-3,1.41-4.52.25-.73.51-1.45.77-2.16l.21-.53.1-.26.06-.11c.09-.15.17-.3.26-.43.72-1.07,1.62-1.78,2.7-1.55-1.61-2-.82-3.07-.31-3.8s.79-1.53-.75-6.69a3.56,3.56,0,0,1,1.67,1.47,14.81,14.81,0,0,1,1.06,1.94c.31.64.6,1.24.93,1.87s.71,1.29,1.12,2.25c.2.22.4-2.13.9-4.78s1.32-5.51,2.19-6L103,59.07a33.87,33.87,0,0,1,3-6.74,91.45,91.45,0,0,1-2.09,9,7.8,7.8,0,0,1,.91-.91,35.68,35.68,0,0,1,1.45-5.5c1-.52.92,2.07.23,4.43A22.48,22.48,0,0,1,104,65.06a2.2,2.2,0,0,1,2.69.46c-1.2.7-1.65.47-2.42.87.77-.38,1-.23.87,0a3.66,3.66,0,0,1-.91.81,9.8,9.8,0,0,0-1,.74c-.14.15,0,.1.72,0a8.77,8.77,0,0,1,2.41-1,9,9,0,0,0-1,1.17,2.83,2.83,0,0,0-.28.5,2.6,2.6,0,0,0-.1.25l0,.12v.28a42.41,42.41,0,0,0,.71,7.73l-2.13-.86c-.37,8.58,1.22,18.09.8,27.76,1.09-3.43,4.75-2.53,5,.35l-3.29,1c1.94,1.93,1.33-2.93,3.65,1-.57,3.63-3.83,2.26-4.78.15l.9,4.44c-1,.21-1.44-.85-2.67-1.18,1,.95,0,2.8-.69,4.74s-1.37,4,.3,5.4l-1,.18c-.34,4.79-.43,8.29-.47,11.58a94.6,94.6,0,0,1-.46,10.27c2.76.5,1.81,3.49,3.69,6.13-.88,2.82-2,5.75-3.2,8.82a47.36,47.36,0,0,0-2.7,9.74c.45,5.08,2.07,1.85,3.29,4.34-2.58-.12-3.67,6.78-4.79,2.86-.63,4.14-1.11,6.78-1.39,9.74s-.58,6.22-.81,11.65c1.29-.86,2-2,2.73-1.16,0,2-2.15,4-3.26,3.44l-.12-.56a17.76,17.76,0,0,1-.43,4.69c-.17.78-.39,1.55-.64,2.33L92.81,205l-.52,1.45a92.08,92.08,0,0,0-3.71,12.11,28.48,28.48,0,0,0,.27,14.2,19.64,19.64,0,0,0,4.33,7.6,16.12,16.12,0,0,0,8,4.84l-1.28-.39a19.86,19.86,0,0,0,9.95,1.5l10.2-1.15.42-6.12.39-5.71c2-4.22.89,3.25,3.53.55-.46-11.65,6.31-15.9,6.67-25.25,9.45-3.87,8-23.17,15.85-30.15l-1.85-.13c-.77-2.87,2-2.35,3-3.86-1.38-.26-2.43,1.86-2.8.12,5.32-19.83,17.81-38.24,27.33-56.85,3.38-6.85-6.8-7.56.86-14.79l2,3.81c2.38-15.76,12.57-28.9,15.72-44,.32,1.14,1.22,1.56.6,2.9,3.48-1.93,5-10.7,3.2-11.56,1.18-2,1.84.24,3.35-.66a4.39,4.39,0,0,0,1.23-2.33,10.94,10.94,0,0,0,.24-1.43c0-.06,0-.15,0-.17l0-.05-.08-.11-.16-.23c-.43-.61-.64-1.42.35-.7a3.82,3.82,0,0,1,.66.87c-.41-.5-.19-.81-.15-1.19s0-1-1-2.32c.66,0,.75-.69.93-1.67s.4-2.09.77-1.66a1.28,1.28,0,0,1,.17.32c-.14-3.37.33-3.49.61-3.57,0,0,.06-.07.12,0a.68.68,0,0,0,.19.19c.13.08.25.06.37-.14a13.1,13.1,0,0,0,.76-3.79,36.56,36.56,0,0,0-.14,5.61,5.76,5.76,0,0,0,.4,2.34c.19.34.48.3.85.08a7,7,0,0,0,1.34-1.17,8.59,8.59,0,0,0-.93,2.45,11.24,11.24,0,0,1-1.29,2.84c.13.19.38.12.87-.22a10.22,10.22,0,0,0,2.22-2.2c-1.05,2-1.36,2.57-1.25,3s.63.49,1.11.82a1.78,1.78,0,0,1,.63.62,1.31,1.31,0,0,1,.19.87c0,.06-.09.47-.19.78a3.9,3.9,0,0,1-.43.93,5.35,5.35,0,0,1-1.82,1.68c.69,2.74,1.28,5.88,1.84,8.78s1.07,5.84,1.54,8.7c.94,5.71,1.7,11.28,2.32,16.76-4.52-.32-.64-12.14-5.37-11.59,2,10.39,6,16.35,5.06,26.71-.58,2.68-2-1.49-2.76-2.39,2,10.39-.1,20.15,2.5,29.38-.42,0-.89-1-1.25-1.95.17,1.83-.6,4.26,1.45,4l-.58-1.77c2.93-3,6.32,7.15,7.9,7.46-5.92-3-1.33,9.18-8.83,4.37.4,1.19,1.4,2.69,2.76,2.39-.37,1.79-1.16,2.37-2.75.58,1.22,6.53,3.36,4.17,3.41,10.1-1,0-1.4-1.2-2.57-1.79a22.79,22.79,0,0,1,2.63,4.72,11.81,11.81,0,0,1,.67,2.84,10.85,10.85,0,0,1,.06,1.63c0,.28,0,.57-.05.87s-.07.84-.1,1.28c-.3-.2-.65-.08-.92-.18a.6.6,0,0,1-.33-.41,2.1,2.1,0,0,1-.1-.47,3.9,3.9,0,0,1,0-.5l.06,1,.08,1.2c.07.79.15,1.56.24,2.32.18,1.5.41,2.92.66,4.26.51,2.69,1.13,5.06,1.67,7.31a47.22,47.22,0,0,1,1.25,6.85,44.19,44.19,0,0,1-.17,9.07,4.89,4.89,0,0,0-2.07,2.14,9.24,9.24,0,0,0-.63,2.92,20.2,20.2,0,0,1-2,8.23,24.58,24.58,0,0,0,2,4.41c.37-1.82.77-3.7,1.2-5.52a7.91,7.91,0,0,0,2.07,4.54,4.59,4.59,0,0,1,.91,1.72,9.76,9.76,0,0,1,.29,3c-.49-.09-1-.1-1.62-.15l2.05,5.5c-.07-1.92-.06-3.94,0-6.07.91.29,1.49-1.67,2-2.94s.66-1.71.64,1.86c-.15-.27-.08.79,0,2.55s.35,4.19.36,6.55h0a3.88,3.88,0,0,1,1.79,1,22.47,22.47,0,0,1,2.51,3.36c.45,1.85-1.33,4-1.05,5.19a1.52,1.52,0,0,1,1.06-.31,5.58,5.58,0,0,1,1.46.3c.28.08.56.18.86.29,0,0,.08,0,.1,0l0-.08.07-.17.14-.34.55-1.36a32.4,32.4,0,0,0,2.21-7.67,50.83,50.83,0,0,0-.72,5.75c.32-1.72.59-3.57,1-5.48.57.15.63.89.26,4.08,1.08-.86,1.07-3.23,1.1-5.11a11.45,11.45,0,0,1,.19-2.43c.15-.64.44-1.18,1-1.18-.22.84-.18,1.57-.65,3.13a20.46,20.46,0,0,0,2.18-2.58,30.43,30.43,0,0,0,2.58-4.28c1.61-6.12,3.15-10.92,5-14.2a7.35,7.35,0,0,1,.5,3.82,24.79,24.79,0,0,1-.91,4.1,29.11,29.11,0,0,0-1,3.91,5.51,5.51,0,0,0,.36,3.39c.73-2.43,1.45-5,2.14-7.53.34-1.28.68-2.56,1-3.84l.49-1.92.25-1,.25-.84,3.76-12.76.87-2.93c.27-1,.61-1.77.91-2.64.62-1.69,1.23-3.31,1.86-4.86s1.27-3,1.95-4.46l.52-1.06.27-.53c.09-.17.15-.26.23-.4.3-.51.62-1,.95-1.49l-1.21,1.33c-2-1.81-.6-3,1.33-4.46s4.3-3,4.46-5.65c-.26,1.19,1.77,2.76,1.42,2.2a33.65,33.65,0,0,0,4.7-8.89c.72-1.7,1.43-3.54,2.2-5.52l1.21-3.07c.44-1,.94-2.12,1.45-3.24l.45,1.76a27.32,27.32,0,0,0,4.62-5.12,55.35,55.35,0,0,1,4.54-5.41c-.38-1.77,1.19-3.5-1.23-3.57a22,22,0,0,0,4.48-2.41,18.45,18.45,0,0,0,3.35-3.11,49,49,0,0,0,4.83-7.43c.71-1.29,1.42-2.59,2.17-3.83a29.21,29.21,0,0,1,2.54-3.45,14.09,14.09,0,0,1,7.2-4.72c-.92,1-1.35,3.06-.61,2.32l5.73-7.56c-2.15-1.12-1.85-.12-4.52,0a8.65,8.65,0,0,1,2.79-6.13c-1,2-.39,2.69.8,2.8a8.61,8.61,0,0,0,2-.13l1.05-.18a3.29,3.29,0,0,1,.86-.09c-.64-.37-.83-1.26-1.39-1.73,1.4.1,1.83,0,2-.39a3.89,3.89,0,0,0-.35-1.71,3.67,3.67,0,0,1-.13-2.27,3,3,0,0,1,2.47-1.78l.14,1.49c.73-1,1.46-2.27,2.39-3.4a5.58,5.58,0,0,1,3.32-2.25,2.26,2.26,0,0,1-.91,2.71,3,3,0,0,0-1.35,2.58,12.44,12.44,0,0,0,2-1.89,15.15,15.15,0,0,1,2.58-2.2,3.71,3.71,0,0,1,2.75-.61,2.57,2.57,0,0,1,1.64,2.34c-.73-.07-1.52-.36-2.39-.45a3.8,3.8,0,0,0-2.51.51,27.17,27.17,0,0,1,1.18,2.5,10.75,10.75,0,0,0,.67,1.36,9.84,9.84,0,0,1,1.25,1.88l-.07-.22a15.57,15.57,0,0,1,.81,4.73c.11-.49.22-1,.3-1.57,1.6-.85,2.7-.65,3.51-.07a5.49,5.49,0,0,1,1.56,2.65c.19.53.31,1.08.49,1.63.08.26.18.58.3.91s.26.66.4,1a11.43,11.43,0,0,0,2.86,4c-2.79-2.61-3.49-2.64-3.82-2.1s-.36,1.73-1.89,1.85c-.47,1.73-.93,4.23-1.9,3.74,1.49,1.16,1.2,2.48,1.11,3.87a5.08,5.08,0,0,0,2,4.78c-.95.31.32,3.18-2.2,2.81,1.21,3.79,1.59-1.12,2.82-.94,4.09,5.62-2.58,14.7,3.06,23.32a26.17,26.17,0,0,0,4.69,8,37,37,0,0,1,4.91,7.15c-.45,1.36-1.43,1.12-2.3.51a8,8,0,0,1-1.16-1c-.28-.33-.47-.58-.47-.58a13.76,13.76,0,0,0,3,10.42c-1.06-.44-1.48.54-2.1,2,.66,1.44,1.73,1.58,2.59,1.92a2.26,2.26,0,0,1,1.13.82,4.92,4.92,0,0,1,.63,2.17,11.22,11.22,0,0,1-4.85-1.32,31.94,31.94,0,0,0,4,4.42l2.21,2c.7.68,1.42,1.36,2.13,2.06-.45.88-1.3.73-2.27.25s-2-1.31-2.79-1.67a39.91,39.91,0,0,0,5.22,5.84,14.37,14.37,0,0,0,2.9,2,4.06,4.06,0,0,0,2.56.42c-.33-.93-.73-1.79-1-2.73,1,1.14-1.33,2.09-2.43,1.41-2-.91-2.64-2.2-2.58-3.32a3.68,3.68,0,0,1,1-2.38c.66.65,1.3,1.3,2,1.93,1.63-2.77.06-4.69-2.09-6.88-1.13-1.06-2.28-2.23-3.41-3.41a11.91,11.91,0,0,1-2.38-3.75c1.58.19,3.14.35,4.69.47-1.76-1.16-3.43-2.43-5.12-3.77a3.22,3.22,0,0,1,1.73-1.71,1.93,1.93,0,0,1,2.3,1c.34-2-.18-2.68-.74-3.29s-1.08-1.16-.35-3c.26-.42.49-.32.73-.06-.68-1-1.43-2-2.07-3.11,1,.47,2.71-1.22,2.64,1a9.36,9.36,0,0,0-.38-4.23,16.6,16.6,0,0,0-1.44-3.2c-1-1.91-1.83-3.4-.43-4.8l.32.49c-1.27-4.26-2-4.41-3.06-4.22s-2.28.7-4.45-2.47l7-5.29-3.13-.57c0-.93.06-2.78,1.31-2.56-2.42-3.23-1.26.72-3.42-1.08,1.15-2.36.52-5.39.14-8s-.48-4.85,1.87-5.69c-2.51-1.28-1.21,4.5-3.44,0,2.48-1,2.06-2.41,1.21-4s-2.13-3.48-1.4-5.75c2.91.68,2.29,4.94,3.82.3a3.23,3.23,0,0,1-2.24-2,7.4,7.4,0,0,1-.29-3.14c.05-.58.11-1.17.14-1.76l.05-.9c0-.36,0-.73,0-1.09a8.23,8.23,0,0,0-1-3.8c-1.68.76-2.65-1.26-4-3.95a25.26,25.26,0,0,0-2.32-4.36A9.64,9.64,0,0,0,330,83c.2-.21-.23-1-1.3-1.76a9.6,9.6,0,0,0-4.86-1.71,16.65,16.65,0,0,0-6.31.87A40.86,40.86,0,0,0,312,82.68l0-.73c0,2.23-1.24,4.25-2.86,6.3q-.61.77-1.29,1.53l-1.32,1.45c-.74.83-1.48,1.67-2.1,2.5-1.41-1.69-1.47-2.82-.52-5.06L301,91.34c.17,1.49-.24,2.79-1.7,4.86l-1.26-2.63a43.94,43.94,0,0,0-4.55,6.68,18.76,18.76,0,0,1-6.18,6.62c.83,1,3.05,1.22,4.61,2s2.47,2.06.86,5.17c-1.2-.72-3.14-2.09-2.38-3.84-.26.57-.52,2.36-1.74,2.87l.06-3.63c-2.72,1.59.44,2.47-1.28,4.13-1.46-1.33-2.22.41-3.18-.87.25-.59,2-1,2-2.25-2,1.81-5.07,3.54-6.93,3.41a2.23,2.23,0,0,1,1,3.4c-3.1,4.09-2.94-.13-5.62,1.59.3,1.83-2.9,3.52-.6,5.41-.91,1.19-2.17.58-3.16.56-.28,1.47-2.07,4-3.25,6.14s-1.64,3.86.48,3.53l.56-.43c0,.13-.11.26-.14.42h0c-1.26,4.42-4.22,7.79-7.12,11.26-1.47,1.71-3,3.39-4.36,5.17a27.3,27.3,0,0,0-3.32,5.67l-.84-.51c-.41,1.25-1,2.49-1.51,3.77l-1.62,3.79a34,34,0,0,0-1.31,3.62,12.26,12.26,0,0,0-.38,1.71,7.81,7.81,0,0,0,0,1.45,2.13,2.13,0,0,1-1.7,1,1.86,1.86,0,0,1-1.72-.88c-.31,1.43-.34,2.53-.67,3.53a4.93,4.93,0,0,1-2.15,2.74c.1-2.22-.24-2.38-.34-2.47s-.05.06.71-1.25c-.91,1-1.57,1-2,1.49s-.62,1.54-.83,5.26c-.19-2.57-.68-3.33-1-3.4s-.69.77-.85,2a6.56,6.56,0,0,0,1.1,1.75,10.34,10.34,0,0,1-1.66,3.81c0-2.7,0-5.32-.07-7.85-.2-.56-.34-.83-.46-.82s-.46,1.31-.78,3.37-.66,4.86-1.08,7.41a33.55,33.55,0,0,1-1.12,5.32c-.23.5-.28-.75.19-5.69a40.16,40.16,0,0,0-.67,6.79,41.47,41.47,0,0,1-.63,7.35c-.37.72-.24-2.65.12-6.67,0-.52.09-1,.13-1.5,0-.26.06-.49.07-.77s0-.63,0-.94c0-1.24,0-2.36,0-3.34a28.34,28.34,0,0,0,0-3.33c0-2.15-.23-2.13-.66-1.13s-1,3-1.7,4.94A37.94,37.94,0,0,1,228.6,192c-.49.91-.78.76-.56-1.15-.54,2.06-1.53,5.79-2.57,9s-2.15,5.72-2.75,5.09a53.19,53.19,0,0,1,2.59-11.13,43.29,43.29,0,0,1,3-7.57,8.53,8.53,0,0,1-.63,2.76,2.71,2.71,0,0,0,.78-1.17,34.38,34.38,0,0,0,1.36-4.44l-1.14,3.18c.57-2.33.81-4.06,1.15-5.72a23.48,23.48,0,0,1,1.71-5.3,12.06,12.06,0,0,0-1.43,2.9,29.39,29.39,0,0,0-1,3.88c.81-3.53.81-4.37.73-5.28a9.63,9.63,0,0,1,.33-3.89c-.63,1.37-2,4.15-2,3.62.34-1.76.38-2.45.22-2.72s-.49,0-.89.28c-.8.62-1.85,1.72-2.14-.18a8,8,0,0,1,2.6-3.32,1.66,1.66,0,0,0,.6-.82c0-.29-.09-.57-.48-1.12a3.22,3.22,0,0,1,2.13-2c.75-.23,1.47-.32,1.95-.48a.62.62,0,0,1-.73-.74,2.25,2.25,0,0,1,.65-1.28,3,3,0,0,1,.57-.51,2.61,2.61,0,0,1,.3-.2l.15-.09.07,0,0,0,0-.1a13,13,0,0,0,.75-2.75l.51,1.49.25.75.12.37.07.19c0,.05,0,0,.06,0l-.06,0-.05-.17-.09-.32q-.09-.33-.15-.63c-.08-.42-.14-.81-.18-1.2-.08-.78-.08-1.52-.09-2.27l-2.35,1.75c.39-1.77.37-3.26,1.36-3.25-1.58-1.79-3.92,1.46-6.11-2.11,1.17-2.37-1.4-7.14,1.73-8-.95,7.41,3.15-.87,3.76,5.38a8.52,8.52,0,0,1,0-4.45c.34-.27.65.24.84.72,2.7-7.12-3.61-3.19-3.65-10.53,1.79.91,3.34-1.75,2.94-2.94,0,3-2.94,1.46-4.34-1.23,1.31-4.72-1.11-5.09-1-7.56l-.6,2.82c-1.79-.92-1.6-3.27-2.21-6.54,1.38-.3,1,3,1.59,1.78-3.18-3.59,3.1-8.27.92-13.31,1.16-2.37,3.33-.28,4.11-2.36-2.39-5.65,2.34-6.19.34-12.14-2.35,1.76-1.77,2-4.16-2.12l1.84,9.8-3.57-6.25c0,3,1.59,6.23,1.22,8-2-3-1.4-2.67-3.35-1.22,3.51-4.11-2.22-8,.13-12.74l5.91.05c2.52-7.09-3.23-12.48-1.89-21.66l-1,3c-2.36-1.19-.41-5.65-1.41-8.6,2,.25,2.66-1.62,3.87-2.9-1.46.15,0-6.65-3.94-7.52.85-1.43,1.66-2.89,2.46-4.38,0-.24,0-.48,0-.72s0-.65,0-1c0-.63-.09-1.24-.17-1.8a14.07,14.07,0,0,0-3.21-7.26l-1.34-1.61c-.22-.26-.42-.53-.62-.81a8.67,8.67,0,0,1-.62-.84,9.26,9.26,0,0,1-1-2,16.61,16.61,0,0,1-.81-2.77c1.2.37,1.85-.62,2.52-1.21a1,1,0,0,1,1.17-.23,2.58,2.58,0,0,1,.83.71,12.11,12.11,0,0,1,1,1.67c-.22-.86-.39-1.74-.59-2.51s-.45-1.42-.67-2c-.44-1.09-.87-1.61-1.4-1a3.51,3.51,0,0,0-.72-2.18,13,13,0,0,0-1.8-2.19,16.47,16.47,0,0,1-1.85-2.2,5.4,5.4,0,0,1-1-2.69c-.52-.07-1.12.43-1.74.58s-1.25-.06-2.12-1.31a1.33,1.33,0,0,1,.38-1.07c-.19.53-1.05,0-1.72-.11a.63.63,0,0,0-.78.35,4.2,4.2,0,0,0,0,2.07,15.85,15.85,0,0,0-7.11-10c-.88-.56-1.76-1.09-2.65-1.61a17.91,17.91,0,0,0-1.54,1.25,21.83,21.83,0,0,1-2.94,2.32c-1.53,2.89-3,4.73-4.73,4.87-1.48,3.91-3,8-4.53,11.81s-3,7.35-4.24,10.31c-.31-.73-.8-.62-.1-1.63a8.93,8.93,0,0,0-2,4.51,4.94,4.94,0,0,0,0,.86c0,.14,0,.27.05.4a2.83,2.83,0,0,0,.11.31c.16.4.37.8.57,1.19.8,1.59,1.53,3.27-.94,6.21-4.47,2.11.07-4.29-2-2.65-3.17-.88-3.9,1.25-4.52,4s-1.11,6-3.86,7.53l.14-1.26c-3.58,2.58-1.56,9.49-4.47,15,0,0-.41-.51-.89-.43,1.3,5.23-.89,13-2.41,18.89-1.59-2.71-.16-3-3-3-.72,2.61,4.12.92,2.67,6.11-2,1.05-4.59,4.13-7.33,3.52l1.84-4.71c-4.3,1-2.44,6.07-4.05,8.28l-1.3-.92c-2.57,7.33,1,9-2.42,16.52l1.42-.34c1.86,5.68-3.5,2.68-2.54,8l-4.17-.23c-.24,3.15-.45,11.16-1.74,16.43-1.6-3.92-.61-10.31-.74-14.58-1.15,2.74-3.56,9.47-2.31,11.64.09-1.25-.25-3,.76-3.88,1.51,4.54,1.16,9.56-1.1,15-6.75-3.8-7.44,13.65-14.52,15.52-1.13,10.81-8.58,19-12.39,30.69,7.09-2-1.07,3.41,4.93,4.81-.61,2.81-1.08,3.79-1.54,3.89l-6.37,6.86c-2.37,1.32-.35-3-1.73-3.23-2.56,5.72-3.33,1.59-6.26,4.93,2.35-.05,2.21,3.1.23,6.18l4.35-3.77c.11,9.29-7.36,5.39-7.26,14.76l-.89-3.26a37.25,37.25,0,0,1-1.3,5.58l13.87-7a6.3,6.3,0,0,1-.1,1.28,4.79,4.79,0,0,1-.17,1,2.14,2.14,0,0,1-.08.32l-.09.28a1.22,1.22,0,0,1-.07.17l0,.08h0a7,7,0,0,1,1.83-1.72,5.23,5.23,0,0,1,.56-.4l.61-.37.34-.21.16-.08h0a.19.19,0,0,1-.14.05,1.91,1.91,0,0,1-.79-.07c-.62-.15-1.4-.5-2.34-.75.61-.65,2.17-1.37,2.78-.51-.08-1.24-.45-3-.75-5.1a44,44,0,0,1-.57-6.56,33.77,33.77,0,0,1,.33-3.93c.18-1.4.4-2.76.68-4a24.18,24.18,0,0,1,1-3.64,14.27,14.27,0,0,1,1.52-3.14l1.25,1.17c.07-2.11-1.89-4.13.18-6.28.57.27,1.26,1.14,1.56.24-.21-1.18-1.37-5.9.06-8.37l1.16,2.63a21.67,21.67,0,0,0,1.68-7.06,30.64,30.64,0,0,0-.42-6.34c-.6-4.08-1.8-8-1.55-12.48,4.4.76,7-7.41,8.33-11.51l.6.23a52.79,52.79,0,0,0,.71-8.8,65,65,0,0,0-.64-8.12c-.18-1.32-.36-2.64-.55-4s-.43-2.64-.65-4c-.43-2.68-.77-5.42-1-8.32,2.57-3.42,3.44-9.48,3.82-16.11.25-3.32.29-6.77.52-10.12a69.63,69.63,0,0,1,1.13-9.51c-.78,1.79-3.44-.24-3.91-2.26.89-2.74-3.3-7.35.77-7.07l0,1a4.83,4.83,0,0,0,2-2.19,6,6,0,0,0,.28-.7c0-.12.07-.24.11-.37l0-.18,0-.34c.1-.89.15-1.83.17-2.81.06-4-.59-8.3-.82-12.16q-2.58.81-5.13,1.83A43,43,0,0,0,126.49,46a8.79,8.79,0,0,0,0-1.94q-.09-.91-.21-1.8c-.16-1.2-.37-2.38-.62-3.54-.5-2.31-1.14-4.54-1.81-6.66l-.25-.78c-.1-.24-.22-.4-.32-.6-.22-.39-.44-.76-.67-1.11a22.28,22.28,0,0,0-1.44-2,37.74,37.74,0,0,0-6.58-6.32c-2.38-1.88-5-3.3-6.79-5.23-.91.23-1.84.4-2.78.59a11.51,11.51,0,0,0-1.4.36,10.93,10.93,0,0,0-1.37.44,10.72,10.72,0,0,0-4.55,3l-.09-3.19a23.47,23.47,0,0,0-4.73,2.16,20.84,20.84,0,0,0-3.72,2.84,25.15,25.15,0,0,0-1.77,1.89c-.29.35-.58.73-.88,1.12l-.22.29L86,26c-.14.29-.28.58-.43.87-1.15,2.37-2.42,5.07-3.84,8.25,0-1.55,0-3.14.06-4.76a13.16,13.16,0,0,0-1.55,5.73,22.78,22.78,0,0,0,0,3.09c0,.52.09,1,.15,1.54s.19,1.16.28,1.73c.4,2.28.86,4.41,1.12,6.33a13.38,13.38,0,0,1-.11,5.3,26.07,26.07,0,0,0-4.27-.46C77,55.42,76.36,57.19,75.75,59l-.93,2.69-.65,1.59c-.89,2.11-1.83,4.22-2.66,6.34C69.87,73.85,68.7,78.23,69.34,83a2.19,2.19,0,0,1-1.43-2.34c-.63,2-2.41,5.76-3.31,9s-.89,5.95,2.1,6c-1.83-.48-2.54,1.71-2.8,4.64a77.26,77.26,0,0,0,.05,9.16l-2.44-1.54c2.21,4.92,3.07,5.32,2.29,11-.76,1.16-2.48.42-1.26-1-2.74,3.79,1.4,4.13-1.75,8.79l-1-2.49c-1.7,4.25-.64,4.23.43,7.31,0,3.09-3.71,7.92-6.3,7.6a5.18,5.18,0,0,1,.44,6.43c-1,0-1.19-1.17-1.27-1.73a14.15,14.15,0,0,0-2.24,4.54,25.32,25.32,0,0,0-.87,4.08,18.35,18.35,0,0,1-.84,3.63,6.26,6.26,0,0,1-2.34,3,2.08,2.08,0,0,0-1.89,0c1.44-2.61,2.51-5.1,3.4-6.78s1.39-2.65,1.39-2.41c-2.36-1-4.75,3.11-6.41-1.78.09,2.1.44,5.11.31,8.05,0,.72-.13,1.44-.24,2.14a3.77,3.77,0,0,1,.11,1,1.45,1.45,0,0,1-.69,1.34,3,3,0,0,1-.74-.5l-.13-.38c-.34.11-.32.56-.22,1.27-.53.06-.84,0-1.08.3-.59-1.16-.87-1.25-1.06-1s-.36.93-.52,1.09a26.64,26.64,0,0,1,.38,4.41,6,6,0,0,0,.73,3.14c-.16-.16,0-.75.45-1.6a2.72,2.72,0,0,0,.18-.85c0,.12,0,.27,0,.43.4-.79.85-1.76,1.41-2.79a11,11,0,0,1,0,3.4c-.19.9-.6,1.47-1.27.93a65,65,0,0,1-.1,9.13,38.58,38.58,0,0,1-2.8-5.21,14.8,14.8,0,0,1-.72-6.25,29,29,0,0,1-3.67,7.62,56.45,56.45,0,0,1-3.81,5.09c-1.61,2-3.55,4.27-5.82,7.33-1,.39-.67-1.05,0-2.8s1.62-3.9,2.1-5.18c.95-.74,1.33.07,2.52-1.8a1.71,1.71,0,0,1-1.9.31,7,7,0,0,1-1.14-1c-.7-.51-1.51-.43-4.07,2.76a17.63,17.63,0,0,1,2-3.63,12.81,12.81,0,0,1,1.38-1.59,3.14,3.14,0,0,0,1.13-2.63c.47-.45.95-.93,1.43-1.43,2.44-4.26,2.85-5.31,2.53-6.09s-1.37-1.08-2.21-2.25a8.48,8.48,0,0,1-1.39-5.54c0-.3,0-.62.09-.93l.07-.47.11-.54a22.9,22.9,0,0,1,.72-2.66A23.88,23.88,0,0,1,30,145.22c-.63,1.08-.93,1.61-1.58,1.76,3-9.12,3.35-19,3.52-28.69s.22-19.34,2.87-28.7c1-5.34-1.31-5.91-3.19-9.1l3-1.22-3.66-5.49c-.77-2.08-.83-4.16-1.33-6.67a14.56,14.56,0,0,0-1.39-3.94A10.71,10.71,0,0,0,25,59.36a11.42,11.42,0,0,0-5.39-2.13,12.5,12.5,0,0,0-5.56.57,11.7,11.7,0,0,0-7.22,6.93,25.07,25.07,0,0,1,2.62.16A13.65,13.65,0,0,0,6.9,68a23.88,23.88,0,0,0-2,4.09c-1,2.66-1.41,4.87-2.52,4.34.16.27.62.72.94,1.28a2,2,0,0,1,0,2.12L1.7,80a50.92,50.92,0,0,0,3.82,9c0,3.39-1.62,3.32-3,3.67A2.52,2.52,0,0,0,.65,93.81,7.28,7.28,0,0,0,0,97.43a19.17,19.17,0,0,0,2.28,4c.46.69.83,1.36,1.2,1.87s.71.86,1.05.71a5.37,5.37,0,0,1,1.3-1.47,2.89,2.89,0,0,1,2.07-.74,10.3,10.3,0,0,1,0,1.57A10.56,10.56,0,0,1,7.8,105a30.78,30.78,0,0,1,3,2,10.53,10.53,0,0,0,3,1.6,4.06,4.06,0,0,0,3.69-.78,12.71,12.71,0,0,0,4.13-6.09A27.55,27.55,0,0,0,18.67,94c.69-.83,1.33-1.6,2-2.43a52.88,52.88,0,0,1,.64,6.12,6.68,6.68,0,0,0,.8-2.6A4.91,4.91,0,0,0,21.75,93a8.56,8.56,0,0,0-1-1.66c-.4-.51-.83-1-1.23-1.45a4.33,4.33,0,0,0,2-2.92c-1.78-1.62-3.52-3-5.2-4.42.87-.39,1.83,0,2.65.1s1.49-.17,1.82-1.62c-1.1-.79-2.08-.3-3,.11s-1.72.68-2.54-1a4.36,4.36,0,0,1,.38-.37,2.5,2.5,0,0,1,.37-.18c.25-.1.47-.15.69-.23.42-.15.8-.22,1-.31.49-.18.45-.3-.28-1.14a4.27,4.27,0,0,1,2.35,1,1.78,1.78,0,0,1-.62-1.72,3.24,3.24,0,0,0-.1-1,3.72,3.72,0,0,0-.58-1.4,2.9,2.9,0,0,0,2.29-.43h.05a1.52,1.52,0,0,1-.12-.29c-.06-.15-.11-.3-.16-.44a11,11,0,0,1-.39-1.37c0-.18-.06-.36-.08-.49s0-.21,0-.29,0-.23,0-.2l0-.39c0-.16,0-.36,0-.46.05-.35.1-.42,0-.27a5.45,5.45,0,0,1-1,1.32,5.66,5.66,0,0,1-.54.47l0,0h0l.84-.7h0l0,0,0,0-.08.06-.29.19c-.1,0-.28.17-.41.23a3.45,3.45,0,0,0,.34-.19l.17-.1.16-.11s-.07.06-.26.17-.31.19-.51.28-.29.15-.44.22l-.6.26c-.42.16-1,.4-1.77.61l-.46.14h0a.17.17,0,0,0,0,.07,5.67,5.67,0,0,1-.36,2.13,2,2,0,0,1-2.53,1.45C17,80,14.58,89,17.09,95.08c-.37-.34-1.13-1-.89-1.55-.4,3.41-1.91,4.37-2.85,6.53,3.94.54,4.61,5.9,6.9,8.93-2,2-3.13,1.3-4.19.25s-2.14-2.45-4-1.89c3.22-.06,2.75,7.41,5.48,6.16-2.53,3.06-1.32,2.69-4.68,4.1,4.83.93.62,3,3.36,5.93-2.85,4.41-4.67.75-3.7,6-.88,1.12-1.62.5-2.15-.38A10.9,10.9,0,0,1,9.54,127.08Zm46.51,45.43,0,0L54.41,176C54.75,175.23,55.22,174.24,56.05,172.51ZM61.79,161c-.66,1.14-1.3,2.64-2.1,4.18-1-.09-1.76-.9-1.22-1.83C58.81,164.11,60.38,162.07,61.79,161Zm-22,.25c0-.88.35-.28.67.35a7.9,7.9,0,0,0-.31,1.22c0,.13.08.39.1.53C40.1,162.51,39.93,161.77,39.82,161.2Z"/><path class="cls-1" d="M40.56,167.39a2.77,2.77,0,0,1-.12.6,2,2,0,0,0,.47.52c0-.53-.08-1-.13-1.54Z"/><path class="cls-1" d="M268.18,134.48l-.18.15a1.31,1.31,0,0,1,.6-.16A1.51,1.51,0,0,1,268.18,134.48Z"/><path class="cls-1" d="M102.72,60.84l.3-1.77c-.16.48-.31,1-.45,1.48Z"/><path class="cls-1" d="M313.15,97.5a1.41,1.41,0,0,0,.82.21A1.48,1.48,0,0,0,313.15,97.5Z"/><path class="cls-1" d="M326.51,94.19a14.09,14.09,0,0,1,.4,2.81A7,7,0,0,0,326.51,94.19Z"/><path class="cls-1" d="M329.7,106.94A4.41,4.41,0,0,0,331,107s0,0,0,0Z"/><path class="cls-1" d="M208.81,128.21a2.94,2.94,0,0,0-.14-.74C208.1,125.75,208.33,126.92,208.81,128.21Z"/><path class="cls-1" d="M220.42,224.09a3,3,0,0,1-1.31-.62C219.43,225.06,219.88,226.08,220.42,224.09Z"/><path class="cls-1" d="M203.57,47.64l0-.07a.34.34,0,0,1,0-.08Z"/><path class="cls-1" d="M218.27,220c0,2.16.37,3,.84,3.46C218.83,222.16,218.69,220.45,218.27,220Z"/><path class="cls-1" d="M349.34,190.3l.55.94a.59.59,0,0,1,.43-.17Z"/><path class="cls-1" d="M350.32,191.07c.31.26.66.49,1,.73C351,191.38,350.66,191,350.32,191.07Z"/><path class="cls-1" d="M353.49,193.26l-2.16-1.46C351.88,192.47,352.52,193.36,353.49,193.26Z"/><path class="cls-1" d="M338.45,164.27l-1.06,0A1.75,1.75,0,0,0,338.45,164.27Z"/><path class="cls-1" d="M336.22,156.26a25.43,25.43,0,0,1-.3,3.75,7.64,7.64,0,0,0,.62,4.2l.85,0c-.9-.43-.71-2.11-.54-3.8S337.25,157,336.22,156.26Z"/><path class="cls-1" d="M344.7,122.24c0,2.2-.07,4.39-.11,6.57,1-1.23,2.26-2.88,2.82,0C349.77,120.32,345.2,130.81,344.7,122.24Z"/><path class="cls-1" d="M342.67,101.45c1.38,3.48,1.52-.42,2.16-.39C343.26,99,342.86,98.53,342.67,101.45Z"/><path class="cls-1" d="M243.58,170.67c-.6-.72-1.19-1.42-1.8-2.11-.15.7,0,.93.36,1.11A3.52,3.52,0,0,1,243.58,170.67Z"/><path class="cls-1" d="M237.35,221.87A2.89,2.89,0,0,0,239,222q.22-4.38.37-8.48C238.69,216.11,238,219,237.35,221.87Z"/><polygon class="cls-1" points="234.9 178.93 235.11 177.43 234.4 181.79 234.9 178.93"/><path class="cls-1" d="M195.34,2c.46,1.5.89,3,1.3,4.63a7.71,7.71,0,0,0,.2-.86c.58-1.71.45-5.22-.69-5.8A9.59,9.59,0,0,0,195.34,2Z"/><path class="cls-1" d="M148.67,114.21c-1.89.46-4,2.81-3.24,5.09C146.54,117.19,148.58,115.48,148.67,114.21Z"/><path class="cls-1" d="M128,43.18a2.77,2.77,0,0,1,.43.52l.32.7.63,1.46-.34-1.61a4.68,4.68,0,0,0-.43-1.45l-1.15-2.32Z"/></g></g></svg>
